<svg width="60" height="40" viewBox="0 0 60 40" fill="none" xmlns="http://www.w3.org/2000/svg">
<path d="M19.9503 3.33325L24.0674 7.54952L13.7003 17.9166L9.58325 13.7995L19.9503 3.33325Z" fill="#F0B90B" stroke="#F0B90B"/>
<path d="M26.2003 9.58325L30.3174 13.7995L13.7003 30.4166L9.58325 26.2995L26.2003 9.58325Z" fill="#F0B90B" stroke="#F0B90B"/>
<path d="M7.45032 15.8333L11.5674 20.0495L7.45032 24.1666L3.33325 20.0495L7.45032 15.8333Z" fill="#F0B90B" stroke="#F0B90B"/>
<path d="M32.4503 15.8333L36.5674 20.0495L19.9503 36.6666L15.8333 32.5495L32.4503 15.8333Z" fill="#F0B90B" stroke="#F0B90B"/>
<path d="M56.6666 19.9999C56.6666 29.2049 49.2049 36.6666 39.9999 36.6666C30.7953 36.6666 23.3333 29.2049 23.3333 19.9999C23.3333 10.7951 30.7953 3.33325 39.9999 3.33325C49.2049 3.33325 56.6666 10.7951 56.6666 19.9999Z" fill="#1BA27A"/>
<path d="M47.821 11.7375H32.0393V15.5475H38.0251V21.1475H41.8351V15.5475H47.821V11.7375Z" fill="white"/>
<path d="M39.9683 21.7442C35.0166 21.7442 31.0021 20.9605 31.0021 19.9937C31.0021 19.027 35.0165 18.2432 39.9683 18.2432C44.92 18.2432 48.9343 19.027 48.9343 19.9937C48.9343 20.9605 44.92 21.7442 39.9683 21.7442ZM50.0358 20.2855C50.0358 19.0388 45.5285 18.0283 39.9683 18.0283C34.4083 18.0283 29.9006 19.0388 29.9006 20.2855C29.9006 21.3833 33.3958 22.298 38.0273 22.5007V30.5397H41.837V22.5038C46.5041 22.3075 50.0358 21.389 50.0358 20.2855Z" fill="white"/>
</svg>
