<svg width="60" height="40" viewBox="0 0 60 40" fill="none" xmlns="http://www.w3.org/2000/svg">
<path d="M20.2395 3.38295V3.39952C20.256 3.48236 20.256 3.58176 20.256 3.68116V15.6262C20.2395 15.6924 20.1898 15.709 20.1401 15.7421C19.7921 15.9078 19.4608 16.0569 19.1129 16.206C18.6324 16.4214 18.1354 16.6533 17.655 16.8687L15.9154 17.6639C15.4349 17.8793 14.9545 18.0947 14.4906 18.3101C13.9273 18.5751 13.3475 18.8236 12.7842 19.0887C12.3037 19.3041 11.8233 19.536 11.3263 19.7514C10.9287 19.9336 10.531 20.0993 10.15 20.2816C10.1169 20.2981 10.0837 20.3147 10.0506 20.3147C10.034 20.3147 10.034 20.3147 10.0175 20.2981L10.4648 19.5526C11.3263 18.1278 12.1712 16.7196 13.0327 15.2948C13.9439 13.7706 14.8717 12.2464 15.7829 10.7223C16.6278 9.31403 17.4893 7.90582 18.3342 6.4976C18.9472 5.47043 19.5768 4.44326 20.1898 3.41609C20.2063 3.38295 20.2229 3.36639 20.2229 3.33325H20.2395C20.2229 3.34982 20.2395 3.36639 20.2395 3.38295Z" fill="#8A92B2"/>
<path d="M30.4106 20.2982L30.4272 20.3148L27.9918 21.7561L20.3377 26.279C20.3046 26.2956 20.2715 26.3121 20.2549 26.3287C20.2052 26.3287 20.2052 26.279 20.2052 26.2624V26.1133V15.8748C20.2052 15.8251 20.2052 15.7588 20.2218 15.7091C20.2383 15.6428 20.288 15.6594 20.3377 15.676C20.5531 15.7754 20.7851 15.8748 21.0004 15.9742C21.6466 16.2724 22.2927 16.5706 22.9388 16.8522C23.5021 17.1007 24.0488 17.3658 24.6121 17.6143C25.1754 17.8628 25.7387 18.1279 26.302 18.3764C26.7824 18.5918 27.2794 18.8237 27.7599 19.0391C28.2403 19.2545 28.7373 19.4864 29.2178 19.7018C29.5988 19.8675 29.9799 20.0497 30.3609 20.2154C30.3609 20.2651 30.3775 20.2816 30.4106 20.2982Z" fill="#454A75"/>
<path d="M20.2384 36.6168C20.2384 36.6334 20.2218 36.65 20.2218 36.6665H20.2052C20.2052 36.6334 20.1721 36.6168 20.1555 36.5837C19.1284 35.1423 18.1012 33.6844 17.074 32.2431C16.0303 30.7686 14.97 29.2775 13.9262 27.803C12.9156 26.3782 11.8885 24.9369 10.8779 23.5121C10.6128 23.1311 10.3477 22.7666 10.0826 22.3855C10.0661 22.3524 10.0495 22.3358 10.0164 22.2861C10.0661 22.2861 10.0992 22.3193 10.1158 22.3358C11.5571 23.1808 12.9819 24.0257 14.4232 24.8706C16.08 25.8481 17.7201 26.8256 19.3769 27.803L20.2218 28.3C20.2549 28.3332 20.2549 28.3663 20.2549 28.3995V36.3849C20.2549 36.4677 20.2549 36.5505 20.2384 36.6168Z" fill="#8A92B2"/>
<path d="M10 20.3311V20.3146C10.5302 20.0826 11.0437 19.8341 11.5739 19.6022C12.2531 19.2874 12.9324 18.9892 13.6117 18.6744C14.1252 18.4425 14.6554 18.194 15.169 17.962C15.9311 17.6141 16.6766 17.2828 17.4387 16.9349C17.9523 16.7029 18.4659 16.471 18.996 16.2225C19.3605 16.0568 19.7415 15.8911 20.106 15.7254C20.1392 15.7089 20.1889 15.6923 20.2054 15.6592C20.222 15.6592 20.222 15.6757 20.2054 15.6923V26.2125C20.2054 26.2622 20.1889 26.3119 20.222 26.3451C20.1889 26.3948 20.1557 26.3451 20.1392 26.3285C19.9901 26.2457 19.841 26.1628 19.6918 26.0634C16.4944 24.1748 13.2803 22.2695 10.0828 20.3809C10.0663 20.3643 10.0331 20.3477 10 20.3311Z" fill="#62688F"/>
<path d="M30.3775 22.2861H30.3941C30.3941 22.3193 30.361 22.3524 30.3444 22.3855C27.296 26.6765 24.2476 30.9839 21.1993 35.2749C20.8845 35.7222 20.5531 36.1695 20.2384 36.6168C20.2218 36.6002 20.2218 36.5837 20.2218 36.5671V36.4677V28.4326V28.2835C20.9176 27.8693 21.5969 27.4717 22.2927 27.0575C24.9766 25.467 27.6605 23.8932 30.3278 22.3027C30.3444 22.3193 30.361 22.3027 30.3775 22.2861Z" fill="#62688F"/>
<path d="M20.222 15.6923V15.6592V15.5598V3.53195C20.222 3.48225 20.2054 3.44912 20.2385 3.39941C23.6017 8.98258 26.9649 14.5492 30.3114 20.1323C30.3446 20.182 30.3943 20.2483 30.4108 20.3146C30.1789 20.2318 29.9635 20.1158 29.7482 20.0164C29.4831 19.9004 29.2014 19.7679 28.9364 19.6519C28.7707 19.5691 28.5884 19.5028 28.4228 19.42C28.1411 19.2874 27.8595 19.1714 27.5778 19.0389C27.4122 18.9726 27.2465 18.8898 27.0808 18.807L25.9874 18.3099C25.8051 18.2271 25.6229 18.1443 25.4241 18.0614L24.6289 17.7135C24.4632 17.6473 24.2975 17.5644 24.1319 17.4816L23.0384 16.9846C22.8562 16.9017 22.6739 16.8189 22.4751 16.7361L21.6799 16.3881C21.4977 16.3053 21.332 16.2225 21.1497 16.1396C20.835 15.9905 20.5202 15.8414 20.1888 15.7089C20.2385 15.6923 20.222 15.6923 20.222 15.6923Z" fill="#62688F"/>
<path fill-rule="evenodd" clip-rule="evenodd" d="M40.0001 3.33325C49.205 3.33325 56.6668 10.795 56.6668 19.9999C56.6668 29.2041 49.205 36.6666 40.0001 36.6666C30.7951 36.6666 23.3334 29.2041 23.3334 19.9999C23.3334 10.795 30.7951 3.33325 40.0001 3.33325Z" fill="#2775CA"/>
<path fill-rule="evenodd" clip-rule="evenodd" d="M36.8772 31.5877C36.8772 31.9798 36.5702 32.2025 36.191 32.0841C31.1518 30.4766 27.4982 25.7514 27.4982 20.176C27.4982 14.6008 31.1518 9.8754 36.191 8.26782C36.5702 8.15021 36.8772 8.37218 36.8772 8.76422V9.73203C36.8772 9.99301 36.6749 10.3002 36.4262 10.3852C32.4393 11.8493 29.5832 15.6794 29.5832 20.1694C29.5832 24.6593 32.4393 28.4902 36.4262 29.9535C36.6749 30.0451 36.8772 30.3455 36.8772 30.6074V31.5877Z" fill="white"/>
<path fill-rule="evenodd" clip-rule="evenodd" d="M41.039 27.9864C41.039 28.2743 40.8038 28.5095 40.5163 28.5095H39.4769C39.1894 28.5095 38.9542 28.2743 38.9542 27.9864V26.3396C36.6795 26.0326 35.5687 24.7578 35.268 23.026C35.2155 22.7314 35.4507 22.4636 35.7515 22.4636H36.9411C37.1894 22.4636 37.3987 22.6403 37.4509 22.8883C37.6733 23.921 38.268 24.7119 40.0913 24.7119C41.4377 24.7119 42.3922 23.9602 42.3922 22.8366C42.3922 21.7119 41.8299 21.2873 39.856 20.9602C36.9411 20.5682 35.5621 19.6856 35.5621 17.3981C35.5621 15.6335 36.8956 14.2612 38.9608 13.9668V12.3525C38.9608 12.0648 39.1962 11.8293 39.4835 11.8293H40.5229C40.8104 11.8293 41.0456 12.0648 41.0456 12.3525V14.0127C42.7254 14.3138 43.7907 15.2674 44.1373 16.8491C44.2025 17.1502 43.9672 17.4307 43.6602 17.4307H42.5619C42.3267 17.4307 42.1307 17.2737 42.0589 17.0451C41.7648 16.039 41.0456 15.6078 39.7971 15.6078C38.4182 15.6078 37.7057 16.2742 37.7057 17.2087C37.7057 18.1956 38.1112 18.692 40.229 18.9998C43.0913 19.3919 44.5687 20.2087 44.5687 22.6472C44.5687 24.4966 43.196 25.9934 41.0456 26.3396V27.9864H41.039Z" fill="white"/>
<path fill-rule="evenodd" clip-rule="evenodd" d="M43.8108 32.0842C43.432 32.2026 43.1246 31.9799 43.1246 31.5878V30.6208C43.1246 30.3331 43.3011 30.0653 43.5756 29.9668C47.5625 28.5028 50.4186 24.6727 50.4186 20.1827C50.4186 15.6927 47.5625 11.8626 43.5756 10.3986C43.3273 10.3069 43.1246 10.0065 43.1246 9.74461V8.77756C43.1246 8.38552 43.432 8.15692 43.8108 8.2804C48.85 9.88893 52.5036 14.6141 52.5036 20.1893C52.4974 25.7513 48.85 30.47 43.8108 32.0842Z" fill="white"/>
</svg>
