<svg width="60" height="40" viewBox="0 0 60 40" fill="none" xmlns="http://www.w3.org/2000/svg">
<path d="M20.2396 3.38295V3.39952C20.2561 3.48236 20.2561 3.58176 20.2561 3.68116V15.6262C20.2396 15.6924 20.1899 15.709 20.1402 15.7421C19.7923 15.9078 19.4609 16.0569 19.113 16.206C18.6326 16.4214 18.1355 16.6533 17.6551 16.8687L15.9155 17.6639C15.4351 17.8793 14.9546 18.0947 14.4907 18.3101C13.9275 18.5751 13.3476 18.8236 12.7843 19.0887C12.3039 19.3041 11.8234 19.536 11.3264 19.7514C10.9288 19.9336 10.5312 20.0993 10.1501 20.2816C10.117 20.2981 10.0838 20.3147 10.0507 20.3147C10.0341 20.3147 10.0341 20.3147 10.0176 20.2981L10.4649 19.5526C11.3264 18.1278 12.1713 16.7196 13.0328 15.2948C13.944 13.7706 14.8718 12.2464 15.783 10.7223C16.6279 9.31403 17.4894 7.90582 18.3343 6.4976C18.9473 5.47043 19.5769 4.44326 20.1899 3.41609C20.2064 3.38295 20.223 3.36639 20.223 3.33325H20.2396C20.223 3.34982 20.2396 3.36639 20.2396 3.38295Z" fill="#8A92B2"/>
<path d="M30.4105 20.2982L30.4271 20.3148L27.9917 21.7561L20.3376 26.279C20.3045 26.2956 20.2713 26.3121 20.2548 26.3287C20.2051 26.3287 20.2051 26.279 20.2051 26.2624V26.1133V15.8748C20.2051 15.8251 20.2051 15.7588 20.2216 15.7091C20.2382 15.6428 20.2879 15.6594 20.3376 15.676C20.553 15.7754 20.7849 15.8748 21.0003 15.9742C21.6464 16.2724 22.2926 16.5706 22.9387 16.8522C23.502 17.1007 24.0487 17.3658 24.612 17.6143C25.1753 17.8628 25.7385 18.1279 26.3018 18.3764C26.7823 18.5918 27.2793 18.8237 27.7598 19.0391C28.2402 19.2545 28.7372 19.4864 29.2177 19.7018C29.5987 19.8675 29.9798 20.0497 30.3608 20.2154C30.3608 20.2651 30.3774 20.2816 30.4105 20.2982Z" fill="#454A75"/>
<path d="M20.2386 36.6168C20.2386 36.6334 20.222 36.65 20.222 36.6665H20.2055C20.2055 36.6334 20.1723 36.6168 20.1558 36.5837C19.1286 35.1423 18.1014 33.6844 17.0743 32.2431C16.0305 30.7686 14.9702 29.2775 13.9265 27.803C12.9159 26.3782 11.8887 24.9369 10.8781 23.5121C10.613 23.1311 10.3479 22.7666 10.0829 22.3855C10.0663 22.3524 10.0497 22.3358 10.0166 22.2861C10.0663 22.2861 10.0994 22.3193 10.116 22.3358C11.5574 23.1808 12.9821 24.0257 14.4235 24.8706C16.0802 25.8481 17.7204 26.8256 19.3771 27.803L20.222 28.3C20.2552 28.3332 20.2552 28.3663 20.2552 28.3995V36.3849C20.2552 36.4677 20.2552 36.5505 20.2386 36.6168Z" fill="#8A92B2"/>
<path d="M10 20.3311V20.3146C10.5302 20.0826 11.0437 19.8341 11.5739 19.6022C12.2531 19.2874 12.9324 18.9892 13.6117 18.6744C14.1252 18.4425 14.6554 18.194 15.169 17.962C15.9311 17.6141 16.6766 17.2828 17.4387 16.9349C17.9523 16.7029 18.4659 16.471 18.996 16.2225C19.3605 16.0568 19.7415 15.8911 20.106 15.7254C20.1392 15.7089 20.1889 15.6923 20.2054 15.6592C20.222 15.6592 20.222 15.6757 20.2054 15.6923V26.2125C20.2054 26.2622 20.1889 26.3119 20.222 26.3451C20.1889 26.3948 20.1557 26.3451 20.1392 26.3285C19.9901 26.2457 19.841 26.1628 19.6918 26.0634C16.4944 24.1748 13.2803 22.2695 10.0828 20.3809C10.0663 20.3643 10.0331 20.3477 10 20.3311Z" fill="#62688F"/>
<path d="M30.3774 22.2861H30.394C30.394 22.3193 30.3608 22.3524 30.3443 22.3855C27.2959 26.6765 24.2475 30.9839 21.1991 35.2749C20.8844 35.7222 20.553 36.1695 20.2382 36.6168C20.2217 36.6002 20.2217 36.5837 20.2217 36.5671V36.4677V28.4326V28.2835C20.9175 27.8693 21.5968 27.4717 22.2926 27.0575C24.9765 25.467 27.6604 23.8932 30.3277 22.3027C30.3443 22.3193 30.3608 22.3027 30.3774 22.2861Z" fill="#62688F"/>
<path d="M20.2216 15.6923V15.6592V15.5598V3.53195C20.2216 3.48225 20.205 3.44912 20.2382 3.39941C23.6013 8.98258 26.9645 14.5492 30.3111 20.1323C30.3442 20.182 30.3939 20.2483 30.4105 20.3146C30.1785 20.2318 29.9632 20.1158 29.7478 20.0164C29.4827 19.9004 29.2011 19.7679 28.936 19.6519C28.7703 19.5691 28.5881 19.5028 28.4224 19.42C28.1408 19.2874 27.8591 19.1714 27.5775 19.0389C27.4118 18.9726 27.2461 18.8898 27.0805 18.807L25.987 18.3099C25.8048 18.2271 25.6225 18.1443 25.4237 18.0614L24.6285 17.7135C24.4628 17.6473 24.2972 17.5644 24.1315 17.4816L23.038 16.9846C22.8558 16.9017 22.6736 16.8189 22.4748 16.7361L21.6795 16.3881C21.4973 16.3053 21.3316 16.2225 21.1494 16.1396C20.8346 15.9905 20.5198 15.8414 20.1885 15.7089C20.2382 15.6923 20.2216 15.6923 20.2216 15.6923Z" fill="#62688F"/>
<path fill-rule="evenodd" clip-rule="evenodd" d="M39.9997 3.33325C49.2046 3.33325 56.6664 10.795 56.6664 19.9999C56.6664 29.2041 49.2046 36.6666 39.9997 36.6666C30.7948 36.6666 23.333 29.2041 23.333 19.9999C23.333 10.795 30.7948 3.33325 39.9997 3.33325Z" fill="#2775CA"/>
<path fill-rule="evenodd" clip-rule="evenodd" d="M36.877 31.5877C36.877 31.9798 36.57 32.2025 36.1909 32.0841C31.1517 30.4766 27.498 25.7514 27.498 20.176C27.498 14.6008 31.1517 9.8754 36.1909 8.26782C36.57 8.15021 36.877 8.37218 36.877 8.76422V9.73203C36.877 9.99301 36.6748 10.3002 36.4261 10.3852C32.4392 11.8493 29.5831 15.6794 29.5831 20.1694C29.5831 24.6593 32.4392 28.4902 36.4261 29.9535C36.6748 30.0451 36.877 30.3455 36.877 30.6074V31.5877Z" fill="white"/>
<path fill-rule="evenodd" clip-rule="evenodd" d="M41.0382 27.9864C41.0382 28.2743 40.8029 28.5095 40.5154 28.5095H39.476C39.1885 28.5095 38.9533 28.2743 38.9533 27.9864V26.3396C36.6787 26.0326 35.5679 24.7578 35.2671 23.026C35.2147 22.7314 35.4499 22.4636 35.7506 22.4636H36.9402C37.1885 22.4636 37.3978 22.6403 37.4501 22.8883C37.6724 23.921 38.2671 24.7119 40.0904 24.7119C41.4368 24.7119 42.3914 23.9602 42.3914 22.8366C42.3914 21.7119 41.8291 21.2873 39.8552 20.9602C36.9402 20.5682 35.5612 19.6856 35.5612 17.3981C35.5612 15.6335 36.8948 14.2612 38.9599 13.9668V12.3525C38.9599 12.0648 39.1953 11.8293 39.4827 11.8293H40.5221C40.8096 11.8293 41.0448 12.0648 41.0448 12.3525V14.0127C42.7245 14.3138 43.7899 15.2674 44.1365 16.8491C44.2016 17.1502 43.9664 17.4307 43.6594 17.4307H42.5611C42.3258 17.4307 42.1298 17.2737 42.058 17.0451C41.7639 16.039 41.0448 15.6078 39.7963 15.6078C38.4173 15.6078 37.7048 16.2742 37.7048 17.2087C37.7048 18.1956 38.1103 18.692 40.2281 18.9998C43.0904 19.3919 44.5679 20.2087 44.5679 22.6472C44.5679 24.4966 43.1952 25.9934 41.0448 26.3396V27.9864H41.0382Z" fill="white"/>
<path fill-rule="evenodd" clip-rule="evenodd" d="M43.8102 32.0842C43.4314 32.2026 43.124 31.9799 43.124 31.5878V30.6208C43.124 30.3331 43.3005 30.0653 43.575 29.9668C47.5619 28.5028 50.418 24.6727 50.418 20.1827C50.418 15.6927 47.5619 11.8626 43.575 10.3986C43.3267 10.3069 43.124 10.0065 43.124 9.74461V8.77756C43.124 8.38552 43.4314 8.15692 43.8102 8.2804C48.8494 9.88893 52.503 14.6141 52.503 20.1893C52.4968 25.7513 48.8494 30.47 43.8102 32.0842Z" fill="white"/>
</svg>
