<svg width="60" height="40" viewBox="0 0 60 40" fill="none" xmlns="http://www.w3.org/2000/svg">
<path d="M19.9506 3.33325L24.0676 7.54952L13.7006 17.9166L9.5835 13.7995L19.9506 3.33325Z" fill="#F0B90B" stroke="#F0B90B"/>
<path d="M26.2006 9.58325L30.3176 13.7995L13.7006 30.4166L9.5835 26.2995L26.2006 9.58325Z" fill="#F0B90B" stroke="#F0B90B"/>
<path d="M7.45056 15.8333L11.5676 20.0495L7.45056 24.1666L3.3335 20.0495L7.45056 15.8333Z" fill="#F0B90B" stroke="#F0B90B"/>
<path d="M32.4506 15.8333L36.5676 20.0495L19.9506 36.6666L15.8335 32.5495L32.4506 15.8333Z" fill="#F0B90B" stroke="#F0B90B"/>
<path d="M56.6668 19.9999C56.6668 29.2049 49.2052 36.6666 40.0002 36.6666C30.7955 36.6666 23.3335 29.2049 23.3335 19.9999C23.3335 10.7951 30.7955 3.33325 40.0002 3.33325C49.2052 3.33325 56.6668 10.7951 56.6668 19.9999Z" fill="#1BA27A"/>
<path d="M47.8212 11.7375H32.0396V15.5475H38.0254V21.1475H41.8354V15.5475H47.8212V11.7375Z" fill="white"/>
<path d="M39.9685 21.7442C35.0169 21.7442 31.0024 20.9605 31.0024 19.9937C31.0024 19.027 35.0167 18.2432 39.9685 18.2432C44.9202 18.2432 48.9345 19.027 48.9345 19.9937C48.9345 20.9605 44.9202 21.7442 39.9685 21.7442ZM50.036 20.2855C50.036 19.0388 45.5287 18.0283 39.9685 18.0283C34.4085 18.0283 29.9009 19.0388 29.9009 20.2855C29.9009 21.3833 33.396 22.298 38.0275 22.5007V30.5397H41.8372V22.5038C46.5044 22.3075 50.036 21.389 50.036 20.2855Z" fill="white"/>
</svg>
