<svg width="60" height="40" viewBox="0 0 60 40" fill="none" xmlns="http://www.w3.org/2000/svg">
<path d="M20.0002 3.33325C29.2058 3.33325 36.6668 10.7958 36.6668 19.9999C36.6668 29.2055 29.2058 36.6666 20.0002 36.6666C10.7961 36.6666 3.3335 29.2048 3.3335 19.9999C3.3335 10.7958 10.7961 3.33325 20.0002 3.33325Z" fill="#F5AC37"/>
<path d="M20.6136 21.1768H26.9467C27.0817 21.1768 27.1454 21.1768 27.1552 20.9998C27.2069 20.3556 27.2069 19.7076 27.1552 19.0625C27.1552 18.9373 27.0929 18.8855 26.9572 18.8855H14.3533C14.1973 18.8855 14.1553 18.9373 14.1553 19.0835V20.9376C14.1553 21.1768 14.1553 21.1768 14.4051 21.1768H20.6136V21.1768ZM26.4479 16.7188C26.4659 16.6715 26.4659 16.6198 26.4479 16.5733C26.3422 16.343 26.2169 16.1233 26.0714 15.917C25.8524 15.5645 25.5944 15.2398 25.3004 14.948C25.1617 14.7718 25.0012 14.6135 24.8212 14.4793C23.9197 13.712 22.8479 13.169 21.6959 12.896C21.1146 12.7655 20.5206 12.7032 19.9251 12.7085H14.3316C14.1756 12.7085 14.1546 12.7707 14.1546 12.9065V16.604C14.1546 16.76 14.1546 16.802 14.3526 16.802H26.3729C26.3729 16.802 26.4772 16.781 26.4982 16.7188H26.4472H26.4479ZM26.4479 23.3436C26.2709 23.3241 26.0924 23.3241 25.9154 23.3436H14.3638C14.2078 23.3436 14.1553 23.3436 14.1553 23.5521V27.1671C14.1553 27.3336 14.1553 27.3756 14.3638 27.3756H19.6971C19.9521 27.3951 20.2071 27.3771 20.4569 27.3239C21.2309 27.2684 21.9921 27.1004 22.7181 26.8236C22.9821 26.7321 23.2371 26.6129 23.4779 26.4696H23.5507C24.8009 25.8194 25.8164 24.7979 26.4569 23.5438C26.4569 23.5438 26.5297 23.3863 26.4479 23.3451V23.3436ZM12.062 29.2499V29.1876V26.7606V25.9379V23.4898C12.062 23.3541 12.062 23.3338 11.8955 23.3338H9.63501C9.50976 23.3338 9.45801 23.3338 9.45801 23.1673V21.1881H11.8745C12.0095 21.1881 12.062 21.1881 12.062 21.0111V19.0528C12.062 18.9275 12.062 18.8968 11.8955 18.8968H9.63501C9.50976 18.8968 9.45801 18.8968 9.45801 18.7303V16.8973C9.45801 16.7825 9.45801 16.7518 9.62451 16.7518H11.864C12.02 16.7518 12.062 16.7518 12.062 16.5538V10.9392C12.062 10.7727 12.062 10.7307 12.2705 10.7307H20.0826C20.6496 10.7532 21.2129 10.8155 21.7701 10.9182C22.9184 11.1305 24.0217 11.5407 25.0304 12.1265C25.6994 12.5202 26.3152 12.9957 26.8634 13.5432C27.2759 13.9715 27.6479 14.435 27.9779 14.9285C28.3057 15.4288 28.578 15.9635 28.7917 16.5223C28.818 16.6678 28.9575 16.766 29.103 16.7413H30.9675C31.2067 16.7413 31.2067 16.7413 31.2172 16.9708V18.6793C31.2172 18.8458 31.155 18.8878 30.9877 18.8878H29.55C29.4045 18.8878 29.3625 18.8878 29.373 19.0753C29.43 19.7098 29.43 20.3466 29.373 20.9811C29.373 21.1581 29.373 21.1791 29.5717 21.1791H31.2165C31.2892 21.2728 31.2165 21.3666 31.2165 21.4611C31.227 21.5818 31.227 21.7041 31.2165 21.8248V23.0856C31.2165 23.2626 31.1647 23.3151 31.008 23.3151H29.0392C28.902 23.2888 28.7685 23.3766 28.737 23.5131C28.2682 24.7319 27.5182 25.8246 26.5492 26.7006C26.1952 27.0194 25.8232 27.3194 25.4347 27.5961C25.0177 27.8361 24.6119 28.0859 24.1844 28.2839C23.3976 28.6379 22.5726 28.8989 21.7259 29.0646C20.9219 29.2086 20.1066 29.2739 19.2884 29.2626H12.059V29.2521L12.062 29.2499Z" fill="#FEFEFD"/>
<path fill-rule="evenodd" clip-rule="evenodd" d="M40.0002 3.33325C49.2051 3.33325 56.6669 10.795 56.6669 19.9999C56.6669 29.2041 49.2051 36.6666 40.0002 36.6666C30.7953 36.6666 23.3335 29.2041 23.3335 19.9999C23.3335 10.795 30.7953 3.33325 40.0002 3.33325Z" fill="#2775CA"/>
<path fill-rule="evenodd" clip-rule="evenodd" d="M36.8775 31.5877C36.8775 31.9798 36.5705 32.2025 36.1914 32.0841C31.1521 30.4766 27.4985 25.7514 27.4985 20.176C27.4985 14.6008 31.1521 9.8754 36.1914 8.26782C36.5705 8.15021 36.8775 8.37218 36.8775 8.76422V9.73203C36.8775 9.99301 36.6753 10.3002 36.4266 10.3852C32.4396 11.8493 29.5836 15.6794 29.5836 20.1694C29.5836 24.6593 32.4396 28.4902 36.4266 29.9535C36.6753 30.0451 36.8775 30.3455 36.8775 30.6074V31.5877Z" fill="white"/>
<path fill-rule="evenodd" clip-rule="evenodd" d="M41.0391 27.9864C41.0391 28.2743 40.8039 28.5095 40.5164 28.5095H39.477C39.1895 28.5095 38.9543 28.2743 38.9543 27.9864V26.3396C36.6797 26.0326 35.5689 24.7578 35.2681 23.026C35.2156 22.7314 35.4509 22.4636 35.7516 22.4636H36.9412C37.1895 22.4636 37.3988 22.6403 37.4511 22.8883C37.6734 23.921 38.2681 24.7119 40.0914 24.7119C41.4378 24.7119 42.3923 23.9602 42.3923 22.8366C42.3923 21.7119 41.83 21.2873 39.8562 20.9602C36.9412 20.5682 35.5622 19.6856 35.5622 17.3981C35.5622 15.6335 36.8957 14.2612 38.9609 13.9668V12.3525C38.9609 12.0648 39.1963 11.8293 39.4836 11.8293H40.523C40.8105 11.8293 41.0458 12.0648 41.0458 12.3525V14.0127C42.7255 14.3138 43.7908 15.2674 44.1374 16.8491C44.2026 17.1502 43.9674 17.4307 43.6603 17.4307H42.562C42.3268 17.4307 42.1308 17.2737 42.059 17.0451C41.7649 16.039 41.0458 15.6078 39.7973 15.6078C38.4183 15.6078 37.7058 16.2742 37.7058 17.2087C37.7058 18.1956 38.1113 18.692 40.2291 18.9998C43.0914 19.3919 44.5689 20.2087 44.5689 22.6472C44.5689 24.4966 43.1961 25.9934 41.0458 26.3396V27.9864H41.0391Z" fill="white"/>
<path fill-rule="evenodd" clip-rule="evenodd" d="M43.8112 32.0842C43.4324 32.2026 43.125 31.9799 43.125 31.5878V30.6208C43.125 30.3331 43.3015 30.0653 43.5759 29.9668C47.5629 28.5028 50.419 24.6727 50.419 20.1827C50.419 15.6927 47.5629 11.8626 43.5759 10.3986C43.3277 10.3069 43.125 10.0065 43.125 9.74461V8.77756C43.125 8.38552 43.4324 8.15692 43.8112 8.2804C48.8504 9.88893 52.504 14.6141 52.504 20.1893C52.4977 25.7513 48.8504 30.47 43.8112 32.0842Z" fill="white"/>
</svg>
