<svg width="60" height="40" viewBox="0 0 60 40" fill="none" xmlns="http://www.w3.org/2000/svg">
<path d="M20.2395 3.38295V3.39952C20.256 3.48236 20.256 3.58176 20.256 3.68116V15.6262C20.2395 15.6924 20.1898 15.709 20.1401 15.7421C19.7921 15.9078 19.4608 16.0569 19.1129 16.206C18.6324 16.4214 18.1354 16.6533 17.655 16.8687L15.9154 17.6639C15.4349 17.8793 14.9545 18.0947 14.4906 18.3101C13.9273 18.5751 13.3475 18.8236 12.7842 19.0887C12.3037 19.3041 11.8233 19.536 11.3263 19.7514C10.9287 19.9336 10.531 20.0993 10.15 20.2816C10.1169 20.2981 10.0837 20.3147 10.0506 20.3147C10.034 20.3147 10.034 20.3147 10.0175 20.2981L10.4648 19.5526C11.3263 18.1278 12.1712 16.7196 13.0327 15.2948C13.9439 13.7706 14.8717 12.2464 15.7829 10.7223C16.6278 9.31403 17.4893 7.90582 18.3342 6.4976C18.9472 5.47043 19.5768 4.44326 20.1898 3.41609C20.2063 3.38295 20.2229 3.36639 20.2229 3.33325H20.2395C20.2229 3.34982 20.2395 3.36639 20.2395 3.38295Z" fill="#8A92B2"/>
<path d="M30.4106 20.2982L30.4272 20.3148L27.9918 21.7561L20.3377 26.279C20.3046 26.2956 20.2715 26.3121 20.2549 26.3287C20.2052 26.3287 20.2052 26.279 20.2052 26.2624V26.1133V15.8748C20.2052 15.8251 20.2052 15.7588 20.2218 15.7091C20.2383 15.6428 20.288 15.6594 20.3377 15.676C20.5531 15.7754 20.7851 15.8748 21.0004 15.9742C21.6466 16.2724 22.2927 16.5706 22.9388 16.8522C23.5021 17.1007 24.0488 17.3658 24.6121 17.6143C25.1754 17.8628 25.7387 18.1279 26.302 18.3764C26.7824 18.5918 27.2794 18.8237 27.7599 19.0391C28.2403 19.2545 28.7373 19.4864 29.2178 19.7018C29.5988 19.8675 29.9799 20.0497 30.3609 20.2154C30.3609 20.2651 30.3775 20.2816 30.4106 20.2982Z" fill="#454A75"/>
<path d="M20.2384 36.6168C20.2384 36.6334 20.2218 36.65 20.2218 36.6665H20.2052C20.2052 36.6334 20.1721 36.6168 20.1555 36.5837C19.1284 35.1423 18.1012 33.6844 17.074 32.2431C16.0303 30.7686 14.97 29.2775 13.9262 27.803C12.9156 26.3782 11.8885 24.9369 10.8779 23.5121C10.6128 23.1311 10.3477 22.7666 10.0826 22.3855C10.0661 22.3524 10.0495 22.3358 10.0164 22.2861C10.0661 22.2861 10.0992 22.3193 10.1158 22.3358C11.5571 23.1808 12.9819 24.0257 14.4232 24.8706C16.08 25.8481 17.7201 26.8256 19.3769 27.803L20.2218 28.3C20.2549 28.3332 20.2549 28.3663 20.2549 28.3995V36.3849C20.2549 36.4677 20.2549 36.5505 20.2384 36.6168Z" fill="#8A92B2"/>
<path d="M10 20.3311V20.3146C10.5302 20.0826 11.0437 19.8341 11.5739 19.6022C12.2531 19.2874 12.9324 18.9892 13.6117 18.6744C14.1252 18.4425 14.6554 18.194 15.169 17.962C15.9311 17.6141 16.6766 17.2828 17.4387 16.9349C17.9523 16.7029 18.4659 16.471 18.996 16.2225C19.3605 16.0568 19.7415 15.8911 20.106 15.7254C20.1392 15.7089 20.1889 15.6923 20.2054 15.6592C20.222 15.6592 20.222 15.6757 20.2054 15.6923V26.2125C20.2054 26.2622 20.1889 26.3119 20.222 26.3451C20.1889 26.3948 20.1557 26.3451 20.1392 26.3285C19.9901 26.2457 19.841 26.1628 19.6918 26.0634C16.4944 24.1748 13.2803 22.2695 10.0828 20.3809C10.0663 20.3643 10.0331 20.3477 10 20.3311Z" fill="#62688F"/>
<path d="M30.3775 22.2861H30.3941C30.3941 22.3193 30.361 22.3524 30.3444 22.3855C27.296 26.6765 24.2476 30.9839 21.1993 35.2749C20.8845 35.7222 20.5531 36.1695 20.2384 36.6168C20.2218 36.6002 20.2218 36.5837 20.2218 36.5671V36.4677V28.4326V28.2835C20.9176 27.8693 21.5969 27.4717 22.2927 27.0575C24.9766 25.467 27.6605 23.8932 30.3278 22.3027C30.3444 22.3193 30.361 22.3027 30.3775 22.2861Z" fill="#62688F"/>
<path d="M20.222 15.6923V15.6592V15.5598V3.53195C20.222 3.48225 20.2054 3.44912 20.2385 3.39941C23.6017 8.98258 26.9649 14.5492 30.3114 20.1323C30.3446 20.182 30.3943 20.2483 30.4108 20.3146C30.1789 20.2318 29.9635 20.1158 29.7482 20.0164C29.4831 19.9004 29.2014 19.7679 28.9364 19.6519C28.7707 19.5691 28.5884 19.5028 28.4228 19.42C28.1411 19.2874 27.8595 19.1714 27.5778 19.0389C27.4122 18.9726 27.2465 18.8898 27.0808 18.807L25.9874 18.3099C25.8051 18.2271 25.6229 18.1443 25.4241 18.0614L24.6289 17.7135C24.4632 17.6473 24.2975 17.5644 24.1319 17.4816L23.0384 16.9846C22.8562 16.9017 22.6739 16.8189 22.4751 16.7361L21.6799 16.3881C21.4977 16.3053 21.332 16.2225 21.1497 16.1396C20.835 15.9905 20.5202 15.8414 20.1888 15.7089C20.2385 15.6923 20.222 15.6923 20.222 15.6923Z" fill="#62688F"/>
<path d="M31.2704 22.2842L32.1523 15.6584L24.5032 10.3484L31.4921 12.7157L33.1426 10.1833L39.1695 6.4436L52.4541 13.7626L53.1427 24.9298L47.2242 33.1543L42.5461 33.8711L44.9653 29.4429V25.1798L43.2063 21.8504L41.419 20.6667L38.6696 23.5009V26.5002L36.5239 28.5092L33.7982 28.8393L32.5909 29.5231L30.6102 28.8912L29.7849 25.9202L31.2704 23.831V22.2842Z" fill="white"/>
<path d="M43.4839 10.2916C42.0267 9.98978 40.4328 10.07 40.4328 10.07C40.4328 10.07 39.9093 12.4892 36.6648 13.1258C36.6884 13.1258 40.9515 14.583 43.4839 10.2916Z" fill="#94A6C3"/>
<path d="M44.8042 32.244C46.5632 30.867 47.8837 28.9712 48.492 26.8255C48.5203 26.7453 48.7655 26.6038 48.9306 26.4954C49.2041 26.3303 49.4823 26.1936 49.5342 25.9719C49.6427 25.34 49.6993 24.6798 49.6993 24.0195C49.6993 23.7743 49.4493 23.5244 49.2041 23.2791C49.0108 23.1141 48.8174 22.9207 48.8174 22.784C48.5439 20.2799 47.3885 17.9408 45.5446 16.2384L45.3513 16.4317C47.1386 18.1106 48.2939 20.393 48.5439 22.8123C48.5722 23.0339 48.7891 23.2509 49.0108 23.4725C49.2041 23.6376 49.4258 23.8875 49.4258 23.996C49.4258 24.6279 49.3692 25.2598 49.2607 25.8917C49.2324 26.0002 48.9872 26.1134 48.7938 26.2218C48.5203 26.3586 48.2704 26.4954 48.2185 26.717C47.5583 29.0561 46.0445 31.0933 44.0355 32.4138C44.3939 31.6451 45.521 29.141 46.1247 27.8724L46.0162 23.8026L42.5217 20.4213L40.5411 20.6949L38.3671 24.2176C38.3671 24.2176 39.3857 25.5097 37.9521 27.0235C36.5515 28.509 35.4479 28.8391 35.4479 28.8391L34.4293 28.2874C34.7311 27.9007 35.3395 27.3254 35.8064 26.9387C36.6033 26.2784 37.4003 26.2218 37.4003 25.5097C37.4333 24.0195 35.8346 24.4298 35.8346 24.4298L35.2546 24.9816L35.0094 27.0188L33.8021 28.5326L33.6654 28.5043L31.6847 28.0657C31.6847 28.0657 32.8967 27.4338 33.09 26.717C33.2834 26.0285 32.7033 23.746 32.675 23.6093C32.7033 23.6376 33.2551 24.1044 33.5003 24.8731C33.9389 23.6611 34.5189 22.5057 34.684 22.3973C34.849 22.2888 37.0749 21.1051 37.0749 21.1051L36.3345 23.0575L36.8863 22.7557L38.2067 19.5112C38.2067 19.5112 39.4989 18.8792 40.4609 18.8792C42.1916 18.8509 44.7523 16.7335 43.597 12.9373C43.9271 13.074 49.6474 15.9365 50.6377 21.5484C51.3781 25.8634 48.9306 29.9049 44.8042 32.244Z" fill="#94A6C3"/>
<path d="M38.2586 10.8954C38.8905 10.1503 38.6453 9.05151 38.6453 9.05151L36.8014 11.7773C36.7731 11.7773 37.4569 11.8056 38.2586 10.8954Z" fill="#1B314F"/>
<path d="M32.067 25.7785L32.2886 24.6797C32.2886 24.6797 31.3784 26.2737 31.2983 26.4954C31.2134 26.7453 31.3549 27.1839 31.7085 27.1556C32.067 27.1273 32.5055 26.6038 32.5055 26.2218C32.5055 25.7266 32.067 25.7785 32.067 25.7785Z" fill="#1B314F"/>
<path d="M48.4076 8.28272C48.4076 8.28272 49.7846 8.33931 51.2135 8.50437C47.9926 5.97195 44.9414 5.23155 42.4656 5.23155C39.056 5.23155 36.7452 6.63688 36.6038 6.71705L37.679 5.00991C37.679 5.00991 33.3875 4.59491 31.8737 9.13629C31.487 8.17426 31.1334 6.76893 31.1334 6.76893C31.1334 6.76893 28.9027 8.72601 29.9497 11.9705C27.389 11.0368 23.7342 9.73993 23.5927 9.71635C23.3993 9.68805 23.3427 9.77294 23.3427 9.77294C23.3427 9.77294 23.2861 9.85311 23.4512 9.99458C23.7577 10.2351 29.5347 14.503 30.8032 15.3282C30.5297 16.3186 30.5297 16.7854 30.8032 17.2523C31.1899 17.8842 31.2135 18.2143 31.1617 18.6812C31.1051 19.1481 30.6099 23.1943 30.5014 23.6895C30.393 24.1846 29.2376 25.9437 29.2895 26.4671C29.346 26.9906 30.0581 29.2165 30.6948 29.4664C31.1617 29.6315 32.317 29.9899 33.0857 29.9899C33.3592 29.9899 33.6092 29.9333 33.7177 29.8248C34.1845 29.4145 34.3213 29.3297 34.6514 29.3297C34.6797 29.3297 34.708 29.3297 34.7316 29.3297C34.8683 29.3297 35.0334 29.3579 35.2267 29.3579C35.6653 29.3579 36.2454 29.2731 36.6556 28.8911C37.2593 28.2874 38.3062 27.4622 38.6363 27.0755C39.0513 26.552 39.2682 25.8399 39.1598 25.1231C39.0749 24.4629 39.4333 23.8828 39.8483 23.3075C40.3717 22.619 41.3338 21.3834 41.3338 21.3834C43.2343 22.8076 44.418 24.9816 44.418 27.4009C44.418 31.6923 40.6783 35.1585 36.0567 35.1585C35.3399 35.1585 34.6561 35.0783 33.9676 34.9132C36.085 35.6536 37.8723 35.9036 39.3343 35.9036C42.442 35.9036 44.0926 34.7765 44.0926 34.7765C44.0926 34.7765 43.5172 35.5216 42.5788 36.3704C42.6071 36.3704 42.6071 36.3704 42.6071 36.3704C47.7521 35.6536 50.2562 31.4188 50.2562 31.4188C50.2562 31.4188 50.0629 32.7958 49.8176 33.7296C56.6604 28.5845 55.505 22.1474 55.4767 21.9305C55.5333 22.0106 56.2218 22.8359 56.5755 23.2792C57.679 11.9422 48.4076 8.28272 48.4076 8.28272ZM37.8723 26.3869C37.7639 26.5237 37.297 26.9387 36.9669 27.2405C36.6368 27.5423 36.2784 27.8442 36.0049 28.1224C35.8964 28.2309 35.6747 28.2874 35.3446 28.2874C35.2362 28.2874 35.123 28.2874 35.0428 28.2874C34.9862 28.2874 34.9343 28.2874 34.8778 28.2874C34.8212 28.2874 34.7929 28.2874 34.7693 28.2874C34.6844 28.2874 34.6042 28.2874 34.5194 28.2874C34.9343 27.7357 36.1416 26.4718 36.5566 26.1983C37.0518 25.8682 37.3017 25.5381 36.9952 24.9628C36.6934 24.3827 35.8964 24.5242 35.8964 24.5242C35.8964 24.5242 36.3633 24.3308 36.7783 24.3308C36.2548 24.1941 35.5946 24.3308 35.2928 24.6326C34.9626 24.9345 35.0192 26.0097 34.8825 26.6935C34.7457 27.4103 34.2788 27.7687 33.562 28.4289C33.1753 28.7873 32.9018 28.8958 32.6802 28.8958C32.2133 28.8156 31.6615 28.6741 31.2748 28.5374C31.0013 28.179 30.5863 26.9953 30.4778 26.5001C30.558 26.2266 30.8881 25.6466 31.0532 25.3164C31.3833 24.6845 31.5766 24.3261 31.6332 23.996C31.7417 23.5291 32.1001 20.6383 32.2369 19.431C32.5953 19.8979 33.0904 20.6713 32.9773 21.1665C33.7742 20.0394 33.1989 18.9359 32.9207 18.4973C32.6754 18.0587 32.3453 17.1769 32.6189 16.2431C32.8924 15.3094 33.8827 12.7204 33.8827 12.7204C33.8827 12.7204 34.2128 13.3004 34.6797 13.1872C35.1466 13.0788 38.9145 7.41029 38.9145 7.41029C38.9145 7.41029 39.9332 9.63618 38.858 11.2632C37.7592 12.8854 36.6839 13.1872 36.6839 13.1872C36.6839 13.1872 38.1977 13.4607 39.5983 12.4421C40.1737 13.7909 40.7254 15.1915 40.7537 15.3848C40.6688 15.5782 39.57 18.2191 39.4616 18.3841C39.405 18.4407 39.023 18.5492 38.7448 18.6058C38.2779 18.7425 38.0044 18.8274 37.8912 18.9076C37.6978 19.0726 36.816 21.4919 36.4057 22.6756C35.9105 22.8123 35.4154 23.0906 35.057 23.6376C35.2503 23.5008 35.8539 23.4159 36.2972 23.3641C36.6839 23.3358 37.8629 23.9677 38.1694 25.1514C38.1694 25.1797 38.1694 25.1797 38.1694 25.208C38.2307 25.6418 38.094 26.0568 37.8723 26.3869ZM35.288 26.7171C35.538 26.3587 35.5097 25.755 35.538 25.5617C35.5663 25.3683 35.6181 25.0099 35.8398 24.958C36.0614 24.9014 36.5849 24.9863 36.5849 25.3683C36.5849 25.7267 36.1982 25.8069 35.9247 26.0568C35.7266 26.2455 35.3399 26.6605 35.288 26.7171ZM46.2619 21.4589C46.5354 20.0583 46.5637 18.8463 46.4835 17.8559C47.554 19.2848 48.2142 21.0203 48.4076 22.8076C48.4359 23.0292 48.6528 23.2462 48.8745 23.4678C49.0678 23.6329 49.2895 23.8545 49.2895 23.9913C49.2895 24.6232 49.2329 25.2551 49.1244 25.8918C49.0961 25.972 48.8509 26.1134 48.6575 26.2219C48.384 26.3587 48.1341 26.4954 48.0822 26.7171C47.4786 28.8345 46.1817 30.7067 44.451 32.0271C47.007 29.3579 48.2425 24.9533 46.2619 21.4589ZM44.5311 32.2724C46.3185 30.8953 47.6955 28.9712 48.2991 26.7972C48.3274 26.7171 48.5726 26.5756 48.7377 26.4671C49.0112 26.3304 49.2895 26.1653 49.3413 25.9437C49.4498 25.3117 49.5064 24.6515 49.5064 23.9913C49.5064 23.7461 49.2564 23.4961 49.0112 23.2509C48.8745 23.0858 48.6528 22.8925 48.6528 22.7557C48.4312 20.7468 47.6342 18.851 46.3986 17.2806C45.8469 13.9795 43.6493 12.9609 43.5927 12.9326C43.6493 13.0175 45.0782 15.0783 44.0879 17.4975C43.0692 19.9451 40.4566 19.5631 40.235 19.5867C40.0133 19.5867 39.1645 20.6855 38.0893 22.7227C37.9525 22.6661 37.3725 22.5294 36.7122 22.6425C37.2074 21.2655 37.9525 19.3131 38.0893 19.1481C38.1459 19.0915 38.5561 18.983 38.8344 18.9029C39.3578 18.7661 39.6031 18.6812 39.6879 18.5728C39.7445 18.4879 40.0181 17.8559 40.2916 17.1957C40.5415 17.1957 41.1734 17.1391 41.2253 17.1108C41.2819 17.0542 41.8054 15.7102 41.8054 15.5452C41.8054 15.4084 40.7302 12.7392 40.3199 11.7206C40.5132 11.4989 40.7066 11.2254 40.8952 10.9236C46.5354 11.532 50.94 16.3186 50.94 22.1191C50.94 26.5756 48.3274 30.4567 44.5311 32.2724Z" fill="#1B314F"/>
<path d="M37.2119 17.4172C37.7353 16.8136 37.4618 15.6865 36.4951 15.4932C36.745 14.9178 37.0987 13.7625 37.0987 13.7625C37.0987 13.7625 34.2927 18.1623 34.0475 18.2472C33.7976 18.3321 33.5524 17.3654 33.5524 17.3654C33.0289 19.3743 34.4342 19.6478 34.5993 19.0159C35.368 18.8179 36.6884 17.9926 37.2119 17.4172Z" fill="#1B314F"/>
<path d="M34.8162 18.4878L36.2451 16.0403C36.2451 16.0403 37.0703 16.4553 36.6553 17.1155C36.1366 17.8842 34.8162 18.4878 34.8162 18.4878Z" fill="#FFD923"/>
<path d="M52.5052 29.8247C52.0902 30.3765 51.6233 30.9518 51.0763 31.5036C54.6226 24.6797 51.2413 18.4359 51.1046 18.1907C51.3545 18.4406 51.5998 18.7141 51.8214 18.9594C54.5424 21.9822 54.8725 26.5236 52.5052 29.8247Z" fill="#D82122"/>
<path d="M55.8066 21.0486C54.5663 17.7192 52.8073 14.885 48.9309 12.329C45.1912 9.85313 41.1733 10.0465 40.9516 10.0748C40.9233 10.0748 40.895 10.0748 40.895 10.0748C41.0318 10.0182 41.1685 9.98989 41.3053 9.96631C42.1589 9.69279 43.2577 9.47114 44.3612 9.33438C47.2803 8.91467 50.223 9.905 52.232 12.0271C52.2603 12.0554 52.2603 12.0554 52.2886 12.0837C54.571 14.503 55.7547 17.5259 55.8066 21.0486Z" fill="#D82122"/>
<path d="M48.0487 7.42918C43.9506 6.66049 41.3097 7.04248 39.4092 7.75929C39.3526 7.53765 39.1593 7.09907 38.9942 6.74066C38.4236 7.42918 37.8152 8.25446 37.4333 8.77792C36.3863 9.49474 35.9478 10.1833 35.9478 10.1833C36.5514 8.1177 38.3151 6.58032 40.4609 6.19362C41.0645 6.08516 41.7247 6.02856 42.4415 6.02856C44.3373 6.05686 46.2331 6.52373 48.0487 7.42918Z" fill="#D82122"/>
<path d="M32.8923 12.7109C29.676 12.6024 30.7465 8.85804 30.8031 8.64111C30.8031 8.66941 31.0201 11.5838 32.8923 12.7109Z" fill="#D82122"/>
<path d="M36.0563 5.97192C33.5804 7.45742 34.0756 11.0038 34.0756 11.0038C31.7082 7.40555 35.8629 6.05681 36.0563 5.97192Z" fill="#D82122"/>
<path d="M31.9866 13.7012C32.1517 13.838 32.3167 14.0879 32.1234 14.4463C32.0149 14.6397 31.8499 14.6114 31.5999 14.5029C31.2698 14.3379 29.2891 13.1825 27.5018 11.9988C29.5391 12.7156 31.5999 13.4843 31.93 13.6493C31.93 13.6493 31.9583 13.6776 31.9866 13.7012Z" fill="white"/>
</svg>
