<svg width="60" height="40" viewBox="0 0 60 40" fill="none" xmlns="http://www.w3.org/2000/svg">
<path d="M20.2396 3.38295V3.39952C20.2561 3.48236 20.2561 3.58176 20.2561 3.68116V15.6262C20.2396 15.6924 20.1899 15.709 20.1402 15.7421C19.7923 15.9078 19.4609 16.0569 19.113 16.206C18.6326 16.4214 18.1355 16.6533 17.6551 16.8687L15.9155 17.6639C15.4351 17.8793 14.9546 18.0947 14.4907 18.3101C13.9275 18.5751 13.3476 18.8236 12.7843 19.0887C12.3039 19.3041 11.8234 19.536 11.3264 19.7514C10.9288 19.9336 10.5312 20.0993 10.1501 20.2816C10.117 20.2981 10.0838 20.3147 10.0507 20.3147C10.0341 20.3147 10.0341 20.3147 10.0176 20.2981L10.4649 19.5526C11.3264 18.1278 12.1713 16.7196 13.0328 15.2948C13.944 13.7706 14.8718 12.2464 15.783 10.7223C16.6279 9.31403 17.4894 7.90582 18.3343 6.4976C18.9473 5.47043 19.5769 4.44326 20.1899 3.41609C20.2064 3.38295 20.223 3.36639 20.223 3.33325H20.2396C20.223 3.34982 20.2396 3.36639 20.2396 3.38295Z" fill="#8A92B2"/>
<path d="M30.4105 20.2982L30.4271 20.3148L27.9917 21.7561L20.3376 26.279C20.3045 26.2956 20.2713 26.3121 20.2548 26.3287C20.2051 26.3287 20.2051 26.279 20.2051 26.2624V26.1133V15.8748C20.2051 15.8251 20.2051 15.7588 20.2216 15.7091C20.2382 15.6428 20.2879 15.6594 20.3376 15.676C20.553 15.7754 20.7849 15.8748 21.0003 15.9742C21.6464 16.2724 22.2926 16.5706 22.9387 16.8522C23.502 17.1007 24.0487 17.3658 24.612 17.6143C25.1753 17.8628 25.7385 18.1279 26.3018 18.3764C26.7823 18.5918 27.2793 18.8237 27.7598 19.0391C28.2402 19.2545 28.7372 19.4864 29.2177 19.7018C29.5987 19.8675 29.9798 20.0497 30.3608 20.2154C30.3608 20.2651 30.3774 20.2816 30.4105 20.2982Z" fill="#454A75"/>
<path d="M20.2386 36.6168C20.2386 36.6334 20.222 36.65 20.222 36.6665H20.2055C20.2055 36.6334 20.1723 36.6168 20.1558 36.5837C19.1286 35.1423 18.1014 33.6844 17.0743 32.2431C16.0305 30.7686 14.9702 29.2775 13.9265 27.803C12.9159 26.3782 11.8887 24.9369 10.8781 23.5121C10.613 23.1311 10.3479 22.7666 10.0829 22.3855C10.0663 22.3524 10.0497 22.3358 10.0166 22.2861C10.0663 22.2861 10.0994 22.3193 10.116 22.3358C11.5574 23.1808 12.9821 24.0257 14.4235 24.8706C16.0802 25.8481 17.7204 26.8256 19.3771 27.803L20.222 28.3C20.2552 28.3332 20.2552 28.3663 20.2552 28.3995V36.3849C20.2552 36.4677 20.2552 36.5505 20.2386 36.6168Z" fill="#8A92B2"/>
<path d="M10 20.3311V20.3146C10.5302 20.0826 11.0437 19.8341 11.5739 19.6022C12.2531 19.2874 12.9324 18.9892 13.6117 18.6744C14.1252 18.4425 14.6554 18.194 15.169 17.962C15.9311 17.6141 16.6766 17.2828 17.4387 16.9349C17.9523 16.7029 18.4659 16.471 18.996 16.2225C19.3605 16.0568 19.7415 15.8911 20.106 15.7254C20.1392 15.7089 20.1889 15.6923 20.2054 15.6592C20.222 15.6592 20.222 15.6757 20.2054 15.6923V26.2125C20.2054 26.2622 20.1889 26.3119 20.222 26.3451C20.1889 26.3948 20.1557 26.3451 20.1392 26.3285C19.9901 26.2457 19.841 26.1628 19.6918 26.0634C16.4944 24.1748 13.2803 22.2695 10.0828 20.3809C10.0663 20.3643 10.0331 20.3477 10 20.3311Z" fill="#62688F"/>
<path d="M30.3774 22.2861H30.394C30.394 22.3193 30.3608 22.3524 30.3443 22.3855C27.2959 26.6765 24.2475 30.9839 21.1991 35.2749C20.8844 35.7222 20.553 36.1695 20.2382 36.6168C20.2217 36.6002 20.2217 36.5837 20.2217 36.5671V36.4677V28.4326V28.2835C20.9175 27.8693 21.5968 27.4717 22.2926 27.0575C24.9765 25.467 27.6604 23.8932 30.3277 22.3027C30.3443 22.3193 30.3608 22.3027 30.3774 22.2861Z" fill="#62688F"/>
<path d="M20.2216 15.6923V15.6592V15.5598V3.53195C20.2216 3.48225 20.205 3.44912 20.2382 3.39941C23.6013 8.98258 26.9645 14.5492 30.3111 20.1323C30.3442 20.182 30.3939 20.2483 30.4105 20.3146C30.1785 20.2318 29.9632 20.1158 29.7478 20.0164C29.4827 19.9004 29.2011 19.7679 28.936 19.6519C28.7703 19.5691 28.5881 19.5028 28.4224 19.42C28.1408 19.2874 27.8591 19.1714 27.5775 19.0389C27.4118 18.9726 27.2461 18.8898 27.0805 18.807L25.987 18.3099C25.8048 18.2271 25.6225 18.1443 25.4237 18.0614L24.6285 17.7135C24.4628 17.6473 24.2972 17.5644 24.1315 17.4816L23.038 16.9846C22.8558 16.9017 22.6736 16.8189 22.4748 16.7361L21.6795 16.3881C21.4973 16.3053 21.3316 16.2225 21.1494 16.1396C20.8346 15.9905 20.5198 15.8414 20.1885 15.7089C20.2382 15.6923 20.2216 15.6923 20.2216 15.6923Z" fill="#62688F"/>
<path d="M31.2702 22.2842L32.1521 15.6584L24.5029 10.3484L31.4918 12.7157L33.1424 10.1833L39.1693 6.4436L52.4539 13.7626L53.1424 24.9298L47.224 33.1543L42.5458 33.8711L44.9651 29.4429V25.1798L43.2061 21.8504L41.4188 20.6667L38.6694 23.5009V26.5002L36.5237 28.5092L33.7979 28.8393L32.5906 29.5231L30.61 28.8912L29.7847 25.9202L31.2702 23.831V22.2842Z" fill="white"/>
<path d="M43.4832 10.2916C42.026 9.98978 40.432 10.07 40.432 10.07C40.432 10.07 39.9086 12.4892 36.6641 13.1258C36.6876 13.1258 40.9508 14.583 43.4832 10.2916Z" fill="#94A6C3"/>
<path d="M44.8041 32.244C46.5631 30.867 47.8835 28.9712 48.4919 26.8255C48.5202 26.7453 48.7654 26.6038 48.9305 26.4954C49.204 26.3303 49.4822 26.1936 49.5341 25.9719C49.6426 25.34 49.6992 24.6798 49.6992 24.0195C49.6992 23.7743 49.4492 23.5244 49.204 23.2791C49.0106 23.1141 48.8173 22.9207 48.8173 22.784C48.5438 20.2799 47.3884 17.9408 45.5445 16.2384L45.3511 16.4317C47.1384 18.1106 48.2938 20.393 48.5438 22.8123C48.5721 23.0339 48.789 23.2509 49.0106 23.4725C49.204 23.6376 49.4256 23.8875 49.4256 23.996C49.4256 24.6279 49.369 25.2598 49.2606 25.8917C49.2323 26.0002 48.9871 26.1134 48.7937 26.2218C48.5202 26.3586 48.2702 26.4954 48.2184 26.717C47.5582 29.0561 46.0444 31.0933 44.0354 32.4138C44.3938 31.6451 45.5209 29.141 46.1245 27.8724L46.0161 23.8026L42.5216 20.4213L40.541 20.6949L38.3669 24.2176C38.3669 24.2176 39.3856 25.5098 37.9519 27.0235C36.5513 28.509 35.4478 28.8391 35.4478 28.8391L34.4292 28.2874C34.731 27.9007 35.3394 27.3254 35.8062 26.9387C36.6032 26.2784 37.4002 26.2218 37.4002 25.5097C37.4332 24.0195 35.8345 24.4298 35.8345 24.4298L35.2545 24.9816L35.0093 27.0188L33.802 28.5326L33.6652 28.5043L31.6846 28.0657C31.6846 28.0657 32.8965 27.4338 33.0899 26.717C33.2832 26.0285 32.7032 23.746 32.6749 23.6093C32.7032 23.6376 33.255 24.1044 33.5002 24.8731C33.9388 23.6611 34.5188 22.5057 34.6839 22.3973C34.8489 22.2888 37.0748 21.1051 37.0748 21.1051L36.3344 23.0575L36.8862 22.7557L38.2066 19.5112C38.2066 19.5112 39.4987 18.8792 40.4608 18.8792C42.1915 18.8509 44.7522 16.7335 43.5968 12.9373C43.9269 13.074 49.6473 15.9365 50.6376 21.5484C51.378 25.8634 48.9305 29.9049 44.8041 32.244Z" fill="#94A6C3"/>
<path d="M38.2579 10.8954C38.8898 10.1503 38.6446 9.05151 38.6446 9.05151L36.8007 11.7773C36.7724 11.7773 37.4562 11.8056 38.2579 10.8954Z" fill="#1B314F"/>
<path d="M32.0671 25.7785L32.2887 24.6797C32.2887 24.6797 31.3786 26.2737 31.2984 26.4954C31.2135 26.7453 31.355 27.1839 31.7087 27.1556C32.0671 27.1273 32.5057 26.6038 32.5057 26.2218C32.5057 25.7266 32.0671 25.7785 32.0671 25.7785Z" fill="#1B314F"/>
<path d="M48.4072 8.28272C48.4072 8.28272 49.7843 8.33931 51.2132 8.50437C47.9922 5.97195 44.9411 5.23155 42.4652 5.23155C39.0557 5.23155 36.7449 6.63688 36.6034 6.71705L37.6786 5.00991C37.6786 5.00991 33.3872 4.59491 31.8734 9.13629C31.4867 8.17426 31.133 6.76893 31.133 6.76893C31.133 6.76893 28.9024 8.72601 29.9493 11.9705C27.3886 11.0368 23.7338 9.73993 23.5923 9.71635C23.399 9.68805 23.3424 9.77294 23.3424 9.77294C23.3424 9.77294 23.2858 9.85311 23.4508 9.99458C23.7574 10.2351 29.5343 14.503 30.8029 15.3282C30.5294 16.3186 30.5294 16.7854 30.8029 17.2523C31.1896 17.8842 31.2132 18.2143 31.1613 18.6812C31.1047 19.1481 30.6095 23.1943 30.5011 23.6895C30.3926 24.1846 29.2372 25.9437 29.2891 26.4671C29.3457 26.9906 30.0578 29.2165 30.6944 29.4664C31.1613 29.6315 32.3167 29.9899 33.0854 29.9899C33.3589 29.9899 33.6088 29.9333 33.7173 29.8248C34.1842 29.4145 34.3209 29.3297 34.651 29.3297C34.6793 29.3297 34.7076 29.3297 34.7312 29.3297C34.868 29.3297 35.033 29.3579 35.2264 29.3579C35.6649 29.3579 36.245 29.2731 36.6553 28.8911C37.2589 28.2874 38.3058 27.4622 38.6359 27.0755C39.0509 26.552 39.2679 25.8399 39.1594 25.1231C39.0745 24.4629 39.4329 23.8828 39.8479 23.3075C40.3714 22.619 41.3334 21.3834 41.3334 21.3834C43.2339 22.8076 44.4176 24.9816 44.4176 27.4009C44.4176 31.6923 40.6779 35.1585 36.0564 35.1585C35.3395 35.1585 34.6557 35.0783 33.9672 34.9132C36.0847 35.6536 37.872 35.9036 39.3339 35.9036C42.4416 35.9036 44.0922 34.7765 44.0922 34.7765C44.0922 34.7765 43.5169 35.5216 42.5784 36.3704C42.6067 36.3704 42.6067 36.3704 42.6067 36.3704C47.7517 35.6536 50.2558 31.4188 50.2558 31.4188C50.2558 31.4188 50.0625 32.7958 49.8173 33.7296C56.66 28.5845 55.5046 22.1474 55.4763 21.9305C55.5329 22.0106 56.2214 22.8359 56.5751 23.2792C57.6786 11.9422 48.4072 8.28272 48.4072 8.28272ZM37.872 26.3869C37.7635 26.5237 37.2966 26.9387 36.9665 27.2405C36.6364 27.5423 36.278 27.8442 36.0045 28.1224C35.896 28.2309 35.6744 28.2874 35.3443 28.2874C35.2358 28.2874 35.1226 28.2874 35.0424 28.2874C34.9859 28.2874 34.934 28.2874 34.8774 28.2874C34.8208 28.2874 34.7925 28.2874 34.7689 28.2874C34.684 28.2874 34.6039 28.2874 34.519 28.2874C34.934 27.7357 36.1412 26.4718 36.5562 26.1983C37.0514 25.8682 37.3013 25.5381 36.9948 24.9628C36.693 24.3827 35.896 24.5242 35.896 24.5242C35.896 24.5242 36.3629 24.3308 36.7779 24.3308C36.2544 24.1941 35.5942 24.3308 35.2924 24.6326C34.9623 24.9345 35.0189 26.0097 34.8821 26.6935C34.7453 27.4103 34.2785 27.7687 33.5617 28.4289C33.175 28.7873 32.9014 28.8958 32.6798 28.8958C32.2129 28.8156 31.6612 28.6741 31.2745 28.5374C31.0009 28.179 30.5859 26.9953 30.4775 26.5001C30.5577 26.2266 30.8878 25.6466 31.0528 25.3164C31.3829 24.6845 31.5763 24.3261 31.6329 23.996C31.7413 23.5291 32.0997 20.6383 32.2365 19.431C32.5949 19.8979 33.0901 20.6713 32.9769 21.1665C33.7739 20.0394 33.1985 18.9359 32.9203 18.4973C32.6751 18.0587 32.345 17.1769 32.6185 16.2431C32.892 15.3094 33.8823 12.7204 33.8823 12.7204C33.8823 12.7204 34.2125 13.3004 34.6793 13.1872C35.1462 13.0788 38.9142 7.41029 38.9142 7.41029C38.9142 7.41029 39.9328 9.63618 38.8576 11.2632C37.7588 12.8854 36.6836 13.1872 36.6836 13.1872C36.6836 13.1872 38.1974 13.4607 39.598 12.4421C40.1733 13.7909 40.7251 15.1915 40.7534 15.3848C40.6685 15.5782 39.5697 18.2191 39.4612 18.3841C39.4046 18.4407 39.0226 18.5492 38.7444 18.6058C38.2775 18.7425 38.004 18.8274 37.8908 18.9076C37.6975 19.0726 36.8156 21.4919 36.4053 22.6756C35.9102 22.8123 35.415 23.0906 35.0566 23.6376C35.2499 23.5008 35.8536 23.4159 36.2969 23.3641C36.6836 23.3358 37.8625 23.9677 38.1691 25.1514C38.1691 25.1797 38.1691 25.1797 38.1691 25.208C38.2304 25.6418 38.0936 26.0568 37.872 26.3869ZM35.2877 26.7171C35.5376 26.3587 35.5093 25.755 35.5376 25.5617C35.5659 25.3683 35.6178 25.0099 35.8394 24.958C36.0611 24.9014 36.5845 24.9863 36.5845 25.3683C36.5845 25.7267 36.1978 25.8069 35.9243 26.0568C35.7262 26.2455 35.3395 26.6605 35.2877 26.7171ZM46.2615 21.4589C46.535 20.0583 46.5633 18.8463 46.4831 17.8559C47.5536 19.2848 48.2139 21.0203 48.4072 22.8076C48.4355 23.0292 48.6524 23.2462 48.8741 23.4678C49.0674 23.6329 49.2891 23.8545 49.2891 23.9913C49.2891 24.6232 49.2325 25.2551 49.124 25.8918C49.0957 25.972 48.8505 26.1134 48.6572 26.2219C48.3836 26.3587 48.1337 26.4954 48.0818 26.7171C47.4782 28.8345 46.1813 30.7067 44.4506 32.0271C47.0066 29.3579 48.2422 24.9533 46.2615 21.4589ZM44.5308 32.2724C46.3181 30.8953 47.6951 28.9712 48.2988 26.7972C48.3271 26.7171 48.5723 26.5756 48.7373 26.4671C49.0109 26.3304 49.2891 26.1653 49.341 25.9437C49.4494 25.3117 49.506 24.6515 49.506 23.9913C49.506 23.7461 49.2561 23.4961 49.0109 23.2509C48.8741 23.0858 48.6524 22.8925 48.6524 22.7557C48.4308 20.7468 47.6338 18.851 46.3983 17.2806C45.8465 13.9795 43.6489 12.9609 43.5923 12.9326C43.6489 13.0175 45.0778 15.0783 44.0875 17.4975C43.0689 19.9451 40.4563 19.5631 40.2346 19.5867C40.013 19.5867 39.1641 20.6855 38.0889 22.7227C37.9521 22.6661 37.3721 22.5294 36.7119 22.6425C37.207 21.2655 37.9521 19.3131 38.0889 19.1481C38.1455 19.0915 38.5558 18.983 38.834 18.9029C39.3575 18.7661 39.6027 18.6812 39.6876 18.5728C39.7442 18.4879 40.0177 17.8559 40.2912 17.1957C40.5412 17.1957 41.1731 17.1391 41.225 17.1108C41.2815 17.0542 41.805 15.7102 41.805 15.5452C41.805 15.4084 40.7298 12.7392 40.3195 11.7206C40.5129 11.4989 40.7062 11.2254 40.8948 10.9236C46.535 11.532 50.9396 16.3186 50.9396 22.1191C50.9396 26.5756 48.3271 30.4567 44.5308 32.2724Z" fill="#1B314F"/>
<path d="M37.2113 17.4172C37.7347 16.8136 37.4612 15.6865 36.4945 15.4932C36.7444 14.9178 37.0981 13.7625 37.0981 13.7625C37.0981 13.7625 34.2921 18.1623 34.0469 18.2472C33.797 18.3321 33.5517 17.3654 33.5517 17.3654C33.0283 19.3743 34.4336 19.6478 34.5987 19.0159C35.3674 18.8179 36.6878 17.9926 37.2113 17.4172Z" fill="#1B314F"/>
<path d="M34.8154 18.4878L36.2443 16.0403C36.2443 16.0403 37.0696 16.4553 36.6546 17.1155C36.1359 17.8842 34.8154 18.4878 34.8154 18.4878Z" fill="#FFD923"/>
<path d="M52.5051 29.8247C52.0901 30.3765 51.6232 30.9518 51.0762 31.5036C54.6225 24.6797 51.2412 18.4359 51.1045 18.1907C51.3544 18.4406 51.5996 18.7141 51.8213 18.9594C54.5423 21.9822 54.8724 26.5236 52.5051 29.8247Z" fill="#D82122"/>
<path d="M55.8061 21.0486C54.5658 17.7192 52.8068 14.885 48.9304 12.329C45.1907 9.85313 41.1728 10.0465 40.9511 10.0748C40.9228 10.0748 40.8945 10.0748 40.8945 10.0748C41.0313 10.0182 41.1681 9.98989 41.3048 9.96631C42.1584 9.69279 43.2572 9.47114 44.3607 9.33438C47.2798 8.91467 50.2225 9.905 52.2315 12.0271C52.2598 12.0554 52.2598 12.0554 52.2881 12.0837C54.5706 14.503 55.7542 17.5259 55.8061 21.0486Z" fill="#D82122"/>
<path d="M48.0482 7.42918C43.9501 6.66049 41.3092 7.04248 39.4087 7.75929C39.3521 7.53765 39.1588 7.09907 38.9937 6.74066C38.4231 7.42918 37.8148 8.25446 37.4328 8.77792C36.3858 9.49474 35.9473 10.1833 35.9473 10.1833C36.5509 8.1177 38.3146 6.58032 40.4604 6.19362C41.064 6.08516 41.7242 6.02856 42.441 6.02856C44.3368 6.05686 46.2326 6.52373 48.0482 7.42918Z" fill="#D82122"/>
<path d="M32.8916 12.7109C29.6754 12.6024 30.7459 8.85804 30.8025 8.64111C30.8025 8.66941 31.0194 11.5838 32.8916 12.7109Z" fill="#D82122"/>
<path d="M36.0554 5.97192C33.5796 7.45742 34.0748 11.0038 34.0748 11.0038C31.7074 7.40555 35.8621 6.05681 36.0554 5.97192Z" fill="#D82122"/>
<path d="M31.9858 13.7012C32.1508 13.838 32.3159 14.0879 32.1225 14.4463C32.0141 14.6397 31.849 14.6114 31.5991 14.5029C31.269 14.3379 29.2883 13.1825 27.501 11.9988C29.5382 12.7156 31.5991 13.4843 31.9292 13.6493C31.9292 13.6493 31.9575 13.6776 31.9858 13.7012Z" fill="white"/>
</svg>
