<svg width="60" height="40" viewBox="0 0 60 40" fill="none" xmlns="http://www.w3.org/2000/svg">
<path d="M20.2396 3.38295V3.39952C20.2561 3.48236 20.2561 3.58176 20.2561 3.68116V15.6262C20.2396 15.6924 20.1899 15.709 20.1402 15.7421C19.7923 15.9078 19.4609 16.0569 19.113 16.206C18.6326 16.4214 18.1355 16.6533 17.6551 16.8687L15.9155 17.6639C15.4351 17.8793 14.9546 18.0947 14.4907 18.3101C13.9275 18.5751 13.3476 18.8236 12.7843 19.0887C12.3039 19.3041 11.8234 19.536 11.3264 19.7514C10.9288 19.9336 10.5312 20.0993 10.1501 20.2816C10.117 20.2981 10.0838 20.3147 10.0507 20.3147C10.0341 20.3147 10.0341 20.3147 10.0176 20.2981L10.4649 19.5526C11.3264 18.1278 12.1713 16.7196 13.0328 15.2948C13.944 13.7706 14.8718 12.2464 15.783 10.7223C16.6279 9.31403 17.4894 7.90582 18.3343 6.4976C18.9473 5.47043 19.5769 4.44326 20.1899 3.41609C20.2064 3.38295 20.223 3.36639 20.223 3.33325H20.2396C20.223 3.34982 20.2396 3.36639 20.2396 3.38295Z" fill="#8A92B2"/>
<path d="M30.4105 20.2982L30.4271 20.3148L27.9917 21.7561L20.3376 26.279C20.3045 26.2956 20.2713 26.3121 20.2548 26.3287C20.2051 26.3287 20.2051 26.279 20.2051 26.2624V26.1133V15.8748C20.2051 15.8251 20.2051 15.7588 20.2216 15.7091C20.2382 15.6428 20.2879 15.6594 20.3376 15.676C20.553 15.7754 20.7849 15.8748 21.0003 15.9742C21.6464 16.2724 22.2926 16.5706 22.9387 16.8522C23.502 17.1007 24.0487 17.3658 24.612 17.6143C25.1753 17.8628 25.7385 18.1279 26.3018 18.3764C26.7823 18.5918 27.2793 18.8237 27.7598 19.0391C28.2402 19.2545 28.7372 19.4864 29.2177 19.7018C29.5987 19.8675 29.9798 20.0497 30.3608 20.2154C30.3608 20.2651 30.3774 20.2816 30.4105 20.2982Z" fill="#454A75"/>
<path d="M20.2386 36.6168C20.2386 36.6334 20.222 36.65 20.222 36.6665H20.2055C20.2055 36.6334 20.1723 36.6168 20.1558 36.5837C19.1286 35.1423 18.1014 33.6844 17.0743 32.2431C16.0305 30.7686 14.9702 29.2775 13.9265 27.803C12.9159 26.3782 11.8887 24.9369 10.8781 23.5121C10.613 23.1311 10.3479 22.7666 10.0829 22.3855C10.0663 22.3524 10.0497 22.3358 10.0166 22.2861C10.0663 22.2861 10.0994 22.3193 10.116 22.3358C11.5574 23.1808 12.9821 24.0257 14.4235 24.8706C16.0802 25.8481 17.7204 26.8256 19.3771 27.803L20.222 28.3C20.2552 28.3332 20.2552 28.3663 20.2552 28.3995V36.3849C20.2552 36.4677 20.2552 36.5505 20.2386 36.6168Z" fill="#8A92B2"/>
<path d="M10 20.3311V20.3146C10.5302 20.0826 11.0437 19.8341 11.5739 19.6022C12.2531 19.2874 12.9324 18.9892 13.6117 18.6744C14.1252 18.4425 14.6554 18.194 15.169 17.962C15.9311 17.6141 16.6766 17.2828 17.4387 16.9349C17.9523 16.7029 18.4659 16.471 18.996 16.2225C19.3605 16.0568 19.7415 15.8911 20.106 15.7254C20.1392 15.7089 20.1889 15.6923 20.2054 15.6592C20.222 15.6592 20.222 15.6757 20.2054 15.6923V26.2125C20.2054 26.2622 20.1889 26.3119 20.222 26.3451C20.1889 26.3948 20.1557 26.3451 20.1392 26.3285C19.9901 26.2457 19.841 26.1628 19.6918 26.0634C16.4944 24.1748 13.2803 22.2695 10.0828 20.3809C10.0663 20.3643 10.0331 20.3477 10 20.3311Z" fill="#62688F"/>
<path d="M30.3774 22.2861H30.394C30.394 22.3193 30.3608 22.3524 30.3443 22.3855C27.2959 26.6765 24.2475 30.9839 21.1991 35.2749C20.8844 35.7222 20.553 36.1695 20.2382 36.6168C20.2217 36.6002 20.2217 36.5837 20.2217 36.5671V36.4677V28.4326V28.2835C20.9175 27.8693 21.5968 27.4717 22.2926 27.0575C24.9765 25.467 27.6604 23.8932 30.3277 22.3027C30.3443 22.3193 30.3608 22.3027 30.3774 22.2861Z" fill="#62688F"/>
<path d="M20.2221 15.6923V15.6592V15.5598V3.53195C20.2221 3.48225 20.2055 3.44912 20.2387 3.39941C23.6018 8.98258 26.965 14.5492 30.3116 20.1323C30.3447 20.182 30.3944 20.2483 30.411 20.3146C30.179 20.2318 29.9637 20.1158 29.7483 20.0164C29.4832 19.9004 29.2016 19.7679 28.9365 19.6519C28.7708 19.5691 28.5886 19.5028 28.4229 19.42C28.1413 19.2874 27.8596 19.1714 27.578 19.0389C27.4123 18.9726 27.2466 18.8898 27.0809 18.807L25.9875 18.3099C25.8053 18.2271 25.623 18.1443 25.4242 18.0614L24.629 17.7135C24.4633 17.6473 24.2976 17.5644 24.132 17.4816L23.0385 16.9846C22.8563 16.9017 22.6741 16.8189 22.4752 16.7361L21.68 16.3881C21.4978 16.3053 21.3321 16.2225 21.1499 16.1396C20.8351 15.9905 20.5203 15.8414 20.189 15.7089C20.2387 15.6923 20.2221 15.6923 20.2221 15.6923Z" fill="#62688F"/>
<path fill-rule="evenodd" clip-rule="evenodd" d="M40.0002 3.33325C49.2051 3.33325 56.6669 10.795 56.6669 19.9999C56.6669 29.2041 49.2051 36.6666 40.0002 36.6666C30.7953 36.6666 23.3335 29.2041 23.3335 19.9999C23.3335 10.795 30.7953 3.33325 40.0002 3.33325Z" fill="#2775CA"/>
<path fill-rule="evenodd" clip-rule="evenodd" d="M36.8775 31.5877C36.8775 31.9798 36.5705 32.2025 36.1914 32.0841C31.1521 30.4766 27.4985 25.7514 27.4985 20.176C27.4985 14.6008 31.1521 9.8754 36.1914 8.26782C36.5705 8.15021 36.8775 8.37218 36.8775 8.76422V9.73203C36.8775 9.99301 36.6753 10.3002 36.4266 10.3852C32.4396 11.8493 29.5836 15.6794 29.5836 20.1694C29.5836 24.6593 32.4396 28.4902 36.4266 29.9535C36.6753 30.0451 36.8775 30.3455 36.8775 30.6074V31.5877Z" fill="white"/>
<path fill-rule="evenodd" clip-rule="evenodd" d="M41.0391 27.9864C41.0391 28.2743 40.8039 28.5095 40.5164 28.5095H39.477C39.1895 28.5095 38.9543 28.2743 38.9543 27.9864V26.3396C36.6797 26.0326 35.5689 24.7578 35.2681 23.026C35.2156 22.7314 35.4509 22.4636 35.7516 22.4636H36.9412C37.1895 22.4636 37.3988 22.6403 37.4511 22.8883C37.6734 23.921 38.2681 24.7119 40.0914 24.7119C41.4378 24.7119 42.3923 23.9602 42.3923 22.8366C42.3923 21.7119 41.83 21.2873 39.8562 20.9602C36.9412 20.5682 35.5622 19.6856 35.5622 17.3981C35.5622 15.6335 36.8957 14.2612 38.9609 13.9668V12.3525C38.9609 12.0648 39.1963 11.8293 39.4836 11.8293H40.523C40.8105 11.8293 41.0458 12.0648 41.0458 12.3525V14.0127C42.7255 14.3138 43.7908 15.2674 44.1374 16.8491C44.2026 17.1502 43.9674 17.4307 43.6603 17.4307H42.562C42.3268 17.4307 42.1308 17.2737 42.059 17.0451C41.7649 16.039 41.0458 15.6078 39.7973 15.6078C38.4183 15.6078 37.7058 16.2742 37.7058 17.2087C37.7058 18.1956 38.1113 18.692 40.2291 18.9998C43.0914 19.3919 44.5689 20.2087 44.5689 22.6472C44.5689 24.4966 43.1961 25.9934 41.0458 26.3396V27.9864H41.0391Z" fill="white"/>
<path fill-rule="evenodd" clip-rule="evenodd" d="M43.8112 32.0842C43.4324 32.2026 43.125 31.9799 43.125 31.5878V30.6208C43.125 30.3331 43.3015 30.0653 43.5759 29.9668C47.5629 28.5028 50.419 24.6727 50.419 20.1827C50.419 15.6927 47.5629 11.8626 43.5759 10.3986C43.3277 10.3069 43.125 10.0065 43.125 9.74461V8.77756C43.125 8.38552 43.4324 8.15692 43.8112 8.2804C48.8504 9.88893 52.504 14.6141 52.504 20.1893C52.4977 25.7513 48.8504 30.47 43.8112 32.0842Z" fill="white"/>
</svg>
