<svg width="60" height="40" viewBox="0 0 60 40" fill="none" xmlns="http://www.w3.org/2000/svg">
<path d="M20 3.33325C29.2056 3.33325 36.6667 10.7958 36.6667 19.9999C36.6667 29.2055 29.2056 36.6666 20 36.6666C10.7959 36.6666 3.33337 29.2048 3.33337 19.9999C3.33337 10.7958 10.7959 3.33325 20 3.33325Z" fill="#F5AC37"/>
<path d="M20.6137 21.1768H26.9468C27.0818 21.1768 27.1456 21.1768 27.1553 20.9998C27.2071 20.3556 27.2071 19.7076 27.1553 19.0625C27.1553 18.9373 27.0931 18.8855 26.9573 18.8855H14.3534C14.1974 18.8855 14.1554 18.9373 14.1554 19.0835V20.9376C14.1554 21.1768 14.1554 21.1768 14.4052 21.1768H20.6137V21.1768ZM26.4481 16.7188C26.4661 16.6715 26.4661 16.6198 26.4481 16.5733C26.3423 16.343 26.217 16.1233 26.0715 15.917C25.8525 15.5645 25.5945 15.2398 25.3005 14.948C25.1618 14.7718 25.0013 14.6135 24.8213 14.4793C23.9198 13.712 22.848 13.169 21.696 12.896C21.1147 12.7655 20.5207 12.7032 19.9252 12.7085H14.3317C14.1757 12.7085 14.1547 12.7707 14.1547 12.9065V16.604C14.1547 16.76 14.1547 16.802 14.3527 16.802H26.3731C26.3731 16.802 26.4773 16.781 26.4983 16.7188H26.4473H26.4481ZM26.4481 23.3436C26.2711 23.3241 26.0925 23.3241 25.9155 23.3436H14.3639C14.2079 23.3436 14.1554 23.3436 14.1554 23.5521V27.1671C14.1554 27.3336 14.1554 27.3756 14.3639 27.3756H19.6972C19.9522 27.3951 20.2072 27.3771 20.457 27.3239C21.231 27.2684 21.9923 27.1004 22.7183 26.8236C22.9823 26.7321 23.2373 26.6129 23.478 26.4696H23.5508C24.801 25.8194 25.8165 24.7979 26.4571 23.5438C26.4571 23.5438 26.5298 23.3863 26.4481 23.3451V23.3436ZM12.0622 29.2499V29.1876V26.7606V25.9379V23.4898C12.0622 23.3541 12.0622 23.3338 11.8957 23.3338H9.63513C9.50988 23.3338 9.45813 23.3338 9.45813 23.1673V21.1881H11.8747C12.0097 21.1881 12.0622 21.1881 12.0622 21.0111V19.0528C12.0622 18.9275 12.0622 18.8968 11.8957 18.8968H9.63513C9.50988 18.8968 9.45813 18.8968 9.45813 18.7303V16.8973C9.45813 16.7825 9.45813 16.7518 9.62463 16.7518H11.8642C12.0202 16.7518 12.0622 16.7518 12.0622 16.5538V10.9392C12.0622 10.7727 12.0622 10.7307 12.2707 10.7307H20.0827C20.6497 10.7532 21.213 10.8155 21.7703 10.9182C22.9185 11.1305 24.0218 11.5407 25.0305 12.1265C25.6995 12.5202 26.3153 12.9957 26.8636 13.5432C27.2761 13.9715 27.6481 14.435 27.9781 14.9285C28.3058 15.4288 28.5781 15.9635 28.7918 16.5223C28.8181 16.6678 28.9576 16.766 29.1031 16.7413H30.9676C31.2068 16.7413 31.2068 16.7413 31.2173 16.9708V18.6793C31.2173 18.8458 31.1551 18.8878 30.9878 18.8878H29.5501C29.4046 18.8878 29.3626 18.8878 29.3731 19.0753C29.4301 19.7098 29.4301 20.3466 29.3731 20.9811C29.3731 21.1581 29.3731 21.1791 29.5718 21.1791H31.2166C31.2893 21.2728 31.2166 21.3666 31.2166 21.4611C31.2271 21.5818 31.2271 21.7041 31.2166 21.8248V23.0856C31.2166 23.2626 31.1648 23.3151 31.0081 23.3151H29.0393C28.9021 23.2888 28.7686 23.3766 28.7371 23.5131C28.2683 24.7319 27.5183 25.8246 26.5493 26.7006C26.1953 27.0194 25.8233 27.3194 25.4348 27.5961C25.0178 27.8361 24.612 28.0859 24.1845 28.2839C23.3978 28.6379 22.5728 28.8989 21.726 29.0646C20.922 29.2086 20.1067 29.2739 19.2885 29.2626H12.0592V29.2521L12.0622 29.2499Z" fill="#FEFEFD"/>
<path fill-rule="evenodd" clip-rule="evenodd" d="M40.0001 3.33325C49.205 3.33325 56.6668 10.795 56.6668 19.9999C56.6668 29.2041 49.205 36.6666 40.0001 36.6666C30.7951 36.6666 23.3334 29.2041 23.3334 19.9999C23.3334 10.795 30.7951 3.33325 40.0001 3.33325Z" fill="#2775CA"/>
<path fill-rule="evenodd" clip-rule="evenodd" d="M36.8772 31.5877C36.8772 31.9798 36.5702 32.2025 36.191 32.0841C31.1518 30.4766 27.4982 25.7514 27.4982 20.176C27.4982 14.6008 31.1518 9.8754 36.191 8.26782C36.5702 8.15021 36.8772 8.37218 36.8772 8.76422V9.73203C36.8772 9.99301 36.6749 10.3002 36.4262 10.3852C32.4393 11.8493 29.5832 15.6794 29.5832 20.1694C29.5832 24.6593 32.4393 28.4902 36.4262 29.9535C36.6749 30.0451 36.8772 30.3455 36.8772 30.6074V31.5877Z" fill="white"/>
<path fill-rule="evenodd" clip-rule="evenodd" d="M41.039 27.9864C41.039 28.2743 40.8038 28.5095 40.5163 28.5095H39.4769C39.1894 28.5095 38.9542 28.2743 38.9542 27.9864V26.3396C36.6795 26.0326 35.5687 24.7578 35.268 23.026C35.2155 22.7314 35.4507 22.4636 35.7515 22.4636H36.9411C37.1894 22.4636 37.3987 22.6403 37.4509 22.8883C37.6733 23.921 38.268 24.7119 40.0913 24.7119C41.4377 24.7119 42.3922 23.9602 42.3922 22.8366C42.3922 21.7119 41.8299 21.2873 39.856 20.9602C36.9411 20.5682 35.5621 19.6856 35.5621 17.3981C35.5621 15.6335 36.8956 14.2612 38.9608 13.9668V12.3525C38.9608 12.0648 39.1962 11.8293 39.4835 11.8293H40.5229C40.8104 11.8293 41.0456 12.0648 41.0456 12.3525V14.0127C42.7254 14.3138 43.7907 15.2674 44.1373 16.8491C44.2025 17.1502 43.9672 17.4307 43.6602 17.4307H42.5619C42.3267 17.4307 42.1307 17.2737 42.0589 17.0451C41.7648 16.039 41.0456 15.6078 39.7971 15.6078C38.4182 15.6078 37.7057 16.2742 37.7057 17.2087C37.7057 18.1956 38.1112 18.692 40.229 18.9998C43.0913 19.3919 44.5687 20.2087 44.5687 22.6472C44.5687 24.4966 43.196 25.9934 41.0456 26.3396V27.9864H41.039Z" fill="white"/>
<path fill-rule="evenodd" clip-rule="evenodd" d="M43.8108 32.0842C43.432 32.2026 43.1246 31.9799 43.1246 31.5878V30.6208C43.1246 30.3331 43.3011 30.0653 43.5756 29.9668C47.5625 28.5028 50.4186 24.6727 50.4186 20.1827C50.4186 15.6927 47.5625 11.8626 43.5756 10.3986C43.3273 10.3069 43.1246 10.0065 43.1246 9.74461V8.77756C43.1246 8.38552 43.432 8.15692 43.8108 8.2804C48.85 9.88893 52.5036 14.6141 52.5036 20.1893C52.4974 25.7513 48.85 30.47 43.8108 32.0842Z" fill="white"/>
</svg>
