<svg width="60" height="40" viewBox="0 0 60 40" fill="none" xmlns="http://www.w3.org/2000/svg">
<path d="M19.9999 3.33325C29.2055 3.33325 36.6666 10.7958 36.6666 19.9999C36.6666 29.2055 29.2055 36.6666 19.9999 36.6666C10.7958 36.6666 3.33325 29.2048 3.33325 19.9999C3.33325 10.7958 10.7958 3.33325 19.9999 3.33325Z" fill="#F5AC37"/>
<path d="M20.6136 21.1768H26.9467C27.0817 21.1768 27.1454 21.1768 27.1552 20.9998C27.2069 20.3556 27.2069 19.7076 27.1552 19.0625C27.1552 18.9373 27.0929 18.8855 26.9572 18.8855H14.3533C14.1973 18.8855 14.1553 18.9373 14.1553 19.0835V20.9376C14.1553 21.1768 14.1553 21.1768 14.4051 21.1768H20.6136V21.1768ZM26.4479 16.7188C26.4659 16.6715 26.4659 16.6198 26.4479 16.5733C26.3422 16.343 26.2169 16.1233 26.0714 15.917C25.8524 15.5645 25.5944 15.2398 25.3004 14.948C25.1617 14.7718 25.0012 14.6135 24.8212 14.4793C23.9197 13.712 22.8479 13.169 21.6959 12.896C21.1146 12.7655 20.5206 12.7032 19.9251 12.7085H14.3316C14.1756 12.7085 14.1546 12.7707 14.1546 12.9065V16.604C14.1546 16.76 14.1546 16.802 14.3526 16.802H26.3729C26.3729 16.802 26.4772 16.781 26.4982 16.7188H26.4472H26.4479ZM26.4479 23.3436C26.2709 23.3241 26.0924 23.3241 25.9154 23.3436H14.3638C14.2078 23.3436 14.1553 23.3436 14.1553 23.5521V27.1671C14.1553 27.3336 14.1553 27.3756 14.3638 27.3756H19.6971C19.9521 27.3951 20.2071 27.3771 20.4569 27.3239C21.2309 27.2684 21.9921 27.1004 22.7181 26.8236C22.9821 26.7321 23.2371 26.6129 23.4779 26.4696H23.5507C24.8009 25.8194 25.8164 24.7979 26.4569 23.5438C26.4569 23.5438 26.5297 23.3863 26.4479 23.3451V23.3436ZM12.062 29.2499V29.1876V26.7606V25.9379V23.4898C12.062 23.3541 12.062 23.3338 11.8955 23.3338H9.63501C9.50976 23.3338 9.45801 23.3338 9.45801 23.1673V21.1881H11.8745C12.0095 21.1881 12.062 21.1881 12.062 21.0111V19.0528C12.062 18.9275 12.062 18.8968 11.8955 18.8968H9.63501C9.50976 18.8968 9.45801 18.8968 9.45801 18.7303V16.8973C9.45801 16.7825 9.45801 16.7518 9.62451 16.7518H11.864C12.02 16.7518 12.062 16.7518 12.062 16.5538V10.9392C12.062 10.7727 12.062 10.7307 12.2705 10.7307H20.0826C20.6496 10.7532 21.2129 10.8155 21.7701 10.9182C22.9184 11.1305 24.0217 11.5407 25.0304 12.1265C25.6994 12.5202 26.3152 12.9957 26.8634 13.5432C27.2759 13.9715 27.6479 14.435 27.9779 14.9285C28.3057 15.4288 28.578 15.9635 28.7917 16.5223C28.818 16.6678 28.9575 16.766 29.103 16.7413H30.9675C31.2067 16.7413 31.2067 16.7413 31.2172 16.9708V18.6793C31.2172 18.8458 31.155 18.8878 30.9877 18.8878H29.55C29.4045 18.8878 29.3625 18.8878 29.373 19.0753C29.43 19.7098 29.43 20.3466 29.373 20.9811C29.373 21.1581 29.373 21.1791 29.5717 21.1791H31.2165C31.2892 21.2728 31.2165 21.3666 31.2165 21.4611C31.227 21.5818 31.227 21.7041 31.2165 21.8248V23.0856C31.2165 23.2626 31.1647 23.3151 31.008 23.3151H29.0392C28.902 23.2888 28.7685 23.3766 28.737 23.5131C28.2682 24.7319 27.5182 25.8246 26.5492 26.7006C26.1952 27.0194 25.8232 27.3194 25.4347 27.5961C25.0177 27.8361 24.6119 28.0859 24.1844 28.2839C23.3976 28.6379 22.5726 28.8989 21.7259 29.0646C20.9219 29.2086 20.1066 29.2739 19.2884 29.2626H12.059V29.2521L12.062 29.2499Z" fill="#FEFEFD"/>
<path d="M40.2393 3.38295V3.39952C40.2559 3.48236 40.2559 3.58176 40.2559 3.68116V15.6262C40.2393 15.6924 40.1896 15.709 40.1399 15.7421C39.792 15.9078 39.4607 16.0569 39.1128 16.206C38.6323 16.4214 38.1353 16.6533 37.6548 16.8687L35.9153 17.6639C35.4348 17.8793 34.9544 18.0947 34.4905 18.3101C33.9272 18.5751 33.3474 18.8236 32.7841 19.0887C32.3036 19.3041 31.8232 19.536 31.3261 19.7514C30.9285 19.9336 30.5309 20.0993 30.1499 20.2816C30.1167 20.2981 30.0836 20.3147 30.0505 20.3147C30.0339 20.3147 30.0339 20.3147 30.0173 20.2981L30.4646 19.5526C31.3261 18.1278 32.1711 16.7196 33.0326 15.2948C33.9438 13.7706 34.8715 12.2464 35.7827 10.7223C36.6277 9.31403 37.4892 7.90582 38.3341 6.4976C38.9471 5.47043 39.5766 4.44326 40.1896 3.41609C40.2062 3.38295 40.2228 3.36639 40.2228 3.33325H40.2393C40.2228 3.34982 40.2393 3.36639 40.2393 3.38295Z" fill="#8A92B2"/>
<path d="M50.4108 20.2982L50.4273 20.3148L47.9919 21.7561L40.3379 26.279C40.3047 26.2956 40.2716 26.3121 40.255 26.3287C40.2053 26.3287 40.2053 26.279 40.2053 26.2624V26.1133V15.8748C40.2053 15.8251 40.2053 15.7588 40.2219 15.7091C40.2385 15.6428 40.2882 15.6594 40.3379 15.676C40.5532 15.7754 40.7852 15.8748 41.0006 15.9742C41.6467 16.2724 42.2928 16.5706 42.9389 16.8522C43.5022 17.1007 44.0489 17.3658 44.6122 17.6143C45.1755 17.8628 45.7388 18.1279 46.3021 18.3764C46.7825 18.5918 47.2795 18.8237 47.76 19.0391C48.2404 19.2545 48.7375 19.4864 49.2179 19.7018C49.599 19.8675 49.98 20.0497 50.3611 20.2154C50.3611 20.2651 50.3776 20.2816 50.4108 20.2982Z" fill="#454A75"/>
<path d="M40.2384 36.6168C40.2384 36.6334 40.2218 36.65 40.2218 36.6665H40.2052C40.2052 36.6334 40.1721 36.6168 40.1555 36.5837C39.1284 35.1423 38.1012 33.6844 37.074 32.2431C36.0303 30.7686 34.97 29.2775 33.9262 27.803C32.9156 26.3782 31.8885 24.9369 30.8779 23.5121C30.6128 23.1311 30.3477 22.7666 30.0826 22.3855C30.0661 22.3524 30.0495 22.3358 30.0164 22.2861C30.0661 22.2861 30.0992 22.3193 30.1158 22.3358C31.5571 23.1808 32.9819 24.0257 34.4232 24.8706C36.08 25.8481 37.7201 26.8256 39.3769 27.803L40.2218 28.3C40.2549 28.3332 40.2549 28.3663 40.2549 28.3995V36.3849C40.2549 36.4677 40.2549 36.5505 40.2384 36.6168Z" fill="#8A92B2"/>
<path d="M30 20.3311V20.3146C30.5302 20.0826 31.0437 19.8341 31.5739 19.6022C32.2531 19.2874 32.9324 18.9892 33.6117 18.6744C34.1252 18.4425 34.6554 18.194 35.169 17.962C35.9311 17.6141 36.6766 17.2828 37.4387 16.9349C37.9523 16.7029 38.4659 16.471 38.996 16.2225C39.3605 16.0568 39.7415 15.8911 40.106 15.7254C40.1392 15.7089 40.1889 15.6923 40.2054 15.6592C40.222 15.6592 40.222 15.6757 40.2054 15.6923V26.2125C40.2054 26.2622 40.1889 26.3119 40.222 26.3451C40.1889 26.3948 40.1557 26.3451 40.1392 26.3285C39.9901 26.2457 39.841 26.1628 39.6918 26.0634C36.4944 24.1748 33.2803 22.2695 30.0828 20.3809C30.0663 20.3643 30.0331 20.3477 30 20.3311Z" fill="#62688F"/>
<path d="M50.3777 22.2861H50.3942C50.3942 22.3193 50.3611 22.3524 50.3445 22.3855C47.2961 26.6765 44.2478 30.9839 41.1994 35.2749C40.8846 35.7222 40.5533 36.1695 40.2385 36.6168C40.2219 36.6002 40.2219 36.5837 40.2219 36.5671V36.4677V28.4326V28.2835C40.9177 27.8693 41.597 27.4717 42.2928 27.0575C44.9767 25.467 47.6606 23.8932 50.328 22.3027C50.3445 22.3193 50.3611 22.3027 50.3777 22.2861Z" fill="#62688F"/>
<path d="M40.2221 15.6923V15.6592V15.5598V3.53195C40.2221 3.48225 40.2055 3.44912 40.2387 3.39941C43.6018 8.98258 46.965 14.5492 50.3116 20.1323C50.3447 20.182 50.3944 20.2483 50.411 20.3146C50.179 20.2318 49.9637 20.1158 49.7483 20.0164C49.4832 19.9004 49.2016 19.7679 48.9365 19.6519C48.7708 19.5691 48.5886 19.5028 48.4229 19.42C48.1413 19.2874 47.8596 19.1714 47.578 19.0389C47.4123 18.9726 47.2466 18.8898 47.0809 18.807L45.9875 18.3099C45.8053 18.2271 45.623 18.1443 45.4242 18.0614L44.629 17.7135C44.4633 17.6473 44.2976 17.5644 44.132 17.4816L43.0385 16.9846C42.8563 16.9017 42.6741 16.8189 42.4752 16.7361L41.68 16.3881C41.4978 16.3053 41.3321 16.2225 41.1499 16.1396C40.8351 15.9905 40.5203 15.8414 40.189 15.7089C40.2387 15.6923 40.2221 15.6923 40.2221 15.6923Z" fill="#62688F"/>
</svg>
