<svg width="60" height="40" viewBox="0 0 60 40" fill="none" xmlns="http://www.w3.org/2000/svg">
<path d="M20.2393 3.38295V3.39952C20.2559 3.48236 20.2559 3.58176 20.2559 3.68116V15.6262C20.2393 15.6924 20.1896 15.709 20.1399 15.7421C19.792 15.9078 19.4607 16.0569 19.1128 16.206C18.6323 16.4214 18.1353 16.6533 17.6548 16.8687L15.9153 17.6639C15.4348 17.8793 14.9544 18.0947 14.4905 18.3101C13.9272 18.5751 13.3474 18.8236 12.7841 19.0887C12.3036 19.3041 11.8232 19.536 11.3261 19.7514C10.9285 19.9336 10.5309 20.0993 10.1499 20.2816C10.1167 20.2981 10.0836 20.3147 10.0505 20.3147C10.0339 20.3147 10.0339 20.3147 10.0173 20.2981L10.4646 19.5526C11.3261 18.1278 12.1711 16.7196 13.0326 15.2948C13.9438 13.7706 14.8715 12.2464 15.7827 10.7223C16.6277 9.31403 17.4892 7.90582 18.3341 6.4976C18.9471 5.47043 19.5766 4.44326 20.1896 3.41609C20.2062 3.38295 20.2228 3.36639 20.2228 3.33325H20.2393C20.2228 3.34982 20.2393 3.36639 20.2393 3.38295Z" fill="#8A92B2"/>
<path d="M30.4108 20.2982L30.4273 20.3148L27.9919 21.7561L20.3379 26.279C20.3047 26.2956 20.2716 26.3121 20.255 26.3287C20.2053 26.3287 20.2053 26.279 20.2053 26.2624V26.1133V15.8748C20.2053 15.8251 20.2053 15.7588 20.2219 15.7091C20.2385 15.6428 20.2882 15.6594 20.3379 15.676C20.5532 15.7754 20.7852 15.8748 21.0006 15.9742C21.6467 16.2724 22.2928 16.5706 22.9389 16.8522C23.5022 17.1007 24.0489 17.3658 24.6122 17.6143C25.1755 17.8628 25.7388 18.1279 26.3021 18.3764C26.7825 18.5918 27.2795 18.8237 27.76 19.0391C28.2404 19.2545 28.7375 19.4864 29.2179 19.7018C29.599 19.8675 29.98 20.0497 30.3611 20.2154C30.3611 20.2651 30.3776 20.2816 30.4108 20.2982Z" fill="#454A75"/>
<path d="M20.2384 36.6168C20.2384 36.6334 20.2218 36.65 20.2218 36.6665H20.2052C20.2052 36.6334 20.1721 36.6168 20.1555 36.5837C19.1284 35.1423 18.1012 33.6844 17.074 32.2431C16.0303 30.7686 14.97 29.2775 13.9262 27.803C12.9156 26.3782 11.8885 24.9369 10.8779 23.5121C10.6128 23.1311 10.3477 22.7666 10.0826 22.3855C10.0661 22.3524 10.0495 22.3358 10.0164 22.2861C10.0661 22.2861 10.0992 22.3193 10.1158 22.3358C11.5571 23.1808 12.9819 24.0257 14.4232 24.8706C16.08 25.8481 17.7201 26.8256 19.3769 27.803L20.2218 28.3C20.2549 28.3332 20.2549 28.3663 20.2549 28.3995V36.3849C20.2549 36.4677 20.2549 36.5505 20.2384 36.6168Z" fill="#8A92B2"/>
<path d="M10 20.3311V20.3146C10.5302 20.0826 11.0437 19.8341 11.5739 19.6022C12.2531 19.2874 12.9324 18.9892 13.6117 18.6744C14.1252 18.4425 14.6554 18.194 15.169 17.962C15.9311 17.6141 16.6766 17.2828 17.4387 16.9349C17.9523 16.7029 18.4659 16.471 18.996 16.2225C19.3605 16.0568 19.7415 15.8911 20.106 15.7254C20.1392 15.7089 20.1889 15.6923 20.2054 15.6592C20.222 15.6592 20.222 15.6757 20.2054 15.6923V26.2125C20.2054 26.2622 20.1889 26.3119 20.222 26.3451C20.1889 26.3948 20.1557 26.3451 20.1392 26.3285C19.9901 26.2457 19.841 26.1628 19.6918 26.0634C16.4944 24.1748 13.2803 22.2695 10.0828 20.3809C10.0663 20.3643 10.0331 20.3477 10 20.3311Z" fill="#62688F"/>
<path d="M30.3777 22.2861H30.3942C30.3942 22.3193 30.3611 22.3524 30.3445 22.3855C27.2961 26.6765 24.2478 30.9839 21.1994 35.2749C20.8846 35.7222 20.5533 36.1695 20.2385 36.6168C20.2219 36.6002 20.2219 36.5837 20.2219 36.5671V36.4677V28.4326V28.2835C20.9177 27.8693 21.597 27.4717 22.2928 27.0575C24.9767 25.467 27.6606 23.8932 30.328 22.3027C30.3445 22.3193 30.3611 22.3027 30.3777 22.2861Z" fill="#62688F"/>
<path d="M20.2221 15.6923V15.6592V15.5598V3.53195C20.2221 3.48225 20.2055 3.44912 20.2387 3.39941C23.6018 8.98258 26.965 14.5492 30.3116 20.1323C30.3447 20.182 30.3944 20.2483 30.411 20.3146C30.179 20.2318 29.9637 20.1158 29.7483 20.0164C29.4832 19.9004 29.2016 19.7679 28.9365 19.6519C28.7708 19.5691 28.5886 19.5028 28.4229 19.42C28.1413 19.2874 27.8596 19.1714 27.578 19.0389C27.4123 18.9726 27.2466 18.8898 27.0809 18.807L25.9875 18.3099C25.8053 18.2271 25.623 18.1443 25.4242 18.0614L24.629 17.7135C24.4633 17.6473 24.2976 17.5644 24.132 17.4816L23.0385 16.9846C22.8563 16.9017 22.6741 16.8189 22.4752 16.7361L21.68 16.3881C21.4978 16.3053 21.3321 16.2225 21.1499 16.1396C20.8351 15.9905 20.5203 15.8414 20.189 15.7089C20.2387 15.6923 20.2221 15.6923 20.2221 15.6923Z" fill="#62688F"/>
<path fill-rule="evenodd" clip-rule="evenodd" d="M39.9999 3.33325C49.2049 3.33325 56.6666 10.795 56.6666 19.9999C56.6666 29.2041 49.2049 36.6666 39.9999 36.6666C30.795 36.6666 23.3333 29.2041 23.3333 19.9999C23.3333 10.795 30.795 3.33325 39.9999 3.33325Z" fill="#2775CA"/>
<path fill-rule="evenodd" clip-rule="evenodd" d="M36.877 31.5877C36.877 31.9798 36.57 32.2025 36.1909 32.0841C31.1517 30.4766 27.498 25.7514 27.498 20.176C27.498 14.6008 31.1517 9.8754 36.1909 8.26782C36.57 8.15021 36.877 8.37218 36.877 8.76422V9.73203C36.877 9.99301 36.6748 10.3002 36.4261 10.3852C32.4392 11.8493 29.5831 15.6794 29.5831 20.1694C29.5831 24.6593 32.4392 28.4902 36.4261 29.9535C36.6748 30.0451 36.877 30.3455 36.877 30.6074V31.5877Z" fill="white"/>
<path fill-rule="evenodd" clip-rule="evenodd" d="M41.0389 27.9864C41.0389 28.2743 40.8037 28.5095 40.5162 28.5095H39.4768C39.1893 28.5095 38.954 28.2743 38.954 27.9864V26.3396C36.6794 26.0326 35.5686 24.7578 35.2679 23.026C35.2154 22.7314 35.4506 22.4636 35.7514 22.4636H36.941C37.1893 22.4636 37.3985 22.6403 37.4508 22.8883C37.6732 23.921 38.2679 24.7119 40.0912 24.7119C41.4376 24.7119 42.3921 23.9602 42.3921 22.8366C42.3921 21.7119 41.8298 21.2873 39.8559 20.9602C36.941 20.5682 35.562 19.6856 35.562 17.3981C35.562 15.6335 36.8955 14.2612 38.9607 13.9668V12.3525C38.9607 12.0648 39.1961 11.8293 39.4834 11.8293H40.5228C40.8103 11.8293 41.0455 12.0648 41.0455 12.3525V14.0127C42.7253 14.3138 43.7906 15.2674 44.1372 16.8491C44.2023 17.1502 43.9671 17.4307 43.6601 17.4307H42.5618C42.3266 17.4307 42.1306 17.2737 42.0588 17.0451C41.7646 16.039 41.0455 15.6078 39.797 15.6078C38.418 15.6078 37.7055 16.2742 37.7055 17.2087C37.7055 18.1956 38.111 18.692 40.2288 18.9998C43.0912 19.3919 44.5686 20.2087 44.5686 22.6472C44.5686 24.4966 43.1959 25.9934 41.0455 26.3396V27.9864H41.0389Z" fill="white"/>
<path fill-rule="evenodd" clip-rule="evenodd" d="M43.8107 32.0842C43.4319 32.2026 43.1245 31.9799 43.1245 31.5878V30.6208C43.1245 30.3331 43.301 30.0653 43.5755 29.9668C47.5624 28.5028 50.4185 24.6727 50.4185 20.1827C50.4185 15.6927 47.5624 11.8626 43.5755 10.3986C43.3272 10.3069 43.1245 10.0065 43.1245 9.74461V8.77756C43.1245 8.38552 43.4319 8.15692 43.8107 8.2804C48.8499 9.88893 52.5035 14.6141 52.5035 20.1893C52.4973 25.7513 48.8499 30.47 43.8107 32.0842Z" fill="white"/>
</svg>
