<svg width="60" height="40" viewBox="0 0 60 40" fill="none" xmlns="http://www.w3.org/2000/svg">
<path d="M19.9501 3.33325L24.0671 7.54952L13.7001 17.9166L9.58301 13.7995L19.9501 3.33325Z" fill="#F0B90B" stroke="#F0B90B"/>
<path d="M26.2001 9.58325L30.3172 13.7995L13.7001 30.4166L9.58301 26.2995L26.2001 9.58325Z" fill="#F0B90B" stroke="#F0B90B"/>
<path d="M7.45007 15.8333L11.5671 20.0495L7.45007 24.1666L3.33301 20.0495L7.45007 15.8333Z" fill="#F0B90B" stroke="#F0B90B"/>
<path d="M32.4501 15.8333L36.5671 20.0495L19.9501 36.6666L15.833 32.5495L32.4501 15.8333Z" fill="#F0B90B" stroke="#F0B90B"/>
<path d="M56.6663 19.9999C56.6663 29.2049 49.2047 36.6666 39.9997 36.6666C30.795 36.6666 23.333 29.2049 23.333 19.9999C23.333 10.7951 30.795 3.33325 39.9997 3.33325C49.2047 3.33325 56.6663 10.7951 56.6663 19.9999Z" fill="#1BA27A"/>
<path d="M47.8207 11.7375H32.0391V15.5475H38.0249V21.1475H41.8349V15.5475H47.8207V11.7375Z" fill="white"/>
<path d="M39.9681 21.7442C35.0164 21.7442 31.0019 20.9605 31.0019 19.9937C31.0019 19.027 35.0162 18.2432 39.9681 18.2432C44.9197 18.2432 48.9341 19.027 48.9341 19.9937C48.9341 20.9605 44.9197 21.7442 39.9681 21.7442ZM50.0356 20.2855C50.0356 19.0388 45.5282 18.0283 39.9681 18.0283C34.4081 18.0283 29.9004 19.0388 29.9004 20.2855C29.9004 21.3833 33.3956 22.298 38.0271 22.5007V30.5397H41.8367V22.5038C46.5039 22.3075 50.0356 21.389 50.0356 20.2855Z" fill="white"/>
</svg>
