<svg width="60" height="40" viewBox="0 0 60 40" fill="none" xmlns="http://www.w3.org/2000/svg">
<path d="M20.2396 3.38295V3.39952C20.2561 3.48236 20.2561 3.58176 20.2561 3.68116V15.6262C20.2396 15.6924 20.1899 15.709 20.1402 15.7421C19.7923 15.9078 19.4609 16.0569 19.113 16.206C18.6326 16.4214 18.1355 16.6533 17.6551 16.8687L15.9155 17.6639C15.4351 17.8793 14.9546 18.0947 14.4907 18.3101C13.9275 18.5751 13.3476 18.8236 12.7843 19.0887C12.3039 19.3041 11.8234 19.536 11.3264 19.7514C10.9288 19.9336 10.5312 20.0993 10.1501 20.2816C10.117 20.2981 10.0838 20.3147 10.0507 20.3147C10.0341 20.3147 10.0341 20.3147 10.0176 20.2981L10.4649 19.5526C11.3264 18.1278 12.1713 16.7196 13.0328 15.2948C13.944 13.7706 14.8718 12.2464 15.783 10.7223C16.6279 9.31403 17.4894 7.90582 18.3343 6.4976C18.9473 5.47043 19.5769 4.44326 20.1899 3.41609C20.2064 3.38295 20.223 3.36639 20.223 3.33325H20.2396C20.223 3.34982 20.2396 3.36639 20.2396 3.38295Z" fill="#8A92B2"/>
<path d="M30.4105 20.2982L30.4271 20.3148L27.9917 21.7561L20.3376 26.279C20.3045 26.2956 20.2713 26.3121 20.2548 26.3287C20.2051 26.3287 20.2051 26.279 20.2051 26.2624V26.1133V15.8748C20.2051 15.8251 20.2051 15.7588 20.2216 15.7091C20.2382 15.6428 20.2879 15.6594 20.3376 15.676C20.553 15.7754 20.7849 15.8748 21.0003 15.9742C21.6464 16.2724 22.2926 16.5706 22.9387 16.8522C23.502 17.1007 24.0487 17.3658 24.612 17.6143C25.1753 17.8628 25.7385 18.1279 26.3018 18.3764C26.7823 18.5918 27.2793 18.8237 27.7598 19.0391C28.2402 19.2545 28.7372 19.4864 29.2177 19.7018C29.5987 19.8675 29.9798 20.0497 30.3608 20.2154C30.3608 20.2651 30.3774 20.2816 30.4105 20.2982Z" fill="#454A75"/>
<path d="M20.2386 36.6168C20.2386 36.6334 20.222 36.65 20.222 36.6665H20.2055C20.2055 36.6334 20.1723 36.6168 20.1558 36.5837C19.1286 35.1423 18.1014 33.6844 17.0743 32.2431C16.0305 30.7686 14.9702 29.2775 13.9265 27.803C12.9159 26.3782 11.8887 24.9369 10.8781 23.5121C10.613 23.1311 10.3479 22.7666 10.0829 22.3855C10.0663 22.3524 10.0497 22.3358 10.0166 22.2861C10.0663 22.2861 10.0994 22.3193 10.116 22.3358C11.5574 23.1808 12.9821 24.0257 14.4235 24.8706C16.0802 25.8481 17.7204 26.8256 19.3771 27.803L20.222 28.3C20.2552 28.3332 20.2552 28.3663 20.2552 28.3995V36.3849C20.2552 36.4677 20.2552 36.5505 20.2386 36.6168Z" fill="#8A92B2"/>
<path d="M10 20.3311V20.3146C10.5302 20.0826 11.0437 19.8341 11.5739 19.6022C12.2531 19.2874 12.9324 18.9892 13.6117 18.6744C14.1252 18.4425 14.6554 18.194 15.169 17.962C15.9311 17.6141 16.6766 17.2828 17.4387 16.9349C17.9523 16.7029 18.4659 16.471 18.996 16.2225C19.3605 16.0568 19.7415 15.8911 20.106 15.7254C20.1392 15.7089 20.1889 15.6923 20.2054 15.6592C20.222 15.6592 20.222 15.6757 20.2054 15.6923V26.2125C20.2054 26.2622 20.1889 26.3119 20.222 26.3451C20.1889 26.3948 20.1557 26.3451 20.1392 26.3285C19.9901 26.2457 19.841 26.1628 19.6918 26.0634C16.4944 24.1748 13.2803 22.2695 10.0828 20.3809C10.0663 20.3643 10.0331 20.3477 10 20.3311Z" fill="#62688F"/>
<path d="M30.3774 22.2861H30.394C30.394 22.3193 30.3608 22.3524 30.3443 22.3855C27.2959 26.6765 24.2475 30.9839 21.1991 35.2749C20.8844 35.7222 20.553 36.1695 20.2382 36.6168C20.2217 36.6002 20.2217 36.5837 20.2217 36.5671V36.4677V28.4326V28.2835C20.9175 27.8693 21.5968 27.4717 22.2926 27.0575C24.9765 25.467 27.6604 23.8932 30.3277 22.3027C30.3443 22.3193 30.3608 22.3027 30.3774 22.2861Z" fill="#62688F"/>
<path d="M20.2221 15.6923V15.6592V15.5598V3.53195C20.2221 3.48225 20.2055 3.44912 20.2387 3.39941C23.6018 8.98258 26.965 14.5492 30.3116 20.1323C30.3447 20.182 30.3944 20.2483 30.411 20.3146C30.179 20.2318 29.9637 20.1158 29.7483 20.0164C29.4832 19.9004 29.2016 19.7679 28.9365 19.6519C28.7708 19.5691 28.5886 19.5028 28.4229 19.42C28.1413 19.2874 27.8596 19.1714 27.578 19.0389C27.4123 18.9726 27.2466 18.8898 27.0809 18.807L25.9875 18.3099C25.8053 18.2271 25.623 18.1443 25.4242 18.0614L24.629 17.7135C24.4633 17.6473 24.2976 17.5644 24.132 17.4816L23.0385 16.9846C22.8563 16.9017 22.6741 16.8189 22.4752 16.7361L21.68 16.3881C21.4978 16.3053 21.3321 16.2225 21.1499 16.1396C20.8351 15.9905 20.5203 15.8414 20.189 15.7089C20.2387 15.6923 20.2221 15.6923 20.2221 15.6923Z" fill="#62688F"/>
<path d="M31.2707 22.2842L32.1526 15.6584L24.5034 10.3484L31.4923 12.7157L33.1429 10.1833L39.1698 6.4436L52.4544 13.7626L53.1429 24.9298L47.2245 33.1543L42.5463 33.8711L44.9656 29.4429V25.1798L43.2066 21.8504L41.4192 20.6667L38.6699 23.5009V26.5002L36.5242 28.5092L33.7984 28.8393L32.5911 29.5231L30.6105 28.8912L29.7852 25.9202L31.2707 23.831V22.2842Z" fill="white"/>
<path d="M43.4842 10.2916C42.027 9.98978 40.433 10.07 40.433 10.07C40.433 10.07 39.9096 12.4892 36.665 13.1258C36.6886 13.1258 40.9518 14.583 43.4842 10.2916Z" fill="#94A6C3"/>
<path d="M44.8046 32.244C46.5636 30.867 47.884 28.9712 48.4924 26.8255C48.5207 26.7453 48.7659 26.6038 48.931 26.4954C49.2045 26.3303 49.4827 26.1936 49.5346 25.9719C49.6431 25.34 49.6996 24.6798 49.6996 24.0195C49.6996 23.7743 49.4497 23.5244 49.2045 23.2791C49.0111 23.1141 48.8178 22.9207 48.8178 22.784C48.5443 20.2799 47.3889 17.9408 45.545 16.2384L45.3516 16.4317C47.1389 18.1106 48.2943 20.393 48.5443 22.8123C48.5726 23.0339 48.7895 23.2509 49.0111 23.4725C49.2045 23.6376 49.4261 23.8875 49.4261 23.996C49.4261 24.6279 49.3695 25.2598 49.2611 25.8917C49.2328 26.0002 48.9875 26.1134 48.7942 26.2218C48.5207 26.3586 48.2707 26.4954 48.2189 26.717C47.5586 29.0561 46.0449 31.0933 44.0359 32.4138C44.3943 31.6451 45.5214 29.141 46.125 27.8724L46.0166 23.8026L42.5221 20.4213L40.5414 20.6949L38.3674 24.2176C38.3674 24.2176 39.3861 25.5097 37.9524 27.0235C36.5518 28.509 35.4483 28.8391 35.4483 28.8391L34.4297 28.2874C34.7315 27.9007 35.3398 27.3254 35.8067 26.9387C36.6037 26.2784 37.4007 26.2218 37.4007 25.5097C37.4337 24.0195 35.835 24.4298 35.835 24.4298L35.255 24.9816L35.0097 27.0188L33.8025 28.5326L33.6657 28.5043L31.6851 28.0657C31.6851 28.0657 32.897 27.4338 33.0904 26.717C33.2837 26.0285 32.7037 23.746 32.6754 23.6093C32.7037 23.6376 33.2554 24.1044 33.5007 24.8731C33.9392 23.6611 34.5193 22.5057 34.6843 22.3973C34.8494 22.2888 37.0753 21.1051 37.0753 21.1051L36.3349 23.0575L36.8867 22.7557L38.2071 19.5112C38.2071 19.5112 39.4992 18.8792 40.4613 18.8792C42.192 18.8509 44.7527 16.7335 43.5973 12.9373C43.9274 13.074 49.6478 15.9365 50.6381 21.5484C51.3785 25.8634 48.931 29.9049 44.8046 32.244Z" fill="#94A6C3"/>
<path d="M38.2588 10.8954C38.8908 10.1503 38.6455 9.05151 38.6455 9.05151L36.8016 11.7773C36.7733 11.7773 37.4571 11.8056 38.2588 10.8954Z" fill="#1B314F"/>
<path d="M32.0671 25.7785L32.2887 24.6797C32.2887 24.6797 31.3786 26.2737 31.2984 26.4954C31.2135 26.7453 31.355 27.1839 31.7087 27.1556C32.0671 27.1273 32.5057 26.6038 32.5057 26.2218C32.5057 25.7266 32.0671 25.7785 32.0671 25.7785Z" fill="#1B314F"/>
<path d="M48.4077 8.28272C48.4077 8.28272 49.7847 8.33931 51.2137 8.50437C47.9927 5.97195 44.9415 5.23155 42.4657 5.23155C39.0561 5.23155 36.7454 6.63688 36.6039 6.71705L37.6791 5.00991C37.6791 5.00991 33.3877 4.59491 31.8739 9.13629C31.4872 8.17426 31.1335 6.76893 31.1335 6.76893C31.1335 6.76893 28.9029 8.72601 29.9498 11.9705C27.3891 11.0368 23.7343 9.73993 23.5928 9.71635C23.3995 9.68805 23.3429 9.77294 23.3429 9.77294C23.3429 9.77294 23.2863 9.85311 23.4513 9.99458C23.7579 10.2351 29.5348 14.503 30.8034 15.3282C30.5298 16.3186 30.5298 16.7854 30.8034 17.2523C31.1901 17.8842 31.2136 18.2143 31.1618 18.6812C31.1052 19.1481 30.61 23.1943 30.5016 23.6895C30.3931 24.1846 29.2377 25.9437 29.2896 26.4671C29.3462 26.9906 30.0583 29.2165 30.6949 29.4664C31.1618 29.6315 32.3172 29.9899 33.0858 29.9899C33.3594 29.9899 33.6093 29.9333 33.7178 29.8248C34.1846 29.4145 34.3214 29.3297 34.6515 29.3297C34.6798 29.3297 34.7081 29.3297 34.7317 29.3297C34.8684 29.3297 35.0335 29.3579 35.2269 29.3579C35.6654 29.3579 36.2455 29.2731 36.6558 28.8911C37.2594 28.2874 38.3063 27.4622 38.6364 27.0755C39.0514 26.552 39.2684 25.8399 39.1599 25.1231C39.075 24.4629 39.4334 23.8828 39.8484 23.3075C40.3719 22.619 41.3339 21.3834 41.3339 21.3834C43.2344 22.8076 44.4181 24.9816 44.4181 27.4009C44.4181 31.6923 40.6784 35.1585 36.0568 35.1585C35.34 35.1585 34.6562 35.0783 33.9677 34.9132C36.0851 35.6536 37.8725 35.9036 39.3344 35.9036C42.4421 35.9036 44.0927 34.7765 44.0927 34.7765C44.0927 34.7765 43.5174 35.5216 42.5789 36.3704C42.6072 36.3704 42.6072 36.3704 42.6072 36.3704C47.7522 35.6536 50.2563 31.4188 50.2563 31.4188C50.2563 31.4188 50.063 32.7958 49.8178 33.7296C56.6605 28.5845 55.5051 22.1474 55.4768 21.9305C55.5334 22.0106 56.2219 22.8359 56.5756 23.2792C57.6791 11.9422 48.4077 8.28272 48.4077 8.28272ZM37.8725 26.3869C37.764 26.5237 37.2971 26.9387 36.967 27.2405C36.6369 27.5423 36.2785 27.8442 36.005 28.1224C35.8965 28.2309 35.6749 28.2874 35.3448 28.2874C35.2363 28.2874 35.1231 28.2874 35.0429 28.2874C34.9863 28.2874 34.9345 28.2874 34.8779 28.2874C34.8213 28.2874 34.793 28.2874 34.7694 28.2874C34.6845 28.2874 34.6044 28.2874 34.5195 28.2874C34.9345 27.7357 36.1417 26.4718 36.5567 26.1983C37.0519 25.8682 37.3018 25.5381 36.9953 24.9628C36.6935 24.3827 35.8965 24.5242 35.8965 24.5242C35.8965 24.5242 36.3634 24.3308 36.7784 24.3308C36.2549 24.1941 35.5947 24.3308 35.2929 24.6326C34.9628 24.9345 35.0194 26.0097 34.8826 26.6935C34.7458 27.4103 34.279 27.7687 33.5622 28.4289C33.1754 28.7873 32.9019 28.8958 32.6803 28.8958C32.2134 28.8156 31.6617 28.6741 31.275 28.5374C31.0014 28.179 30.5864 26.9953 30.478 26.5001C30.5581 26.2266 30.8883 25.6466 31.0533 25.3164C31.3834 24.6845 31.5768 24.3261 31.6334 23.996C31.7418 23.5291 32.1002 20.6383 32.237 19.431C32.5954 19.8979 33.0906 20.6713 32.9774 21.1665C33.7744 20.0394 33.199 18.9359 32.9208 18.4973C32.6756 18.0587 32.3455 17.1769 32.619 16.2431C32.8925 15.3094 33.8828 12.7204 33.8828 12.7204C33.8828 12.7204 34.2129 13.3004 34.6798 13.1872C35.1467 13.0788 38.9147 7.41029 38.9147 7.41029C38.9147 7.41029 39.9333 9.63618 38.8581 11.2632C37.7593 12.8854 36.6841 13.1872 36.6841 13.1872C36.6841 13.1872 38.1979 13.4607 39.5985 12.4421C40.1738 13.7909 40.7256 15.1915 40.7539 15.3848C40.669 15.5782 39.5702 18.2191 39.4617 18.3841C39.4051 18.4407 39.0231 18.5492 38.7449 18.6058C38.278 18.7425 38.0045 18.8274 37.8913 18.9076C37.698 19.0726 36.8161 21.4919 36.4058 22.6756C35.9107 22.8123 35.4155 23.0906 35.0571 23.6376C35.2504 23.5008 35.8541 23.4159 36.2974 23.3641C36.6841 23.3358 37.863 23.9677 38.1696 25.1514C38.1696 25.1797 38.1696 25.1797 38.1696 25.208C38.2309 25.6418 38.0941 26.0568 37.8725 26.3869ZM35.2882 26.7171C35.5381 26.3587 35.5098 25.755 35.5381 25.5617C35.5664 25.3683 35.6183 25.0099 35.8399 24.958C36.0616 24.9014 36.585 24.9863 36.585 25.3683C36.585 25.7267 36.1983 25.8069 35.9248 26.0568C35.7267 26.2455 35.34 26.6605 35.2882 26.7171ZM46.262 21.4589C46.5355 20.0583 46.5638 18.8463 46.4836 17.8559C47.5541 19.2848 48.2144 21.0203 48.4077 22.8076C48.436 23.0292 48.6529 23.2462 48.8746 23.4678C49.0679 23.6329 49.2896 23.8545 49.2896 23.9913C49.2896 24.6232 49.233 25.2551 49.1245 25.8918C49.0962 25.972 48.851 26.1134 48.6577 26.2219C48.3841 26.3587 48.1342 26.4954 48.0823 26.7171C47.4787 28.8345 46.1818 30.7067 44.4511 32.0271C47.0071 29.3579 48.2427 24.9533 46.262 21.4589ZM44.5313 32.2724C46.3186 30.8953 47.6956 28.9712 48.2992 26.7972C48.3275 26.7171 48.5728 26.5756 48.7378 26.4671C49.0113 26.3304 49.2896 26.1653 49.3415 25.9437C49.4499 25.3117 49.5065 24.6515 49.5065 23.9913C49.5065 23.7461 49.2566 23.4961 49.0113 23.2509C48.8746 23.0858 48.6529 22.8925 48.6529 22.7557C48.4313 20.7468 47.6343 18.851 46.3988 17.2806C45.847 13.9795 43.6494 12.9609 43.5928 12.9326C43.6494 13.0175 45.0783 15.0783 44.088 17.4975C43.0693 19.9451 40.4568 19.5631 40.2351 19.5867C40.0135 19.5867 39.1646 20.6855 38.0894 22.7227C37.9526 22.6661 37.3726 22.5294 36.7124 22.6425C37.2075 21.2655 37.9526 19.3131 38.0894 19.1481C38.146 19.0915 38.5563 18.983 38.8345 18.9029C39.358 18.7661 39.6032 18.6812 39.6881 18.5728C39.7447 18.4879 40.0182 17.8559 40.2917 17.1957C40.5416 17.1957 41.1736 17.1391 41.2254 17.1108C41.282 17.0542 41.8055 15.7102 41.8055 15.5452C41.8055 15.4084 40.7303 12.7392 40.32 11.7206C40.5133 11.4989 40.7067 11.2254 40.8953 10.9236C46.5355 11.532 50.9401 16.3186 50.9401 22.1191C50.9401 26.5756 48.3275 30.4567 44.5313 32.2724Z" fill="#1B314F"/>
<path d="M37.2118 17.4172C37.7352 16.8136 37.4617 15.6865 36.4949 15.4932C36.7449 14.9178 37.0986 13.7625 37.0986 13.7625C37.0986 13.7625 34.2926 18.1623 34.0474 18.2472C33.7975 18.3321 33.5522 17.3654 33.5522 17.3654C33.0288 19.3743 34.4341 19.6478 34.5992 19.0159C35.3678 18.8179 36.6883 17.9926 37.2118 17.4172Z" fill="#1B314F"/>
<path d="M34.8164 18.4878L36.2453 16.0403C36.2453 16.0403 37.0706 16.4553 36.6556 17.1155C36.1368 17.8842 34.8164 18.4878 34.8164 18.4878Z" fill="#FFD923"/>
<path d="M52.5056 29.8247C52.0906 30.3765 51.6237 30.9518 51.0767 31.5036C54.623 24.6797 51.2417 18.4359 51.105 18.1907C51.3549 18.4406 51.6001 18.7141 51.8218 18.9594C54.5428 21.9822 54.8729 26.5236 52.5056 29.8247Z" fill="#D82122"/>
<path d="M55.8066 21.0486C54.5663 17.7192 52.8073 14.885 48.9309 12.329C45.1912 9.85313 41.1733 10.0465 40.9516 10.0748C40.9233 10.0748 40.895 10.0748 40.895 10.0748C41.0318 10.0182 41.1685 9.98989 41.3053 9.96631C42.1589 9.69279 43.2577 9.47114 44.3612 9.33438C47.2803 8.91467 50.223 9.905 52.232 12.0271C52.2603 12.0554 52.2603 12.0554 52.2886 12.0837C54.571 14.503 55.7547 17.5259 55.8066 21.0486Z" fill="#D82122"/>
<path d="M48.0487 7.42918C43.9506 6.66049 41.3097 7.04248 39.4092 7.75929C39.3526 7.53765 39.1593 7.09907 38.9942 6.74066C38.4236 7.42918 37.8152 8.25446 37.4333 8.77792C36.3863 9.49474 35.9478 10.1833 35.9478 10.1833C36.5514 8.1177 38.3151 6.58032 40.4609 6.19362C41.0645 6.08516 41.7247 6.02856 42.4415 6.02856C44.3373 6.05686 46.2331 6.52373 48.0487 7.42918Z" fill="#D82122"/>
<path d="M32.8926 12.7109C29.6764 12.6024 30.7469 8.85804 30.8035 8.64111C30.8035 8.66941 31.0204 11.5838 32.8926 12.7109Z" fill="#D82122"/>
<path d="M36.0564 5.97192C33.5806 7.45742 34.0757 11.0038 34.0757 11.0038C31.7083 7.40555 35.8631 6.05681 36.0564 5.97192Z" fill="#D82122"/>
<path d="M31.9867 13.7012C32.1518 13.838 32.3169 14.0879 32.1235 14.4463C32.015 14.6397 31.85 14.6114 31.6 14.5029C31.2699 14.3379 29.2893 13.1825 27.502 11.9988C29.5392 12.7156 31.6 13.4843 31.9302 13.6493C31.9302 13.6493 31.9585 13.6776 31.9867 13.7012Z" fill="white"/>
</svg>
