<svg width="60" height="40" viewBox="0 0 60 40" fill="none" xmlns="http://www.w3.org/2000/svg">
<path d="M20 3.33325C29.2056 3.33325 36.6667 10.7958 36.6667 19.9999C36.6667 29.2055 29.2056 36.6666 20 36.6666C10.7959 36.6666 3.33337 29.2048 3.33337 19.9999C3.33337 10.7958 10.7959 3.33325 20 3.33325Z" fill="#F5AC37"/>
<path d="M20.6137 21.1768H26.9468C27.0818 21.1768 27.1456 21.1768 27.1553 20.9998C27.2071 20.3556 27.2071 19.7076 27.1553 19.0625C27.1553 18.9373 27.0931 18.8855 26.9573 18.8855H14.3534C14.1974 18.8855 14.1554 18.9373 14.1554 19.0835V20.9376C14.1554 21.1768 14.1554 21.1768 14.4052 21.1768H20.6137V21.1768ZM26.4481 16.7188C26.4661 16.6715 26.4661 16.6198 26.4481 16.5733C26.3423 16.343 26.217 16.1233 26.0715 15.917C25.8525 15.5645 25.5945 15.2398 25.3005 14.948C25.1618 14.7718 25.0013 14.6135 24.8213 14.4793C23.9198 13.712 22.848 13.169 21.696 12.896C21.1147 12.7655 20.5207 12.7032 19.9252 12.7085H14.3317C14.1757 12.7085 14.1547 12.7707 14.1547 12.9065V16.604C14.1547 16.76 14.1547 16.802 14.3527 16.802H26.3731C26.3731 16.802 26.4773 16.781 26.4983 16.7188H26.4473H26.4481ZM26.4481 23.3436C26.2711 23.3241 26.0925 23.3241 25.9155 23.3436H14.3639C14.2079 23.3436 14.1554 23.3436 14.1554 23.5521V27.1671C14.1554 27.3336 14.1554 27.3756 14.3639 27.3756H19.6972C19.9522 27.3951 20.2072 27.3771 20.457 27.3239C21.231 27.2684 21.9923 27.1004 22.7183 26.8236C22.9823 26.7321 23.2373 26.6129 23.478 26.4696H23.5508C24.801 25.8194 25.8165 24.7979 26.4571 23.5438C26.4571 23.5438 26.5298 23.3863 26.4481 23.3451V23.3436ZM12.0622 29.2499V29.1876V26.7606V25.9379V23.4898C12.0622 23.3541 12.0622 23.3338 11.8957 23.3338H9.63513C9.50988 23.3338 9.45813 23.3338 9.45813 23.1673V21.1881H11.8747C12.0097 21.1881 12.0622 21.1881 12.0622 21.0111V19.0528C12.0622 18.9275 12.0622 18.8968 11.8957 18.8968H9.63513C9.50988 18.8968 9.45813 18.8968 9.45813 18.7303V16.8973C9.45813 16.7825 9.45813 16.7518 9.62463 16.7518H11.8642C12.0202 16.7518 12.0622 16.7518 12.0622 16.5538V10.9392C12.0622 10.7727 12.0622 10.7307 12.2707 10.7307H20.0827C20.6497 10.7532 21.213 10.8155 21.7703 10.9182C22.9185 11.1305 24.0218 11.5407 25.0305 12.1265C25.6995 12.5202 26.3153 12.9957 26.8636 13.5432C27.2761 13.9715 27.6481 14.435 27.9781 14.9285C28.3058 15.4288 28.5781 15.9635 28.7918 16.5223C28.8181 16.6678 28.9576 16.766 29.1031 16.7413H30.9676C31.2068 16.7413 31.2068 16.7413 31.2173 16.9708V18.6793C31.2173 18.8458 31.1551 18.8878 30.9878 18.8878H29.5501C29.4046 18.8878 29.3626 18.8878 29.3731 19.0753C29.4301 19.7098 29.4301 20.3466 29.3731 20.9811C29.3731 21.1581 29.3731 21.1791 29.5718 21.1791H31.2166C31.2893 21.2728 31.2166 21.3666 31.2166 21.4611C31.2271 21.5818 31.2271 21.7041 31.2166 21.8248V23.0856C31.2166 23.2626 31.1648 23.3151 31.0081 23.3151H29.0393C28.9021 23.2888 28.7686 23.3766 28.7371 23.5131C28.2683 24.7319 27.5183 25.8246 26.5493 26.7006C26.1953 27.0194 25.8233 27.3194 25.4348 27.5961C25.0178 27.8361 24.612 28.0859 24.1845 28.2839C23.3978 28.6379 22.5728 28.8989 21.726 29.0646C20.922 29.2086 20.1067 29.2739 19.2885 29.2626H12.0592V29.2521L12.0622 29.2499Z" fill="#FEFEFD"/>
<path d="M40.2395 3.38295V3.39952C40.256 3.48236 40.256 3.58176 40.256 3.68116V15.6262C40.2395 15.6924 40.1898 15.709 40.1401 15.7421C39.7921 15.9078 39.4608 16.0569 39.1129 16.206C38.6324 16.4214 38.1354 16.6533 37.655 16.8687L35.9154 17.6639C35.4349 17.8793 34.9545 18.0947 34.4906 18.3101C33.9273 18.5751 33.3475 18.8236 32.7842 19.0887C32.3037 19.3041 31.8233 19.536 31.3263 19.7514C30.9287 19.9336 30.531 20.0993 30.15 20.2816C30.1169 20.2981 30.0837 20.3147 30.0506 20.3147C30.034 20.3147 30.034 20.3147 30.0175 20.2981L30.4648 19.5526C31.3263 18.1278 32.1712 16.7196 33.0327 15.2948C33.9439 13.7706 34.8717 12.2464 35.7829 10.7223C36.6278 9.31403 37.4893 7.90582 38.3342 6.4976C38.9472 5.47043 39.5768 4.44326 40.1898 3.41609C40.2063 3.38295 40.2229 3.36639 40.2229 3.33325H40.2395C40.2229 3.34982 40.2395 3.36639 40.2395 3.38295Z" fill="#8A92B2"/>
<path d="M50.4106 20.2982L50.4272 20.3148L47.9918 21.7561L40.3377 26.279C40.3046 26.2956 40.2715 26.3121 40.2549 26.3287C40.2052 26.3287 40.2052 26.279 40.2052 26.2624V26.1133V15.8748C40.2052 15.8251 40.2052 15.7588 40.2218 15.7091C40.2383 15.6428 40.288 15.6594 40.3377 15.676C40.5531 15.7754 40.7851 15.8748 41.0004 15.9742C41.6466 16.2724 42.2927 16.5706 42.9388 16.8522C43.5021 17.1007 44.0488 17.3658 44.6121 17.6143C45.1754 17.8628 45.7387 18.1279 46.302 18.3764C46.7824 18.5918 47.2794 18.8237 47.7599 19.0391C48.2403 19.2545 48.7373 19.4864 49.2178 19.7018C49.5988 19.8675 49.9799 20.0497 50.3609 20.2154C50.3609 20.2651 50.3775 20.2816 50.4106 20.2982Z" fill="#454A75"/>
<path d="M40.2384 36.6168C40.2384 36.6334 40.2218 36.65 40.2218 36.6665H40.2052C40.2052 36.6334 40.1721 36.6168 40.1555 36.5837C39.1284 35.1423 38.1012 33.6844 37.074 32.2431C36.0303 30.7686 34.97 29.2775 33.9262 27.803C32.9156 26.3782 31.8885 24.9369 30.8779 23.5121C30.6128 23.1311 30.3477 22.7666 30.0826 22.3855C30.0661 22.3524 30.0495 22.3358 30.0164 22.2861C30.0661 22.2861 30.0992 22.3193 30.1158 22.3358C31.5571 23.1808 32.9819 24.0257 34.4232 24.8706C36.08 25.8481 37.7201 26.8256 39.3769 27.803L40.2218 28.3C40.2549 28.3332 40.2549 28.3663 40.2549 28.3995V36.3849C40.2549 36.4677 40.2549 36.5505 40.2384 36.6168Z" fill="#8A92B2"/>
<path d="M30 20.3311V20.3146C30.5302 20.0826 31.0437 19.8341 31.5739 19.6022C32.2531 19.2874 32.9324 18.9892 33.6117 18.6744C34.1252 18.4425 34.6554 18.194 35.169 17.962C35.9311 17.6141 36.6766 17.2828 37.4387 16.9349C37.9523 16.7029 38.4659 16.471 38.996 16.2225C39.3605 16.0568 39.7415 15.8911 40.106 15.7254C40.1392 15.7089 40.1889 15.6923 40.2054 15.6592C40.222 15.6592 40.222 15.6757 40.2054 15.6923V26.2125C40.2054 26.2622 40.1889 26.3119 40.222 26.3451C40.1889 26.3948 40.1557 26.3451 40.1392 26.3285C39.9901 26.2457 39.841 26.1628 39.6918 26.0634C36.4944 24.1748 33.2803 22.2695 30.0828 20.3809C30.0663 20.3643 30.0331 20.3477 30 20.3311Z" fill="#62688F"/>
<path d="M50.3775 22.2861H50.3941C50.3941 22.3193 50.361 22.3524 50.3444 22.3855C47.296 26.6765 44.2476 30.9839 41.1993 35.2749C40.8845 35.7222 40.5531 36.1695 40.2384 36.6168C40.2218 36.6002 40.2218 36.5837 40.2218 36.5671V36.4677V28.4326V28.2835C40.9176 27.8693 41.5969 27.4717 42.2927 27.0575C44.9766 25.467 47.6605 23.8932 50.3278 22.3027C50.3444 22.3193 50.361 22.3027 50.3775 22.2861Z" fill="#62688F"/>
<path d="M40.222 15.6923V15.6592V15.5598V3.53195C40.222 3.48225 40.2054 3.44912 40.2385 3.39941C43.6017 8.98258 46.9649 14.5492 50.3114 20.1323C50.3446 20.182 50.3943 20.2483 50.4108 20.3146C50.1789 20.2318 49.9635 20.1158 49.7482 20.0164C49.4831 19.9004 49.2014 19.7679 48.9364 19.6519C48.7707 19.5691 48.5884 19.5028 48.4228 19.42C48.1411 19.2874 47.8595 19.1714 47.5778 19.0389C47.4122 18.9726 47.2465 18.8898 47.0808 18.807L45.9874 18.3099C45.8051 18.2271 45.6229 18.1443 45.4241 18.0614L44.6289 17.7135C44.4632 17.6473 44.2975 17.5644 44.1319 17.4816L43.0384 16.9846C42.8562 16.9017 42.6739 16.8189 42.4751 16.7361L41.6799 16.3881C41.4977 16.3053 41.332 16.2225 41.1497 16.1396C40.835 15.9905 40.5202 15.8414 40.1888 15.7089C40.2385 15.6923 40.222 15.6923 40.222 15.6923Z" fill="#62688F"/>
</svg>
