<svg width="60" height="40" viewBox="0 0 60 40" fill="none" xmlns="http://www.w3.org/2000/svg">
<path d="M20.2393 3.38295V3.39952C20.2559 3.48236 20.2559 3.58176 20.2559 3.68116V15.6262C20.2393 15.6924 20.1896 15.709 20.1399 15.7421C19.792 15.9078 19.4607 16.0569 19.1128 16.206C18.6323 16.4214 18.1353 16.6533 17.6548 16.8687L15.9153 17.6639C15.4348 17.8793 14.9544 18.0947 14.4905 18.3101C13.9272 18.5751 13.3474 18.8236 12.7841 19.0887C12.3036 19.3041 11.8232 19.536 11.3261 19.7514C10.9285 19.9336 10.5309 20.0993 10.1499 20.2816C10.1167 20.2981 10.0836 20.3147 10.0505 20.3147C10.0339 20.3147 10.0339 20.3147 10.0173 20.2981L10.4646 19.5526C11.3261 18.1278 12.1711 16.7196 13.0326 15.2948C13.9438 13.7706 14.8715 12.2464 15.7827 10.7223C16.6277 9.31403 17.4892 7.90582 18.3341 6.4976C18.9471 5.47043 19.5766 4.44326 20.1896 3.41609C20.2062 3.38295 20.2228 3.36639 20.2228 3.33325H20.2393C20.2228 3.34982 20.2393 3.36639 20.2393 3.38295Z" fill="#8A92B2"/>
<path d="M30.4108 20.2982L30.4273 20.3148L27.9919 21.7561L20.3379 26.279C20.3047 26.2956 20.2716 26.3121 20.255 26.3287C20.2053 26.3287 20.2053 26.279 20.2053 26.2624V26.1133V15.8748C20.2053 15.8251 20.2053 15.7588 20.2219 15.7091C20.2385 15.6428 20.2882 15.6594 20.3379 15.676C20.5532 15.7754 20.7852 15.8748 21.0006 15.9742C21.6467 16.2724 22.2928 16.5706 22.9389 16.8522C23.5022 17.1007 24.0489 17.3658 24.6122 17.6143C25.1755 17.8628 25.7388 18.1279 26.3021 18.3764C26.7825 18.5918 27.2795 18.8237 27.76 19.0391C28.2404 19.2545 28.7375 19.4864 29.2179 19.7018C29.599 19.8675 29.98 20.0497 30.3611 20.2154C30.3611 20.2651 30.3776 20.2816 30.4108 20.2982Z" fill="#454A75"/>
<path d="M20.2384 36.6168C20.2384 36.6334 20.2218 36.65 20.2218 36.6665H20.2052C20.2052 36.6334 20.1721 36.6168 20.1555 36.5837C19.1284 35.1423 18.1012 33.6844 17.074 32.2431C16.0303 30.7686 14.97 29.2775 13.9262 27.803C12.9156 26.3782 11.8885 24.9369 10.8779 23.5121C10.6128 23.1311 10.3477 22.7666 10.0826 22.3855C10.0661 22.3524 10.0495 22.3358 10.0164 22.2861C10.0661 22.2861 10.0992 22.3193 10.1158 22.3358C11.5571 23.1808 12.9819 24.0257 14.4232 24.8706C16.08 25.8481 17.7201 26.8256 19.3769 27.803L20.2218 28.3C20.2549 28.3332 20.2549 28.3663 20.2549 28.3995V36.3849C20.2549 36.4677 20.2549 36.5505 20.2384 36.6168Z" fill="#8A92B2"/>
<path d="M10 20.3311V20.3146C10.5302 20.0826 11.0437 19.8341 11.5739 19.6022C12.2531 19.2874 12.9324 18.9892 13.6117 18.6744C14.1252 18.4425 14.6554 18.194 15.169 17.962C15.9311 17.6141 16.6766 17.2828 17.4387 16.9349C17.9523 16.7029 18.4659 16.471 18.996 16.2225C19.3605 16.0568 19.7415 15.8911 20.106 15.7254C20.1392 15.7089 20.1889 15.6923 20.2054 15.6592C20.222 15.6592 20.222 15.6757 20.2054 15.6923V26.2125C20.2054 26.2622 20.1889 26.3119 20.222 26.3451C20.1889 26.3948 20.1557 26.3451 20.1392 26.3285C19.9901 26.2457 19.841 26.1628 19.6918 26.0634C16.4944 24.1748 13.2803 22.2695 10.0828 20.3809C10.0663 20.3643 10.0331 20.3477 10 20.3311Z" fill="#62688F"/>
<path d="M30.3777 22.2861H30.3942C30.3942 22.3193 30.3611 22.3524 30.3445 22.3855C27.2961 26.6765 24.2478 30.9839 21.1994 35.2749C20.8846 35.7222 20.5533 36.1695 20.2385 36.6168C20.2219 36.6002 20.2219 36.5837 20.2219 36.5671V36.4677V28.4326V28.2835C20.9177 27.8693 21.597 27.4717 22.2928 27.0575C24.9767 25.467 27.6606 23.8932 30.328 22.3027C30.3445 22.3193 30.3611 22.3027 30.3777 22.2861Z" fill="#62688F"/>
<path d="M20.2221 15.6923V15.6592V15.5598V3.53195C20.2221 3.48225 20.2055 3.44912 20.2387 3.39941C23.6018 8.98258 26.965 14.5492 30.3116 20.1323C30.3447 20.182 30.3944 20.2483 30.411 20.3146C30.179 20.2318 29.9637 20.1158 29.7483 20.0164C29.4832 19.9004 29.2016 19.7679 28.9365 19.6519C28.7708 19.5691 28.5886 19.5028 28.4229 19.42C28.1413 19.2874 27.8596 19.1714 27.578 19.0389C27.4123 18.9726 27.2466 18.8898 27.0809 18.807L25.9875 18.3099C25.8053 18.2271 25.623 18.1443 25.4242 18.0614L24.629 17.7135C24.4633 17.6473 24.2976 17.5644 24.132 17.4816L23.0385 16.9846C22.8563 16.9017 22.6741 16.8189 22.4752 16.7361L21.68 16.3881C21.4978 16.3053 21.3321 16.2225 21.1499 16.1396C20.8351 15.9905 20.5203 15.8414 20.189 15.7089C20.2387 15.6923 20.2221 15.6923 20.2221 15.6923Z" fill="#62688F"/>
<path d="M31.2702 22.2842L32.1521 15.6584L24.5029 10.3484L31.4918 12.7157L33.1424 10.1833L39.1693 6.4436L52.4539 13.7626L53.1424 24.9298L47.224 33.1543L42.5458 33.8711L44.9651 29.4429V25.1798L43.2061 21.8504L41.4188 20.6667L38.6694 23.5009V26.5002L36.5237 28.5092L33.7979 28.8393L32.5906 29.5231L30.61 28.8912L29.7847 25.9202L31.2702 23.831V22.2842Z" fill="white"/>
<path d="M43.4839 10.2916C42.0267 9.98978 40.4328 10.07 40.4328 10.07C40.4328 10.07 39.9093 12.4892 36.6648 13.1258C36.6884 13.1258 40.9515 14.583 43.4839 10.2916Z" fill="#94A6C3"/>
<path d="M44.8041 32.244C46.5631 30.867 47.8835 28.9712 48.4919 26.8255C48.5202 26.7453 48.7654 26.6038 48.9305 26.4954C49.204 26.3303 49.4822 26.1936 49.5341 25.9719C49.6426 25.34 49.6992 24.6798 49.6992 24.0195C49.6992 23.7743 49.4492 23.5244 49.204 23.2791C49.0106 23.1141 48.8173 22.9207 48.8173 22.784C48.5438 20.2799 47.3884 17.9408 45.5445 16.2384L45.3511 16.4317C47.1384 18.1106 48.2938 20.393 48.5438 22.8123C48.5721 23.0339 48.789 23.2509 49.0106 23.4725C49.204 23.6376 49.4256 23.8875 49.4256 23.996C49.4256 24.6279 49.369 25.2598 49.2606 25.8917C49.2323 26.0002 48.9871 26.1134 48.7937 26.2218C48.5202 26.3586 48.2702 26.4954 48.2184 26.717C47.5582 29.0561 46.0444 31.0933 44.0354 32.4138C44.3938 31.6451 45.5209 29.141 46.1245 27.8724L46.0161 23.8026L42.5216 20.4213L40.541 20.6949L38.3669 24.2176C38.3669 24.2176 39.3856 25.5097 37.9519 27.0235C36.5513 28.509 35.4478 28.8391 35.4478 28.8391L34.4292 28.2874C34.731 27.9007 35.3394 27.3254 35.8062 26.9387C36.6032 26.2784 37.4002 26.2218 37.4002 25.5097C37.4332 24.0195 35.8345 24.4298 35.8345 24.4298L35.2545 24.9816L35.0093 27.0188L33.802 28.5326L33.6652 28.5043L31.6846 28.0657C31.6846 28.0657 32.8965 27.4338 33.0899 26.717C33.2832 26.0285 32.7032 23.746 32.6749 23.6093C32.7032 23.6376 33.255 24.1044 33.5002 24.8731C33.9388 23.6611 34.5188 22.5057 34.6839 22.3973C34.8489 22.2888 37.0748 21.1051 37.0748 21.1051L36.3344 23.0575L36.8862 22.7557L38.2066 19.5112C38.2066 19.5112 39.4987 18.8792 40.4608 18.8792C42.1915 18.8509 44.7522 16.7335 43.5968 12.9373C43.9269 13.074 49.6473 15.9365 50.6376 21.5484C51.378 25.8634 48.9305 29.9049 44.8041 32.244Z" fill="#94A6C3"/>
<path d="M38.2586 10.8954C38.8905 10.1503 38.6453 9.05151 38.6453 9.05151L36.8014 11.7773C36.7731 11.7773 37.4569 11.8056 38.2586 10.8954Z" fill="#1B314F"/>
<path d="M32.0668 25.7785L32.2885 24.6797C32.2885 24.6797 31.3783 26.2737 31.2981 26.4954C31.2133 26.7453 31.3547 27.1839 31.7084 27.1556C32.0668 27.1273 32.5054 26.6038 32.5054 26.2218C32.5054 25.7266 32.0668 25.7785 32.0668 25.7785Z" fill="#1B314F"/>
<path d="M48.4075 8.28272C48.4075 8.28272 49.7845 8.33931 51.2134 8.50437C47.9925 5.97195 44.9413 5.23155 42.4655 5.23155C39.0559 5.23155 36.7451 6.63688 36.6036 6.71705L37.6789 5.00991C37.6789 5.00991 33.3874 4.59491 31.8736 9.13629C31.4869 8.17426 31.1332 6.76893 31.1332 6.76893C31.1332 6.76893 28.9026 8.72601 29.9495 11.9705C27.3888 11.0368 23.734 9.73993 23.5926 9.71635C23.3992 9.68805 23.3426 9.77294 23.3426 9.77294C23.3426 9.77294 23.286 9.85311 23.4511 9.99458C23.7576 10.2351 29.5346 14.503 30.8031 15.3282C30.5296 16.3186 30.5296 16.7854 30.8031 17.2523C31.1898 17.8842 31.2134 18.2143 31.1615 18.6812C31.1049 19.1481 30.6098 23.1943 30.5013 23.6895C30.3928 24.1846 29.2375 25.9437 29.2893 26.4671C29.3459 26.9906 30.058 29.2165 30.6947 29.4664C31.1615 29.6315 32.3169 29.9899 33.0856 29.9899C33.3591 29.9899 33.6091 29.9333 33.7175 29.8248C34.1844 29.4145 34.3212 29.3297 34.6513 29.3297C34.6796 29.3297 34.7079 29.3297 34.7314 29.3297C34.8682 29.3297 35.0333 29.3579 35.2266 29.3579C35.6652 29.3579 36.2452 29.2731 36.6555 28.8911C37.2591 28.2874 38.3061 27.4622 38.6362 27.0755C39.0512 26.552 39.2681 25.8399 39.1596 25.1231C39.0748 24.4629 39.4332 23.8828 39.8482 23.3075C40.3716 22.619 41.3337 21.3834 41.3337 21.3834C43.2342 22.8076 44.4178 24.9816 44.4178 27.4009C44.4178 31.6923 40.6782 35.1585 36.0566 35.1585C35.3398 35.1585 34.656 35.0783 33.9675 34.9132C36.0849 35.6536 37.8722 35.9036 39.3341 35.9036C42.4419 35.9036 44.0924 34.7765 44.0924 34.7765C44.0924 34.7765 43.5171 35.5216 42.5787 36.3704C42.6069 36.3704 42.6069 36.3704 42.6069 36.3704C47.752 35.6536 50.2561 31.4188 50.2561 31.4188C50.2561 31.4188 50.0627 32.7958 49.8175 33.7296C56.6602 28.5845 55.5049 22.1474 55.4766 21.9305C55.5331 22.0106 56.2217 22.8359 56.5754 23.2792C57.6789 11.9422 48.4075 8.28272 48.4075 8.28272ZM37.8722 26.3869C37.7637 26.5237 37.2969 26.9387 36.9668 27.2405C36.6367 27.5423 36.2782 27.8442 36.0047 28.1224C35.8963 28.2309 35.6746 28.2874 35.3445 28.2874C35.236 28.2874 35.1229 28.2874 35.0427 28.2874C34.9861 28.2874 34.9342 28.2874 34.8776 28.2874C34.821 28.2874 34.7927 28.2874 34.7692 28.2874C34.6843 28.2874 34.6041 28.2874 34.5192 28.2874C34.9342 27.7357 36.1415 26.4718 36.5565 26.1983C37.0517 25.8682 37.3016 25.5381 36.9951 24.9628C36.6932 24.3827 35.8963 24.5242 35.8963 24.5242C35.8963 24.5242 36.3631 24.3308 36.7781 24.3308C36.2547 24.1941 35.5944 24.3308 35.2926 24.6326C34.9625 24.9345 35.0191 26.0097 34.8824 26.6935C34.7456 27.4103 34.2787 27.7687 33.5619 28.4289C33.1752 28.7873 32.9017 28.8958 32.68 28.8958C32.2132 28.8156 31.6614 28.6741 31.2747 28.5374C31.0012 28.179 30.5862 26.9953 30.4777 26.5001C30.5579 26.2266 30.888 25.6466 31.0531 25.3164C31.3832 24.6845 31.5765 24.3261 31.6331 23.996C31.7416 23.5291 32.1 20.6383 32.2367 19.431C32.5952 19.8979 33.0903 20.6713 32.9771 21.1665C33.7741 20.0394 33.1988 18.9359 32.9205 18.4973C32.6753 18.0587 32.3452 17.1769 32.6187 16.2431C32.8923 15.3094 33.8826 12.7204 33.8826 12.7204C33.8826 12.7204 34.2127 13.3004 34.6796 13.1872C35.1464 13.0788 38.9144 7.41029 38.9144 7.41029C38.9144 7.41029 39.933 9.63618 38.8578 11.2632C37.759 12.8854 36.6838 13.1872 36.6838 13.1872C36.6838 13.1872 38.1976 13.4607 39.5982 12.4421C40.1736 13.7909 40.7253 15.1915 40.7536 15.3848C40.6687 15.5782 39.5699 18.2191 39.4615 18.3841C39.4049 18.4407 39.0229 18.5492 38.7446 18.6058C38.2778 18.7425 38.0043 18.8274 37.8911 18.9076C37.6977 19.0726 36.8159 21.4919 36.4056 22.6756C35.9104 22.8123 35.4152 23.0906 35.0568 23.6376C35.2502 23.5008 35.8538 23.4159 36.2971 23.3641C36.6838 23.3358 37.8628 23.9677 38.1693 25.1514C38.1693 25.1797 38.1693 25.1797 38.1693 25.208C38.2306 25.6418 38.0939 26.0568 37.8722 26.3869ZM35.2879 26.7171C35.5379 26.3587 35.5096 25.755 35.5379 25.5617C35.5662 25.3683 35.618 25.0099 35.8397 24.958C36.0613 24.9014 36.5848 24.9863 36.5848 25.3683C36.5848 25.7267 36.1981 25.8069 35.9246 26.0568C35.7265 26.2455 35.3398 26.6605 35.2879 26.7171ZM46.2617 21.4589C46.5353 20.0583 46.5636 18.8463 46.4834 17.8559C47.5539 19.2848 48.2141 21.0203 48.4075 22.8076C48.4358 23.0292 48.6527 23.2462 48.8743 23.4678C49.0677 23.6329 49.2893 23.8545 49.2893 23.9913C49.2893 24.6232 49.2327 25.2551 49.1243 25.8918C49.096 25.972 48.8508 26.1134 48.6574 26.2219C48.3839 26.3587 48.1339 26.4954 48.0821 26.7171C47.4784 28.8345 46.1816 30.7067 44.4509 32.0271C47.0069 29.3579 48.2424 24.9533 46.2617 21.4589ZM44.531 32.2724C46.3183 30.8953 47.6954 28.9712 48.299 26.7972C48.3273 26.7171 48.5725 26.5756 48.7376 26.4671C49.0111 26.3304 49.2893 26.1653 49.3412 25.9437C49.4497 25.3117 49.5063 24.6515 49.5063 23.9913C49.5063 23.7461 49.2563 23.4961 49.0111 23.2509C48.8743 23.0858 48.6527 22.8925 48.6527 22.7557C48.431 20.7468 47.6341 18.851 46.3985 17.2806C45.8467 13.9795 43.6492 12.9609 43.5926 12.9326C43.6492 13.0175 45.0781 15.0783 44.0877 17.4975C43.0691 19.9451 40.4565 19.5631 40.2349 19.5867C40.0132 19.5867 39.1644 20.6855 38.0891 22.7227C37.9524 22.6661 37.3723 22.5294 36.7121 22.6425C37.2073 21.2655 37.9524 19.3131 38.0891 19.1481C38.1457 19.0915 38.556 18.983 38.8343 18.9029C39.3577 18.7661 39.6029 18.6812 39.6878 18.5728C39.7444 18.4879 40.0179 17.8559 40.2915 17.1957C40.5414 17.1957 41.1733 17.1391 41.2252 17.1108C41.2818 17.0542 41.8052 15.7102 41.8052 15.5452C41.8052 15.4084 40.73 12.7392 40.3197 11.7206C40.5131 11.4989 40.7065 11.2254 40.8951 10.9236C46.5353 11.532 50.9399 16.3186 50.9399 22.1191C50.9399 26.5756 48.3273 30.4567 44.531 32.2724Z" fill="#1B314F"/>
<path d="M37.2118 17.4172C37.7352 16.8136 37.4617 15.6865 36.4949 15.4932C36.7449 14.9178 37.0986 13.7625 37.0986 13.7625C37.0986 13.7625 34.2926 18.1623 34.0474 18.2472C33.7975 18.3321 33.5522 17.3654 33.5522 17.3654C33.0288 19.3743 34.4341 19.6478 34.5992 19.0159C35.3678 18.8179 36.6883 17.9926 37.2118 17.4172Z" fill="#1B314F"/>
<path d="M34.8162 18.4878L36.2451 16.0403C36.2451 16.0403 37.0703 16.4553 36.6553 17.1155C36.1366 17.8842 34.8162 18.4878 34.8162 18.4878Z" fill="#FFD923"/>
<path d="M52.5051 29.8247C52.0901 30.3765 51.6232 30.9518 51.0762 31.5036C54.6225 24.6797 51.2412 18.4359 51.1045 18.1907C51.3544 18.4406 51.5996 18.7141 51.8213 18.9594C54.5423 21.9822 54.8724 26.5236 52.5051 29.8247Z" fill="#D82122"/>
<path d="M55.8066 21.0486C54.5663 17.7192 52.8073 14.885 48.9309 12.329C45.1912 9.85313 41.1733 10.0465 40.9516 10.0748C40.9233 10.0748 40.895 10.0748 40.895 10.0748C41.0318 10.0182 41.1685 9.98989 41.3053 9.96631C42.1589 9.69279 43.2577 9.47114 44.3612 9.33438C47.2803 8.91467 50.223 9.905 52.232 12.0271C52.2603 12.0554 52.2603 12.0554 52.2886 12.0837C54.571 14.503 55.7547 17.5259 55.8066 21.0486Z" fill="#D82122"/>
<path d="M48.0487 7.42918C43.9506 6.66049 41.3097 7.04248 39.4092 7.75929C39.3526 7.53765 39.1593 7.09907 38.9942 6.74066C38.4236 7.42918 37.8152 8.25446 37.4333 8.77792C36.3863 9.49474 35.9478 10.1833 35.9478 10.1833C36.5514 8.1177 38.3151 6.58032 40.4609 6.19362C41.0645 6.08516 41.7247 6.02856 42.4415 6.02856C44.3373 6.05686 46.2331 6.52373 48.0487 7.42918Z" fill="#D82122"/>
<path d="M32.8921 12.7109C29.6759 12.6024 30.7464 8.85804 30.803 8.64111C30.803 8.66941 31.0199 11.5838 32.8921 12.7109Z" fill="#D82122"/>
<path d="M36.0562 5.97192C33.5803 7.45742 34.0755 11.0038 34.0755 11.0038C31.7081 7.40555 35.8628 6.05681 36.0562 5.97192Z" fill="#D82122"/>
<path d="M31.9865 13.7012C32.1516 13.838 32.3166 14.0879 32.1233 14.4463C32.0148 14.6397 31.8497 14.6114 31.5998 14.5029C31.2697 14.3379 29.289 13.1825 27.5017 11.9988C29.539 12.7156 31.5998 13.4843 31.9299 13.6493C31.9299 13.6493 31.9582 13.6776 31.9865 13.7012Z" fill="white"/>
</svg>
