<svg width="83" height="83" viewBox="0 0 83 83" fill="none" xmlns="http://www.w3.org/2000/svg">
<path d="M27.2251 79.7754C20.2585 77.2398 14.1098 72.8627 9.4334 67.1099C4.75701 61.3572 1.72795 54.4441 0.668626 47.1065C-0.390702 39.7688 0.559345 32.2813 3.41765 25.4408C6.27595 18.6002 10.9355 12.6627 16.9005 8.26014C22.8654 3.85759 29.9124 1.15478 37.2915 0.439378C44.6706 -0.276022 52.1056 1.02276 58.8052 4.1975C65.5047 7.37223 71.2181 12.3041 75.3372 18.4682C79.4563 24.6323 81.827 31.7979 82.1969 39.2023L41.2479 41.248L27.2251 79.7754Z" fill="#0177FB"/>
<path d="M82.1962 39.2004C82.5341 45.9562 81.1952 52.6907 78.2988 58.8035C75.4025 64.9164 71.0388 70.2177 65.5966 74.2349C60.1543 78.252 53.8027 80.8603 47.1079 81.8272C40.4131 82.7941 33.583 82.0895 27.2266 79.7764L41.2474 41.2482L82.1962 39.2004Z" fill="#FFD95C"/>
</svg>
