<svg width="52" height="32" viewBox="0 0 52 32" fill="none" xmlns="http://www.w3.org/2000/svg">
<path fill-rule="evenodd" clip-rule="evenodd" d="M36.0001 2.66675C43.3641 2.66675 49.3335 8.63615 49.3335 16.0001C49.3335 23.3635 43.3641 29.3335 36.0001 29.3335C28.6362 29.3335 22.6667 23.3635 22.6667 16.0001C22.6667 8.63615 28.6362 2.66675 36.0001 2.66675Z" fill="#2775CA"/>
<path fill-rule="evenodd" clip-rule="evenodd" d="M33.5015 25.2705C33.5015 25.5841 33.2559 25.7623 32.9525 25.6676C28.9212 24.3815 25.9983 20.6014 25.9983 16.1411C25.9983 11.6809 28.9212 7.90061 32.9525 6.61455C33.2559 6.52046 33.5015 6.69804 33.5015 7.01167V7.78592C33.5015 7.9947 33.3397 8.24046 33.1407 8.30849C29.9512 9.47971 27.6663 12.5438 27.6663 16.1358C27.6663 19.7278 29.9512 22.7925 33.1407 23.9631C33.3397 24.0364 33.5015 24.2767 33.5015 24.4862V25.2705Z" fill="white"/>
<path fill-rule="evenodd" clip-rule="evenodd" d="M36.8312 22.3893C36.8312 22.6196 36.643 22.8077 36.413 22.8077H35.5815C35.3515 22.8077 35.1633 22.6196 35.1633 22.3893V21.0718C33.3436 20.8262 32.455 19.8064 32.2144 18.4209C32.1724 18.1853 32.3606 17.9711 32.6012 17.9711H33.5529C33.7515 17.9711 33.9189 18.1124 33.9607 18.3108C34.1386 19.137 34.6144 19.7697 36.073 19.7697C37.1501 19.7697 37.9138 19.1683 37.9138 18.2694C37.9138 17.3697 37.4639 17.03 35.8848 16.7683C33.5529 16.4547 32.4497 15.7486 32.4497 13.9186C32.4497 12.507 33.5165 11.4091 35.1686 11.1736V9.88211C35.1686 9.65196 35.357 9.46362 35.5868 9.46362H36.4183C36.6483 9.46362 36.8365 9.65196 36.8365 9.88211V11.2103C38.1803 11.4512 39.0326 12.2141 39.3098 13.4794C39.362 13.7203 39.1738 13.9447 38.9282 13.9447H38.0495C37.8614 13.9447 37.7045 13.8191 37.6471 13.6362C37.4118 12.8314 36.8365 12.4864 35.8377 12.4864C34.7345 12.4864 34.1645 13.0195 34.1645 13.7671C34.1645 14.5567 34.4889 14.9538 36.1832 15.2C38.473 15.5136 39.655 16.1671 39.655 18.1179C39.655 19.5974 38.5568 20.7949 36.8365 21.0718V22.3893H36.8312Z" fill="white"/>
<path fill-rule="evenodd" clip-rule="evenodd" d="M39.0487 25.6676C38.7457 25.7623 38.4998 25.5841 38.4998 25.2705V24.4968C38.4998 24.2667 38.641 24.0524 38.8605 23.9736C42.0501 22.8024 44.3349 19.7383 44.3349 16.1464C44.3349 12.5544 42.0501 9.49028 38.8605 8.31907C38.6619 8.24573 38.4998 8.00543 38.4998 7.79588V7.02225C38.4998 6.70861 38.7457 6.52573 39.0487 6.62452C43.0801 7.91134 46.003 11.6915 46.003 16.1517C45.998 20.6012 43.0801 24.3762 39.0487 25.6676Z" fill="white"/>
<path d="M15.9604 2.66675L19.2541 6.03976L10.9604 14.3334L7.66675 11.0398L15.9604 2.66675Z" fill="#F0B90B" stroke="#F0B90B"/>
<path d="M20.9604 7.66675L24.2541 11.0398L10.9604 24.3334L7.66675 21.0398L20.9604 7.66675Z" fill="#F0B90B" stroke="#F0B90B"/>
<path d="M5.9604 12.6667L9.25405 16.0398L5.9604 19.3334L2.66675 16.0398L5.9604 12.6667Z" fill="#F0B90B" stroke="#F0B90B"/>
<path d="M25.9604 12.6667L29.2541 16.0398L15.9604 29.3334L12.6667 26.0398L25.9604 12.6667Z" fill="#F0B90B" stroke="#F0B90B"/>
</svg>
