<svg width="52" height="32" viewBox="0 0 52 32" fill="none" xmlns="http://www.w3.org/2000/svg">
<path fill-rule="evenodd" clip-rule="evenodd" d="M35.9999 2.66675C43.3638 2.66675 49.3332 8.63615 49.3332 16.0001C49.3332 23.3635 43.3638 29.3335 35.9999 29.3335C28.6359 29.3335 22.6665 23.3635 22.6665 16.0001C22.6665 8.63615 28.6359 2.66675 35.9999 2.66675Z" fill="#2775CA"/>
<path fill-rule="evenodd" clip-rule="evenodd" d="M33.5012 25.2705C33.5012 25.5841 33.2556 25.7623 32.9523 25.6676C28.9209 24.3815 25.998 20.6014 25.998 16.1411C25.998 11.6809 28.9209 7.90061 32.9523 6.61455C33.2556 6.52046 33.5012 6.69804 33.5012 7.01167V7.78592C33.5012 7.9947 33.3394 8.24046 33.1405 8.30849C29.9509 9.47971 27.6661 12.5438 27.6661 16.1358C27.6661 19.7278 29.9509 22.7925 33.1405 23.9631C33.3394 24.0364 33.5012 24.2767 33.5012 24.4862V25.2705Z" fill="white"/>
<path fill-rule="evenodd" clip-rule="evenodd" d="M36.8312 22.3893C36.8312 22.6196 36.643 22.8077 36.413 22.8077H35.5815C35.3515 22.8077 35.1633 22.6196 35.1633 22.3893V21.0718C33.3436 20.8262 32.455 19.8064 32.2144 18.4209C32.1724 18.1853 32.3606 17.9711 32.6012 17.9711H33.5529C33.7515 17.9711 33.9189 18.1124 33.9607 18.3108C34.1386 19.137 34.6144 19.7697 36.073 19.7697C37.1501 19.7697 37.9138 19.1683 37.9138 18.2694C37.9138 17.3697 37.4639 17.03 35.8848 16.7683C33.5529 16.4547 32.4497 15.7486 32.4497 13.9186C32.4497 12.507 33.5165 11.4091 35.1686 11.1736V9.88211C35.1686 9.65196 35.357 9.46362 35.5868 9.46362H36.4183C36.6483 9.46362 36.8365 9.65196 36.8365 9.88211V11.2103C38.1803 11.4512 39.0326 12.2141 39.3098 13.4794C39.362 13.7203 39.1738 13.9447 38.9282 13.9447H38.0495C37.8614 13.9447 37.7045 13.8191 37.6471 13.6362C37.4118 12.8314 36.8365 12.4864 35.8377 12.4864C34.7345 12.4864 34.1645 13.0195 34.1645 13.7671C34.1645 14.5567 34.4889 14.9538 36.1832 15.2C38.473 15.5136 39.655 16.1671 39.655 18.1179C39.655 19.5974 38.5568 20.7949 36.8365 21.0718V22.3893H36.8312Z" fill="white"/>
<path fill-rule="evenodd" clip-rule="evenodd" d="M39.0485 25.6676C38.7454 25.7623 38.4995 25.5841 38.4995 25.2705V24.4968C38.4995 24.2667 38.6407 24.0524 38.8603 23.9736C42.0498 22.8024 44.3347 19.7383 44.3347 16.1464C44.3347 12.5544 42.0498 9.49028 38.8603 8.31907C38.6616 8.24573 38.4995 8.00543 38.4995 7.79588V7.02225C38.4995 6.70861 38.7454 6.52573 39.0485 6.62452C43.0798 7.91134 46.0027 11.6915 46.0027 16.1517C45.9977 20.6012 43.0798 24.3762 39.0485 25.6676Z" fill="white"/>
<path d="M15.9602 2.66675L19.2538 6.03976L10.9602 14.3334L7.6665 11.0398L15.9602 2.66675Z" fill="#F0B90B" stroke="#F0B90B"/>
<path d="M20.9602 7.66675L24.2538 11.0398L10.9602 24.3334L7.6665 21.0398L20.9602 7.66675Z" fill="#F0B90B" stroke="#F0B90B"/>
<path d="M5.96016 12.6667L9.25381 16.0398L5.96016 19.3334L2.6665 16.0398L5.96016 12.6667Z" fill="#F0B90B" stroke="#F0B90B"/>
<path d="M25.9602 12.6667L29.2538 16.0398L15.9602 29.3334L12.6665 26.0398L25.9602 12.6667Z" fill="#F0B90B" stroke="#F0B90B"/>
</svg>
