<svg width="52" height="32" viewBox="0 0 52 32" fill="none" xmlns="http://www.w3.org/2000/svg">
<path fill-rule="evenodd" clip-rule="evenodd" d="M36 2.66675C43.364 2.66675 49.3334 8.63615 49.3334 16.0001C49.3334 23.3635 43.364 29.3335 36 29.3335C28.6361 29.3335 22.6667 23.3635 22.6667 16.0001C22.6667 8.63615 28.6361 2.66675 36 2.66675Z" fill="#2775CA"/>
<path fill-rule="evenodd" clip-rule="evenodd" d="M33.5014 25.2702C33.5014 25.5839 33.2558 25.7621 32.9524 25.6674C28.9211 24.3813 25.9982 20.6011 25.9982 16.1408C25.9982 11.6807 28.9211 7.90037 32.9524 6.61431C33.2558 6.52022 33.5014 6.69779 33.5014 7.01143V7.78567C33.5014 7.99446 33.3395 8.24022 33.1406 8.30825C29.9511 9.47946 27.6662 12.5436 27.6662 16.1355C27.6662 19.7275 29.9511 22.7922 33.1406 23.9628C33.3395 24.0362 33.5014 24.2765 33.5014 24.486V25.2702Z" fill="white"/>
<path fill-rule="evenodd" clip-rule="evenodd" d="M36.8312 22.3891C36.8312 22.6194 36.643 22.8076 36.413 22.8076H35.5815C35.3515 22.8076 35.1633 22.6194 35.1633 22.3891V21.0717C33.3436 20.8261 32.455 19.8062 32.2143 18.4208C32.1724 18.1852 32.3606 17.9709 32.6012 17.9709H33.5528C33.7515 17.9709 33.9189 18.1123 33.9607 18.3106C34.1386 19.1369 34.6144 19.7696 36.073 19.7696C37.1501 19.7696 37.9138 19.1682 37.9138 18.2693C37.9138 17.3696 37.4639 17.0299 35.8848 16.7682C33.5528 16.4546 32.4497 15.7485 32.4497 13.9185C32.4497 12.5068 33.5165 11.409 35.1686 11.1735V9.88199C35.1686 9.65183 35.3569 9.4635 35.5868 9.4635H36.4183C36.6483 9.4635 36.8365 9.65183 36.8365 9.88199V11.2102C38.1803 11.4511 39.0325 12.214 39.3098 13.4793C39.3619 13.7202 39.1738 13.9446 38.9281 13.9446H38.0495C37.8613 13.9446 37.7045 13.819 37.6471 13.6361C37.4118 12.8312 36.8365 12.4862 35.8377 12.4862C34.7345 12.4862 34.1645 13.0194 34.1645 13.767C34.1645 14.5565 34.4889 14.9537 36.1831 15.1999C38.473 15.5135 39.655 16.167 39.655 18.1178C39.655 19.5973 38.5568 20.7947 36.8365 21.0717V22.3891H36.8312Z" fill="white"/>
<path fill-rule="evenodd" clip-rule="evenodd" d="M39.0486 25.6675C38.7455 25.7622 38.4996 25.584 38.4996 25.2703V24.4967C38.4996 24.2665 38.6408 24.0523 38.8604 23.9735C42.0499 22.8023 44.3348 19.7382 44.3348 16.1462C44.3348 12.5543 42.0499 9.49016 38.8604 8.31895C38.6617 8.24561 38.4996 8.00531 38.4996 7.79576V7.02213C38.4996 6.70849 38.7455 6.52561 39.0486 6.6244C43.0799 7.91122 46.0028 11.6914 46.0028 16.1515C45.9978 20.6011 43.0799 24.3761 39.0486 25.6675Z" fill="white"/>
<path d="M15.9602 2.66663L19.2539 6.03964L10.9602 14.3333L7.66656 11.0396L15.9602 2.66663Z" fill="#F0B90B" stroke="#F0B90B"/>
<path d="M20.9602 7.66663L24.2539 11.0396L10.9602 24.3333L7.66656 21.0396L20.9602 7.66663Z" fill="#F0B90B" stroke="#F0B90B"/>
<path d="M5.9603 12.6666L9.25395 16.0396L5.9603 19.3333L2.66665 16.0396L5.9603 12.6666Z" fill="#F0B90B" stroke="#F0B90B"/>
<path d="M25.9603 12.6666L29.254 16.0396L15.9603 29.3333L12.6667 26.0396L25.9603 12.6666Z" fill="#F0B90B" stroke="#F0B90B"/>
</svg>
