<svg width="48" height="48" viewBox="0 0 48 48" fill="none" xmlns="http://www.w3.org/2000/svg">
<g clip-path="url(#clip0_3558_61884)">
<rect width="48" height="48" rx="24" fill="#FFD95C"/>
<path d="M48 24C48 27.172 47.3712 30.3126 46.15 33.2401C44.9287 36.1676 43.1393 38.824 40.885 41.0557C38.6308 43.2873 35.9566 45.05 33.017 46.2417C30.0773 47.4335 26.9306 48.0307 23.7587 47.9988C20.5869 47.9669 17.4528 47.3066 14.5377 46.0559C11.6226 44.8053 8.98435 42.9893 6.77546 40.7127C4.56658 38.4362 2.83089 35.7444 1.66875 32.7929C0.506608 29.8414 -0.0589234 26.6889 0.00485116 23.5175L24 24H48Z" fill="#0177FB"/>
</g>
<defs>
<clipPath id="clip0_3558_61884">
<rect width="48" height="48" rx="24" fill="white"/>
</clipPath>
</defs>
</svg>
