<svg width="220" height="219" viewBox="0 0 220 219" fill="none" xmlns="http://www.w3.org/2000/svg">
<rect x="0.5" width="219" height="219" rx="8" fill="white"/>
<path d="M8.61133 8.11111H65.3891V64.8889H8.61133V8.11111ZM73.5002 8.11111H81.6113V16.2222H73.5002V8.11111ZM89.7224 8.11111H105.945V16.2222H89.7224V8.11111ZM122.167 8.11111H138.389V16.2222H122.167V8.11111ZM154.611 8.11111H211.389V64.8889H154.611V8.11111ZM16.7224 16.2222V56.7778H57.278V16.2222H16.7224ZM81.6113 16.2222H89.7224V24.3333H81.6113V16.2222ZM105.945 16.2222H114.056V24.3333H105.945V16.2222ZM138.389 16.2222H146.5V24.3333H138.389V16.2222ZM162.722 16.2222V56.7778H203.278V16.2222H162.722ZM24.8336 24.3333H49.1669V48.6667H24.8336V24.3333ZM89.7224 24.3333H105.945V32.4444H97.8336V40.5556H81.6113V48.6667H97.8336V40.5556H114.056V48.6667H105.945V56.7778H97.8336V64.8889H105.945V56.7778H114.056V64.8889H122.167V81.1111H130.278V64.8889H138.389V48.6667H122.167V40.5556H138.389V32.4444H146.5V73H138.389V81.1111H146.5V73H187.056V89.2222H195.167V97.3333H203.278V105.444H211.389V113.556H203.278V121.667H195.167V113.556H178.945V105.444H187.056V97.3333H170.834V81.1111H154.611V89.2222H146.5V97.3333H130.278V89.2222H114.056V81.1111H97.8336V73H89.7224V89.2222H114.056V97.3333H105.945V105.444H97.8336V97.3333H73.5002V105.444H65.3891V97.3333H57.278V105.444H65.3891V113.556H32.9447V105.444H41.0558V89.2222H24.8336V81.1111H41.0558V73H49.1669V81.1111H57.278V89.2222H65.3891V81.1111H57.278V73H73.5002V32.4444H89.7224V24.3333ZM122.167 24.3333H130.278V32.4444H122.167V24.3333ZM170.834 24.3333H195.167V48.6667H170.834V24.3333ZM81.6113 56.7778V64.8889H89.7224V56.7778H81.6113ZM122.167 56.7778H130.278V64.8889H122.167V56.7778ZM8.61133 73H16.7224V81.1111H8.61133V73ZM203.278 73H211.389V81.1111H203.278V73ZM195.167 81.1111H203.278V89.2222H195.167V81.1111ZM16.7224 89.2222H24.8336V97.3333H32.9447V105.444H16.7224V89.2222ZM122.167 97.3333H130.278V105.444H138.389V137.889H130.278V129.778H122.167V146H130.278V154.111H114.056V146H105.945V137.889H114.056V129.778H105.945V137.889H97.8336V129.778H73.5002V105.444H81.6113V121.667H105.945V113.556H114.056V121.667H130.278V113.556H114.056V105.444H122.167V97.3333ZM146.5 97.3333H154.611V105.444H162.722V97.3333H170.834V113.556H154.611V129.778H162.722V121.667H170.834V113.556H178.945V121.667H195.167V129.778H203.278V137.889H195.167V146H178.945V162.222H211.389V186.556H203.278V202.778H211.389V210.889H187.056V202.778H162.722V210.889H146.5V194.667H138.389V210.889H130.278V194.667H122.167V210.889H105.945V202.778H114.056V194.667H105.945V202.778H97.8336V210.889H89.7224V202.778H81.6113V194.667H89.7224V162.222H97.8336V170.333H105.945V178.444H97.8336V186.556H105.945V178.444H114.056V186.556H138.389V137.889H146.5V97.3333ZM8.61133 105.444H16.7224V113.556H24.8336V121.667H8.61133V105.444ZM89.7224 105.444H97.8336V113.556H89.7224V105.444ZM32.9447 121.667H65.3891V129.778H57.278V137.889H41.0558V146H8.61133V137.889H24.8336V129.778H32.9447V121.667ZM65.3891 129.778H73.5002V137.889H81.6113V154.111H89.7224V162.222H73.5002V146H57.278V137.889H65.3891V129.778ZM178.945 129.778V137.889H187.056V129.778H178.945ZM89.7224 137.889H97.8336V146H89.7224V137.889ZM146.5 146V170.333H170.834V146H146.5ZM8.61133 154.111H65.3891V210.889H8.61133V154.111ZM154.611 154.111H162.722V162.222H154.611V154.111ZM16.7224 162.222V202.778H57.278V162.222H16.7224ZM105.945 162.222H114.056V170.333H105.945V162.222ZM122.167 162.222H130.278V178.444H114.056V170.333H122.167V162.222ZM24.8336 170.333H49.1669V194.667H24.8336V170.333ZM73.5002 170.333H81.6113V178.444H73.5002V170.333ZM195.167 170.333V178.444H203.278V170.333H195.167ZM170.834 178.444V186.556H162.722V194.667H178.945V186.556H187.056V194.667H195.167V186.556H187.056V178.444H170.834ZM73.5002 202.778H81.6113V210.889H73.5002V202.778Z" fill="black"/>
</svg>
