<svg width="32" height="32" viewBox="0 0 32 32" fill="none" xmlns="http://www.w3.org/2000/svg">
<path d="M26.6066 5.39343C27.9995 6.78631 29.1044 8.43991 29.8582 10.2598C30.6121 12.0797 31.0001 14.0303 31.0001 16.0001C31.0001 17.9699 30.6121 19.9205 29.8582 21.7404C29.1044 23.5603 27.9995 25.2139 26.6066 26.6068C25.2137 27.9996 23.5602 29.1045 21.7403 29.8584C19.9204 30.6122 17.9698 31.0002 16 31.0002C14.0301 31.0002 12.0796 30.6122 10.2597 29.8584C8.43979 29.1045 6.78619 27.9996 5.3933 26.6068C2.58024 23.7937 0.999878 19.9784 0.999878 16.0001C0.999878 12.0218 2.58024 8.20649 5.3933 5.39343C8.20637 2.58036 12.0217 1 16 1C19.9782 1 23.7936 2.58036 26.6066 5.39343" stroke="white" stroke-width="1.5" stroke-linecap="round" stroke-linejoin="round"/>
<path d="M24.845 28.0951C24.205 25.0284 20.5083 22.6667 16 22.6667C11.4916 22.6667 7.79497 25.0284 7.15497 28.0951" stroke="white" stroke-width="1.5" stroke-linecap="round" stroke-linejoin="round"/>
<path d="M19.535 9.13178C20.0205 9.59103 20.409 10.1429 20.6776 10.7549C20.9462 11.3669 21.0893 12.0265 21.0986 12.6947C21.1079 13.363 20.9832 14.0263 20.7317 14.6455C20.4803 15.2647 20.1072 15.8272 19.6347 16.2998C19.1621 16.7724 18.5996 17.1454 17.9804 17.3969C17.3612 17.6483 16.6978 17.7731 16.0296 17.7638C15.3613 17.7545 14.7017 17.6113 14.0898 17.3427C13.4778 17.0742 12.9259 16.6856 12.4666 16.2001C11.5834 15.2523 11.1026 13.9986 11.1255 12.7033C11.1483 11.408 11.6731 10.1721 12.5892 9.25597C13.5052 8.33988 14.7411 7.81514 16.0365 7.79228C17.3318 7.76943 18.5855 8.25025 19.5333 9.13345" stroke="white" stroke-width="1.5" stroke-linecap="round" stroke-linejoin="round"/>
</svg>
