<svg width="24" height="24" viewBox="0 0 24 24" fill="none" xmlns="http://www.w3.org/2000/svg">
<path d="M12 2C17.5234 2 22 6.47754 22 12C22 17.5234 17.5234 22 12 22C6.47754 22 2 17.5229 2 12C2 6.47754 6.47754 2 12 2Z" fill="#F5AC37"/>
<path d="M12.3682 12.7061H16.1681C16.2491 12.7061 16.2873 12.7061 16.2932 12.5999C16.3242 12.2134 16.3242 11.8246 16.2932 11.4376C16.2932 11.3624 16.2558 11.3314 16.1744 11.3314H8.61205C8.51844 11.3314 8.49324 11.3624 8.49324 11.4502V12.5626C8.49324 12.7061 8.49324 12.7061 8.6431 12.7061H12.3682V12.7061ZM15.8688 10.0313C15.8796 10.003 15.8796 9.97191 15.8688 9.94401C15.8054 9.80586 15.7302 9.67401 15.6429 9.55026C15.5115 9.33876 15.3567 9.1439 15.1803 8.96885C15.0971 8.8631 15.0008 8.76815 14.8928 8.6876C14.3519 8.22724 13.7088 7.90144 13.0176 7.73764C12.6688 7.65934 12.3124 7.62199 11.9551 7.62514H8.59899C8.50539 7.62514 8.49279 7.66249 8.49279 7.74394V9.96246C8.49279 10.0561 8.49279 10.0813 8.6116 10.0813H15.8238C15.8238 10.0813 15.8864 10.0687 15.899 10.0313H15.8684H15.8688ZM15.8688 14.0062C15.7626 13.9945 15.6555 13.9945 15.5493 14.0062H8.61835C8.52474 14.0062 8.49324 14.0062 8.49324 14.1313V16.3003C8.49324 16.4002 8.49324 16.4254 8.61835 16.4254H11.8183C11.9713 16.4371 12.1243 16.4263 12.2742 16.3944C12.7386 16.3611 13.1953 16.2603 13.6309 16.0942C13.7893 16.0393 13.9423 15.9678 14.0868 15.8818H14.1305C14.8806 15.4917 15.4899 14.8788 15.8742 14.1264C15.8742 14.1264 15.9179 14.0319 15.8688 14.0071V14.0062ZM7.23728 17.55V17.5126V16.0564V15.5628V14.094C7.23728 14.0125 7.23728 14.0004 7.13738 14.0004H5.78107C5.70592 14.0004 5.67487 14.0004 5.67487 13.9005V12.7129H7.12478C7.20578 12.7129 7.23728 12.7129 7.23728 12.6067V11.4317C7.23728 11.3566 7.23728 11.3381 7.13738 11.3381H5.78107C5.70592 11.3381 5.67487 11.3381 5.67487 11.2382V10.1384C5.67487 10.0696 5.67487 10.0511 5.77477 10.0511H7.11848C7.21208 10.0511 7.23728 10.0511 7.23728 9.93231V6.56358C7.23728 6.46368 7.23728 6.43848 7.36238 6.43848H12.0496C12.3898 6.45198 12.7278 6.48933 13.0621 6.55098C13.7511 6.67833 14.4131 6.92448 15.0183 7.27594C15.4197 7.51219 15.7892 7.79749 16.1181 8.12599C16.3656 8.38295 16.5888 8.66105 16.7868 8.95715C16.9835 9.25731 17.1468 9.57816 17.2751 9.91341C17.2908 10.0007 17.3745 10.0597 17.4618 10.0448H18.5805C18.7241 10.0448 18.7241 10.0448 18.7304 10.1825V11.2076C18.7304 11.3075 18.693 11.3327 18.5927 11.3327H17.73C17.6427 11.3327 17.6175 11.3327 17.6238 11.4452C17.658 11.8259 17.658 12.208 17.6238 12.5887C17.6238 12.6949 17.6238 12.7075 17.7431 12.7075H18.7299C18.7736 12.7637 18.7299 12.82 18.7299 12.8767C18.7362 12.9491 18.7362 13.0225 18.7299 13.0949V13.8514C18.7299 13.9576 18.6989 13.9891 18.6048 13.9891H17.4236C17.3412 13.9734 17.2611 14.026 17.2422 14.1079C16.961 14.8392 16.511 15.4948 15.9296 16.0204C15.7172 16.2117 15.494 16.3917 15.2609 16.5577C15.0107 16.7017 14.7672 16.8516 14.5107 16.9704C14.0386 17.1828 13.5436 17.3394 13.0356 17.4388C12.5532 17.5252 12.064 17.5644 11.5731 17.5576H7.23548V17.5513L7.23728 17.55Z" fill="#FEFEFD"/>
</svg>
