<svg width="78" height="48" viewBox="0 0 78 48" fill="none" xmlns="http://www.w3.org/2000/svg">
<path d="M53.9403 4L58.8808 9.05952L46.4403 21.5L41.4998 16.5595L53.9403 4Z" fill="#F0B90B" stroke="#F0B90B"/>
<path d="M61.4403 11.5L66.3808 16.5595L46.4403 36.5L41.4998 31.5595L61.4403 11.5Z" fill="#F0B90B" stroke="#F0B90B"/>
<path d="M38.9405 19L43.881 24.0595L38.9405 29L34 24.0595L38.9405 19Z" fill="#F0B90B" stroke="#F0B90B"/>
<path d="M68.9405 19L73.881 24.0595L53.9405 44L49.0001 39.0595L68.9405 19Z" fill="#F0B90B" stroke="#F0B90B"/>
<path fill-rule="evenodd" clip-rule="evenodd" d="M24 4C35.046 4 44.0001 12.9541 44.0001 24C44.0001 35.0451 35.046 44.0001 24 44.0001C12.9541 44.0001 4 35.0451 4 24C4 12.9541 12.9541 4 24 4Z" fill="#2775CA"/>
<path fill-rule="evenodd" clip-rule="evenodd" d="M20.251 37.9055C20.251 38.3759 19.8826 38.6432 19.4276 38.5012C13.3805 36.5721 8.99622 30.9018 8.99622 24.2114C8.99622 17.5211 13.3805 11.8507 19.4276 9.92158C19.8826 9.78045 20.251 10.0468 20.251 10.5173V11.6786C20.251 11.9918 20.0083 12.3604 19.7099 12.4625C14.9255 14.2193 11.4983 18.8155 11.4983 24.2034C11.4983 29.5914 14.9255 34.1884 19.7099 35.9443C20.0083 36.0543 20.251 36.4148 20.251 36.7291V37.9055Z" fill="white"/>
<path fill-rule="evenodd" clip-rule="evenodd" d="M25.2467 33.5838C25.2467 33.9292 24.9644 34.2115 24.6194 34.2115H23.3721C23.0271 34.2115 22.7449 33.9292 22.7449 33.5838V31.6076C20.0153 31.2392 18.6824 29.7094 18.3214 27.6312C18.2585 27.2778 18.5408 26.9565 18.9017 26.9565H20.3292C20.6271 26.9565 20.8783 27.1685 20.941 27.466C21.2078 28.7053 21.9215 29.6544 24.1094 29.6544C25.7251 29.6544 26.8706 28.7524 26.8706 27.404C26.8706 26.0544 26.1958 25.5449 23.8271 25.1524C20.3292 24.6819 18.6744 23.6228 18.6744 20.8778C18.6744 18.7603 20.2746 17.1135 22.7528 16.7603V14.823C22.7528 14.4778 23.0353 14.1953 23.3801 14.1953H24.6274C24.9724 14.1953 25.2546 14.4778 25.2546 14.823V16.8153C27.2703 17.1767 28.5487 18.321 28.9646 20.219C29.0428 20.5803 28.7606 20.9169 28.3921 20.9169H27.0742C26.7919 20.9169 26.5567 20.7285 26.4706 20.4542C26.1176 19.2469 25.2546 18.7294 23.7565 18.7294C22.1017 18.7294 21.2467 19.5292 21.2467 20.6506C21.2467 21.8349 21.7333 22.4306 24.2746 22.7999C27.7094 23.2703 29.4824 24.2506 29.4824 27.1767C29.4824 29.396 27.8351 31.1922 25.2546 31.6076V33.5838H25.2467Z" fill="white"/>
<path fill-rule="evenodd" clip-rule="evenodd" d="M28.573 38.5014C28.1185 38.6434 27.7496 38.3761 27.7496 37.9057V36.7452C27.7496 36.4 27.9615 36.0786 28.2908 35.9605C33.0751 34.2036 36.5024 29.6075 36.5024 24.2195C36.5024 18.8316 33.0751 14.2354 28.2908 12.4786C27.9928 12.3686 27.7496 12.0081 27.7496 11.6938V10.5334C27.7496 10.0629 28.1185 9.7886 28.573 9.93678C34.6201 11.867 39.0044 17.5372 39.0044 24.2275C38.9969 30.9018 34.6201 36.5643 28.573 38.5014Z" fill="white"/>
</svg>
