<svg width="39" height="24" viewBox="0 0 39 24" fill="none" xmlns="http://www.w3.org/2000/svg">
<path d="M21.762 13.3706L22.2911 9.3951L17.7017 6.20906L21.895 7.62948L22.8853 6.11003L26.5015 3.86621L34.4722 8.25764L34.8853 14.958L31.3343 19.8926L28.5274 20.3227L29.979 17.6658V15.1079L28.9235 13.1103L27.8512 12.4001L26.2015 14.1006V15.9002L24.9141 17.1056L23.2786 17.3036L22.5543 17.7139L21.3659 17.3348L20.8707 15.5522L21.762 14.2987V13.3706Z" fill="white"/>
<path d="M29.0905 6.17491C28.2162 5.99382 27.2598 6.04192 27.2598 6.04192C27.2598 6.04192 26.9457 7.49347 24.999 7.87545C25.0132 7.87545 27.5711 8.74977 29.0905 6.17491Z" fill="#94A6C3"/>
<path d="M29.8825 19.3463C30.9379 18.52 31.7301 17.3826 32.0951 16.0951C32.1121 16.047 32.2592 15.9622 32.3583 15.8971C32.5224 15.798 32.6893 15.716 32.7205 15.583C32.7855 15.2038 32.8195 14.8077 32.8195 14.4116C32.8195 14.2644 32.6695 14.1145 32.5224 13.9673C32.4064 13.8683 32.2904 13.7523 32.2904 13.6702C32.1263 12.1678 31.433 10.7643 30.3267 9.74287L30.2107 9.85888C31.2831 10.8662 31.9763 12.2357 32.1263 13.6872C32.1432 13.8202 32.2734 13.9504 32.4064 14.0834C32.5224 14.1824 32.6554 14.3323 32.6554 14.3974C32.6554 14.7766 32.6214 15.1557 32.5563 15.5349C32.5394 15.6 32.3922 15.6679 32.2762 15.733C32.1121 15.815 31.9621 15.8971 31.931 16.0301C31.5349 17.4335 30.6266 18.6559 29.4212 19.4481C29.6363 18.9869 30.3125 17.4844 30.6747 16.7233L30.6096 14.2814L28.513 12.2527L27.3246 12.4168L26.0202 14.5304C26.0202 14.5304 26.6313 15.3057 25.7712 16.214C24.9308 17.1053 24.2687 17.3033 24.2687 17.3033L23.6575 16.9723C23.8386 16.7403 24.2036 16.3951 24.4837 16.163C24.9619 15.7669 25.4401 15.733 25.4401 15.3057C25.4599 14.4116 24.5007 14.6577 24.5007 14.6577L24.1527 14.9888L24.0056 16.2111L23.2812 17.1194L23.1991 17.1024L22.0107 16.8393C22.0107 16.8393 22.7379 16.4601 22.8539 16.0301C22.9699 15.617 22.6219 14.2475 22.6049 14.1654C22.6219 14.1824 22.953 14.4625 23.1001 14.9237C23.3633 14.1965 23.7113 13.5033 23.8103 13.4382C23.9093 13.3731 25.2449 12.6629 25.2449 12.6629L24.8006 13.8344L25.1317 13.6533L25.924 11.7066C25.924 11.7066 26.6992 11.3274 27.2765 11.3274C28.3149 11.3104 29.8513 10.04 29.1581 7.76221C29.3562 7.84426 32.7884 9.56178 33.3826 12.9289C33.8268 15.5179 32.3583 17.9428 29.8825 19.3463Z" fill="#94A6C3"/>
<path d="M25.9554 6.537C26.3346 6.08994 26.1874 5.43066 26.1874 5.43066L25.0811 7.06612C25.0641 7.06612 25.4744 7.08309 25.9554 6.537Z" fill="#1B314F"/>
<path d="M22.2402 15.4669L22.3732 14.8076C22.3732 14.8076 21.8271 15.764 21.779 15.897C21.7281 16.047 21.813 16.3101 22.0252 16.2932C22.2402 16.2762 22.5034 15.9621 22.5034 15.7329C22.5034 15.4358 22.2402 15.4669 22.2402 15.4669Z" fill="#1B314F"/>
<path d="M32.0445 4.96963C32.0445 4.96963 32.8707 5.00359 33.7281 5.10262C31.7955 3.58317 29.9648 3.13893 28.4793 3.13893C26.4336 3.13893 25.0471 3.98213 24.9622 4.03023L25.6074 3.00595C25.6074 3.00595 23.0325 2.75695 22.1242 5.48178C21.8922 4.90455 21.68 4.06136 21.68 4.06136C21.68 4.06136 20.3416 5.23561 20.9698 7.18232C19.4333 6.62207 17.2405 5.84396 17.1556 5.82981C17.0396 5.81283 17.0056 5.86376 17.0056 5.86376C17.0056 5.86376 16.9717 5.91186 17.0707 5.99675C17.2546 6.14106 20.7208 8.70177 21.4819 9.19694C21.3178 9.79114 21.3178 10.0713 21.4819 10.3514C21.7139 10.7305 21.7281 10.9286 21.697 11.2087C21.663 11.4889 21.3659 13.9166 21.3008 14.2137C21.2358 14.5108 20.5425 15.5662 20.5736 15.8803C20.6076 16.1943 21.0349 17.5299 21.4168 17.6798C21.697 17.7789 22.3902 17.9939 22.8514 17.9939C23.0155 17.9939 23.1655 17.96 23.2306 17.8949C23.5107 17.6487 23.5927 17.5978 23.7908 17.5978C23.8078 17.5978 23.8248 17.5978 23.8389 17.5978C23.921 17.5978 24.02 17.6148 24.136 17.6148C24.3992 17.6148 24.7472 17.5638 24.9934 17.3346C25.3555 16.9725 25.9837 16.4773 26.1818 16.2453C26.4308 15.9312 26.5609 15.5039 26.4958 15.0739C26.4449 14.6777 26.6599 14.3297 26.9089 13.9845C27.223 13.5714 27.8002 12.83 27.8002 12.83C28.9405 13.6846 29.6508 14.989 29.6508 16.4405C29.6508 19.0154 27.4069 21.0951 24.634 21.0951C24.2039 21.0951 23.7936 21.047 23.3805 20.9479C24.651 21.3922 25.7234 21.5421 26.6005 21.5421C28.4652 21.5421 29.4555 20.8659 29.4555 20.8659C29.4555 20.8659 29.1103 21.313 28.5472 21.8223C28.5642 21.8223 28.5642 21.8223 28.5642 21.8223C31.6512 21.3922 33.1537 18.8513 33.1537 18.8513C33.1537 18.8513 33.0377 19.6775 32.8906 20.2377C36.9962 17.1507 36.303 13.2884 36.286 13.1583C36.3199 13.2064 36.733 13.7015 36.9453 13.9675C37.6074 7.16534 32.0445 4.96963 32.0445 4.96963ZM25.7234 15.8322C25.6583 15.9142 25.3782 16.1632 25.1801 16.3443C24.982 16.5254 24.767 16.7065 24.6029 16.8734C24.5378 16.9385 24.4048 16.9725 24.2068 16.9725C24.1417 16.9725 24.0738 16.9725 24.0257 16.9725C23.9917 16.9725 23.9606 16.9725 23.9266 16.9725C23.8927 16.9725 23.8757 16.9725 23.8615 16.9725C23.8106 16.9725 23.7625 16.9725 23.7116 16.9725C23.9606 16.6414 24.6849 15.8831 24.9339 15.719C25.231 15.5209 25.381 15.3229 25.1971 14.9777C25.016 14.6296 24.5378 14.7145 24.5378 14.7145C24.5378 14.7145 24.8179 14.5985 25.0669 14.5985C24.7528 14.5164 24.3567 14.5985 24.1756 14.7796C23.9776 14.9607 24.0115 15.6058 23.9295 16.0161C23.8474 16.4462 23.5673 16.6612 23.1372 17.0574C22.9052 17.2724 22.7411 17.3375 22.6081 17.3375C22.3279 17.2894 21.9969 17.2045 21.7649 17.1224C21.6008 16.9074 21.3518 16.1972 21.2867 15.9001C21.3348 15.736 21.5329 15.3879 21.6319 15.1899C21.83 14.8107 21.946 14.5957 21.9799 14.3976C22.045 14.1175 22.26 12.383 22.3421 11.6586C22.5571 11.9387 22.8542 12.4028 22.7863 12.6999C23.2645 12.0236 22.9193 11.3615 22.7524 11.0984C22.6052 10.8352 22.4072 10.3061 22.5713 9.74587C22.7354 9.18562 23.3296 7.63221 23.3296 7.63221C23.3296 7.63221 23.5277 7.98025 23.8078 7.91234C24.0879 7.84726 26.3487 4.44617 26.3487 4.44617C26.3487 4.44617 26.9599 5.78171 26.3147 6.75789C25.6555 7.73125 25.0103 7.91234 25.0103 7.91234C25.0103 7.91234 25.9186 8.07645 26.759 7.46527C27.1042 8.27452 27.4352 9.11488 27.4522 9.23089C27.4013 9.3469 26.742 10.9314 26.6769 11.0305C26.643 11.0644 26.4138 11.1295 26.2468 11.1635C25.9667 11.2455 25.8026 11.2964 25.7347 11.3445C25.6187 11.4436 25.0896 12.8951 24.8434 13.6053C24.5463 13.6874 24.2492 13.8543 24.0342 14.1826C24.1502 14.1005 24.5123 14.0496 24.7783 14.0184C25.0103 14.0015 25.7177 14.3806 25.9016 15.0908C25.9016 15.1078 25.9016 15.1078 25.9016 15.1248C25.9384 15.3851 25.8564 15.6341 25.7234 15.8322ZM24.1728 16.0302C24.3228 15.8152 24.3058 15.453 24.3228 15.337C24.3397 15.221 24.3709 15.0059 24.5039 14.9748C24.6368 14.9409 24.9509 14.9918 24.9509 15.221C24.9509 15.436 24.7189 15.4841 24.5548 15.6341C24.4359 15.7473 24.2039 15.9963 24.1728 16.0302ZM30.7571 12.8753C30.9212 12.035 30.9382 11.3078 30.8901 10.7136C31.5324 11.5709 31.9285 12.6122 32.0445 13.6846C32.0615 13.8175 32.1917 13.9477 32.3247 14.0807C32.4407 14.1797 32.5736 14.3127 32.5736 14.3948C32.5736 14.7739 32.5397 15.1531 32.4746 15.5351C32.4576 15.5832 32.3105 15.6681 32.1945 15.7331C32.0304 15.8152 31.8804 15.8972 31.8493 16.0302C31.4871 17.3007 30.709 18.424 29.6706 19.2163C31.2042 17.6148 31.9455 14.972 30.7571 12.8753ZM29.7187 19.3634C30.791 18.5372 31.6173 17.3827 31.9794 16.0783C31.9964 16.0302 32.1436 15.9454 32.2426 15.8803C32.4067 15.7982 32.5736 15.6992 32.6048 15.5662C32.6699 15.187 32.7038 14.7909 32.7038 14.3948C32.7038 14.2476 32.5538 14.0977 32.4067 13.9505C32.3247 13.8515 32.1917 13.7355 32.1917 13.6534C32.0587 12.4481 31.5805 11.3106 30.8392 10.3684C30.5081 8.3877 29.1895 7.77652 29.1556 7.75954C29.1895 7.81047 30.0469 9.04698 29.4527 10.4985C28.8415 11.967 27.274 11.7379 27.141 11.752C27.008 11.752 26.4987 12.4113 25.8535 13.6336C25.7715 13.5997 25.4234 13.5176 25.0273 13.5855C25.3244 12.7593 25.7715 11.5879 25.8535 11.4889C25.8875 11.4549 26.1337 11.3898 26.3006 11.3417C26.6147 11.2597 26.7618 11.2087 26.8127 11.1437C26.8467 11.0927 27.0108 10.7136 27.1749 10.3174C27.3249 10.3174 27.704 10.2835 27.7352 10.2665C27.7691 10.2325 28.0832 9.42613 28.0832 9.3271C28.0832 9.24504 27.4381 7.64353 27.1919 7.03236C27.3079 6.89937 27.4239 6.73526 27.5371 6.55417C30.9212 6.91917 33.564 9.79114 33.564 13.2715C33.564 15.9454 31.9964 18.274 29.7187 19.3634Z" fill="#1B314F"/>
<path d="M25.327 10.4502C25.641 10.088 25.4769 9.41177 24.8969 9.29576C25.0468 8.95056 25.259 8.25732 25.259 8.25732C25.259 8.25732 23.5755 10.8973 23.4283 10.9482C23.2784 10.9991 23.1312 10.4191 23.1312 10.4191C22.8172 11.6244 23.6604 11.7886 23.7594 11.4094C24.2206 11.2906 25.0129 10.7954 25.327 10.4502Z" fill="#1B314F"/>
<path d="M23.8896 11.0925L24.747 9.62402C24.747 9.62402 25.2421 9.87302 24.9932 10.2692C24.6819 10.7304 23.8896 11.0925 23.8896 11.0925Z" fill="#FFD923"/>
<path d="M34.5033 17.895C34.2543 18.226 33.9742 18.5712 33.646 18.9023C35.7738 14.808 33.745 11.0617 33.663 10.9146C33.8129 11.0645 33.9601 11.2286 34.0931 11.3758C35.7257 13.1895 35.9238 15.9143 34.5033 17.895Z" fill="#D82122"/>
<path d="M36.4841 12.6293C35.7399 10.6316 34.6845 8.93108 32.3586 7.39748C30.1148 5.91198 27.7041 6.02799 27.5711 6.04496C27.5541 6.04496 27.5371 6.04496 27.5371 6.04496C27.6192 6.01101 27.7012 5.99403 27.7833 5.97988C28.2954 5.81577 28.9547 5.68278 29.6168 5.60073C31.3683 5.3489 33.1339 5.9431 34.3393 7.21639C34.3563 7.23336 34.3563 7.23336 34.3732 7.25034C35.7427 8.70189 36.4529 10.5156 36.4841 12.6293Z" fill="#D82122"/>
<path d="M31.8294 4.45756C29.3706 3.99634 27.786 4.22554 26.6457 4.65562C26.6118 4.52264 26.4958 4.25949 26.3967 4.04445C26.0544 4.45756 25.6893 4.95273 25.4602 5.2668C24.832 5.69689 24.5688 6.11 24.5688 6.11C24.931 4.87067 25.9893 3.94824 27.2767 3.71622C27.6389 3.65114 28.035 3.61719 28.4651 3.61719C29.6026 3.63416 30.7401 3.91429 31.8294 4.45756Z" fill="#D82122"/>
<path d="M22.7354 7.62645C20.8056 7.56137 21.4479 5.31473 21.4819 5.18457C21.4819 5.20155 21.6121 6.95019 22.7354 7.62645Z" fill="#D82122"/>
<path d="M24.6339 3.58301C23.1484 4.47431 23.4455 6.60211 23.4455 6.60211C22.0251 4.44318 24.5179 3.63394 24.6339 3.58301Z" fill="#D82122"/>
<path d="M22.1919 8.22068C22.2909 8.30273 22.3899 8.4527 22.2739 8.66774C22.2088 8.78375 22.1098 8.76677 21.9598 8.70169C21.7618 8.60266 20.5734 7.90943 19.501 7.19922C20.7233 7.62931 21.9598 8.09052 22.1579 8.18955C22.1579 8.18955 22.1749 8.20653 22.1919 8.22068Z" fill="white"/>
<path d="M1 12C1 18.0751 5.92487 23 12 23C18.0751 23 23 18.0751 23 12C23 5.92487 18.0751 1 12 1C5.92487 1 1 5.92487 1 12Z" fill="#09090C"/>
<g clip-path="url(#clip0_3806_9246)">
<path d="M14.8365 18.2C14.2512 18.2 13.7533 17.7861 13.631 17.2137C13.5699 16.9055 13.5 16.5357 13.4214 16.1218C13.2117 14.933 12.8274 14.4751 11.9975 14.4399H11.1327V13.5945H12.0761C13.0545 13.5945 13.6747 12.9429 13.6747 11.9478C13.6747 10.8207 13.0108 10.3276 12.0499 10.3276C11.8752 10.3276 10.7309 10.3276 9.41186 10.3276V17.6981C9.41186 17.927 9.22842 18.1031 9.01004 18.1031C8.78292 18.1031 8.60822 17.9182 8.60822 17.6981V10.3276C7.58619 10.3276 6.55542 10.3276 5.8566 10.3276C5.38489 10.3276 5.00928 9.9489 5.00928 9.47338C5.00928 9.47338 6.82622 9.47338 8.60822 9.47338V8.4431C8.59948 6.54103 9.87484 5 11.4385 5H14.059C14.2862 5 14.4609 5.18492 14.4609 5.40507C14.4609 5.62522 14.2774 5.81014 14.059 5.81014H11.4385C10.3203 5.81014 9.40313 6.99013 9.40313 8.4431V9.45577C10.6523 9.45577 11.7355 9.45577 11.98 9.45577C12.9497 9.45577 13.5873 9.68472 14.0328 10.169C14.3822 10.5477 14.5832 11.1377 14.5832 11.8157C14.5832 12.9517 13.9892 13.7178 13.2467 14.026V14.0612C13.7882 14.2902 14.1115 14.9154 14.2862 15.8136C14.3997 16.4212 14.5045 16.932 14.5919 17.3282C14.688 17.7333 14.7666 18.0239 14.8365 18.2Z" fill="white"/>
<path d="M16.88 11.9126V12.2384C16.88 12.3881 16.7577 12.5114 16.6092 12.5114H16.3035C16.155 12.5114 16.0327 12.3881 16.0327 12.2384V11.9126C16.0327 11.7629 16.155 11.6396 16.3035 11.6396H16.6092C16.7665 11.6396 16.88 11.7629 16.88 11.9126ZM16.8626 13.7619V17.883C16.8626 18.0327 16.7403 18.156 16.5918 18.156H16.3297C16.1812 18.156 16.0589 18.0327 16.0589 17.883V13.7619C16.0589 13.6122 16.1812 13.4889 16.3297 13.4889H16.5918C16.749 13.4889 16.8626 13.6122 16.8626 13.7619Z" fill="white"/>
</g>
<defs>
<clipPath id="clip0_3806_9246">
<rect width="11.88" height="13.2" fill="white" transform="translate(5 5)"/>
</clipPath>
</defs>
</svg>
