<svg width="78" height="48" viewBox="0 0 78 48" fill="none" xmlns="http://www.w3.org/2000/svg">
<path fill-rule="evenodd" clip-rule="evenodd" d="M54 4C65.046 4 74.0001 12.9541 74.0001 24C74.0001 35.0451 65.046 44.0001 54 44.0001C42.9541 44.0001 34 35.0451 34 24C34 12.9541 42.9541 4 54 4Z" fill="#2775CA"/>
<path fill-rule="evenodd" clip-rule="evenodd" d="M50.2511 37.9055C50.2511 38.3759 49.8827 38.6432 49.4277 38.5012C43.3807 36.5721 38.9963 30.9018 38.9963 24.2114C38.9963 17.5211 43.3807 11.8507 49.4277 9.92158C49.8827 9.78045 50.2511 10.0468 50.2511 10.5173V11.6786C50.2511 11.9918 50.0084 12.3604 49.71 12.4625C44.9257 14.2193 41.4984 18.8155 41.4984 24.2034C41.4984 29.5914 44.9257 34.1884 49.71 35.9444C50.0084 36.0544 50.2511 36.4148 50.2511 36.7291V37.9055Z" fill="white"/>
<path fill-rule="evenodd" clip-rule="evenodd" d="M55.2468 33.5838C55.2468 33.9292 54.9645 34.2115 54.6195 34.2115H53.3723C53.0273 34.2115 52.745 33.9292 52.745 33.5838V31.6076C50.0154 31.2392 48.6825 29.7094 48.3216 27.6312C48.2586 27.2778 48.5409 26.9565 48.9018 26.9565H50.3293C50.6273 26.9565 50.8784 27.1685 50.9411 27.466C51.2079 28.7053 51.9216 29.6544 54.1095 29.6544C55.7252 29.6544 56.8707 28.7524 56.8707 27.404C56.8707 26.0544 56.1959 25.5449 53.8273 25.1524C50.3293 24.6819 48.6745 23.6228 48.6745 20.8778C48.6745 18.7603 50.2748 17.1135 52.7529 16.7603V14.823C52.7529 14.4778 53.0354 14.1953 53.3802 14.1953H54.6275C54.9725 14.1953 55.2548 14.4778 55.2548 14.823V16.8153C57.2704 17.1767 58.5489 18.321 58.9648 20.219C59.0429 20.5803 58.7607 20.9169 58.3923 20.9169H57.0743C56.792 20.9169 56.5568 20.7285 56.4707 20.4542C56.1177 19.2469 55.2548 18.7294 53.7566 18.7294C52.1018 18.7294 51.2468 19.5292 51.2468 20.6506C51.2468 21.8349 51.7334 22.4306 54.2748 22.7999C57.7095 23.2703 59.4825 24.2506 59.4825 27.1767C59.4825 29.396 57.8352 31.1922 55.2548 31.6076V33.5838H55.2468Z" fill="white"/>
<path fill-rule="evenodd" clip-rule="evenodd" d="M58.5727 38.5014C58.1181 38.6434 57.7493 38.3761 57.7493 37.9057V36.7452C57.7493 36.4 57.9611 36.0786 58.2904 35.9605C63.0747 34.2036 66.502 29.6075 66.502 24.2195C66.502 18.8316 63.0747 14.2354 58.2904 12.4786C57.9924 12.3686 57.7493 12.0081 57.7493 11.6938V10.5334C57.7493 10.0629 58.1181 9.7886 58.5727 9.93678C64.6197 11.867 69.0041 17.5372 69.0041 24.2275C68.9966 30.9018 64.6197 36.5643 58.5727 38.5014Z" fill="white"/>
<path d="M24 4C35.0467 4 44 12.9551 44 24C44 35.0467 35.0467 44 24 44C12.9551 44 4 35.0458 4 24C4 12.9551 12.9551 4 24 4Z" fill="#F5AC37"/>
<path d="M24.7363 25.4123H32.336C32.498 25.4123 32.5745 25.4123 32.5862 25.1999C32.6483 24.4268 32.6483 23.6492 32.5862 22.8752C32.5862 22.7249 32.5115 22.6628 32.3486 22.6628H17.224C17.0368 22.6628 16.9864 22.7249 16.9864 22.9004V25.1252C16.9864 25.4123 16.9864 25.4123 17.2861 25.4123H24.7363V25.4123ZM31.7375 20.0626C31.7591 20.0059 31.7591 19.9438 31.7375 19.888C31.6106 19.6117 31.4603 19.348 31.2857 19.1005C31.0229 18.6775 30.7133 18.2878 30.3605 17.9377C30.194 17.7262 30.0014 17.5363 29.7854 17.3752C28.7036 16.4545 27.4175 15.8029 26.0351 15.4753C25.3375 15.3187 24.6247 15.244 23.9101 15.2503H17.1979C17.0107 15.2503 16.9855 15.325 16.9855 15.4879V19.9249C16.9855 20.1121 16.9855 20.1625 17.2231 20.1625H31.6475C31.6475 20.1625 31.7726 20.1373 31.7978 20.0626H31.7366H31.7375ZM31.7375 28.0124C31.5251 27.989 31.3109 27.989 31.0985 28.0124H17.2366C17.0494 28.0124 16.9864 28.0124 16.9864 28.2626V32.6007C16.9864 32.8005 16.9864 32.8509 17.2366 32.8509H23.6365C23.9425 32.8743 24.2485 32.8527 24.5482 32.7888C25.4771 32.7222 26.3906 32.5206 27.2618 32.1884C27.5786 32.0786 27.8846 31.9355 28.1735 31.7636H28.2608C29.7611 30.9833 30.9797 29.7575 31.7483 28.2527C31.7483 28.2527 31.8356 28.0637 31.7375 28.0142V28.0124ZM14.4744 35.1V35.0253V32.1128V31.1255V28.1879C14.4744 28.025 14.4744 28.0007 14.2746 28.0007H11.562C11.4117 28.0007 11.3496 28.0007 11.3496 27.8009V25.4258H14.2494C14.4114 25.4258 14.4744 25.4258 14.4744 25.2134V22.8635C14.4744 22.7132 14.4744 22.6763 14.2746 22.6763H11.562C11.4117 22.6763 11.3496 22.6763 11.3496 22.4764V20.2768C11.3496 20.1391 11.3496 20.1022 11.5494 20.1022H14.2368C14.424 20.1022 14.4744 20.1022 14.4744 19.8646V13.1272C14.4744 12.9274 14.4744 12.877 14.7246 12.877H24.0991C24.7795 12.904 25.4555 12.9787 26.1242 13.102C27.5021 13.3567 28.826 13.849 30.0365 14.5519C30.8393 15.0244 31.5782 15.595 32.2361 16.252C32.7311 16.7659 33.1775 17.3221 33.5735 17.9143C33.9668 18.5146 34.2935 19.1563 34.55 19.8268C34.5815 20.0014 34.7489 20.1193 34.9235 20.0896H37.161C37.4481 20.0896 37.4481 20.0896 37.4607 20.365V22.4152C37.4607 22.6151 37.386 22.6655 37.1853 22.6655H35.46C35.2854 22.6655 35.235 22.6655 35.2476 22.8905C35.316 23.6519 35.316 24.416 35.2476 25.1774C35.2476 25.3898 35.2475 25.415 35.4861 25.415H37.4598C37.5471 25.5275 37.4598 25.64 37.4598 25.7534C37.4724 25.8983 37.4724 26.045 37.4598 26.1899V27.7028C37.4598 27.9152 37.3977 27.9782 37.2096 27.9782H34.847C34.6823 27.9467 34.5221 28.052 34.4843 28.2158C33.9218 29.6783 33.0218 30.9896 31.859 32.0408C31.4342 32.4233 30.9878 32.7834 30.5216 33.1155C30.0212 33.4035 29.5343 33.7032 29.0213 33.9408C28.0772 34.3656 27.0872 34.6788 26.0711 34.8777C25.1062 35.0505 24.1279 35.1288 23.146 35.1153H14.4708V35.1027L14.4744 35.1Z" fill="#FEFEFD"/>
</svg>
