<svg width="78" height="48" viewBox="0 0 78 48" fill="none" xmlns="http://www.w3.org/2000/svg">
<path d="M74 24C74 35.046 65.046 44 54 44C42.9544 44 34 35.046 34 24C34 12.9542 42.9544 4 54 4C65.046 4 74 12.9542 74 24Z" fill="#1BA27A"/>
<path d="M63.3867 14.085H44.4487V18.657H51.6317V25.377H56.2037V18.657H63.3867V14.085Z" fill="white"/>
<path d="M53.9606 26.0928C48.0186 26.0928 43.2012 25.1524 43.2012 23.9922C43.2012 22.8322 48.0184 21.8916 53.9606 21.8916C59.9026 21.8916 64.7198 22.8322 64.7198 23.9922C64.7198 25.1524 59.9026 26.0928 53.9606 26.0928ZM66.0416 24.3424C66.0416 22.8464 60.6328 21.6338 53.9606 21.6338C47.2886 21.6338 41.8794 22.8464 41.8794 24.3424C41.8794 25.6598 46.0736 26.7574 51.6314 27.0006V36.6474H56.203V27.0044C61.8036 26.7688 66.0416 25.6666 66.0416 24.3424Z" fill="white"/>
<path d="M23.9405 4L28.881 9.05952L16.4405 21.5L11.5 16.5595L23.9405 4Z" fill="#F0B90B" stroke="#F0B90B"/>
<path d="M31.4405 11.5L36.381 16.5595L16.4405 36.5L11.5 31.5595L31.4405 11.5Z" fill="#F0B90B" stroke="#F0B90B"/>
<path d="M8.94048 19L13.881 24.0595L8.94048 29L4 24.0595L8.94048 19Z" fill="#F0B90B" stroke="#F0B90B"/>
<path d="M38.9405 19L43.881 24.0595L23.9405 44L19 39.0595L38.9405 19Z" fill="#F0B90B" stroke="#F0B90B"/>
</svg>
