<svg width="78" height="48" viewBox="0 0 78 48" fill="none" xmlns="http://www.w3.org/2000/svg">
<path d="M32 24C32 36.1503 41.8497 46 54 46C66.1503 46 76 36.1503 76 24C76 11.8497 66.1503 2 54 2C41.8497 2 32 11.8497 32 24Z" fill="#09090C"/>
<g clip-path="url(#clip0_3806_5263)">
<path d="M59.6725 36.4C58.5019 36.4 57.5061 35.5723 57.2615 34.4275C57.1392 33.8111 56.9995 33.0714 56.8422 32.2436C56.4229 29.866 55.6542 28.9502 53.9945 28.8798H52.2649V27.1891H54.1518C56.1085 27.1891 57.3489 25.8858 57.3489 23.8957C57.3489 21.6414 56.0211 20.6551 54.0994 20.6551C53.7499 20.6551 51.4613 20.6551 48.8232 20.6551V35.3961C48.8232 35.854 48.4564 36.2063 48.0196 36.2063C47.5654 36.2063 47.2159 35.8364 47.2159 35.3961V20.6551C45.1719 20.6551 43.1104 20.6551 41.7127 20.6551C40.7693 20.6551 40.0181 19.8978 40.0181 18.9468C40.0181 18.9468 43.6519 18.9468 47.2159 18.9468V16.8862C47.1985 13.0821 49.7492 10 52.8764 10H58.1176C58.5718 10 58.9212 10.3698 58.9212 10.8101C58.9212 11.2504 58.5544 11.6203 58.1176 11.6203H52.8764C50.6402 11.6203 48.8058 13.9803 48.8058 16.8862V18.9115C51.3041 18.9115 53.4704 18.9115 53.9596 18.9115C55.8988 18.9115 57.1742 19.3694 58.0652 20.3381C58.764 21.0954 59.1658 22.2754 59.1658 23.6315C59.1658 25.9034 57.9778 27.4356 56.4928 28.052V28.1225C57.576 28.5804 58.2224 29.8308 58.5718 31.6272C58.7989 32.8424 59.0086 33.8639 59.1833 34.6564C59.3755 35.4666 59.5327 36.0478 59.6725 36.4Z" fill="white"/>
<path d="M63.7601 23.8253V24.4769C63.7601 24.7763 63.5155 25.0229 63.2185 25.0229H62.607C62.31 25.0229 62.0654 24.7763 62.0654 24.4769V23.8253C62.0654 23.5259 62.31 23.2793 62.607 23.2793H63.2185C63.533 23.2793 63.7601 23.5259 63.7601 23.8253ZM63.7251 27.5237V35.766C63.7251 36.0654 63.4805 36.312 63.1835 36.312H62.6594C62.3624 36.312 62.1178 36.0654 62.1178 35.766V27.5237C62.1178 27.2243 62.3624 26.9778 62.6594 26.9778H63.1835C63.498 26.9778 63.7251 27.2243 63.7251 27.5237Z" fill="white"/>
</g>
<path d="M24 4C35.0467 4 44 12.9551 44 24C44 35.0467 35.0467 44 24 44C12.9551 44 4 35.0458 4 24C4 12.9551 12.9551 4 24 4Z" fill="#F5AC37"/>
<path d="M24.7363 25.4123H32.336C32.498 25.4123 32.5745 25.4123 32.5862 25.1999C32.6483 24.4268 32.6483 23.6492 32.5862 22.8752C32.5862 22.7249 32.5115 22.6628 32.3486 22.6628H17.224C17.0368 22.6628 16.9864 22.7249 16.9864 22.9004V25.1252C16.9864 25.4123 16.9864 25.4123 17.2861 25.4123H24.7363V25.4123ZM31.7375 20.0626C31.7591 20.0059 31.7591 19.9438 31.7375 19.888C31.6106 19.6117 31.4603 19.348 31.2857 19.1005C31.0229 18.6775 30.7133 18.2878 30.3605 17.9377C30.194 17.7262 30.0014 17.5363 29.7854 17.3752C28.7036 16.4545 27.4175 15.8029 26.0351 15.4753C25.3375 15.3187 24.6247 15.244 23.9101 15.2503H17.1979C17.0107 15.2503 16.9855 15.325 16.9855 15.4879V19.9249C16.9855 20.1121 16.9855 20.1625 17.2231 20.1625H31.6475C31.6475 20.1625 31.7726 20.1373 31.7978 20.0626H31.7366H31.7375ZM31.7375 28.0124C31.5251 27.989 31.3109 27.989 31.0985 28.0124H17.2366C17.0494 28.0124 16.9864 28.0124 16.9864 28.2626V32.6007C16.9864 32.8005 16.9864 32.8509 17.2366 32.8509H23.6365C23.9425 32.8743 24.2485 32.8527 24.5482 32.7888C25.4771 32.7222 26.3906 32.5206 27.2618 32.1884C27.5786 32.0786 27.8846 31.9355 28.1735 31.7636H28.2608C29.7611 30.9833 30.9797 29.7575 31.7483 28.2527C31.7483 28.2527 31.8356 28.0637 31.7375 28.0142V28.0124ZM14.4744 35.1V35.0253V32.1128V31.1255V28.1879C14.4744 28.025 14.4744 28.0007 14.2746 28.0007H11.562C11.4117 28.0007 11.3496 28.0007 11.3496 27.8009V25.4258H14.2494C14.4114 25.4258 14.4744 25.4258 14.4744 25.2134V22.8635C14.4744 22.7132 14.4744 22.6763 14.2746 22.6763H11.562C11.4117 22.6763 11.3496 22.6763 11.3496 22.4764V20.2768C11.3496 20.1391 11.3496 20.1022 11.5494 20.1022H14.2368C14.424 20.1022 14.4744 20.1022 14.4744 19.8646V13.1272C14.4744 12.9274 14.4744 12.877 14.7246 12.877H24.0991C24.7795 12.904 25.4555 12.9787 26.1242 13.102C27.5021 13.3567 28.826 13.849 30.0365 14.5519C30.8393 15.0244 31.5782 15.595 32.2361 16.252C32.7311 16.7659 33.1775 17.3221 33.5735 17.9143C33.9668 18.5146 34.2935 19.1563 34.55 19.8268C34.5815 20.0014 34.7489 20.1193 34.9235 20.0896H37.161C37.4481 20.0896 37.4481 20.0896 37.4607 20.365V22.4152C37.4607 22.6151 37.386 22.6655 37.1853 22.6655H35.46C35.2854 22.6655 35.235 22.6655 35.2476 22.8905C35.316 23.6519 35.316 24.416 35.2476 25.1774C35.2476 25.3898 35.2475 25.415 35.4861 25.415H37.4598C37.5471 25.5275 37.4598 25.64 37.4598 25.7534C37.4724 25.8983 37.4724 26.045 37.4598 26.1899V27.7028C37.4598 27.9152 37.3977 27.9782 37.2096 27.9782H34.847C34.6823 27.9467 34.5221 28.052 34.4843 28.2158C33.9218 29.6783 33.0218 30.9896 31.859 32.0408C31.4342 32.4233 30.9878 32.7834 30.5216 33.1155C30.0212 33.4035 29.5343 33.7032 29.0213 33.9408C28.0772 34.3656 27.0872 34.6788 26.0711 34.8777C25.1062 35.0505 24.1279 35.1288 23.146 35.1153H14.4708V35.1027L14.4744 35.1Z" fill="#FEFEFD"/>
<defs>
<clipPath id="clip0_3806_5263">
<rect width="23.76" height="26.4" fill="white" transform="translate(40 10)"/>
</clipPath>
</defs>
</svg>
