<svg width="18" height="18" viewBox="0 0 18 18" fill="none" xmlns="http://www.w3.org/2000/svg">
<path d="M11.922 3.16924C10.7712 3.29974 9.70871 3.84911 8.93696 4.71264C8.16522 5.57618 7.7382 6.6935 7.7373 7.85164V8.14976C8.24893 7.53331 8.88777 7.03474 9.61005 6.68821C10.3323 6.34167 11.121 6.15537 11.922 6.14206V7.71521C11.922 7.82711 11.9536 7.93674 12.013 8.03157C12.0724 8.1264 12.1573 8.20259 12.258 8.25144C12.3586 8.30028 12.471 8.31981 12.5823 8.30779C12.6936 8.29577 12.7992 8.25268 12.8871 8.18345L16.7821 5.10704C16.8504 5.0533 16.9056 4.98474 16.9436 4.90655C16.9816 4.82836 17.0013 4.74257 17.0013 4.65565C17.0013 4.56872 16.9816 4.48293 16.9436 4.40474C16.9056 4.32655 16.8504 4.258 16.7821 4.20425L12.8871 1.12869C12.7993 1.05916 12.6937 1.0158 12.5824 1.00356C12.4711 0.991332 12.3586 1.01073 12.2579 1.05953C12.1571 1.10834 12.0721 1.18457 12.0127 1.27948C11.9533 1.37438 11.9219 1.48412 11.922 1.59609V3.16924Z" stroke="white" stroke-width="1.5" stroke-linecap="round" stroke-linejoin="round"/>
<path d="M16.1588 9.42049V12.7891C16.1588 13.9059 15.7152 14.9769 14.9255 15.7666C14.1359 16.5563 13.0648 16.9999 11.9481 16.9999H5.21079C4.09402 16.9999 3.02299 16.5563 2.23331 15.7666C1.44364 14.9769 1 13.9059 1 12.7891V6.05185C1 4.93508 1.44364 3.86405 2.23331 3.07438C3.02299 2.2847 4.09402 1.84106 5.21079 1.84106H7.73726" stroke="white" stroke-width="1.5" stroke-linecap="round" stroke-linejoin="round"/>
</svg>
