<svg width="32" height="32" viewBox="0 0 32 32" fill="none" xmlns="http://www.w3.org/2000/svg">
<path d="M26.6068 5.39343C27.9996 6.78631 29.1045 8.43991 29.8584 10.2598C30.6122 12.0797 31.0002 14.0303 31.0002 16.0001C31.0002 17.9699 30.6122 19.9205 29.8584 21.7404C29.1045 23.5603 27.9996 25.2139 26.6068 26.6068C25.2139 27.9996 23.5603 29.1045 21.7404 29.8584C19.9205 30.6122 17.9699 31.0002 16.0001 31.0002C14.0303 31.0002 12.0797 30.6122 10.2598 29.8584C8.43991 29.1045 6.78631 27.9996 5.39343 26.6068C2.58036 23.7937 1 19.9784 1 16.0001C1 12.0218 2.58036 8.20649 5.39343 5.39343C8.20649 2.58036 12.0218 1 16.0001 1C19.9784 1 23.7937 2.58036 26.6068 5.39343" stroke="white" stroke-width="1.5" stroke-linecap="round" stroke-linejoin="round"/>
<path d="M24.845 28.0953C24.205 25.0287 20.5084 22.667 16 22.667C11.4917 22.667 7.79503 25.0287 7.15503 28.0953" stroke="white" stroke-width="1.5" stroke-linecap="round" stroke-linejoin="round"/>
<path d="M19.535 9.13178C20.0206 9.59103 20.4091 10.1429 20.6777 10.7549C20.9462 11.3669 21.0894 12.0265 21.0987 12.6947C21.108 13.363 20.9832 14.0263 20.7318 14.6455C20.4803 15.2647 20.1073 15.8272 19.6347 16.2998C19.1622 16.7724 18.5996 17.1454 17.9804 17.3969C17.3612 17.6483 16.6979 17.7731 16.0297 17.7638C15.3614 17.7545 14.7018 17.6113 14.0898 17.3427C13.4779 17.0742 12.9259 16.6856 12.4667 16.2001C11.5835 15.2523 11.1027 13.9986 11.1255 12.7033C11.1484 11.408 11.6731 10.1721 12.5892 9.25597C13.5053 8.33988 14.7412 7.81514 16.0366 7.79228C17.3319 7.76943 18.5855 8.25025 19.5334 9.13345" stroke="white" stroke-width="1.5" stroke-linecap="round" stroke-linejoin="round"/>
</svg>
