<svg width="39" height="24" viewBox="0 0 39 24" fill="none" xmlns="http://www.w3.org/2000/svg">
<path d="M16 12C16 18.0751 20.9249 23 27 23C33.0751 23 38 18.0751 38 12C38 5.92487 33.0751 1 27 1C20.9249 1 16 5.92487 16 12Z" fill="#09090C"/>
<g clip-path="url(#clip0_3806_5290)">
<path d="M29.8365 18.2C29.2512 18.2 28.7533 17.7861 28.631 17.2137C28.5699 16.9055 28.5 16.5357 28.4214 16.1218C28.2117 14.933 27.8274 14.4751 26.9975 14.4399H26.1327V13.5945H27.0761C28.0545 13.5945 28.6747 12.9429 28.6747 11.9478C28.6747 10.8207 28.0108 10.3276 27.0499 10.3276C26.8752 10.3276 25.7309 10.3276 24.4119 10.3276V17.6981C24.4119 17.927 24.2284 18.1031 24.01 18.1031C23.7829 18.1031 23.6082 17.9182 23.6082 17.6981V10.3276C22.5862 10.3276 21.5554 10.3276 20.8566 10.3276C20.3849 10.3276 20.0093 9.9489 20.0093 9.47338C20.0093 9.47338 21.8262 9.47338 23.6082 9.47338V8.4431C23.5995 6.54103 24.8748 5 26.4385 5H29.059C29.2862 5 29.4609 5.18492 29.4609 5.40507C29.4609 5.62522 29.2774 5.81014 29.059 5.81014H26.4385C25.3203 5.81014 24.4031 6.99013 24.4031 8.4431V9.45577C25.6523 9.45577 26.7355 9.45577 26.98 9.45577C27.9497 9.45577 28.5873 9.68472 29.0328 10.169C29.3822 10.5477 29.5832 11.1377 29.5832 11.8157C29.5832 12.9517 28.9892 13.7178 28.2467 14.026V14.0612C28.7882 14.2902 29.1115 14.9154 29.2862 15.8136C29.3997 16.4212 29.5045 16.932 29.5919 17.3282C29.688 17.7333 29.7666 18.0239 29.8365 18.2Z" fill="white"/>
<path d="M31.88 11.9126V12.2384C31.88 12.3881 31.7577 12.5114 31.6092 12.5114H31.3035C31.155 12.5114 31.0327 12.3881 31.0327 12.2384V11.9126C31.0327 11.7629 31.155 11.6396 31.3035 11.6396H31.6092C31.7665 11.6396 31.88 11.7629 31.88 11.9126ZM31.8626 13.7619V17.883C31.8626 18.0327 31.7403 18.156 31.5918 18.156H31.3297C31.1812 18.156 31.0589 18.0327 31.0589 17.883V13.7619C31.0589 13.6122 31.1812 13.4889 31.3297 13.4889H31.5918C31.749 13.4889 31.8626 13.6122 31.8626 13.7619Z" fill="white"/>
</g>
<path d="M12 2C17.5234 2 22 6.47754 22 12C22 17.5234 17.5234 22 12 22C6.47754 22 2 17.5229 2 12C2 6.47754 6.47754 2 12 2Z" fill="#F5AC37"/>
<path d="M12.3682 12.7061H16.168C16.249 12.7061 16.2873 12.7061 16.2931 12.5999C16.3242 12.2134 16.3242 11.8246 16.2931 11.4376C16.2931 11.3624 16.2558 11.3314 16.1743 11.3314H8.61198C8.51838 11.3314 8.49318 11.3624 8.49318 11.4502V12.5626C8.49318 12.7061 8.49318 12.7061 8.64303 12.7061H12.3682ZM15.8688 10.0313C15.8796 10.003 15.8796 9.97191 15.8688 9.94401C15.8053 9.80586 15.7302 9.67401 15.6429 9.55026C15.5115 9.33876 15.3567 9.1439 15.1803 8.96885C15.097 8.8631 15.0007 8.76815 14.8927 8.6876C14.3518 8.22724 13.7087 7.90144 13.0175 7.73764C12.6688 7.65934 12.3124 7.62199 11.9551 7.62514H8.59893C8.50533 7.62514 8.49273 7.66249 8.49273 7.74394V9.96246C8.49273 10.0561 8.49273 10.0813 8.61153 10.0813H15.8238C15.8238 10.0813 15.8863 10.0687 15.8989 10.0313H15.8683H15.8688ZM15.8688 14.0062C15.7626 13.9945 15.6555 13.9945 15.5493 14.0062H8.61828C8.52468 14.0062 8.49318 14.0062 8.49318 14.1313V16.3003C8.49318 16.4002 8.49318 16.4254 8.61828 16.4254H11.8183C11.9713 16.4371 12.1243 16.4263 12.2741 16.3944C12.7385 16.3611 13.1953 16.2603 13.6309 16.0942C13.7893 16.0393 13.9423 15.9678 14.0867 15.8818H14.1304C14.8805 15.4917 15.4899 14.8788 15.8742 14.1264C15.8742 14.1264 15.9178 14.0319 15.8688 14.0071V14.0062ZM7.23722 17.55V17.5126V16.0564V15.5628V14.094C7.23722 14.0125 7.23722 14.0004 7.13732 14.0004H5.78101C5.70586 14.0004 5.6748 14.0004 5.6748 13.9005V12.7129H7.12472C7.20572 12.7129 7.23722 12.7129 7.23722 12.6067V11.4317C7.23722 11.3566 7.23722 11.3381 7.13732 11.3381H5.78101C5.70586 11.3381 5.6748 11.3381 5.6748 11.2382V10.1384C5.6748 10.0696 5.6748 10.0511 5.77471 10.0511H7.11842C7.21202 10.0511 7.23722 10.0511 7.23722 9.93231V6.56358C7.23722 6.46368 7.23722 6.43848 7.36232 6.43848H12.0496C12.3898 6.45198 12.7277 6.48933 13.0621 6.55098C13.751 6.67833 14.413 6.92448 15.0182 7.27593C15.4197 7.51219 15.7891 7.79749 16.1181 8.12599C16.3656 8.38295 16.5888 8.66105 16.7868 8.95715C16.9834 9.25731 17.1468 9.57816 17.275 9.91341C17.2908 10.0007 17.3745 10.0597 17.4618 10.0448H18.5805C18.724 10.0448 18.724 10.0448 18.7303 10.1825V11.2076C18.7303 11.3075 18.693 11.3327 18.5926 11.3327H17.73C17.6427 11.3327 17.6175 11.3327 17.6238 11.4452C17.658 11.8259 17.658 12.208 17.6238 12.5887C17.6238 12.6949 17.6238 12.7075 17.743 12.7075H18.7299C18.7735 12.7637 18.7299 12.82 18.7299 12.8767C18.7362 12.9491 18.7362 13.0225 18.7299 13.0949V13.8514C18.7299 13.9576 18.6988 13.9891 18.6048 13.9891H17.4235C17.3412 13.9734 17.2611 14.026 17.2422 14.1079C16.9609 14.8392 16.5109 15.4948 15.9295 16.0204C15.7171 16.2117 15.4939 16.3917 15.2608 16.5577C15.0106 16.7017 14.7671 16.8516 14.5106 16.9704C14.0386 17.1828 13.5436 17.3394 13.0355 17.4388C12.5531 17.5252 12.064 17.5644 11.573 17.5576H7.23542V17.5513L7.23722 17.55Z" fill="#FEFEFD"/>
<defs>
<clipPath id="clip0_3806_5290">
<rect width="11.88" height="13.2" fill="white" transform="translate(20 5)"/>
</clipPath>
</defs>
</svg>
