<svg width="78" height="48" viewBox="0 0 78 48" fill="none" xmlns="http://www.w3.org/2000/svg">
<path d="M53.9405 4L58.881 9.05952L46.4405 21.5L41.5 16.5595L53.9405 4Z" fill="#F0B90B" stroke="#F0B90B"/>
<path d="M61.4405 11.5L66.381 16.5595L46.4405 36.5L41.5 31.5595L61.4405 11.5Z" fill="#F0B90B" stroke="#F0B90B"/>
<path d="M38.9405 19L43.881 24.0595L38.9405 29L34 24.0595L38.9405 19Z" fill="#F0B90B" stroke="#F0B90B"/>
<path d="M68.9405 19L73.881 24.0595L53.9405 44L49 39.0595L68.9405 19Z" fill="#F0B90B" stroke="#F0B90B"/>
<path fill-rule="evenodd" clip-rule="evenodd" d="M24 4C35.046 4 44.0001 12.9541 44.0001 24C44.0001 35.0451 35.046 44.0001 24 44.0001C12.9541 44.0001 4 35.0451 4 24C4 12.9541 12.9541 4 24 4Z" fill="#2775CA"/>
<path fill-rule="evenodd" clip-rule="evenodd" d="M20.2509 37.9055C20.2509 38.3759 19.8825 38.6432 19.4275 38.5012C13.3804 36.5721 8.99609 30.9018 8.99609 24.2114C8.99609 17.5211 13.3804 11.8507 19.4275 9.92158C19.8825 9.78045 20.2509 10.0468 20.2509 10.5173V11.6786C20.2509 11.9918 20.0082 12.3604 19.7097 12.4625C14.9254 14.2193 11.4981 18.8155 11.4981 24.2034C11.4981 29.5914 14.9254 34.1884 19.7097 35.9443C20.0082 36.0543 20.2509 36.4148 20.2509 36.7291V37.9055Z" fill="white"/>
<path fill-rule="evenodd" clip-rule="evenodd" d="M25.2466 33.5838C25.2466 33.9292 24.9643 34.2115 24.6193 34.2115H23.372C23.027 34.2115 22.7447 33.9292 22.7447 33.5838V31.6076C20.0152 31.2392 18.6822 29.7094 18.3213 27.6312C18.2584 27.2778 18.5406 26.9565 18.9016 26.9565H20.3291C20.627 26.9565 20.8781 27.1685 20.9409 27.466C21.2077 28.7053 21.9213 29.6544 24.1093 29.6544C25.725 29.6544 26.8704 28.7524 26.8704 27.404C26.8704 26.0544 26.1957 25.5449 23.827 25.1524C20.3291 24.6819 18.6743 23.6228 18.6743 20.8778C18.6743 18.7603 20.2745 17.1135 22.7527 16.7603V14.823C22.7527 14.4778 23.0352 14.1953 23.38 14.1953H24.6272C24.9722 14.1953 25.2545 14.4778 25.2545 14.823V16.8153C27.2702 17.1767 28.5486 18.321 28.9645 20.219C29.0427 20.5803 28.7604 20.9169 28.392 20.9169H27.0741C26.7918 20.9169 26.5566 20.7285 26.4704 20.4542C26.1175 19.2469 25.2545 18.7294 23.7563 18.7294C22.1016 18.7294 21.2466 19.5292 21.2466 20.6506C21.2466 21.8349 21.7331 22.4306 24.2745 22.7999C27.7093 23.2703 29.4823 24.2506 29.4823 27.1767C29.4823 29.396 27.835 31.1922 25.2545 31.6076V33.5838H25.2466Z" fill="white"/>
<path fill-rule="evenodd" clip-rule="evenodd" d="M28.5729 38.5014C28.1184 38.6434 27.7495 38.3761 27.7495 37.9057V36.7452C27.7495 36.4 27.9613 36.0786 28.2906 35.9605C33.075 34.2036 36.5023 29.6075 36.5023 24.2195C36.5023 18.8316 33.075 14.2354 28.2906 12.4786C27.9927 12.3686 27.7495 12.0081 27.7495 11.6938V10.5334C27.7495 10.0629 28.1184 9.7886 28.5729 9.93678C34.62 11.867 39.0043 17.5372 39.0043 24.2275C38.9968 30.9018 34.62 36.5643 28.5729 38.5014Z" fill="white"/>
</svg>
