<svg width="78" height="48" viewBox="0 0 78 48" fill="none" xmlns="http://www.w3.org/2000/svg">
<path d="M53.9405 4L58.881 9.05952L46.4405 21.5L41.5 16.5595L53.9405 4Z" fill="#F0B90B" stroke="#F0B90B"/>
<path d="M61.4405 11.5L66.381 16.5595L46.4405 36.5L41.5 31.5595L61.4405 11.5Z" fill="#F0B90B" stroke="#F0B90B"/>
<path d="M38.9405 19L43.881 24.0595L38.9405 29L34 24.0595L38.9405 19Z" fill="#F0B90B" stroke="#F0B90B"/>
<path d="M68.9405 19L73.881 24.0595L53.9405 44L49 39.0595L68.9405 19Z" fill="#F0B90B" stroke="#F0B90B"/>
<path fill-rule="evenodd" clip-rule="evenodd" d="M24 4C35.046 4 44.0001 12.9541 44.0001 24C44.0001 35.0451 35.046 44.0001 24 44.0001C12.9541 44.0001 4 35.0451 4 24C4 12.9541 12.9541 4 24 4Z" fill="#2775CA"/>
<path fill-rule="evenodd" clip-rule="evenodd" d="M20.2511 37.9055C20.2511 38.3759 19.8827 38.6432 19.4277 38.5012C13.3807 36.5721 8.99634 30.9018 8.99634 24.2114C8.99634 17.5211 13.3807 11.8507 19.4277 9.92158C19.8827 9.78045 20.2511 10.0468 20.2511 10.5173V11.6786C20.2511 11.9918 20.0084 12.3604 19.71 12.4625C14.9257 14.2193 11.4984 18.8155 11.4984 24.2034C11.4984 29.5914 14.9257 34.1884 19.71 35.9443C20.0084 36.0543 20.2511 36.4148 20.2511 36.7291V37.9055Z" fill="white"/>
<path fill-rule="evenodd" clip-rule="evenodd" d="M25.2468 33.5838C25.2468 33.9292 24.9645 34.2115 24.6195 34.2115H23.3723C23.0273 34.2115 22.745 33.9292 22.745 33.5838V31.6076C20.0154 31.2392 18.6825 29.7094 18.3216 27.6312C18.2586 27.2778 18.5409 26.9565 18.9018 26.9565H20.3293C20.6273 26.9565 20.8784 27.1685 20.9411 27.466C21.2079 28.7053 21.9216 29.6544 24.1095 29.6544C25.7252 29.6544 26.8707 28.7524 26.8707 27.404C26.8707 26.0544 26.1959 25.5449 23.8273 25.1524C20.3293 24.6819 18.6745 23.6228 18.6745 20.8778C18.6745 18.7603 20.2748 17.1135 22.7529 16.7603V14.823C22.7529 14.4778 23.0354 14.1953 23.3802 14.1953H24.6275C24.9725 14.1953 25.2548 14.4778 25.2548 14.823V16.8153C27.2704 17.1767 28.5489 18.321 28.9648 20.219C29.0429 20.5803 28.7607 20.9169 28.3923 20.9169H27.0743C26.792 20.9169 26.5568 20.7285 26.4707 20.4542C26.1177 19.2469 25.2548 18.7294 23.7566 18.7294C22.1018 18.7294 21.2468 19.5292 21.2468 20.6506C21.2468 21.8349 21.7334 22.4306 24.2748 22.7999C27.7095 23.2703 29.4825 24.2506 29.4825 27.1767C29.4825 29.396 27.8352 31.1922 25.2548 31.6076V33.5838H25.2468Z" fill="white"/>
<path fill-rule="evenodd" clip-rule="evenodd" d="M28.5729 38.5014C28.1184 38.6434 27.7495 38.3761 27.7495 37.9057V36.7452C27.7495 36.4 27.9613 36.0786 28.2906 35.9605C33.075 34.2036 36.5023 29.6075 36.5023 24.2195C36.5023 18.8316 33.075 14.2354 28.2906 12.4786C27.9927 12.3686 27.7495 12.0081 27.7495 11.6938V10.5334C27.7495 10.0629 28.1184 9.7886 28.5729 9.93678C34.62 11.867 39.0043 17.5372 39.0043 24.2275C38.9968 30.9018 34.62 36.5643 28.5729 38.5014Z" fill="white"/>
</svg>
