<svg width="78" height="48" viewBox="0 0 78 48" fill="none" xmlns="http://www.w3.org/2000/svg">
<path fill-rule="evenodd" clip-rule="evenodd" d="M54 4C65.046 4 74.0001 12.9541 74.0001 24C74.0001 35.0451 65.046 44.0001 54 44.0001C42.9541 44.0001 34 35.0451 34 24C34 12.9541 42.9541 4 54 4Z" fill="#2775CA"/>
<path fill-rule="evenodd" clip-rule="evenodd" d="M50.2509 37.9055C50.2509 38.3759 49.8825 38.6432 49.4275 38.5012C43.3804 36.5721 38.9961 30.9018 38.9961 24.2114C38.9961 17.5211 43.3804 11.8507 49.4275 9.92158C49.8825 9.78045 50.2509 10.0468 50.2509 10.5173V11.6786C50.2509 11.9918 50.0082 12.3604 49.7097 12.4625C44.9254 14.2193 41.4981 18.8155 41.4981 24.2034C41.4981 29.5914 44.9254 34.1884 49.7097 35.9443C50.0082 36.0543 50.2509 36.4148 50.2509 36.7291V37.9055Z" fill="white"/>
<path fill-rule="evenodd" clip-rule="evenodd" d="M55.2466 33.5838C55.2466 33.9292 54.9643 34.2115 54.6193 34.2115H53.372C53.027 34.2115 52.7447 33.9292 52.7447 33.5838V31.6076C50.0152 31.2392 48.6822 29.7094 48.3213 27.6312C48.2584 27.2778 48.5406 26.9565 48.9016 26.9565H50.3291C50.627 26.9565 50.8781 27.1685 50.9409 27.466C51.2077 28.7053 51.9213 29.6544 54.1093 29.6544C55.725 29.6544 56.8704 28.7524 56.8704 27.404C56.8704 26.0544 56.1957 25.5449 53.827 25.1524C50.3291 24.6819 48.6743 23.6228 48.6743 20.8778C48.6743 18.7603 50.2745 17.1135 52.7527 16.7603V14.823C52.7527 14.4778 53.0352 14.1953 53.38 14.1953H54.6272C54.9722 14.1953 55.2545 14.4778 55.2545 14.823V16.8153C57.2702 17.1767 58.5486 18.321 58.9645 20.219C59.0427 20.5803 58.7604 20.9169 58.392 20.9169H57.0741C56.7918 20.9169 56.5566 20.7285 56.4704 20.4542C56.1175 19.2469 55.2545 18.7294 53.7563 18.7294C52.1016 18.7294 51.2466 19.5292 51.2466 20.6506C51.2466 21.8349 51.7331 22.4306 54.2745 22.7999C57.7093 23.2703 59.4823 24.2506 59.4823 27.1767C59.4823 29.396 57.835 31.1922 55.2545 31.6076V33.5838H55.2466Z" fill="white"/>
<path fill-rule="evenodd" clip-rule="evenodd" d="M58.5734 38.5014C58.1189 38.6434 57.75 38.3761 57.75 37.9057V36.7452C57.75 36.4 57.9618 36.0786 58.2911 35.9605C63.0755 34.2036 66.5027 29.6075 66.5027 24.2195C66.5027 18.8316 63.0755 14.2354 58.2911 12.4786C57.9932 12.3686 57.75 12.0081 57.75 11.6938V10.5334C57.75 10.0629 58.1189 9.7886 58.5734 9.93678C64.6205 11.867 69.0048 17.5372 69.0048 24.2275C68.9973 30.9018 64.6205 36.5643 58.5734 38.5014Z" fill="white"/>
<path d="M24.2879 4.05964V4.07952C24.3078 4.17893 24.3078 4.29821 24.3078 4.4175V18.7515C24.2879 18.831 24.2282 18.8509 24.1686 18.8907C23.7511 19.0895 23.3535 19.2684 22.936 19.4473C22.3595 19.7058 21.763 19.9841 21.1865 20.2425L19.099 21.1968C18.5225 21.4553 17.9459 21.7137 17.3893 21.9722C16.7133 22.2903 16.0175 22.5885 15.3416 22.9066C14.765 23.165 14.1885 23.4433 13.5921 23.7018C13.1149 23.9205 12.6378 24.1193 12.1805 24.338C12.1408 24.3579 12.101 24.3777 12.0612 24.3777C12.0414 24.3777 12.0414 24.3777 12.0215 24.3579L12.5583 23.4632C13.5921 21.7535 14.606 20.0636 15.6398 18.3539C16.7332 16.5249 17.8465 14.6958 18.94 12.8668C19.9539 11.1769 20.9877 9.48708 22.0016 7.79722C22.7372 6.56461 23.4927 5.33201 24.2282 4.0994C24.2481 4.05964 24.268 4.03976 24.268 4H24.2879C24.268 4.01988 24.2879 4.03976 24.2879 4.05964Z" fill="#8A92B2"/>
<path d="M36.4926 24.358L36.5125 24.3778L33.59 26.1075L24.4051 31.5349C24.3654 31.5548 24.3256 31.5747 24.3057 31.5945C24.2461 31.5945 24.2461 31.5349 24.2461 31.515V31.3361V19.0498C24.2461 18.9902 24.2461 18.9106 24.266 18.851C24.2859 18.7715 24.3455 18.7914 24.4051 18.8112C24.6636 18.9305 24.9419 19.0498 25.2004 19.1691C25.9757 19.5269 26.7511 19.8848 27.5264 20.2228C28.2024 20.521 28.8584 20.8391 29.5344 21.1373C30.2103 21.4355 30.8863 21.7536 31.5622 22.0518C32.1387 22.3102 32.7352 22.5886 33.3117 22.847C33.8882 23.1055 34.4847 23.3838 35.0612 23.6423C35.5185 23.8411 35.9757 24.0597 36.433 24.2586C36.433 24.3182 36.4529 24.3381 36.4926 24.358Z" fill="#454A75"/>
<path d="M24.2859 43.9405C24.2859 43.9604 24.2661 43.9802 24.2661 44.0001H24.2462C24.2462 43.9604 24.2064 43.9405 24.1865 43.9007C22.9539 42.1711 21.7213 40.4216 20.4887 38.692C19.2362 36.9226 17.9639 35.1333 16.7114 33.3639C15.4987 31.6542 14.2661 29.9246 13.0533 28.2148C12.7352 27.7576 12.4171 27.3202 12.0991 26.8629C12.0792 26.8232 12.0593 26.8033 12.0195 26.7437C12.0792 26.7437 12.1189 26.7834 12.1388 26.8033C13.8684 27.8172 15.5782 28.8311 17.3078 29.845C19.2959 31.018 21.2641 32.191 23.2521 33.3639L24.2661 33.9604C24.3058 34.0001 24.3058 34.0399 24.3058 34.0796V43.6621C24.3058 43.7615 24.3058 43.8609 24.2859 43.9405Z" fill="#8A92B2"/>
<path d="M12 24.3974V24.3775C12.6362 24.0992 13.2525 23.801 13.8887 23.5226C14.7038 23.1449 15.5189 22.787 16.334 22.4093C16.9503 22.131 17.5865 21.8328 18.2028 21.5544C19.1173 21.1369 20.0119 20.7393 20.9264 20.3218C21.5427 20.0435 22.159 19.7652 22.7952 19.467C23.2326 19.2682 23.6899 19.0693 24.1272 18.8705C24.167 18.8507 24.2266 18.8308 24.2465 18.791C24.2664 18.791 24.2664 18.8109 24.2465 18.8308V31.455C24.2465 31.5147 24.2266 31.5743 24.2664 31.6141C24.2266 31.6737 24.1869 31.6141 24.167 31.5942C23.9881 31.4948 23.8091 31.3954 23.6302 31.2761C19.7932 29.0097 15.9364 26.7234 12.0994 24.457C12.0795 24.4371 12.0398 24.4173 12 24.3974Z" fill="#62688F"/>
<path d="M36.4525 26.7437H36.4724C36.4724 26.7834 36.4326 26.8232 36.4127 26.8629C32.7547 32.012 29.0966 37.181 25.4386 42.3301C25.0609 42.8669 24.6632 43.4037 24.2855 43.9405C24.2656 43.9206 24.2656 43.9007 24.2656 43.8808V43.7615V34.1194V33.9405C25.1006 33.4435 25.9157 32.9663 26.7507 32.4693C29.9714 30.5607 33.1921 28.6721 36.3929 26.7635C36.4127 26.7834 36.4326 26.7635 36.4525 26.7437Z" fill="#62688F"/>
<path d="M24.2663 18.8311V18.7913V18.672V4.23864C24.2663 4.17899 24.2464 4.13923 24.2862 4.07959C28.322 10.7794 32.3578 17.4593 36.3737 24.1591C36.4134 24.2188 36.4731 24.2983 36.493 24.3778C36.2146 24.2784 35.9562 24.1392 35.6977 24.0199C35.3796 23.8808 35.0417 23.7217 34.7236 23.5826C34.5248 23.4832 34.3061 23.4036 34.1073 23.3042C33.7693 23.1452 33.4313 23.006 33.0934 22.847C32.8946 22.7675 32.6957 22.6681 32.4969 22.5687L31.1848 21.9722C30.9661 21.8728 30.7474 21.7734 30.5089 21.674L29.5546 21.2565C29.3558 21.177 29.157 21.0776 28.9582 20.9782L27.646 20.3818C27.4274 20.2824 27.2087 20.183 26.9701 20.0836L26.0158 19.6661C25.7971 19.5667 25.5983 19.4673 25.3796 19.3679C25.0019 19.1889 24.6242 19.01 24.2266 18.851C24.2862 18.8311 24.2663 18.8311 24.2663 18.8311Z" fill="#62688F"/>
</svg>
