<svg width="39" height="24" viewBox="0 0 39 24" fill="none" xmlns="http://www.w3.org/2000/svg">
<path d="M21.7619 13.3706L22.291 9.3951L17.7015 6.20906L21.8949 7.62948L22.8852 6.11003L26.5014 3.86621L34.4721 8.25764L34.8852 14.958L31.3342 19.8926L28.5273 20.3227L29.9788 17.6658V15.1079L28.9234 13.1103L27.851 12.4001L26.2014 14.1006V15.9002L24.914 17.1056L23.2785 17.3036L22.5542 17.7139L21.3658 17.3348L20.8706 15.5522L21.7619 14.2987V13.3706Z" fill="white"/>
<path d="M29.0901 6.17491C28.2158 5.99382 27.2594 6.04192 27.2594 6.04192C27.2594 6.04192 26.9454 7.49347 24.9987 7.87545C25.0128 7.87545 27.5707 8.74977 29.0901 6.17491Z" fill="#94A6C3"/>
<path d="M29.8825 19.3463C30.9379 18.52 31.7301 17.3826 32.0951 16.0951C32.1121 16.047 32.2592 15.9622 32.3583 15.8971C32.5224 15.798 32.6893 15.716 32.7205 15.583C32.7855 15.2038 32.8195 14.8077 32.8195 14.4116C32.8195 14.2644 32.6695 14.1145 32.5224 13.9673C32.4064 13.8683 32.2904 13.7523 32.2904 13.6702C32.1263 12.1678 31.433 10.7643 30.3267 9.74287L30.2107 9.85888C31.2831 10.8662 31.9763 12.2357 32.1263 13.6872C32.1432 13.8202 32.2734 13.9504 32.4064 14.0834C32.5224 14.1824 32.6554 14.3323 32.6554 14.3974C32.6554 14.7766 32.6214 15.1557 32.5563 15.5349C32.5394 15.6 32.3922 15.6679 32.2762 15.733C32.1121 15.815 31.9621 15.8971 31.931 16.0301C31.5349 17.4335 30.6266 18.6559 29.4212 19.4481C29.6363 18.9869 30.3125 17.4844 30.6747 16.7233L30.6096 14.2814L28.513 12.2527L27.3246 12.4168L26.0202 14.5304C26.0202 14.5304 26.6313 15.3057 25.7712 16.214C24.9308 17.1053 24.2687 17.3033 24.2687 17.3033L23.6575 16.9723C23.8386 16.7403 24.2036 16.3951 24.4837 16.163C24.9619 15.7669 25.4401 15.733 25.4401 15.3057C25.4599 14.4116 24.5007 14.6577 24.5007 14.6577L24.1527 14.9888L24.0056 16.2111L23.2812 17.1194L23.1991 17.1024L22.0107 16.8393C22.0107 16.8393 22.7379 16.4601 22.8539 16.0301C22.9699 15.617 22.6219 14.2475 22.6049 14.1654C22.6219 14.1824 22.953 14.4625 23.1001 14.9237C23.3633 14.1965 23.7113 13.5033 23.8103 13.4382C23.9093 13.3731 25.2449 12.6629 25.2449 12.6629L24.8006 13.8344L25.1317 13.6533L25.924 11.7066C25.924 11.7066 26.6992 11.3274 27.2765 11.3274C28.3149 11.3104 29.8513 10.04 29.1581 7.76221C29.3562 7.84426 32.7884 9.56178 33.3826 12.9289C33.8268 15.5179 32.3583 17.9428 29.8825 19.3463Z" fill="#94A6C3"/>
<path d="M25.9552 6.537C26.3343 6.08994 26.1872 5.43066 26.1872 5.43066L25.0808 7.06612C25.0639 7.06612 25.4741 7.08309 25.9552 6.537Z" fill="#1B314F"/>
<path d="M22.2399 15.4669L22.3729 14.8076C22.3729 14.8076 21.8268 15.764 21.7787 15.897C21.7278 16.047 21.8127 16.3101 22.0249 16.2932C22.2399 16.2762 22.5031 15.9621 22.5031 15.7329C22.5031 15.4358 22.2399 15.4669 22.2399 15.4669Z" fill="#1B314F"/>
<path d="M32.0444 4.96963C32.0444 4.96963 32.8706 5.00359 33.728 5.10262C31.7954 3.58317 29.9647 3.13893 28.4792 3.13893C26.4335 3.13893 25.047 3.98213 24.9621 4.03023L25.6072 3.00595C25.6072 3.00595 23.0324 2.75695 22.1241 5.48178C21.8921 4.90455 21.6799 4.06136 21.6799 4.06136C21.6799 4.06136 20.3415 5.23561 20.9697 7.18232C19.4332 6.62207 17.2403 5.84396 17.1555 5.82981C17.0395 5.81283 17.0055 5.86376 17.0055 5.86376C17.0055 5.86376 16.9715 5.91186 17.0706 5.99675C17.2545 6.14106 20.7207 8.70177 21.4818 9.19694C21.3177 9.79114 21.3177 10.0713 21.4818 10.3514C21.7138 10.7305 21.728 10.9286 21.6968 11.2087C21.6629 11.4889 21.3658 13.9166 21.3007 14.2137C21.2356 14.5108 20.5424 15.5662 20.5735 15.8803C20.6075 16.1943 21.0347 17.5299 21.4167 17.6798C21.6968 17.7789 22.3901 17.9939 22.8513 17.9939C23.0154 17.9939 23.1654 17.96 23.2304 17.8949C23.5106 17.6487 23.5926 17.5978 23.7907 17.5978C23.8077 17.5978 23.8246 17.5978 23.8388 17.5978C23.9208 17.5978 24.0199 17.6148 24.1359 17.6148C24.399 17.6148 24.7471 17.5638 24.9932 17.3346C25.3554 16.9725 25.9836 16.4773 26.1816 16.2453C26.4306 15.9312 26.5608 15.5039 26.4957 15.0739C26.4448 14.6777 26.6598 14.3297 26.9088 13.9845C27.2229 13.5714 27.8001 12.83 27.8001 12.83C28.9404 13.6846 29.6506 14.989 29.6506 16.4405C29.6506 19.0154 27.4068 21.0951 24.6339 21.0951C24.2038 21.0951 23.7935 21.047 23.3804 20.9479C24.6509 21.3922 25.7233 21.5421 26.6004 21.5421C28.4651 21.5421 29.4554 20.8659 29.4554 20.8659C29.4554 20.8659 29.1102 21.313 28.5471 21.8223C28.5641 21.8223 28.5641 21.8223 28.5641 21.8223C31.6511 21.3922 33.1536 18.8513 33.1536 18.8513C33.1536 18.8513 33.0376 19.6775 32.8904 20.2377C36.9961 17.1507 36.3028 13.2884 36.2859 13.1583C36.3198 13.2064 36.7329 13.7015 36.9451 13.9675C37.6072 7.16534 32.0444 4.96963 32.0444 4.96963ZM25.7233 15.8322C25.6582 15.9142 25.3781 16.1632 25.18 16.3443C24.9819 16.5254 24.7669 16.7065 24.6028 16.8734C24.5377 16.9385 24.4047 16.9725 24.2066 16.9725C24.1416 16.9725 24.0736 16.9725 24.0255 16.9725C23.9916 16.9725 23.9605 16.9725 23.9265 16.9725C23.8926 16.9725 23.8756 16.9725 23.8614 16.9725C23.8105 16.9725 23.7624 16.9725 23.7115 16.9725C23.9605 16.6414 24.6848 15.8831 24.9338 15.719C25.2309 15.5209 25.3809 15.3229 25.197 14.9777C25.0159 14.6296 24.5377 14.7145 24.5377 14.7145C24.5377 14.7145 24.8178 14.5985 25.0668 14.5985C24.7527 14.5164 24.3566 14.5985 24.1755 14.7796C23.9774 14.9607 24.0114 15.6058 23.9293 16.0161C23.8473 16.4462 23.5672 16.6612 23.1371 17.0574C22.905 17.2724 22.7409 17.3375 22.6079 17.3375C22.3278 17.2894 21.9968 17.2045 21.7648 17.1224C21.6006 16.9074 21.3516 16.1972 21.2866 15.9001C21.3347 15.736 21.5327 15.3879 21.6318 15.1899C21.8298 14.8107 21.9458 14.5957 21.9798 14.3976C22.0449 14.1175 22.2599 12.383 22.342 11.6586C22.557 11.9387 22.8541 12.4028 22.7862 12.6999C23.2644 12.0236 22.9192 11.3615 22.7523 11.0984C22.6051 10.8352 22.4071 10.3061 22.5712 9.74587C22.7353 9.18562 23.3295 7.63221 23.3295 7.63221C23.3295 7.63221 23.5275 7.98025 23.8077 7.91234C24.0878 7.84726 26.3486 4.44617 26.3486 4.44617C26.3486 4.44617 26.9598 5.78171 26.3146 6.75789C25.6553 7.73125 25.0102 7.91234 25.0102 7.91234C25.0102 7.91234 25.9185 8.07645 26.7589 7.46527C27.1041 8.27452 27.4351 9.11488 27.4521 9.23089C27.4012 9.3469 26.7419 10.9314 26.6768 11.0305C26.6428 11.0644 26.4137 11.1295 26.2467 11.1635C25.9666 11.2455 25.8025 11.2964 25.7346 11.3445C25.6186 11.4436 25.0894 12.8951 24.8433 13.6053C24.5462 13.6874 24.2491 13.8543 24.034 14.1826C24.15 14.1005 24.5122 14.0496 24.7782 14.0184C25.0102 14.0015 25.7176 14.3806 25.9015 15.0908C25.9015 15.1078 25.9015 15.1078 25.9015 15.1248C25.9383 15.3851 25.8562 15.6341 25.7233 15.8322ZM24.1727 16.0302C24.3226 15.8152 24.3057 15.453 24.3226 15.337C24.3396 15.221 24.3707 15.0059 24.5037 14.9748C24.6367 14.9409 24.9508 14.9918 24.9508 15.221C24.9508 15.436 24.7188 15.4841 24.5547 15.6341C24.4358 15.7473 24.2038 15.9963 24.1727 16.0302ZM30.757 12.8753C30.9211 12.035 30.9381 11.3078 30.89 10.7136C31.5323 11.5709 31.9284 12.6122 32.0444 13.6846C32.0614 13.8175 32.1915 13.9477 32.3245 14.0807C32.4405 14.1797 32.5735 14.3127 32.5735 14.3948C32.5735 14.7739 32.5396 15.1531 32.4745 15.5351C32.4575 15.5832 32.3104 15.6681 32.1944 15.7331C32.0303 15.8152 31.8803 15.8972 31.8492 16.0302C31.487 17.3007 30.7089 18.424 29.6704 19.2163C31.204 17.6148 31.9454 14.972 30.757 12.8753ZM29.7185 19.3634C30.7909 18.5372 31.6171 17.3827 31.9793 16.0783C31.9963 16.0302 32.1434 15.9454 32.2425 15.8803C32.4066 15.7982 32.5735 15.6992 32.6047 15.5662C32.6697 15.187 32.7037 14.7909 32.7037 14.3948C32.7037 14.2476 32.5537 14.0977 32.4066 13.9505C32.3245 13.8515 32.1915 13.7355 32.1915 13.6534C32.0586 12.4481 31.5804 11.3106 30.839 10.3684C30.508 8.3877 29.1894 7.77652 29.1555 7.75954C29.1894 7.81047 30.0468 9.04698 29.4526 10.4985C28.8414 11.967 27.2738 11.7379 27.1408 11.752C27.0079 11.752 26.4985 12.4113 25.8534 13.6336C25.7714 13.5997 25.4233 13.5176 25.0272 13.5855C25.3243 12.7593 25.7714 11.5879 25.8534 11.4889C25.8874 11.4549 26.1335 11.3898 26.3005 11.3417C26.6146 11.2597 26.7617 11.2087 26.8126 11.1437C26.8466 11.0927 27.0107 10.7136 27.1748 10.3174C27.3248 10.3174 27.7039 10.2835 27.735 10.2665C27.769 10.2325 28.0831 9.42613 28.0831 9.3271C28.0831 9.24504 27.4379 7.64353 27.1918 7.03236C27.3078 6.89937 27.4238 6.73526 27.537 6.55417C30.9211 6.91917 33.5639 9.79114 33.5639 13.2715C33.5639 15.9454 31.9963 18.274 29.7185 19.3634Z" fill="#1B314F"/>
<path d="M25.327 10.4502C25.6411 10.088 25.477 9.41177 24.8969 9.29576C25.0469 8.95056 25.2591 8.25732 25.2591 8.25732C25.2591 8.25732 23.5755 10.8973 23.4284 10.9482C23.2784 10.9991 23.1313 10.4191 23.1313 10.4191C22.8172 11.6244 23.6604 11.7886 23.7595 11.4094C24.2207 11.2906 25.0129 10.7954 25.327 10.4502Z" fill="#1B314F"/>
<path d="M23.8896 11.0925L24.7469 9.62402C24.7469 9.62402 25.2421 9.87302 24.9931 10.2692C24.6818 10.7304 23.8896 11.0925 23.8896 11.0925Z" fill="#FFD923"/>
<path d="M34.5032 17.895C34.2542 18.226 33.974 18.5712 33.6458 18.9023C35.7736 14.808 33.7448 11.0617 33.6628 10.9146C33.8128 11.0645 33.9599 11.2286 34.0929 11.3758C35.7255 13.1895 35.9236 15.9143 34.5032 17.895Z" fill="#D82122"/>
<path d="M36.4838 12.6293C35.7396 10.6316 34.6842 8.93108 32.3583 7.39748C30.1145 5.91198 27.7037 6.02799 27.5708 6.04496C27.5538 6.04496 27.5368 6.04496 27.5368 6.04496C27.6189 6.01101 27.7009 5.99403 27.783 5.97988C28.2951 5.81577 28.9544 5.68278 29.6165 5.60073C31.368 5.3489 33.1336 5.9431 34.339 7.21639C34.356 7.23336 34.356 7.23336 34.3729 7.25034C35.7424 8.70189 36.4526 10.5156 36.4838 12.6293Z" fill="#D82122"/>
<path d="M31.8293 4.45756C29.3704 3.99634 27.7859 4.22554 26.6456 4.65562C26.6116 4.52264 26.4956 4.25949 26.3966 4.04445C26.0542 4.45756 25.6892 4.95273 25.46 5.2668C24.8319 5.69689 24.5687 6.11 24.5687 6.11C24.9309 4.87067 25.9892 3.94824 27.2766 3.71622C27.6388 3.65114 28.0349 3.61719 28.465 3.61719C29.6025 3.63416 30.7399 3.91429 31.8293 4.45756Z" fill="#D82122"/>
<path d="M22.7353 7.62645C20.8055 7.56137 21.4478 5.31473 21.4818 5.18457C21.4818 5.20155 21.6119 6.95019 22.7353 7.62645Z" fill="#D82122"/>
<path d="M24.6338 3.58301C23.1483 4.47431 23.4454 6.60211 23.4454 6.60211C22.0249 4.44318 24.5178 3.63394 24.6338 3.58301Z" fill="#D82122"/>
<path d="M22.1919 8.22068C22.2909 8.30273 22.3899 8.4527 22.2739 8.66774C22.2088 8.78375 22.1098 8.76677 21.9598 8.70169C21.7618 8.60266 20.5734 7.90943 19.501 7.19922C20.7233 7.62931 21.9598 8.09052 22.1579 8.18955C22.1579 8.18955 22.1749 8.20653 22.1919 8.22068Z" fill="white"/>
<path d="M1 12C1 18.0751 5.92487 23 12 23C18.0751 23 23 18.0751 23 12C23 5.92487 18.0751 1 12 1C5.92487 1 1 5.92487 1 12Z" fill="#09090C"/>
<g clip-path="url(#clip0_3806_5988)">
<path d="M14.8363 18.2C14.251 18.2 13.7531 17.7861 13.6308 17.2137C13.5697 16.9055 13.4998 16.5357 13.4212 16.1218C13.2115 14.933 12.8272 14.4751 11.9973 14.4399H11.1325V13.5945H12.0759C13.0543 13.5945 13.6745 12.9429 13.6745 11.9478C13.6745 10.8207 13.0106 10.3276 12.0497 10.3276C11.875 10.3276 10.7307 10.3276 9.41168 10.3276V17.6981C9.41168 17.927 9.22824 18.1031 9.00986 18.1031C8.78274 18.1031 8.60803 17.9182 8.60803 17.6981V10.3276C7.58601 10.3276 6.55524 10.3276 5.85642 10.3276C5.38471 10.3276 5.00909 9.9489 5.00909 9.47338C5.00909 9.47338 6.82604 9.47338 8.60803 9.47338V8.4431C8.5993 6.54103 9.87465 5 11.4383 5H14.0589C14.286 5 14.4607 5.18492 14.4607 5.40507C14.4607 5.62522 14.2772 5.81014 14.0589 5.81014H11.4383C10.3202 5.81014 9.40295 6.99013 9.40295 8.4431V9.45577C10.6521 9.45577 11.7353 9.45577 11.9799 9.45577C12.9495 9.45577 13.5872 9.68472 14.0327 10.169C14.3821 10.5477 14.583 11.1377 14.583 11.8157C14.583 12.9517 13.989 13.7178 13.2465 14.026V14.0612C13.7881 14.2902 14.1113 14.9154 14.286 15.8136C14.3995 16.4212 14.5044 16.932 14.5917 17.3282C14.6878 17.7333 14.7664 18.0239 14.8363 18.2Z" fill="white"/>
<path d="M16.8801 11.9126V12.2384C16.8801 12.3881 16.7578 12.5114 16.6093 12.5114H16.3036C16.1551 12.5114 16.0328 12.3881 16.0328 12.2384V11.9126C16.0328 11.7629 16.1551 11.6396 16.3036 11.6396H16.6093C16.7665 11.6396 16.8801 11.7629 16.8801 11.9126ZM16.8626 13.7619V17.883C16.8626 18.0327 16.7403 18.156 16.5918 18.156H16.3298C16.1813 18.156 16.059 18.0327 16.059 17.883V13.7619C16.059 13.6122 16.1813 13.4889 16.3298 13.4889H16.5918C16.7491 13.4889 16.8626 13.6122 16.8626 13.7619Z" fill="white"/>
</g>
<defs>
<clipPath id="clip0_3806_5988">
<rect width="11.88" height="13.2" fill="white" transform="translate(5 5)"/>
</clipPath>
</defs>
</svg>
