<svg width="32" height="32" viewBox="0 0 32 32" fill="none" xmlns="http://www.w3.org/2000/svg">
<path d="M26.6066 5.3933C27.9995 6.78619 29.1044 8.43979 29.8582 10.2597C30.6121 12.0796 31.0001 14.0301 31.0001 16C31.0001 17.9698 30.6121 19.9204 29.8582 21.7403C29.1044 23.5602 27.9995 25.2137 26.6066 26.6066C25.2137 27.9995 23.5602 29.1044 21.7403 29.8582C19.9204 30.6121 17.9698 31.0001 16 31.0001C14.0301 31.0001 12.0796 30.6121 10.2597 29.8582C8.43979 29.1044 6.78619 27.9995 5.3933 26.6066C2.58024 23.7936 0.999878 19.9782 0.999878 16C0.999878 12.0217 2.58024 8.20637 5.3933 5.3933C8.20637 2.58024 12.0217 0.999878 16 0.999878C19.9782 0.999878 23.7936 2.58024 26.6066 5.3933" stroke="white" stroke-width="1.5" stroke-linecap="round" stroke-linejoin="round"/>
<path d="M24.845 28.095C24.205 25.0283 20.5083 22.6666 16 22.6666C11.4916 22.6666 7.79497 25.0283 7.15497 28.095" stroke="white" stroke-width="1.5" stroke-linecap="round" stroke-linejoin="round"/>
<path d="M19.535 9.13166C20.0205 9.5909 20.409 10.1428 20.6776 10.7548C20.9462 11.3668 21.0893 12.0264 21.0986 12.6946C21.1079 13.3629 20.9832 14.0262 20.7317 14.6454C20.4803 15.2646 20.1072 15.8271 19.6347 16.2997C19.1621 16.7722 18.5996 17.1453 17.9804 17.3967C17.3612 17.6482 16.6978 17.773 16.0296 17.7637C15.3613 17.7544 14.7017 17.6112 14.0898 17.3426C13.4778 17.0741 12.9259 16.6855 12.4666 16.2C11.5834 15.2522 11.1026 13.9985 11.1255 12.7032C11.1483 11.4078 11.6731 10.1719 12.5892 9.25585C13.5052 8.33976 14.7411 7.81502 16.0365 7.79216C17.3318 7.76931 18.5855 8.25013 19.5333 9.13333" stroke="white" stroke-width="1.5" stroke-linecap="round" stroke-linejoin="round"/>
</svg>
