<svg width="78" height="48" viewBox="0 0 78 48" fill="none" xmlns="http://www.w3.org/2000/svg">
<path d="M43.524 26.7412L44.5823 18.7902L35.4033 12.4181L43.79 15.259L45.7707 12.2201L53.0029 7.73242L68.9445 16.5153L69.7707 29.9159L62.6686 39.7853L57.0548 40.6455L59.9579 35.3316V30.2158L57.8471 26.2205L55.7023 24.8001L52.4031 28.2012V31.8004L49.8282 34.2111L46.5573 34.6073L45.1086 35.4278L42.7318 34.6695L41.7414 31.1043L43.524 28.5973V26.7412Z" fill="white"/>
<path d="M58.1805 12.3498C56.4319 11.9876 54.5191 12.0838 54.5191 12.0838C54.5191 12.0838 53.891 14.9869 49.9976 15.7509C50.0259 15.7509 55.1416 17.4996 58.1805 12.3498Z" fill="#94A6C3"/>
<path d="M59.7649 38.693C61.8757 37.0406 63.4603 34.7656 64.1903 32.1908C64.2242 32.0946 64.5185 31.9248 64.7166 31.7946C65.0448 31.5966 65.3787 31.4325 65.4409 31.1665C65.5711 30.4082 65.639 29.6159 65.639 28.8236C65.639 28.5294 65.3391 28.2294 65.0448 27.9352C64.8128 27.7371 64.5807 27.5051 64.5807 27.341C64.2525 24.336 62.8661 21.5291 60.6534 19.4862L60.4214 19.7182C62.5661 21.7329 63.9526 24.4718 64.2525 27.3749C64.2865 27.6409 64.5468 27.9012 64.8128 28.1672C65.0448 28.3653 65.3108 28.6652 65.3108 28.7953C65.3108 29.5537 65.2429 30.312 65.1127 31.0703C65.0787 31.2004 64.7845 31.3363 64.5524 31.4664C64.2242 31.6305 63.9243 31.7946 63.862 32.0606C63.0698 34.8675 61.2532 37.3122 58.8425 38.8967C59.2726 37.9743 60.6251 34.9694 61.3494 33.4471L61.2193 28.5633L57.0259 24.5058L54.6491 24.834L52.0403 29.0613C52.0403 29.0613 53.2627 30.6119 51.5423 32.4284C49.8616 34.211 48.5374 34.6072 48.5374 34.6072L47.315 33.9451C47.6772 33.481 48.4072 32.7906 48.9675 32.3266C49.9239 31.5343 50.8802 31.4664 50.8802 30.6119C50.9198 28.8236 49.0014 29.316 49.0014 29.316L48.3054 29.9781L48.0111 32.4228L46.5624 34.2393L46.3983 34.2054L44.0215 33.6791C44.0215 33.6791 45.4759 32.9208 45.7079 32.0606C45.9399 31.2344 45.2438 28.4954 45.2099 28.3313C45.2438 28.3653 45.9059 28.9255 46.2002 29.8479C46.7265 28.3936 47.4226 27.0071 47.6206 26.8769C47.8187 26.7468 50.4898 25.3264 50.4898 25.3264L49.6013 27.6692L50.2634 27.307L51.8479 23.4136C51.8479 23.4136 53.3985 22.6553 54.5529 22.6553C56.6298 22.6213 59.7027 20.0804 58.3162 15.5249C58.7123 15.689 65.5767 19.124 66.7651 25.8583C67.6536 31.0363 64.7166 35.8861 59.7649 38.693Z" fill="#94A6C3"/>
<path d="M51.9108 13.0745C52.6691 12.1804 52.3748 10.8618 52.3748 10.8618L50.1622 14.1327C50.1282 14.1327 50.9488 14.1667 51.9108 13.0745Z" fill="#1B314F"/>
<path d="M44.48 30.9343L44.746 29.6157C44.746 29.6157 43.6538 31.5285 43.5576 31.7945C43.4557 32.0945 43.6255 32.6208 44.0499 32.5868C44.48 32.5529 45.0063 31.9247 45.0063 31.4663C45.0063 30.8721 44.48 30.9343 44.48 30.9343Z" fill="#1B314F"/>
<path d="M64.0891 9.93927C64.0891 9.93927 65.7415 10.0072 67.4562 10.2052C63.5911 7.16634 59.9297 6.27787 56.9587 6.27787C52.8672 6.27787 50.0942 7.96426 49.9245 8.06046L51.2147 6.01189C51.2147 6.01189 46.065 5.51389 44.2484 10.9636C43.7844 9.80911 43.36 8.12271 43.36 8.12271C43.36 8.12271 40.6832 10.4712 41.9396 14.3646C38.8667 13.2441 34.4809 11.6879 34.3112 11.6596C34.0791 11.6257 34.0112 11.7275 34.0112 11.7275C34.0112 11.7275 33.9433 11.8237 34.1414 11.9935C34.5092 12.2821 41.4416 17.4035 42.9638 18.3939C42.6356 19.5823 42.6356 20.1425 42.9638 20.7028C43.4279 21.4611 43.4562 21.8572 43.3939 22.4175C43.326 22.9777 42.7318 27.8332 42.6017 28.4274C42.4715 29.0216 41.085 31.1324 41.1473 31.7605C41.2152 32.3887 42.0697 35.0598 42.8337 35.3597C43.3939 35.5578 44.7804 35.9878 45.7028 35.9878C46.031 35.9878 46.331 35.9199 46.4611 35.7898C47.0214 35.2974 47.1855 35.1956 47.5816 35.1956C47.6156 35.1956 47.6495 35.1956 47.6778 35.1956C47.8419 35.1956 48.04 35.2295 48.272 35.2295C48.7983 35.2295 49.4944 35.1277 49.9867 34.6693C50.7111 33.9449 51.9674 32.9546 52.3635 32.4906C52.8615 31.8624 53.1218 31.0079 52.9917 30.1477C52.8898 29.3554 53.3199 28.6594 53.8179 27.969C54.446 27.1428 55.6005 25.6601 55.6005 25.6601C57.8811 27.3691 59.3015 29.9779 59.3015 32.881C59.3015 38.0308 54.8139 42.1902 49.268 42.1902C48.4078 42.1902 47.5873 42.094 46.7611 41.8959C49.302 42.7844 51.4468 43.0843 53.2011 43.0843C56.9304 43.0843 58.911 41.7318 58.911 41.7318C58.911 41.7318 58.2206 42.6259 57.0945 43.6445C57.1284 43.6445 57.1284 43.6445 57.1284 43.6445C63.3024 42.7844 66.3074 37.7025 66.3074 37.7025C66.3074 37.7025 66.0754 39.355 65.7811 40.4755C73.9924 34.3015 72.6059 26.5769 72.572 26.3165C72.6399 26.4127 73.4661 27.4031 73.8905 27.935C75.2147 14.3307 64.0891 9.93927 64.0891 9.93927ZM51.4468 31.6643C51.3166 31.8285 50.7563 32.3264 50.3602 32.6886C49.9641 33.0508 49.534 33.413 49.2058 33.7469C49.0756 33.877 48.8096 33.9449 48.4135 33.9449C48.2833 33.9449 48.1475 33.9449 48.0513 33.9449C47.9834 33.9449 47.9212 33.9449 47.8533 33.9449C47.7853 33.9449 47.7514 33.9449 47.7231 33.9449C47.6212 33.9449 47.525 33.9449 47.4232 33.9449C47.9212 33.2828 49.3699 31.7662 49.8679 31.438C50.4621 31.0418 50.762 30.6457 50.3942 29.9553C50.032 29.2592 49.0756 29.429 49.0756 29.429C49.0756 29.429 49.6359 29.197 50.1339 29.197C49.5057 29.0329 48.7134 29.197 48.3513 29.5592C47.9551 29.9214 48.023 31.2116 47.8589 32.0322C47.6948 32.8924 47.1346 33.3224 46.2744 34.1147C45.8103 34.5448 45.4821 34.675 45.2161 34.675C44.6559 34.5787 43.9938 34.409 43.5297 34.2449C43.2015 33.8148 42.7035 32.3944 42.5734 31.8002C42.6696 31.4719 43.0657 30.7759 43.2638 30.3797C43.6599 29.6214 43.8919 29.1913 43.9598 28.7952C44.09 28.235 44.5201 24.766 44.6842 23.3172C45.1143 23.8775 45.7085 24.8056 45.5727 25.3998C46.529 24.0473 45.8386 22.723 45.5048 22.1968C45.2105 21.6705 44.8144 20.6122 45.1426 19.4917C45.4708 18.3712 46.6592 15.2644 46.6592 15.2644C46.6592 15.2644 47.0553 15.9605 47.6156 15.8247C48.1758 15.6945 52.6974 8.89234 52.6974 8.89234C52.6974 8.89234 53.9198 11.5634 52.6295 13.5158C51.3109 15.4625 50.0207 15.8247 50.0207 15.8247C50.0207 15.8247 51.8372 16.1529 53.518 14.9305C54.2084 16.549 54.8705 18.2298 54.9044 18.4618C54.8026 18.6938 53.484 21.8629 53.3538 22.0609C53.2859 22.1288 52.8276 22.259 52.4937 22.3269C51.9334 22.491 51.6052 22.5929 51.4694 22.6891C51.2374 22.8872 50.1791 25.7903 49.6868 27.2107C49.0926 27.3748 48.4984 27.7087 48.0683 28.3651C48.3003 28.201 49.0247 28.0991 49.5566 28.0369C50.0207 28.0029 51.4354 28.7612 51.8033 30.1817C51.8033 30.2156 51.8033 30.2156 51.8033 30.2496C51.8768 30.7702 51.7127 31.2682 51.4468 31.6643ZM48.3456 32.0605C48.6455 31.6304 48.6116 30.906 48.6455 30.674C48.6795 30.442 48.7417 30.0119 49.0077 29.9496C49.2737 29.8817 49.9018 29.9836 49.9018 30.442C49.9018 30.8721 49.4378 30.9683 49.1096 31.2682C48.8719 31.4946 48.4078 31.9926 48.3456 32.0605ZM61.5142 25.7506C61.8424 24.0699 61.8764 22.6155 61.7802 21.4271C63.0648 23.1418 63.857 25.2243 64.0891 27.3691C64.123 27.6351 64.3833 27.8954 64.6493 28.1614C64.8813 28.3595 65.1473 28.6254 65.1473 28.7895C65.1473 29.5479 65.0794 30.3062 64.9492 31.0701C64.9153 31.1663 64.621 31.3361 64.389 31.4663C64.0608 31.6304 63.7608 31.7945 63.6986 32.0605C62.9742 34.6014 61.418 36.848 59.3411 38.4326C62.4083 35.2295 63.891 29.944 61.5142 25.7506ZM59.4373 38.7268C61.5821 37.0744 63.2345 34.7655 63.9589 32.1567C63.9929 32.0605 64.2871 31.8907 64.4852 31.7605C64.8134 31.5964 65.1473 31.3984 65.2095 31.1324C65.3397 30.3741 65.4076 29.5818 65.4076 28.7895C65.4076 28.4953 65.1077 28.1953 64.8134 27.9011C64.6493 27.703 64.3833 27.471 64.3833 27.3069C64.1173 24.8961 63.161 22.6212 61.6783 20.7367C61.0162 16.7754 58.3791 15.553 58.3112 15.5191C58.3791 15.6209 60.0938 18.094 58.9054 20.997C57.683 23.9341 54.5479 23.4757 54.2819 23.504C54.016 23.504 52.9973 24.8226 51.7071 27.2673C51.543 27.1994 50.8469 27.0352 50.0546 27.1711C50.6488 25.5186 51.543 23.1758 51.7071 22.9777C51.775 22.9098 52.2673 22.7796 52.6012 22.6834C53.2294 22.5193 53.5236 22.4175 53.6255 22.2873C53.6934 22.1854 54.0216 21.4271 54.3498 20.6349C54.6498 20.6349 55.4081 20.567 55.4703 20.533C55.5382 20.4651 56.1664 18.8523 56.1664 18.6542C56.1664 18.4901 54.8761 15.2871 54.3838 14.0647C54.6158 13.7987 54.8478 13.4705 55.0742 13.1083C61.8424 13.8383 67.128 19.5823 67.128 26.5429C67.128 31.8907 63.9929 36.5481 59.4373 38.7268Z" fill="#1B314F"/>
<path d="M50.6544 20.9009C51.2826 20.1765 50.9543 18.824 49.7942 18.592C50.0941 17.9016 50.5186 16.5151 50.5186 16.5151C50.5186 16.5151 47.1514 21.795 46.8572 21.8969C46.5572 21.9987 46.263 20.8386 46.263 20.8386C45.6348 23.2494 47.3212 23.5776 47.5193 22.8193C48.4417 22.5816 50.0262 21.5913 50.6544 20.9009Z" fill="#1B314F"/>
<path d="M47.7793 22.1856L49.494 19.2485C49.494 19.2485 50.4843 19.7465 49.9863 20.5388C49.3638 21.4612 47.7793 22.1856 47.7793 22.1856Z" fill="#FFD923"/>
<path d="M69.0067 35.79C68.5087 36.4521 67.9484 37.1425 67.292 37.8046C71.5476 29.6159 67.4901 22.1234 67.3259 21.8291C67.6259 22.129 67.9201 22.4573 68.1861 22.7515C71.4514 26.379 71.8475 31.8286 69.0067 35.79Z" fill="#D82122"/>
<path d="M72.9676 25.2581C71.4793 21.2628 69.3685 17.8617 64.7167 14.7945C60.2291 11.8235 55.4076 12.0555 55.1416 12.0894C55.1077 12.0894 55.0737 12.0894 55.0737 12.0894C55.2378 12.0215 55.402 11.9876 55.5661 11.9593C56.5904 11.6311 57.9089 11.3651 59.2331 11.201C62.7361 10.6973 66.2673 11.8857 68.6781 14.4323C68.712 14.4662 68.712 14.4662 68.746 14.5002C71.485 17.4033 72.9054 21.0307 72.9676 25.2581Z" fill="#D82122"/>
<path d="M63.6589 8.91512C58.7411 7.99269 55.572 8.45107 53.2914 9.31125C53.2235 9.04527 52.9915 8.51898 52.7935 8.08889C52.1087 8.91512 51.3787 9.90545 50.9203 10.5336C49.664 11.3938 49.1377 12.22 49.1377 12.22C49.8621 9.74134 51.9785 7.89648 54.5534 7.43244C55.2778 7.30228 56.07 7.23438 56.9302 7.23438C59.2052 7.26833 61.4801 7.82858 63.6589 8.91512Z" fill="#D82122"/>
<path d="M45.4708 15.2529C41.6113 15.1227 42.8959 10.6295 42.9638 10.3691C42.9638 10.4031 43.2241 13.9004 45.4708 15.2529Z" fill="#D82122"/>
<path d="M49.2679 7.1665C46.2969 8.9491 46.8911 13.2047 46.8911 13.2047C44.0502 8.88685 49.0359 7.26837 49.2679 7.1665Z" fill="#D82122"/>
<path d="M44.3842 16.4414C44.5823 16.6055 44.7803 16.9054 44.5483 17.3355C44.4181 17.5675 44.2201 17.5335 43.9202 17.4034C43.524 17.2053 41.1472 15.8189 39.0024 14.3984C41.4471 15.2586 43.9202 16.181 44.3163 16.3791C44.3163 16.3791 44.3502 16.4131 44.3842 16.4414Z" fill="white"/>
<path d="M2 24C2 36.1503 11.8497 46 24 46C36.1503 46 46 36.1503 46 24C46 11.8497 36.1503 2 24 2C11.8497 2 2 11.8497 2 24Z" fill="#09090C"/>
<g clip-path="url(#clip0_3806_9208)">
<path d="M29.6725 36.4C28.5019 36.4 27.5061 35.5723 27.2615 34.4275C27.1392 33.8111 26.9995 33.0714 26.8422 32.2436C26.4229 29.866 25.6542 28.9502 23.9945 28.8798H22.2649V27.1891H24.1518C26.1085 27.1891 27.3489 25.8858 27.3489 23.8957C27.3489 21.6414 26.0211 20.6551 24.0994 20.6551C23.7499 20.6551 21.4613 20.6551 18.8232 20.6551V35.3961C18.8232 35.854 18.4564 36.2063 18.0196 36.2063C17.5654 36.2063 17.2159 35.8364 17.2159 35.3961V20.6551C15.1719 20.6551 13.1104 20.6551 11.7127 20.6551C10.7693 20.6551 10.0181 19.8978 10.0181 18.9468C10.0181 18.9468 13.6519 18.9468 17.2159 18.9468V16.8862C17.1985 13.0821 19.7492 10 22.8764 10H28.1176C28.5718 10 28.9212 10.3698 28.9212 10.8101C28.9212 11.2504 28.5544 11.6203 28.1176 11.6203H22.8764C20.6402 11.6203 18.8058 13.9803 18.8058 16.8862V18.9115C21.3041 18.9115 23.4704 18.9115 23.9596 18.9115C25.8988 18.9115 27.1742 19.3694 28.0652 20.3381C28.764 21.0954 29.1658 22.2754 29.1658 23.6315C29.1658 25.9034 27.9778 27.4356 26.4928 28.052V28.1225C27.576 28.5804 28.2224 29.8308 28.5718 31.6272C28.7989 32.8424 29.0086 33.8639 29.1833 34.6564C29.3755 35.4666 29.5327 36.0478 29.6725 36.4Z" fill="white"/>
<path d="M33.7601 23.8253V24.4769C33.7601 24.7763 33.5155 25.0229 33.2185 25.0229H32.607C32.31 25.0229 32.0654 24.7763 32.0654 24.4769V23.8253C32.0654 23.5259 32.31 23.2793 32.607 23.2793H33.2185C33.533 23.2793 33.7601 23.5259 33.7601 23.8253ZM33.7251 27.5237V35.766C33.7251 36.0654 33.4805 36.312 33.1835 36.312H32.6594C32.3624 36.312 32.1178 36.0654 32.1178 35.766V27.5237C32.1178 27.2243 32.3624 26.9778 32.6594 26.9778H33.1835C33.498 26.9778 33.7251 27.2243 33.7251 27.5237Z" fill="white"/>
</g>
<defs>
<clipPath id="clip0_3806_9208">
<rect width="23.76" height="26.4" fill="white" transform="translate(10 10)"/>
</clipPath>
</defs>
</svg>
