<svg width="32" height="32" viewBox="0 0 32 32" fill="none" xmlns="http://www.w3.org/2000/svg">
<path d="M26.6068 5.3933C27.9996 6.78619 29.1045 8.43979 29.8584 10.2597C30.6122 12.0796 31.0002 14.0301 31.0002 16C31.0002 17.9698 30.6122 19.9204 29.8584 21.7403C29.1045 23.5602 27.9996 25.2137 26.6068 26.6066C25.2139 27.9995 23.5603 29.1044 21.7404 29.8582C19.9205 30.6121 17.9699 31.0001 16.0001 31.0001C14.0303 31.0001 12.0797 30.6121 10.2598 29.8582C8.43991 29.1044 6.78631 27.9995 5.39343 26.6066C2.58036 23.7936 1 19.9782 1 16C1 12.0217 2.58036 8.20637 5.39343 5.3933C8.20649 2.58024 12.0218 0.999878 16.0001 0.999878C19.9784 0.999878 23.7937 2.58024 26.6068 5.3933" stroke="white" stroke-width="1.5" stroke-linecap="round" stroke-linejoin="round"/>
<path d="M24.845 28.095C24.205 25.0283 20.5084 22.6666 16 22.6666C11.4917 22.6666 7.79503 25.0283 7.15503 28.095" stroke="white" stroke-width="1.5" stroke-linecap="round" stroke-linejoin="round"/>
<path d="M19.535 9.13166C20.0206 9.5909 20.4091 10.1428 20.6777 10.7548C20.9462 11.3668 21.0894 12.0264 21.0987 12.6946C21.108 13.3629 20.9832 14.0262 20.7318 14.6454C20.4803 15.2646 20.1073 15.8271 19.6347 16.2997C19.1622 16.7722 18.5996 17.1453 17.9804 17.3967C17.3612 17.6482 16.6979 17.773 16.0297 17.7637C15.3614 17.7544 14.7018 17.6112 14.0898 17.3426C13.4779 17.0741 12.9259 16.6855 12.4667 16.2C11.5835 15.2522 11.1027 13.9985 11.1255 12.7032C11.1484 11.4078 11.6731 10.1719 12.5892 9.25585C13.5053 8.33976 14.7412 7.81502 16.0366 7.79216C17.3319 7.76931 18.5855 8.25013 19.5334 9.13333" stroke="white" stroke-width="1.5" stroke-linecap="round" stroke-linejoin="round"/>
</svg>
