<svg width="40" height="40" viewBox="0 0 40 40" fill="none" xmlns="http://www.w3.org/2000/svg">
<path d="M35.0172 26.4182L32.9967 32.9877L29.03 31.9446L35.0172 26.4182Z" fill="#E4761B" stroke="#E4761B" stroke-width="0.190386"/>
<path d="M29.03 31.9446L32.8559 26.904L35.0172 26.4182L29.03 31.9446Z" fill="#E4761B" stroke="#E4761B" stroke-width="0.190386"/>
<path d="M32.0444 21.4652L35.0173 26.4182L32.856 26.9039L32.0444 21.4652ZM32.0444 21.4652L33.9574 20.1911L35.0173 26.4182L32.0444 21.4652Z" fill="#F6851B" stroke="#F6851B" stroke-width="0.190386"/>
<path d="M29.6099 17.7225L35.1085 15.5566L34.8352 16.7431L29.6099 17.7225ZM34.6613 18.1685L29.6099 17.7225L34.8352 16.7431L34.6613 18.1685Z" fill="#763D16" stroke="#763D16" stroke-width="0.190386"/>
<path d="M34.6613 18.1685L33.9574 20.1911L29.6099 17.7225L34.6613 18.1685ZM35.7627 16.0583L34.8352 16.7431L35.1085 15.5566L35.7627 16.0583ZM34.6613 18.1685L34.8352 16.7431L35.5722 17.3323L34.6613 18.1685Z" fill="#763D16" stroke="#763D16" stroke-width="0.190386"/>
<path d="M24.7654 30.344L26.14 30.766L29.0301 31.9446L24.7654 30.344Z" fill="#E2761B" stroke="#E2761B" stroke-width="0.190386"/>
<path d="M33.9576 20.1911L34.6615 18.1685L35.266 18.6144L33.9576 20.1911ZM33.9576 20.1911L28.252 18.3835L29.61 17.7225L33.9576 20.1911Z" fill="#763D16" stroke="#763D16" stroke-width="0.190386"/>
<path d="M30.9681 11.5193L29.61 17.7226L28.252 18.3835L30.9681 11.5193Z" fill="#763D16" stroke="#763D16" stroke-width="0.190386"/>
<path d="M35.1085 15.5566L29.6099 17.7226L30.968 11.5193L35.1085 15.5566Z" fill="#763D16" stroke="#763D16" stroke-width="0.190386"/>
<path d="M30.9678 11.5193L36.7065 10.8823L35.1083 15.5566L30.9678 11.5193Z" fill="#763D16" stroke="#763D16" stroke-width="0.190386"/>
<path d="M33.9576 20.1911L32.0447 21.4652L28.252 18.3835L33.9576 20.1911Z" fill="#F6851B" stroke="#F6851B" stroke-width="0.190386"/>
<path d="M36.4581 6.41504L36.7065 10.8823L30.9678 11.5194L36.4581 6.41504Z" fill="#763D16" stroke="#763D16" stroke-width="0.190386"/>
<path d="M36.4581 6.41504L24.9889 14.4338L24.8398 8.99507L36.4581 6.41504Z" fill="#E2761B" stroke="#E2761B" stroke-width="0.190386"/>
<path d="M16.3105 8.3421L24.84 8.99507L24.9891 14.4338L16.3105 8.3421Z" fill="#F6851B" stroke="#F6851B" stroke-width="0.190386"/>
<path d="M28.2517 18.3835L24.989 14.4338L30.9679 11.5193L28.2517 18.3835Z" fill="#763D16" stroke="#763D16" stroke-width="0.190386"/>
<path d="M28.2517 18.3835L32.0444 21.4652L26.7197 22.0306L28.2517 18.3835Z" fill="#E4761B" stroke="#E4761B" stroke-width="0.190386"/>
<path d="M26.7198 22.0305L24.989 14.4338L28.2517 18.3835L26.7198 22.0305Z" fill="#E4761B" stroke="#E4761B" stroke-width="0.190386"/>
<path d="M30.9679 11.5194L24.989 14.4338L36.4583 6.41504L30.9679 11.5194Z" fill="#763D16" stroke="#763D16" stroke-width="0.190386"/>
<path d="M16.3851 31.8171L19.093 34.5325L15.408 31.3075L16.3851 31.8171Z" fill="#C0AD9E" stroke="#C0AD9E" stroke-width="0.190386"/>
<path d="M29.03 31.9445L30.3136 27.2543L32.8559 26.9039L29.03 31.9445Z" fill="#CD6116" stroke="#CD6116" stroke-width="0.190386"/>
<path d="M5.4043 18.7498L10.0914 14.0118L6.00881 18.1844L5.4043 18.7498Z" fill="#E2761B" stroke="#E2761B" stroke-width="0.190386"/>
<path d="M32.8561 26.904L30.3138 27.2544L32.0445 21.4652L32.8561 26.904ZM24.9891 14.4338L20.4262 14.2905L16.3105 8.3421L24.9891 14.4338Z" fill="#F6851B" stroke="#F6851B" stroke-width="0.190386"/>
<path d="M32.0444 21.4652L30.3136 27.2543L30.1729 24.4275L32.0444 21.4652Z" fill="#E4751F" stroke="#E4751F" stroke-width="0.190386"/>
<path d="M26.7197 22.0306L32.0444 21.4652L30.1729 24.4275L26.7197 22.0306Z" fill="#CD6116" stroke="#CD6116" stroke-width="0.190386"/>
<path d="M20.426 14.2905L24.9889 14.4338L26.7196 22.0306L20.426 14.2905Z" fill="#F6851B" stroke="#F6851B" stroke-width="0.190386"/>
<path d="M20.4261 14.2905L8.11222 3.33331L16.3105 8.34207L20.4261 14.2905ZM16.3022 33.4814L5.60306 36.6666L3.46655 28.823L16.3022 33.4814Z" fill="#E4761B" stroke="#E4761B" stroke-width="0.190386"/>
<path d="M6.99414 20.7087L11.0353 17.6588L14.4222 18.4153L6.99414 20.7087Z" fill="#763D16" stroke="#763D16" stroke-width="0.190386"/>
<path d="M14.4223 18.4154L11.0354 17.6589L12.849 10.4603L14.4223 18.4154Z" fill="#763D16" stroke="#763D16" stroke-width="0.190386"/>
<path d="M6.00854 18.1844L11.0351 17.6588L6.99399 20.7087L6.00854 18.1844Z" fill="#763D16" stroke="#763D16" stroke-width="0.190386"/>
<path d="M30.1729 24.4275L28.0861 23.4161L26.7197 22.0306L30.1729 24.4275Z" fill="#CD6116" stroke="#CD6116" stroke-width="0.190386"/>
<path d="M6.00892 18.1844L5.65283 16.3768L11.0355 17.6589L6.00892 18.1844Z" fill="#763D16" stroke="#763D16" stroke-width="0.190386"/>
<path d="M27.6555 25.6936L28.0861 23.4161L30.173 24.4274L27.6555 25.6936Z" fill="#233447" stroke="#233447" stroke-width="0.190386"/>
<path d="M30.3137 27.2543L27.6555 25.6936L30.173 24.4274L30.3137 27.2543Z" fill="#F6851B" stroke="#F6851B" stroke-width="0.190386"/>
<path d="M11.0354 17.6589L5.65276 16.3768L5.21387 14.8559L11.0354 17.6589ZM12.849 10.4603L11.0354 17.6589L5.21387 14.8559L12.849 10.4603ZM12.849 10.4603L20.4261 14.2905L14.4224 18.4154L12.849 10.4603Z" fill="#763D16" stroke="#763D16" stroke-width="0.190386"/>
<path d="M14.4224 18.4153L20.4261 14.2905L23.1009 22.15L14.4224 18.4153ZM23.1009 22.15L14.8033 21.9828L14.4224 18.4153L23.1009 22.15Z" fill="#E4761B" stroke="#E4761B" stroke-width="0.190386"/>
<path d="M6.99414 20.7087L14.4222 18.4153L14.8032 21.9828L6.99414 20.7087ZM26.7196 22.0306L23.1008 22.15L20.426 14.2905L26.7196 22.0306Z" fill="#F6851B" stroke="#F6851B" stroke-width="0.190386"/>
<path d="M28.0861 23.4162L27.6555 25.6936L26.7197 22.0306L28.0861 23.4162Z" fill="#CD6116" stroke="#CD6116" stroke-width="0.190386"/>
<path d="M8.1123 3.33331L20.4262 14.2905L12.8491 10.4602L8.1123 3.33331Z" fill="#763D16" stroke="#763D16" stroke-width="0.190386"/>
<path d="M3.46655 28.8231L13.851 28.409L16.3022 33.4815L3.46655 28.8231Z" fill="#E4761B" stroke="#E4761B" stroke-width="0.190386"/>
<path d="M16.3023 33.4814L13.8511 28.4089L18.9522 28.17L16.3023 33.4814Z" fill="#CD6116" stroke="#CD6116" stroke-width="0.190386"/>
<path d="M27.6555 25.6935L30.3137 27.2543L31.7794 30.5749L27.6555 25.6935ZM14.8033 21.9828L3.46655 28.823L6.99428 20.7087L14.8033 21.9828ZM13.851 28.409L3.46655 28.823L14.8033 21.9828L13.851 28.409ZM26.7197 22.0305L27.3988 24.4035L24.1195 24.5867L26.7197 22.0305ZM24.1195 24.5867L23.1009 22.15L26.7197 22.0305L24.1195 24.5867Z" fill="#F6851B" stroke="#F6851B" stroke-width="0.190386"/>
<path d="M19.0927 34.5326L16.302 33.4814L26.0074 35.0502L19.0927 34.5326Z" fill="#C0AD9E" stroke="#C0AD9E" stroke-width="0.190386"/>
<path d="M6.99426 20.7087L5.4043 18.7498L6.00881 18.1844L6.99426 20.7087Z" fill="#763D16" stroke="#763D16" stroke-width="0.190386"/>
<path d="M27.1088 33.8876L26.0074 35.0502L16.302 33.4814L27.1088 33.8876Z" fill="#D7C1B3" stroke="#D7C1B3" stroke-width="0.190386"/>
<path d="M27.6305 31.0367L16.302 33.4814L18.9519 28.17L27.6305 31.0367Z" fill="#E4761B" stroke="#E4761B" stroke-width="0.190386"/>
<path d="M16.302 33.4815L27.6305 31.0368L27.1088 33.8876L16.302 33.4815Z" fill="#D7C1B3" stroke="#D7C1B3" stroke-width="0.190386"/>
<path d="M5.21371 14.8558L4.84106 8.73224L12.8488 10.4602L5.21371 14.8558ZM6.00869 18.1844L4.90731 17.1094L5.65261 16.3768L6.00869 18.1844Z" fill="#763D16" stroke="#763D16" stroke-width="0.190386"/>
<path d="M21.2458 23.7267L23.1008 22.15L22.8358 26.0041L21.2458 23.7267Z" fill="#CD6116" stroke="#CD6116" stroke-width="0.190386"/>
<path d="M23.1007 22.15L21.2458 23.7267L18.5461 25.0725L23.1007 22.15Z" fill="#CD6116" stroke="#CD6116" stroke-width="0.190386"/>
<path d="M31.7795 30.5749L31.2743 30.2166L27.6555 25.6935L31.7795 30.5749Z" fill="#F6851B" stroke="#F6851B" stroke-width="0.190386"/>
<path d="M18.5465 25.0725L14.8035 21.9828L23.1011 22.15L18.5465 25.0725Z" fill="#CD6116" stroke="#CD6116" stroke-width="0.190386"/>
<path d="M22.8359 26.0041L23.1009 22.15L24.1195 24.5867L22.8359 26.0041Z" fill="#E4751F" stroke="#E4751F" stroke-width="0.190386"/>
<path d="M4.54321 15.461L5.21398 14.8558L5.65287 16.3768L4.54321 15.461Z" fill="#763D16" stroke="#763D16" stroke-width="0.190386"/>
<path d="M22.8357 26.0041L18.5461 25.0724L21.2458 23.7267L22.8357 26.0041Z" fill="#233447" stroke="#233447" stroke-width="0.190386"/>
<path d="M12.8488 10.4602L4.84106 8.73226L8.11208 3.33331L12.8488 10.4602Z" fill="#763D16" stroke="#763D16" stroke-width="0.190386"/>
<path d="M26.0074 35.0501L26.4629 36.2446L19.0928 34.5325L26.0074 35.0501Z" fill="#C0AD9E" stroke="#C0AD9E" stroke-width="0.190386"/>
<path d="M18.9519 28.1701L18.5461 25.0724L22.8357 26.0041L18.9519 28.1701Z" fill="#F6851B" stroke="#F6851B" stroke-width="0.190386"/>
<path d="M14.8035 21.9828L18.5465 25.0725L18.9523 28.1701L14.8035 21.9828Z" fill="#E4751F" stroke="#E4751F" stroke-width="0.190386"/>
<path d="M24.1196 24.5867L27.3989 24.4036L31.2744 30.2166L24.1196 24.5867ZM14.8034 21.9828L18.9522 28.1701L13.8511 28.409L14.8034 21.9828Z" fill="#F6851B" stroke="#F6851B" stroke-width="0.190386"/>
<path d="M24.1195 24.5867L28.1938 30.551L22.8359 26.0041L24.1195 24.5867Z" fill="#E4751F" stroke="#E4751F" stroke-width="0.190386"/>
<path d="M22.8359 26.0041L28.1938 30.551L27.6307 31.0367L22.8359 26.0041Z" fill="#F6851B" stroke="#F6851B" stroke-width="0.190386"/>
<path d="M27.6307 31.0367L18.9521 28.17L22.836 26.0041L27.6307 31.0367ZM31.2743 30.2165L28.1938 30.551L24.1195 24.5867L31.2743 30.2165Z" fill="#F6851B" stroke="#F6851B" stroke-width="0.190386"/>
<path d="M32.0861 33.0196L30.7611 35.5757L26.4633 36.2446L32.0861 33.0196ZM26.4633 36.2446L26.0078 35.0502L27.1092 33.8876L26.4633 36.2446Z" fill="#C0AD9E" stroke="#C0AD9E" stroke-width="0.190386"/>
<path d="M27.1088 33.8876L27.9204 33.577L26.4629 36.2446L27.1088 33.8876ZM26.4629 36.2446L27.9204 33.577L32.0857 33.0196L26.4629 36.2446Z" fill="#C0AD9E" stroke="#C0AD9E" stroke-width="0.190386"/>
<path d="M31.2743 30.2166L32.2929 30.8138L29.1958 31.1721L31.2743 30.2166Z" fill="#161616" stroke="#161616" stroke-width="0.190386"/>
<path d="M29.1956 31.1721L28.1936 30.551L31.2742 30.2166L29.1956 31.1721ZM28.8395 31.6419L32.6074 31.204L32.0857 33.0195L28.8395 31.6419Z" fill="#161616" stroke="#161616" stroke-width="0.190386"/>
<path d="M32.0858 33.0196L27.9204 33.577L28.8396 31.642L32.0858 33.0196ZM27.9204 33.577L27.1089 33.8876L27.6306 31.0368L27.9204 33.577ZM27.6306 31.0368L28.1937 30.551L29.1957 31.1721L27.6306 31.0368ZM32.2928 30.8138L32.6075 31.204L28.8396 31.642L32.2928 30.8138Z" fill="#161616" stroke="#161616" stroke-width="0.190386"/>
<path d="M28.8396 31.6419L29.1957 31.1721L32.2928 30.8138L28.8396 31.6419ZM27.6306 31.0367L28.8396 31.6419L27.9205 33.577L27.6306 31.0367Z" fill="#161616" stroke="#161616" stroke-width="0.190386"/>
<path d="M29.1957 31.1722L28.8396 31.642L27.6306 31.0368L29.1957 31.1722Z" fill="#161616" stroke="#161616" stroke-width="0.190386"/>
</svg>
