<svg width="24" height="24" viewBox="0 0 24 24" fill="none" xmlns="http://www.w3.org/2000/svg">
<path d="M12 6.45996V9.91996" stroke="white" stroke-width="1.5" stroke-linecap="round" stroke-linejoin="round"/>
<path d="M14.0801 12H17.5401" stroke="white" stroke-width="1.5" stroke-linecap="round" stroke-linejoin="round"/>
<path d="M12 14.0801V17.5401" stroke="white" stroke-width="1.5" stroke-linecap="round" stroke-linejoin="round"/>
<path d="M6.45996 12H9.91996" stroke="white" stroke-width="1.5" stroke-linecap="round" stroke-linejoin="round"/>
<path d="M15 9L16 8" stroke="white" stroke-width="1.5" stroke-linecap="round" stroke-linejoin="round"/>
<path d="M8 16L9 15" stroke="white" stroke-width="1.5" stroke-linecap="round" stroke-linejoin="round"/>
<path d="M15 15L16 16" stroke="white" stroke-width="1.5" stroke-linecap="round" stroke-linejoin="round"/>
<path d="M8 8L9 9" stroke="white" stroke-width="1.5" stroke-linecap="round" stroke-linejoin="round"/>
<path d="M12 3C9.86327 3 7.79623 3.76022 6.16867 5.14466C4.54112 6.52911 3.45921 8.44745 3.11651 10.5565C2.77381 12.6656 3.19266 14.8278 4.29815 16.6563C5.40363 18.4849 7.12362 19.8604 9.15042 20.537C11.1772 21.2135 13.3786 21.1469 15.3608 20.349C17.3429 19.5511 18.9766 18.074 19.9694 16.1819C20.9623 14.2898 21.2496 12.1063 20.7799 10.0218C20.3102 7.93731 19.1143 6.08792 17.406 4.80447" stroke="#0177FB" stroke-width="1.5" stroke-linecap="round"/>
</svg>
