<svg width="24" height="24" viewBox="0 0 24 24" fill="none" xmlns="http://www.w3.org/2000/svg">
<path d="M12.1435 2.02982V2.03976C12.1535 2.08946 12.1535 2.14911 12.1535 2.20875V9.37575C12.1435 9.41551 12.1137 9.42545 12.0839 9.44533C11.8751 9.54473 11.6763 9.63419 11.4676 9.72366C11.1793 9.85288 10.8811 9.99205 10.5928 10.1213L9.54908 10.5984C9.26081 10.7276 8.97254 10.8569 8.69421 10.9861C8.35624 11.1451 8.00833 11.2942 7.67035 11.4533C7.38208 11.5825 7.09381 11.7217 6.7956 11.8509C6.55703 11.9602 6.31847 12.0596 6.08984 12.169C6.06996 12.1789 6.05008 12.1889 6.0302 12.1889C6.02026 12.1889 6.02026 12.1889 6.01031 12.1789L6.2787 11.7316C6.7956 10.8767 7.30256 10.0318 7.81946 9.17694C8.36618 8.26243 8.92284 7.34791 9.46956 6.4334C9.97652 5.58847 10.4934 4.74354 11.0004 3.89861C11.3682 3.28231 11.7459 2.666 12.1137 2.0497C12.1236 2.02982 12.1336 2.01988 12.1336 2H12.1435C12.1336 2.00994 12.1435 2.01988 12.1435 2.02982Z" fill="#8A92B2"/>
<path d="M18.2466 12.179L18.2565 12.1889L16.7953 13.0537L12.2028 15.7674C12.1829 15.7774 12.1631 15.7873 12.1531 15.7973C12.1233 15.7973 12.1233 15.7674 12.1233 15.7575V15.668V9.5249C12.1233 9.49508 12.1233 9.45532 12.1332 9.4255C12.1432 9.38574 12.173 9.39568 12.2028 9.40562C12.332 9.46526 12.4712 9.5249 12.6004 9.58455C12.9881 9.76347 13.3758 9.9424 13.7635 10.1114C14.1014 10.2605 14.4295 10.4195 14.7674 10.5686C15.1054 10.7177 15.4434 10.8768 15.7813 11.0259C16.0696 11.1551 16.3678 11.2943 16.6561 11.4235C16.9444 11.5527 17.2426 11.6919 17.5308 11.8211C17.7595 11.9205 17.9881 12.0299 18.2167 12.1293C18.2167 12.1591 18.2267 12.169 18.2466 12.179Z" fill="#454A75"/>
<path d="M12.1431 21.9702C12.1431 21.9802 12.1331 21.9901 12.1331 22.0001H12.1232C12.1232 21.9802 12.1033 21.9702 12.0934 21.9504C11.4771 21.0855 10.8608 20.2108 10.2445 19.346C9.61824 18.4613 8.98205 17.5667 8.35581 16.682C7.74945 15.8271 7.13315 14.9623 6.52679 14.1074C6.36774 13.8788 6.20869 13.6601 6.04965 13.4315C6.03971 13.4116 6.02977 13.4016 6.00989 13.3718C6.03971 13.3718 6.05959 13.3917 6.06953 13.4016C6.93434 13.9086 7.78921 14.4156 8.65402 14.9225C9.64806 15.509 10.6322 16.0955 11.6262 16.682L12.1331 16.9802C12.153 17.0001 12.153 17.0199 12.153 17.0398V21.8311C12.153 21.8808 12.153 21.9305 12.1431 21.9702Z" fill="#8A92B2"/>
<path d="M6.00006 12.1987V12.1887C6.31815 12.0496 6.6263 11.9005 6.94439 11.7613C7.35195 11.5724 7.7595 11.3935 8.16706 11.2047C8.47521 11.0655 8.7933 10.9164 9.10145 10.7772C9.55871 10.5685 10.006 10.3697 10.4633 10.1609C10.7714 10.0218 11.0796 9.88259 11.3977 9.73348C11.6164 9.63408 11.845 9.53467 12.0637 9.43527C12.0836 9.42533 12.1134 9.41539 12.1233 9.39551C12.1333 9.39551 12.1333 9.40545 12.1233 9.41539V15.7275C12.1233 15.7573 12.1134 15.7872 12.1333 15.807C12.1134 15.8369 12.0935 15.807 12.0836 15.7971C11.9941 15.7474 11.9046 15.6977 11.8152 15.6381C9.89668 14.5049 7.96825 13.3617 6.04976 12.2285C6.03982 12.2186 6.01994 12.2086 6.00006 12.1987Z" fill="#62688F"/>
<path d="M18.2268 13.3718H18.2367C18.2367 13.3917 18.2169 13.4116 18.2069 13.4315C16.3779 16.006 14.5489 18.5905 12.7198 21.1651C12.531 21.4335 12.3322 21.7018 12.1433 21.9702C12.1334 21.9603 12.1334 21.9504 12.1334 21.9404V21.8808V17.0597V16.9702C12.5509 16.7217 12.9584 16.4832 13.3759 16.2346C14.9862 15.2804 16.5966 14.336 18.197 13.3818C18.2069 13.3917 18.2169 13.3818 18.2268 13.3718Z" fill="#62688F"/>
<path d="M12.1333 9.41554V9.39566V9.33602V2.11932C12.1333 2.0895 12.1233 2.06962 12.1432 2.03979C14.1611 5.3897 16.179 8.72966 18.187 12.0796C18.2068 12.1094 18.2367 12.1491 18.2466 12.1889C18.1074 12.1392 17.9782 12.0696 17.849 12.01C17.6899 11.9404 17.521 11.8609 17.3619 11.7913C17.2625 11.7416 17.1532 11.7018 17.0538 11.6521C16.8848 11.5726 16.7158 11.503 16.5468 11.4235C16.4474 11.3837 16.348 11.334 16.2486 11.2843L15.5925 10.9861C15.4832 10.9364 15.3738 10.8867 15.2546 10.837L14.7774 10.6283C14.678 10.5885 14.5786 10.5388 14.4792 10.4891L13.8231 10.1909C13.7138 10.1412 13.6045 10.0915 13.4852 10.0418L13.008 9.83304C12.8987 9.78333 12.7993 9.73363 12.6899 9.68393C12.5011 9.59447 12.3122 9.505 12.1134 9.42548C12.1432 9.41554 12.1333 9.41554 12.1333 9.41554Z" fill="#62688F"/>
</svg>
