<svg width="32" height="32" viewBox="0 0 32 32" fill="none" xmlns="http://www.w3.org/2000/svg">
<path d="M1.33383 15.9997C1.33383 24.0998 7.90032 30.6663 16.0005 30.6663C24.1007 30.6663 30.6672 24.0998 30.6672 15.9997C30.6672 7.8995 24.1007 1.33301 16.0005 1.33301C7.90032 1.33301 1.33383 7.8995 1.33383 15.9997Z" fill="#3B3C4E"/>
<g clip-path="url(#clip0_3824_70042)">
<path d="M19.7822 24.2665C19.0019 24.2665 18.338 23.7147 18.1749 22.9515C18.0934 22.5406 18.0002 22.0474 17.8954 21.4956C17.6159 19.9105 17.1034 19.3 15.9969 19.253H14.8439V18.1259H16.1018C17.4062 18.1259 18.2332 17.257 18.2332 15.9303C18.2332 14.4274 17.348 13.7699 16.0668 13.7699C15.8339 13.7699 14.3081 13.7699 12.5494 13.7699V23.5973C12.5494 23.9025 12.3048 24.1374 12.0136 24.1374C11.7108 24.1374 11.4779 23.8908 11.4779 23.5973V13.7699C10.1152 13.7699 8.74082 13.7699 7.80906 13.7699C7.18011 13.7699 6.67929 13.265 6.67929 12.631C6.67929 12.631 9.10188 12.631 11.4779 12.631V11.2573C11.4662 8.72121 13.1667 6.6665 15.2515 6.6665H18.7456C19.0485 6.6665 19.2814 6.91307 19.2814 7.2066C19.2814 7.50013 19.0368 7.74669 18.7456 7.74669H15.2515C13.7607 7.74669 12.5378 9.32001 12.5378 11.2573V12.6075C14.2033 12.6075 15.6475 12.6075 15.9736 12.6075C17.2665 12.6075 18.1167 12.9128 18.7107 13.5586C19.1766 14.0634 19.4445 14.8501 19.4445 15.7542C19.4445 17.2688 18.6525 18.2903 17.6625 18.7012V18.7482C18.3846 19.0534 18.8155 19.8871 19.0485 21.0847C19.1999 21.8948 19.3396 22.5758 19.4561 23.1041C19.5842 23.6442 19.6891 24.0317 19.7822 24.2665Z" fill="#53F3C3"/>
<path d="M22.5073 15.8835V16.3179C22.5073 16.5175 22.3442 16.6819 22.1462 16.6819H21.7386C21.5406 16.6819 21.3775 16.5175 21.3775 16.3179V15.8835C21.3775 15.6839 21.5406 15.5195 21.7386 15.5195H22.1462C22.3559 15.5195 22.5073 15.6839 22.5073 15.8835ZM22.484 18.3492V23.844C22.484 24.0436 22.3209 24.208 22.1229 24.208H21.7735C21.5755 24.208 21.4125 24.0436 21.4125 23.844V18.3492C21.4125 18.1496 21.5755 17.9852 21.7735 17.9852H22.1229C22.3326 17.9852 22.484 18.1496 22.484 18.3492Z" fill="#53F3C3"/>
</g>
<defs>
<clipPath id="clip0_3824_70042">
<rect width="15.84" height="17.6" fill="white" transform="translate(6.66718 6.6665)"/>
</clipPath>
</defs>
</svg>
