<svg width="32" height="32" viewBox="0 0 32 32" fill="none" xmlns="http://www.w3.org/2000/svg">
<rect y="-0.000488281" width="32" height="32" rx="16" fill="#3B3C4E"/>
<path fill-rule="evenodd" clip-rule="evenodd" d="M24.2971 11.8511H7.70406C7.1316 11.8511 6.66699 12.3157 6.66699 12.8881V14.9623C6.66699 15.5347 7.1316 15.9993 7.70406 15.9993H24.2971C24.8696 15.9993 25.3342 15.5347 25.3342 14.9623V12.8881C25.3342 12.3157 24.8696 11.8511 24.2971 11.8511Z" stroke="#53F3C3" stroke-linecap="round" stroke-linejoin="round"/>
<path d="M16.001 25.3329V11.8511" stroke="#53F3C3" stroke-linecap="round" stroke-linejoin="round"/>
<path d="M19.8338 10.4116C18.7159 11.5752 16.956 11.8511 16.1035 11.8511" stroke="#53F3C3" stroke-linecap="round" stroke-linejoin="round"/>
<path d="M16.1034 11.8512C16.1034 11.8512 15.5911 8.61969 16.8511 7.30884" stroke="#53F3C3" stroke-linecap="round" stroke-linejoin="round"/>
<path d="M19.8341 10.4116C20.6575 9.55501 20.6575 8.16534 19.8341 7.30872C19.0107 6.45211 17.676 6.45211 16.8525 7.30872" stroke="#53F3C3" stroke-linecap="round" stroke-linejoin="round"/>
<path d="M12.168 10.4116C13.2859 11.5752 15.0458 11.8511 15.8983 11.8511" stroke="#53F3C3" stroke-linecap="round" stroke-linejoin="round"/>
<path d="M15.8985 11.8512C15.8985 11.8512 16.4108 8.61969 15.1508 7.30884" stroke="#53F3C3" stroke-linecap="round" stroke-linejoin="round"/>
<path d="M12.1674 10.4116C11.3439 9.55501 11.3439 8.16534 12.1674 7.30872C12.9908 6.45211 14.3255 6.45211 15.1489 7.30872" stroke="#53F3C3" stroke-linecap="round" stroke-linejoin="round"/>
<path d="M23.2601 15.9993V24.2958C23.2601 24.8683 22.7955 25.3329 22.2231 25.3329H9.77828C9.20582 25.3329 8.74121 24.8683 8.74121 24.2958V15.9993" stroke="#53F3C3" stroke-linecap="round" stroke-linejoin="round"/>
</svg>
