<svg width="24" height="24" viewBox="0 0 24 24" fill="none" xmlns="http://www.w3.org/2000/svg">
<path d="M12.1435 2.02982V2.03976C12.1534 2.08946 12.1534 2.14911 12.1534 2.20875V9.37575C12.1435 9.41551 12.1136 9.42545 12.0838 9.44533C11.8751 9.54473 11.6763 9.63419 11.4675 9.72366C11.1792 9.85288 10.881 9.99205 10.5928 10.1213L9.54902 10.5984C9.26075 10.7276 8.97248 10.8569 8.69415 10.9861C8.35618 11.1451 8.00827 11.2942 7.67029 11.4533C7.38202 11.5825 7.09375 11.7217 6.79554 11.8509C6.55697 11.9602 6.3184 12.0596 6.08978 12.169C6.0699 12.1789 6.05002 12.1889 6.03013 12.1889C6.02019 12.1889 6.02019 12.1889 6.01025 12.1789L6.27864 11.7316C6.79554 10.8767 7.3025 10.0318 7.8194 9.17694C8.36612 8.26243 8.92278 7.34791 9.4695 6.4334C9.97646 5.58847 10.4934 4.74354 11.0003 3.89861C11.3681 3.28231 11.7458 2.666 12.1136 2.0497C12.1236 2.02982 12.1335 2.01988 12.1335 2H12.1435C12.1335 2.00994 12.1435 2.01988 12.1435 2.02982Z" fill="#8A92B2"/>
<path d="M18.2466 12.179L18.2565 12.1889L16.7953 13.0537L12.2028 15.7674C12.1829 15.7774 12.1631 15.7873 12.1531 15.7973C12.1233 15.7973 12.1233 15.7674 12.1233 15.7575V15.668V9.5249C12.1233 9.49508 12.1233 9.45532 12.1332 9.4255C12.1432 9.38574 12.173 9.39568 12.2028 9.40562C12.332 9.46526 12.4712 9.5249 12.6004 9.58455C12.9881 9.76347 13.3758 9.9424 13.7635 10.1114C14.1014 10.2605 14.4295 10.4195 14.7674 10.5686C15.1054 10.7177 15.4434 10.8768 15.7813 11.0259C16.0696 11.1551 16.3678 11.2943 16.6561 11.4235C16.9444 11.5527 17.2426 11.6919 17.5308 11.8211C17.7595 11.9205 17.9881 12.0299 18.2167 12.1293C18.2167 12.1591 18.2267 12.169 18.2466 12.179Z" fill="#454A75"/>
<path d="M12.143 21.9702C12.143 21.9802 12.133 21.9901 12.133 22.0001H12.1231C12.1231 21.9802 12.1032 21.9702 12.0933 21.9504C11.477 21.0855 10.8607 20.2108 10.2444 19.346C9.61812 18.4613 8.98193 17.5667 8.35569 16.682C7.74933 15.8271 7.13303 14.9623 6.52666 14.1074C6.36762 13.8788 6.20857 13.6601 6.04953 13.4315C6.03959 13.4116 6.02965 13.4016 6.00977 13.3718C6.03959 13.3718 6.05947 13.3917 6.06941 13.4016C6.93422 13.9086 7.78909 14.4156 8.6539 14.9225C9.64794 15.509 10.632 16.0955 11.6261 16.682L12.133 16.9802C12.1529 17.0001 12.1529 17.0199 12.1529 17.0398V21.8311C12.1529 21.8808 12.1529 21.9305 12.143 21.9702Z" fill="#8A92B2"/>
<path d="M6 12.1987V12.1887C6.31809 12.0496 6.62624 11.9005 6.94433 11.7613C7.35189 11.5724 7.75944 11.3935 8.167 11.2047C8.47515 11.0655 8.79324 10.9164 9.10139 10.7772C9.55865 10.5685 10.006 10.3697 10.4632 10.1609C10.7714 10.0218 11.0795 9.88259 11.3976 9.73348C11.6163 9.63408 11.8449 9.53467 12.0636 9.43527C12.0835 9.42533 12.1133 9.41539 12.1233 9.39551C12.1332 9.39551 12.1332 9.40545 12.1233 9.41539V15.7275C12.1233 15.7573 12.1133 15.7872 12.1332 15.807C12.1133 15.8369 12.0934 15.807 12.0835 15.7971C11.994 15.7474 11.9046 15.6977 11.8151 15.6381C9.89662 14.5049 7.96819 13.3617 6.0497 12.2285C6.03976 12.2186 6.01988 12.2086 6 12.1987Z" fill="#62688F"/>
<path d="M18.2267 13.3718H18.2367C18.2367 13.3917 18.2168 13.4116 18.2069 13.4315C16.3778 16.006 14.5488 18.5905 12.7198 21.1651C12.5309 21.4335 12.3321 21.7018 12.1432 21.9702C12.1333 21.9603 12.1333 21.9504 12.1333 21.9404V21.8808V17.0597V16.9702C12.5508 16.7217 12.9584 16.4832 13.3758 16.2346C14.9862 15.2804 16.5965 14.336 18.1969 13.3818C18.2069 13.3917 18.2168 13.3818 18.2267 13.3718Z" fill="#62688F"/>
<path d="M12.1332 9.41554V9.39566V9.33602V2.11932C12.1332 2.0895 12.1232 2.06962 12.1431 2.03979C14.161 5.3897 16.1789 8.72966 18.1868 12.0796C18.2067 12.1094 18.2365 12.1491 18.2465 12.1889C18.1073 12.1392 17.9781 12.0696 17.8489 12.01C17.6898 11.9404 17.5208 11.8609 17.3618 11.7913C17.2624 11.7416 17.153 11.7018 17.0536 11.6521C16.8847 11.5726 16.7157 11.503 16.5467 11.4235C16.4473 11.3837 16.3479 11.334 16.2485 11.2843L15.5924 10.9861C15.4831 10.9364 15.3737 10.8867 15.2544 10.837L14.7773 10.6283C14.6779 10.5885 14.5785 10.5388 14.4791 10.4891L13.823 10.1909C13.7137 10.1412 13.6043 10.0915 13.4851 10.0418L13.0079 9.83304C12.8986 9.78333 12.7992 9.73363 12.6898 9.68393C12.501 9.59447 12.3121 9.505 12.1133 9.42548C12.1431 9.41554 12.1332 9.41554 12.1332 9.41554Z" fill="#62688F"/>
</svg>
