<svg width="24" height="24" viewBox="0 0 24 24" fill="none" xmlns="http://www.w3.org/2000/svg">
<path d="M12.1439 2.02982V2.03976C12.1539 2.08946 12.1539 2.14911 12.1539 2.20875V9.37575C12.1439 9.41551 12.1141 9.42545 12.0843 9.44533C11.8756 9.54473 11.6767 9.63419 11.468 9.72366C11.1797 9.85288 10.8815 9.99205 10.5932 10.1213L9.54951 10.5984C9.26124 10.7276 8.97297 10.8569 8.69464 10.9861C8.35667 11.1451 8.00875 11.2942 7.67078 11.4533C7.38251 11.5825 7.09424 11.7217 6.79603 11.8509C6.55746 11.9602 6.31889 12.0596 6.09027 12.169C6.07038 12.1789 6.0505 12.1889 6.03062 12.1889C6.02068 12.1889 6.02068 12.1889 6.01074 12.1789L6.27913 11.7316C6.79603 10.8767 7.30299 10.0318 7.81989 9.17694C8.36661 8.26243 8.92327 7.34791 9.46999 6.4334C9.97694 5.58847 10.4938 4.74354 11.0008 3.89861C11.3686 3.28231 11.7463 2.666 12.1141 2.0497C12.1241 2.02982 12.134 2.01988 12.134 2H12.1439C12.134 2.00994 12.1439 2.01988 12.1439 2.02982Z" fill="#8A92B2"/>
<path d="M18.2463 12.1787L18.2562 12.1887L16.795 13.0535L12.2026 15.7672C12.1827 15.7771 12.1628 15.7871 12.1529 15.797C12.123 15.797 12.123 15.7672 12.123 15.7573V15.6678V9.52466C12.123 9.49484 12.123 9.45508 12.133 9.42526C12.1429 9.38549 12.1727 9.39543 12.2026 9.40538C12.3318 9.46502 12.471 9.52466 12.6002 9.5843C12.9879 9.76323 13.3755 9.94215 13.7632 10.1111C14.1012 10.2602 14.4292 10.4193 14.7672 10.5684C15.1052 10.7175 15.4431 10.8765 15.7811 11.0257C16.0694 11.1549 16.3676 11.294 16.6559 11.4233C16.9441 11.5525 17.2423 11.6917 17.5306 11.8209C17.7592 11.9203 17.9879 12.0296 18.2165 12.129C18.2165 12.1589 18.2264 12.1688 18.2463 12.1787Z" fill="#454A75"/>
<path d="M12.143 21.97C12.143 21.9799 12.133 21.9899 12.133 21.9998H12.1231C12.1231 21.9799 12.1032 21.97 12.0933 21.9501C11.477 21.0853 10.8607 20.2105 10.2444 19.3457C9.61812 18.461 8.98193 17.5664 8.35569 16.6817C7.74933 15.8269 7.13303 14.962 6.52666 14.1072C6.36762 13.8785 6.20857 13.6599 6.04953 13.4312C6.03959 13.4113 6.02965 13.4014 6.00977 13.3716C6.03959 13.3716 6.05947 13.3915 6.06941 13.4014C6.93422 13.9084 7.78909 14.4153 8.6539 14.9223C9.64794 15.5088 10.632 16.0952 11.6261 16.6817L12.133 16.9799C12.1529 16.9998 12.1529 17.0197 12.1529 17.0396V21.8308C12.1529 21.8805 12.1529 21.9302 12.143 21.97Z" fill="#8A92B2"/>
<path d="M6 12.1987V12.1887C6.31809 12.0496 6.62624 11.9005 6.94433 11.7613C7.35189 11.5724 7.75944 11.3935 8.167 11.2047C8.47515 11.0655 8.79324 10.9164 9.10139 10.7772C9.55865 10.5685 10.006 10.3697 10.4632 10.1609C10.7714 10.0218 11.0795 9.88259 11.3976 9.73348C11.6163 9.63408 11.8449 9.53467 12.0636 9.43527C12.0835 9.42533 12.1133 9.41539 12.1233 9.39551C12.1332 9.39551 12.1332 9.40545 12.1233 9.41539V15.7275C12.1233 15.7573 12.1133 15.7872 12.1332 15.807C12.1133 15.8369 12.0934 15.807 12.0835 15.7971C11.994 15.7474 11.9046 15.6977 11.8151 15.6381C9.89662 14.5049 7.96819 13.3617 6.0497 12.2285C6.03976 12.2186 6.01988 12.2086 6 12.1987Z" fill="#62688F"/>
<path d="M18.2263 13.3716H18.2362C18.2362 13.3915 18.2163 13.4113 18.2064 13.4312C16.3773 16.0058 14.5483 18.5903 12.7193 21.1648C12.5304 21.4332 12.3316 21.7016 12.1428 21.97C12.1328 21.9601 12.1328 21.9501 12.1328 21.9402V21.8805V17.0595V16.97C12.5503 16.7215 12.9579 16.4829 13.3754 16.2344C14.9857 15.2801 16.596 14.3358 18.1964 13.3815C18.2064 13.3915 18.2163 13.3815 18.2263 13.3716Z" fill="#62688F"/>
<path d="M12.1332 9.4153V9.39542V9.33577V2.11907C12.1332 2.08925 12.1232 2.06937 12.1431 2.03955C14.161 5.38945 16.1789 8.72941 18.1868 12.0793C18.2067 12.1091 18.2365 12.1489 18.2465 12.1887C18.1073 12.139 17.9781 12.0694 17.8489 12.0097C17.6898 11.9401 17.5208 11.8606 17.3618 11.791C17.2624 11.7413 17.153 11.7016 17.0536 11.6519C16.8847 11.5724 16.7157 11.5028 16.5467 11.4232C16.4473 11.3835 16.3479 11.3338 16.2485 11.2841L15.5924 10.9859C15.4831 10.9362 15.3737 10.8865 15.2544 10.8368L14.7773 10.628C14.6779 10.5883 14.5785 10.5386 14.4791 10.4889L13.823 10.1906C13.7137 10.1409 13.6043 10.0912 13.4851 10.0415L13.0079 9.83279C12.8986 9.78309 12.7992 9.73339 12.6898 9.68369C12.501 9.59422 12.3121 9.50476 12.1133 9.42524C12.1431 9.4153 12.1332 9.4153 12.1332 9.4153Z" fill="#62688F"/>
</svg>
