<svg width="32" height="32" viewBox="0 0 32 32" fill="none" xmlns="http://www.w3.org/2000/svg">
<path d="M1.33383 15.9994C1.33383 24.0996 7.90032 30.6661 16.0005 30.6661C24.1007 30.6661 30.6672 24.0996 30.6672 15.9994C30.6672 7.89926 24.1007 1.33276 16.0005 1.33276C7.90032 1.33276 1.33383 7.89926 1.33383 15.9994Z" fill="#3B3C4E"/>
<g clip-path="url(#clip0_3824_70990)">
<path d="M19.7822 24.266C19.0019 24.266 18.338 23.7142 18.1749 22.951C18.0934 22.5401 18.0002 22.0469 17.8954 21.4951C17.6159 19.91 17.1034 19.2995 15.9969 19.2525H14.8439V18.1254H16.1018C17.4062 18.1254 18.2332 17.2565 18.2332 15.9298C18.2332 14.4269 17.348 13.7694 16.0668 13.7694C15.8339 13.7694 14.3081 13.7694 12.5494 13.7694V23.5968C12.5494 23.902 12.3048 24.1369 12.0136 24.1369C11.7108 24.1369 11.4779 23.8903 11.4779 23.5968V13.7694C10.1152 13.7694 8.74082 13.7694 7.80906 13.7694C7.18011 13.7694 6.67929 13.2645 6.67929 12.6305C6.67929 12.6305 9.10188 12.6305 11.4779 12.6305V11.2568C11.4662 8.72072 13.1667 6.66602 15.2515 6.66602H18.7456C19.0485 6.66602 19.2814 6.91258 19.2814 7.20611C19.2814 7.49964 19.0368 7.7462 18.7456 7.7462H15.2515C13.7607 7.7462 12.5378 9.31952 12.5378 11.2568V12.607C14.2033 12.607 15.6475 12.607 15.9736 12.607C17.2665 12.607 18.1167 12.9123 18.7107 13.5581C19.1766 14.0629 19.4445 14.8496 19.4445 15.7537C19.4445 17.2683 18.6525 18.2898 17.6625 18.7007V18.7477C18.3846 19.0529 18.8155 19.8866 19.0485 21.0842C19.1999 21.8943 19.3396 22.5753 19.4561 23.1036C19.5842 23.6437 19.6891 24.0312 19.7822 24.266Z" fill="#53F3C3"/>
<path d="M22.5073 15.8828V16.3172C22.5073 16.5168 22.3442 16.6812 22.1462 16.6812H21.7386C21.5406 16.6812 21.3775 16.5168 21.3775 16.3172V15.8828C21.3775 15.6832 21.5406 15.5188 21.7386 15.5188H22.1462C22.3559 15.5188 22.5073 15.6832 22.5073 15.8828ZM22.484 18.3484V23.8433C22.484 24.0429 22.3209 24.2073 22.1229 24.2073H21.7735C21.5755 24.2073 21.4125 24.0429 21.4125 23.8433V18.3484C21.4125 18.1488 21.5755 17.9844 21.7735 17.9844H22.1229C22.3326 17.9844 22.484 18.1488 22.484 18.3484Z" fill="#53F3C3"/>
</g>
<defs>
<clipPath id="clip0_3824_70990">
<rect width="15.84" height="17.6" fill="white" transform="translate(6.66718 6.66602)"/>
</clipPath>
</defs>
</svg>
