<svg width="24" height="24" viewBox="0 0 24 24" fill="none" xmlns="http://www.w3.org/2000/svg">
<path fill-rule="evenodd" clip-rule="evenodd" d="M12 2C17.523 2 22 6.47705 22 12C22 17.5225 17.523 22 12 22C6.47705 22 2 17.5225 2 12C2 6.47705 6.47705 2 12 2Z" fill="#2775CA"/>
<path fill-rule="evenodd" clip-rule="evenodd" d="M10.1254 18.9527C10.1254 19.188 9.94124 19.3216 9.71374 19.2506C6.69021 18.286 4.49805 15.4509 4.49805 12.1057C4.49805 8.76057 6.69021 5.92534 9.71374 4.96079C9.94124 4.89022 10.1254 5.0234 10.1254 5.25863V5.83931C10.1254 5.99591 10.0041 6.18022 9.85487 6.23125C7.46271 7.10966 5.74907 9.40773 5.74907 12.1017C5.74907 14.7957 7.46271 17.0942 9.85487 17.9722C10.0041 18.0272 10.1254 18.2074 10.1254 18.3646V18.9527Z" fill="white"/>
<path fill-rule="evenodd" clip-rule="evenodd" d="M12.6233 16.7919C12.6233 16.9646 12.4821 17.1057 12.3096 17.1057H11.686C11.5135 17.1057 11.3724 16.9646 11.3724 16.7919V15.8038C10.0076 15.6196 9.34112 14.8547 9.16066 13.8156C9.12918 13.6389 9.27032 13.4782 9.45078 13.4782H10.1645C10.3135 13.4782 10.4391 13.5843 10.4704 13.733C10.6038 14.3527 10.9607 14.8272 12.0546 14.8272C12.8625 14.8272 13.4352 14.3762 13.4352 13.702C13.4352 13.0272 13.0978 12.7724 11.9135 12.5762C10.1645 12.341 9.33714 11.8114 9.33714 10.4389C9.33714 9.38016 10.1373 8.55675 11.3763 8.38016V7.41152C11.3763 7.23891 11.5176 7.09766 11.69 7.09766H12.3136C12.4861 7.09766 12.6273 7.23891 12.6273 7.41152V8.40766C13.6351 8.58834 14.2743 9.1605 14.4823 10.1095C14.5214 10.2902 14.3802 10.4585 14.196 10.4585H13.537C13.3959 10.4585 13.2783 10.3643 13.2352 10.2271C13.0587 9.62346 12.6273 9.36471 11.8782 9.36471C11.0508 9.36471 10.6233 9.76459 10.6233 10.3253C10.6233 10.9174 10.8666 11.2153 12.1373 11.3999C13.8546 11.6352 14.7411 12.1253 14.7411 13.5883C14.7411 14.698 13.9175 15.5961 12.6273 15.8038V16.7919H12.6233Z" fill="white"/>
<path fill-rule="evenodd" clip-rule="evenodd" d="M14.2862 19.2507C14.0589 19.3217 13.8745 19.1881 13.8745 18.9528V18.3726C13.8745 18.2 13.9804 18.0393 14.1451 17.9802C16.5372 17.1018 18.2509 14.8037 18.2509 12.1098C18.2509 9.41578 16.5372 7.11771 14.1451 6.2393C13.9961 6.1843 13.8745 6.00407 13.8745 5.84691V5.26669C13.8745 5.03146 14.0589 4.8943 14.2862 4.96839C17.3097 5.9335 19.5019 8.76862 19.5019 12.1137C19.4982 15.4509 17.3097 18.2822 14.2862 19.2507Z" fill="white"/>
</svg>
