<svg width="24" height="24" viewBox="0 0 24 24" fill="none" xmlns="http://www.w3.org/2000/svg">
<path d="M13.9101 10.09C14.4167 10.5965 14.7012 11.2836 14.7012 12C14.7012 12.7164 14.4167 13.4034 13.9101 13.91C13.4035 14.4165 12.7165 14.7011 12.0001 14.7011C11.2837 14.7011 10.5967 14.4165 10.0901 13.91C9.58353 13.4034 9.29895 12.7164 9.29895 12C9.29895 11.6453 9.36882 11.294 9.50456 10.9663C9.64031 10.6386 9.83927 10.3408 10.0901 10.09C10.3409 9.83915 10.6387 9.64019 10.9664 9.50444C11.2941 9.3687 11.6454 9.29883 12.0001 9.29883C12.7165 9.29883 13.4035 9.58341 13.9101 10.09" stroke="white" stroke-width="1.5" stroke-linecap="round" stroke-linejoin="round"/>
<path d="M5.25005 12C5.25005 12.297 5.27705 12.594 5.31305 12.882L3.72505 14.124C3.55473 14.2574 3.43829 14.4478 3.39714 14.6602C3.35598 14.8725 3.39288 15.0926 3.50105 15.28L4.91305 17.723C5.02119 17.9101 5.19316 18.0519 5.39742 18.1224C5.60167 18.193 5.82451 18.1875 6.02505 18.107L7.44705 17.536C7.58548 17.4824 7.73489 17.4634 7.88232 17.4807C8.02975 17.4979 8.17074 17.5509 8.29305 17.635C8.51305 17.781 8.74105 17.915 8.97705 18.035C9.24705 18.172 9.44305 18.417 9.48605 18.717L9.70305 20.23C9.76605 20.672 10.1451 21 10.5911 21H13.4081C13.624 21 13.8326 20.9221 13.9957 20.7807C14.1589 20.6393 14.2655 20.4437 14.2961 20.23L14.5131 18.718C14.5367 18.5712 14.5957 18.4323 14.6848 18.3134C14.774 18.1944 14.8908 18.0989 15.0251 18.035C15.2601 17.917 15.4871 17.784 15.7061 17.639C15.8287 17.554 15.9702 17.5002 16.1184 17.4825C16.2665 17.4647 16.4168 17.4834 16.5561 17.537L17.9751 18.107C18.1756 18.1873 18.3984 18.1927 18.6026 18.1221C18.8068 18.0516 18.9788 17.9099 19.0871 17.723L20.4991 15.28C20.6072 15.0926 20.6441 14.8725 20.603 14.6602C20.5618 14.4478 20.4454 14.2574 20.2751 14.124L18.6871 12.882C18.7231 12.594 18.7501 12.297 18.7501 12C18.7501 11.703 18.7231 11.406 18.6871 11.118L20.2751 9.876C20.4454 9.74261 20.5618 9.55222 20.603 9.33984C20.6441 9.12745 20.6072 8.90735 20.4991 8.72L19.0871 6.277C18.9789 6.08991 18.8069 5.94809 18.6027 5.87755C18.3984 5.80702 18.1756 5.8125 17.9751 5.893L16.5561 6.463C16.4167 6.51634 16.2665 6.53492 16.1184 6.51715C15.9703 6.49938 15.8288 6.44578 15.7061 6.361C15.4871 6.21555 15.2597 6.08332 15.0251 5.965C14.8908 5.90113 14.774 5.8056 14.6848 5.68663C14.5957 5.56766 14.5367 5.4288 14.5131 5.282L14.2971 3.77C14.2665 3.55627 14.1599 3.36074 13.9967 3.2193C13.8336 3.07785 13.625 2.99999 13.4091 3H10.5921C10.3762 2.99999 10.1675 3.07785 10.0044 3.2193C9.84125 3.36074 9.73462 3.55627 9.70405 3.77L9.48605 5.284C9.4624 5.43026 9.40377 5.56865 9.31515 5.68739C9.22653 5.80613 9.11054 5.90171 8.97705 5.966C8.74105 6.086 8.51305 6.221 8.29305 6.366C8.17036 6.44971 8.02918 6.50236 7.88164 6.51943C7.7341 6.5365 7.58462 6.51748 7.44605 6.464L6.02505 5.893C5.82451 5.8125 5.60167 5.80702 5.39742 5.87755C5.19316 5.94809 5.02119 6.08991 4.91305 6.277L3.50105 8.72C3.39288 8.90735 3.35598 9.12745 3.39714 9.33984C3.43829 9.55222 3.55473 9.74261 3.72505 9.876L5.31305 11.118C5.27385 11.4104 5.25281 11.705 5.25005 12V12Z" stroke="white" stroke-width="1.5" stroke-linecap="round" stroke-linejoin="round"/>
</svg>
