<svg width="16" height="16" viewBox="0 0 16 16" fill="none" xmlns="http://www.w3.org/2000/svg">
<path fill-rule="evenodd" clip-rule="evenodd" d="M13.3333 5.3335H2.66667C2.29867 5.3335 2 5.63216 2 6.00016V7.3335C2 7.7015 2.29867 8.00016 2.66667 8.00016H13.3333C13.7013 8.00016 14 7.7015 14 7.3335V6.00016C14 5.63216 13.7013 5.3335 13.3333 5.3335Z" stroke="white" stroke-width="1.5" stroke-linecap="round" stroke-linejoin="round"/>
<path d="M7.99999 14.0002V5.3335" stroke="white" stroke-width="1.5" stroke-linecap="round" stroke-linejoin="round"/>
<path d="M10.4641 4.4082C9.74547 5.1562 8.61413 5.33354 8.06613 5.33354" stroke="white" stroke-width="1.5" stroke-linecap="round" stroke-linejoin="round"/>
<path d="M8.06591 5.33357C8.06591 5.33357 7.73658 3.25624 8.54657 2.41357" stroke="white" stroke-width="1.5" stroke-linecap="round" stroke-linejoin="round"/>
<path d="M10.4639 4.40816C10.9932 3.85749 10.9932 2.96415 10.4639 2.41349C9.93457 1.86282 9.07657 1.86282 8.54724 2.41349" stroke="white" stroke-width="1.5" stroke-linecap="round" stroke-linejoin="round"/>
<path d="M5.5361 4.4082C6.25477 5.1562 7.3861 5.33354 7.9341 5.33354" stroke="white" stroke-width="1.5" stroke-linecap="round" stroke-linejoin="round"/>
<path d="M7.93413 5.33357C7.93413 5.33357 8.26347 3.25624 7.45347 2.41357" stroke="white" stroke-width="1.5" stroke-linecap="round" stroke-linejoin="round"/>
<path d="M5.53585 4.40816C5.00652 3.85749 5.00652 2.96415 5.53585 2.41349C6.06519 1.86282 6.92319 1.86282 7.45252 2.41349" stroke="white" stroke-width="1.5" stroke-linecap="round" stroke-linejoin="round"/>
<path d="M12.6667 8V13.3333C12.6667 13.7013 12.368 14 12 14H4.00001C3.63201 14 3.33334 13.7013 3.33334 13.3333V8" stroke="white" stroke-width="1.5" stroke-linecap="round" stroke-linejoin="round"/>
</svg>
