<svg width="40" height="40" viewBox="0 0 40 40" fill="none" xmlns="http://www.w3.org/2000/svg">
<path d="M1.6665 20.0001C1.6665 30.1253 9.87462 38.3334 19.9998 38.3334C30.1251 38.3334 38.3332 30.1253 38.3332 20.0001C38.3332 9.87486 30.1251 1.66675 19.9998 1.66675C9.87462 1.66675 1.6665 9.87486 1.6665 20.0001Z" fill="#09090C"/>
<g clip-path="url(#clip0_3806_11748)">
<path d="M24.7268 30.3335C23.7514 30.3335 22.9215 29.6437 22.7177 28.6897C22.6158 28.1761 22.4993 27.5596 22.3683 26.8699C22.0189 24.8885 21.3783 24.1254 19.9952 24.0667H18.5539V22.6577H20.1262C21.7568 22.6577 22.7905 21.5717 22.7905 19.9132C22.7905 18.0346 21.684 17.2127 20.0826 17.2127C19.7914 17.2127 17.8842 17.2127 15.6858 17.2127V29.4969C15.6858 29.8785 15.3801 30.1721 15.0161 30.1721C14.6376 30.1721 14.3464 29.8639 14.3464 29.4969V17.2127C12.643 17.2127 10.9251 17.2127 9.76035 17.2127C8.97417 17.2127 8.34814 16.5817 8.34814 15.7891C8.34814 15.7891 11.3764 15.7891 14.3464 15.7891V14.072C14.3318 10.9019 16.4574 8.3335 19.0634 8.3335H23.4311C23.8096 8.3335 24.1008 8.6417 24.1008 9.00861C24.1008 9.37552 23.7951 9.68373 23.4311 9.68373H19.0634C17.1999 9.68373 15.6712 11.6504 15.6712 14.072V15.7598C17.7531 15.7598 19.5584 15.7598 19.9661 15.7598C21.5821 15.7598 22.6449 16.1414 23.3874 16.9486C23.9698 17.5797 24.3046 18.563 24.3046 19.6931C24.3046 21.5863 23.3146 22.8632 22.0771 23.3769V23.4356C22.9798 23.8172 23.5184 24.8592 23.8096 26.3562C23.9989 27.3689 24.1736 28.2201 24.3192 28.8805C24.4793 29.5556 24.6103 30.04 24.7268 30.3335Z" fill="white"/>
<path d="M28.1334 19.8546V20.3977C28.1334 20.6472 27.9296 20.8526 27.6821 20.8526H27.1725C26.925 20.8526 26.7212 20.6472 26.7212 20.3977V19.8546C26.7212 19.6051 26.925 19.3997 27.1725 19.3997H27.6821C27.9441 19.3997 28.1334 19.6051 28.1334 19.8546ZM28.1043 22.9367V29.8053C28.1043 30.0548 27.9005 30.2602 27.653 30.2602H27.2162C26.9687 30.2602 26.7649 30.0548 26.7649 29.8053V22.9367C26.7649 22.6872 26.9687 22.4817 27.2162 22.4817H27.653C27.915 22.4817 28.1043 22.6872 28.1043 22.9367Z" fill="white"/>
</g>
<defs>
<clipPath id="clip0_3806_11748">
<rect width="19.8" height="22" fill="white" transform="translate(8.33301 8.3335)"/>
</clipPath>
</defs>
</svg>
