<svg width="24" height="24" viewBox="0 0 24 24" fill="none" xmlns="http://www.w3.org/2000/svg">
<path d="M1 12C1 18.0751 5.92487 23 12 23C18.0751 23 23 18.0751 23 12C23 5.92487 18.0751 1 12 1C5.92487 1 1 5.92487 1 12Z" fill="#09090C"/>
<g clip-path="url(#clip0_3806_5366)">
<path d="M14.8365 18.2C14.2512 18.2 13.7533 17.7861 13.631 17.2137C13.5699 16.9055 13.5 16.5357 13.4214 16.1218C13.2117 14.933 12.8274 14.4751 11.9975 14.4399H11.1327V13.5945H12.0761C13.0545 13.5945 13.6747 12.9429 13.6747 11.9478C13.6747 10.8207 13.0108 10.3276 12.0499 10.3276C11.8752 10.3276 10.7309 10.3276 9.41186 10.3276V17.6981C9.41186 17.927 9.22842 18.1031 9.01004 18.1031C8.78292 18.1031 8.60822 17.9182 8.60822 17.6981V10.3276C7.58619 10.3276 6.55542 10.3276 5.8566 10.3276C5.38489 10.3276 5.00928 9.9489 5.00928 9.47338C5.00928 9.47338 6.82622 9.47338 8.60822 9.47338V8.4431C8.59948 6.54103 9.87484 5 11.4385 5H14.059C14.2862 5 14.4609 5.18492 14.4609 5.40507C14.4609 5.62522 14.2774 5.81014 14.059 5.81014H11.4385C10.3203 5.81014 9.40313 6.99013 9.40313 8.4431V9.45577C10.6523 9.45577 11.7355 9.45577 11.98 9.45577C12.9497 9.45577 13.5873 9.68472 14.0328 10.169C14.3822 10.5477 14.5832 11.1377 14.5832 11.8157C14.5832 12.9517 13.9892 13.7178 13.2467 14.026V14.0612C13.7882 14.2902 14.1115 14.9154 14.2862 15.8136C14.3997 16.4212 14.5045 16.932 14.5919 17.3282C14.688 17.7333 14.7666 18.0239 14.8365 18.2Z" fill="white"/>
<path d="M16.88 11.9126V12.2384C16.88 12.3881 16.7577 12.5114 16.6092 12.5114H16.3035C16.155 12.5114 16.0327 12.3881 16.0327 12.2384V11.9126C16.0327 11.7629 16.155 11.6396 16.3035 11.6396H16.6092C16.7665 11.6396 16.88 11.7629 16.88 11.9126ZM16.8626 13.7619V17.883C16.8626 18.0327 16.7403 18.156 16.5918 18.156H16.3297C16.1812 18.156 16.0589 18.0327 16.0589 17.883V13.7619C16.0589 13.6122 16.1812 13.4889 16.3297 13.4889H16.5918C16.749 13.4889 16.8626 13.6122 16.8626 13.7619Z" fill="white"/>
</g>
<defs>
<clipPath id="clip0_3806_5366">
<rect width="11.88" height="13.2" fill="white" transform="translate(5 5)"/>
</clipPath>
</defs>
</svg>
