<svg width="24" height="24" viewBox="0 0 24 24" fill="none" xmlns="http://www.w3.org/2000/svg">
<path fill-rule="evenodd" clip-rule="evenodd" d="M12 2C17.523 2 22 6.47705 22 12C22 17.5225 17.523 22 12 22C6.47705 22 2 17.5225 2 12C2 6.47705 6.47705 2 12 2Z" fill="#2775CA"/>
<path fill-rule="evenodd" clip-rule="evenodd" d="M10.1257 18.9527C10.1257 19.188 9.94148 19.3216 9.71398 19.2506C6.69045 18.286 4.49829 15.4509 4.49829 12.1057C4.49829 8.76057 6.69045 5.92534 9.71398 4.96079C9.94148 4.89022 10.1257 5.0234 10.1257 5.25863V5.83932C10.1257 5.99591 10.0043 6.18022 9.85512 6.23125C7.46296 7.10966 5.74932 9.40773 5.74932 12.1017C5.74932 14.7957 7.46296 17.0942 9.85512 17.9722C10.0043 18.0272 10.1257 18.2074 10.1257 18.3646V18.9527Z" fill="white"/>
<path fill-rule="evenodd" clip-rule="evenodd" d="M12.6235 16.7919C12.6235 16.9646 12.4824 17.1057 12.3099 17.1057H11.6863C11.5138 17.1057 11.3726 16.9646 11.3726 16.7919V15.8038C10.0078 15.6196 9.34136 14.8547 9.16091 13.8156C9.12943 13.6389 9.27057 13.4782 9.45102 13.4782H10.1648C10.3137 13.4782 10.4393 13.5843 10.4707 13.733C10.6041 14.3527 10.9609 14.8272 12.0549 14.8272C12.8627 14.8272 13.4355 14.3762 13.4355 13.702C13.4355 13.0272 13.0981 12.7724 11.9138 12.5762C10.1648 12.341 9.33738 11.8114 9.33738 10.4389C9.33738 9.38016 10.1375 8.55675 11.3766 8.38016V7.41152C11.3766 7.23891 11.5178 7.09766 11.6902 7.09766H12.3139C12.4864 7.09766 12.6275 7.23891 12.6275 7.41152V8.40766C13.6353 8.58834 14.2745 9.1605 14.4825 10.1095C14.5216 10.2902 14.3805 10.4585 14.1963 10.4585H13.5373C13.3961 10.4585 13.2785 10.3643 13.2355 10.2271C13.059 9.62346 12.6275 9.36471 11.8784 9.36471C11.051 9.36471 10.6235 9.76459 10.6235 10.3253C10.6235 10.9174 10.8668 11.2153 12.1375 11.3999C13.8549 11.6352 14.7414 12.1253 14.7414 13.5883C14.7414 14.698 13.9177 15.5961 12.6275 15.8038V16.7919H12.6235Z" fill="white"/>
<path fill-rule="evenodd" clip-rule="evenodd" d="M14.2862 19.2507C14.0589 19.3217 13.8745 19.1881 13.8745 18.9528V18.3726C13.8745 18.2 13.9804 18.0393 14.1451 17.9802C16.5372 17.1018 18.2509 14.8037 18.2509 12.1098C18.2509 9.41578 16.5372 7.11771 14.1451 6.2393C13.9961 6.1843 13.8745 6.00407 13.8745 5.84691V5.26669C13.8745 5.03146 14.0589 4.8943 14.2862 4.96839C17.3097 5.9335 19.5019 8.76862 19.5019 12.1137C19.4982 15.4509 17.3097 18.2822 14.2862 19.2507Z" fill="white"/>
</svg>
