<svg width="40" height="40" viewBox="0 0 40 40" fill="none" xmlns="http://www.w3.org/2000/svg">
<path d="M11.27 22.2842L12.1518 15.6584L4.50269 10.3483L11.4916 12.7157L13.1422 10.1832L19.169 6.44354L32.4536 13.7626L33.1422 24.9298L27.2237 33.1543L22.5456 33.8711L24.9648 29.4429V25.1797L23.2058 21.8503L21.4185 20.6666L18.6692 23.5009V26.5002L16.5234 28.5091L13.7977 28.8392L12.5904 29.523L10.6097 28.8911L9.78446 25.9201L11.27 23.831V22.2842Z" fill="white"/>
<path d="M23.4837 10.2917C22.0265 9.98984 20.4325 10.07 20.4325 10.07C20.4325 10.07 19.9091 12.4893 16.6646 13.1259C16.6881 13.1259 20.9513 14.5831 23.4837 10.2917Z" fill="#94A6C3"/>
<path d="M24.8041 32.2441C26.5631 30.867 27.8835 28.9713 28.4919 26.8255C28.5202 26.7454 28.7654 26.6039 28.9305 26.4954C29.204 26.3304 29.4822 26.1936 29.5341 25.972C29.6426 25.34 29.6992 24.6798 29.6992 24.0196C29.6992 23.7744 29.4492 23.5244 29.204 23.2792C29.0106 23.1142 28.8173 22.9208 28.8173 22.784C28.5438 20.2799 27.3884 17.9408 25.5445 16.2384L25.3511 16.4318C27.1384 18.1106 28.2938 20.3931 28.5438 22.8123C28.5721 23.034 28.789 23.2509 29.0106 23.4726C29.204 23.6376 29.4256 23.8876 29.4256 23.996C29.4256 24.6279 29.369 25.2599 29.2606 25.8918C29.2323 26.0003 28.9871 26.1134 28.7937 26.2219C28.5202 26.3587 28.2702 26.4954 28.2184 26.7171C27.5582 29.0561 26.0444 31.0934 24.0354 32.4138C24.3938 31.6452 25.5209 29.141 26.1245 27.8725L26.0161 23.8027L22.5216 20.4214L20.541 20.6949L18.3669 24.2177C18.3669 24.2177 19.3856 25.5098 17.9519 27.0236C16.5513 28.5091 15.4478 28.8392 15.4478 28.8392L14.4292 28.2875C14.731 27.9008 15.3394 27.3254 15.8062 26.9387C16.6032 26.2785 17.4002 26.2219 17.4002 25.5098C17.4332 24.0196 15.8345 24.4299 15.8345 24.4299L15.2545 24.9816L15.0093 27.0189L13.802 28.5327L13.6652 28.5044L11.6846 28.0658C11.6846 28.0658 12.8965 27.4339 13.0899 26.7171C13.2832 26.0286 12.7032 23.7461 12.6749 23.6093C12.7032 23.6376 13.255 24.1045 13.5002 24.8732C13.9388 23.6612 14.5188 22.5058 14.6839 22.3973C14.8489 22.2889 17.0748 21.1052 17.0748 21.1052L16.3344 23.0576L16.8862 22.7557L18.2066 19.5112C18.2066 19.5112 19.4987 18.8793 20.4608 18.8793C22.1915 18.851 24.7522 16.7336 23.5968 12.9373C23.9269 13.0741 29.6473 15.9366 30.6376 21.5485C31.378 25.8635 28.9305 29.905 24.8041 32.2441Z" fill="#94A6C3"/>
<path d="M18.2588 10.8953C18.8908 10.1502 18.6455 9.05139 18.6455 9.05139L16.8016 11.7771C16.7733 11.7771 17.4571 11.8054 18.2588 10.8953Z" fill="#1B314F"/>
<path d="M12.0668 25.7786L12.2885 24.6797C12.2885 24.6797 11.3783 26.2738 11.2981 26.4954C11.2133 26.7454 11.3547 27.1839 11.7084 27.1557C12.0668 27.1274 12.5054 26.6039 12.5054 26.2219C12.5054 25.7267 12.0668 25.7786 12.0668 25.7786Z" fill="#1B314F"/>
<path d="M28.4075 8.28272C28.4075 8.28272 29.7845 8.33931 31.2134 8.50437C27.9925 5.97195 24.9413 5.23155 22.4655 5.23155C19.0559 5.23155 16.7451 6.63688 16.6036 6.71705L17.6789 5.00991C17.6789 5.00991 13.3874 4.59491 11.8736 9.13629C11.4869 8.17426 11.1332 6.76893 11.1332 6.76893C11.1332 6.76893 8.90263 8.72601 9.94955 11.9705C7.38883 11.0368 3.73403 9.73993 3.59256 9.71635C3.39921 9.68805 3.34262 9.77294 3.34262 9.77294C3.34262 9.77294 3.28603 9.85311 3.45108 9.99458C3.75761 10.2351 9.53455 14.503 10.8031 15.3282C10.5296 16.3186 10.5296 16.7854 10.8031 17.2523C11.1898 17.8842 11.2134 18.2143 11.1615 18.6812C11.1049 19.1481 10.6098 23.1943 10.5013 23.6895C10.3928 24.1846 9.23745 25.9437 9.28933 26.4671C9.34592 26.9906 10.058 29.2165 10.6947 29.4664C11.1615 29.6315 12.3169 29.9899 13.0856 29.9899C13.3591 29.9899 13.6091 29.9333 13.7175 29.8248C14.1844 29.4145 14.3212 29.3297 14.6513 29.3297C14.6796 29.3297 14.7079 29.3297 14.7314 29.3297C14.8682 29.3297 15.0333 29.3579 15.2266 29.3579C15.6652 29.3579 16.2452 29.2731 16.6555 28.8911C17.2591 28.2874 18.3061 27.4622 18.6362 27.0755C19.0512 26.552 19.2681 25.8399 19.1596 25.1231C19.0748 24.4629 19.4332 23.8828 19.8482 23.3075C20.3716 22.619 21.3337 21.3834 21.3337 21.3834C23.2342 22.8076 24.4178 24.9816 24.4178 27.4009C24.4178 31.6923 20.6782 35.1585 16.0566 35.1585C15.3398 35.1585 14.656 35.0783 13.9675 34.9132C16.0849 35.6536 17.8722 35.9036 19.3341 35.9036C22.4419 35.9036 24.0924 34.7765 24.0924 34.7765C24.0924 34.7765 23.5171 35.5216 22.5787 36.3704C22.6069 36.3704 22.6069 36.3704 22.6069 36.3704C27.752 35.6536 30.2561 31.4188 30.2561 31.4188C30.2561 31.4188 30.0627 32.7958 29.8175 33.7296C36.6602 28.5845 35.5049 22.1474 35.4766 21.9305C35.5331 22.0106 36.2217 22.8359 36.5754 23.2792C37.6789 11.9422 28.4075 8.28272 28.4075 8.28272ZM17.8722 26.3869C17.7637 26.5237 17.2969 26.9387 16.9668 27.2405C16.6367 27.5423 16.2782 27.8442 16.0047 28.1224C15.8963 28.2309 15.6746 28.2874 15.3445 28.2874C15.236 28.2874 15.1229 28.2874 15.0427 28.2874C14.9861 28.2874 14.9342 28.2874 14.8776 28.2874C14.821 28.2874 14.7927 28.2874 14.7692 28.2874C14.6843 28.2874 14.6041 28.2874 14.5192 28.2874C14.9342 27.7357 16.1415 26.4718 16.5565 26.1983C17.0517 25.8682 17.3016 25.5381 16.9951 24.9628C16.6932 24.3827 15.8963 24.5242 15.8963 24.5242C15.8963 24.5242 16.3631 24.3308 16.7781 24.3308C16.2547 24.1941 15.5944 24.3308 15.2926 24.6326C14.9625 24.9345 15.0191 26.0097 14.8824 26.6935C14.7456 27.4103 14.2787 27.7687 13.5619 28.4289C13.1752 28.7873 12.9017 28.8958 12.68 28.8958C12.2132 28.8156 11.6614 28.6741 11.2747 28.5374C11.0012 28.179 10.5862 26.9953 10.4777 26.5001C10.5579 26.2266 10.888 25.6466 11.0531 25.3164C11.3832 24.6845 11.5765 24.3261 11.6331 23.996C11.7416 23.5291 12.1 20.6383 12.2367 19.431C12.5952 19.8979 13.0903 20.6713 12.9771 21.1665C13.7741 20.0394 13.1988 18.9359 12.9205 18.4973C12.6753 18.0587 12.3452 17.1769 12.6187 16.2431C12.8923 15.3094 13.8826 12.7204 13.8826 12.7204C13.8826 12.7204 14.2127 13.3004 14.6796 13.1872C15.1464 13.0788 18.9144 7.41029 18.9144 7.41029C18.9144 7.41029 19.933 9.63618 18.8578 11.2632C17.759 12.8854 16.6838 13.1872 16.6838 13.1872C16.6838 13.1872 18.1976 13.4607 19.5982 12.4421C20.1736 13.7909 20.7253 15.1915 20.7536 15.3848C20.6687 15.5782 19.5699 18.2191 19.4615 18.3841C19.4049 18.4407 19.0229 18.5492 18.7446 18.6058C18.2778 18.7425 18.0043 18.8274 17.8911 18.9076C17.6977 19.0726 16.8159 21.4919 16.4056 22.6756C15.9104 22.8123 15.4152 23.0906 15.0568 23.6376C15.2502 23.5008 15.8538 23.4159 16.2971 23.3641C16.6838 23.3358 17.8628 23.9677 18.1693 25.1514C18.1693 25.1797 18.1693 25.1797 18.1693 25.208C18.2306 25.6418 18.0939 26.0568 17.8722 26.3869ZM15.2879 26.7171C15.5379 26.3587 15.5096 25.755 15.5379 25.5617C15.5662 25.3683 15.618 25.0099 15.8397 24.958C16.0613 24.9014 16.5848 24.9863 16.5848 25.3683C16.5848 25.7267 16.1981 25.8069 15.9246 26.0568C15.7265 26.2455 15.3398 26.6605 15.2879 26.7171ZM26.2617 21.4589C26.5353 20.0583 26.5636 18.8463 26.4834 17.8559C27.5539 19.2848 28.2141 21.0203 28.4075 22.8076C28.4358 23.0292 28.6527 23.2462 28.8743 23.4678C29.0677 23.6329 29.2893 23.8545 29.2893 23.9913C29.2893 24.6232 29.2327 25.2551 29.1243 25.8918C29.096 25.972 28.8508 26.1134 28.6574 26.2219C28.3839 26.3587 28.1339 26.4954 28.0821 26.7171C27.4784 28.8345 26.1816 30.7067 24.4509 32.0271C27.0069 29.3579 28.2424 24.9533 26.2617 21.4589ZM24.531 32.2724C26.3183 30.8953 27.6954 28.9712 28.299 26.7972C28.3273 26.7171 28.5725 26.5756 28.7376 26.4671C29.0111 26.3304 29.2893 26.1653 29.3412 25.9437C29.4497 25.3117 29.5063 24.6515 29.5063 23.9913C29.5063 23.7461 29.2563 23.4961 29.0111 23.2509C28.8743 23.0858 28.6527 22.8925 28.6527 22.7557C28.431 20.7468 27.6341 18.851 26.3985 17.2806C25.8467 13.9795 23.6492 12.9609 23.5926 12.9326C23.6492 13.0175 25.0781 15.0783 24.0877 17.4975C23.0691 19.9451 20.4565 19.5631 20.2349 19.5867C20.0132 19.5867 19.1644 20.6855 18.0891 22.7227C17.9524 22.6661 17.3723 22.5294 16.7121 22.6425C17.2073 21.2655 17.9524 19.3131 18.0891 19.1481C18.1457 19.0915 18.556 18.983 18.8343 18.9029C19.3577 18.7661 19.6029 18.6812 19.6878 18.5728C19.7444 18.4879 20.0179 17.8559 20.2915 17.1957C20.5414 17.1957 21.1733 17.1391 21.2252 17.1108C21.2818 17.0542 21.8052 15.7102 21.8052 15.5452C21.8052 15.4084 20.73 12.7392 20.3197 11.7206C20.5131 11.4989 20.7065 11.2254 20.8951 10.9236C26.5353 11.532 30.9399 16.3186 30.9399 22.1191C30.9399 26.5756 28.3273 30.4567 24.531 32.2724Z" fill="#1B314F"/>
<path d="M17.2118 17.4174C17.7352 16.8137 17.4617 15.6866 16.4949 15.4933C16.7449 14.918 17.0986 13.7626 17.0986 13.7626C17.0986 13.7626 14.2926 18.1625 14.0474 18.2474C13.7975 18.3322 13.5522 17.3655 13.5522 17.3655C13.0288 19.3744 14.4341 19.648 14.5992 19.016C15.3678 18.818 16.6883 17.9927 17.2118 17.4174Z" fill="#1B314F"/>
<path d="M14.8162 18.4879L16.2451 16.0403C16.2451 16.0403 17.0703 16.4553 16.6553 17.1156C16.1366 17.8842 14.8162 18.4879 14.8162 18.4879Z" fill="#FFD923"/>
<path d="M32.5053 29.8248C32.0903 30.3765 31.6235 30.9519 31.0764 31.5036C34.6227 24.6798 31.2415 18.436 31.1047 18.1907C31.3546 18.4407 31.5999 18.7142 31.8215 18.9594C34.5426 21.9823 34.8727 26.5237 32.5053 29.8248Z" fill="#D82122"/>
<path d="M35.8064 21.0486C34.5661 17.7192 32.8071 14.8849 28.9306 12.3289C25.1909 9.85307 21.173 10.0464 20.9514 10.0747C20.9231 10.0747 20.8948 10.0747 20.8948 10.0747C21.0315 10.0181 21.1683 9.98983 21.3051 9.96625C22.1586 9.69273 23.2574 9.47108 24.3609 9.33432C27.2801 8.91461 30.2228 9.90494 32.2317 12.0271C32.26 12.0554 32.26 12.0554 32.2883 12.0837C34.5708 14.5029 35.7545 17.5258 35.8064 21.0486Z" fill="#D82122"/>
<path d="M28.049 7.42918C23.9509 6.66049 21.31 7.04248 19.4095 7.75929C19.3529 7.53765 19.1595 7.09907 18.9945 6.74066C18.4238 7.42918 17.8155 8.25446 17.4335 8.77792C16.3866 9.49474 15.948 10.1833 15.948 10.1833C16.5516 8.1177 18.3154 6.58032 20.4611 6.19362C21.0647 6.08516 21.725 6.02856 22.4418 6.02856C24.3376 6.05686 26.2333 6.52373 28.049 7.42918Z" fill="#D82122"/>
<path d="M12.8921 12.7109C9.67591 12.6024 10.7464 8.85804 10.803 8.64111C10.803 8.66941 11.0199 11.5838 12.8921 12.7109Z" fill="#D82122"/>
<path d="M16.0564 5.97192C13.5806 7.45742 14.0757 11.0038 14.0757 11.0038C11.7083 7.40555 15.8631 6.05681 16.0564 5.97192Z" fill="#D82122"/>
<path d="M11.9865 13.7013C12.1516 13.838 12.3166 14.088 12.1233 14.4464C12.0148 14.6397 11.8497 14.6114 11.5998 14.503C11.2697 14.3379 9.28902 13.1825 7.50171 11.9988C9.53896 12.7157 11.5998 13.4843 11.9299 13.6494C11.9299 13.6494 11.9582 13.6777 11.9865 13.7013Z" fill="white"/>
</svg>
