<svg width="32" height="32" viewBox="0 0 32 32" fill="none" xmlns="http://www.w3.org/2000/svg">
<path fill-rule="evenodd" clip-rule="evenodd" d="M15.9999 2.66675C23.3638 2.66675 29.3332 8.63615 29.3332 16.0001C29.3332 23.3635 23.3638 29.3335 15.9999 29.3335C8.63591 29.3335 2.6665 23.3635 2.6665 16.0001C2.6665 8.63615 8.63591 2.66675 15.9999 2.66675Z" fill="#2775CA"/>
<path fill-rule="evenodd" clip-rule="evenodd" d="M13.5012 25.2705C13.5012 25.5841 13.2556 25.7623 12.9523 25.6676C8.92093 24.3815 5.99805 20.6014 5.99805 16.1411C5.99805 11.6809 8.92093 7.90061 12.9523 6.61455C13.2556 6.52046 13.5012 6.69804 13.5012 7.01167V7.78592C13.5012 7.9947 13.3394 8.24046 13.1405 8.30849C9.95093 9.47971 7.66608 12.5438 7.66608 16.1358C7.66608 19.7278 9.95093 22.7925 13.1405 23.9631C13.3394 24.0364 13.5012 24.2767 13.5012 24.4862V25.2705Z" fill="white"/>
<path fill-rule="evenodd" clip-rule="evenodd" d="M16.8312 22.3893C16.8312 22.6196 16.643 22.8077 16.413 22.8077H15.5815C15.3515 22.8077 15.1633 22.6196 15.1633 22.3893V21.0718C13.3436 20.8262 12.455 19.8064 12.2144 18.4209C12.1724 18.1853 12.3606 17.9711 12.6012 17.9711H13.5529C13.7515 17.9711 13.9189 18.1124 13.9607 18.3108C14.1386 19.137 14.6144 19.7697 16.073 19.7697C17.1501 19.7697 17.9138 19.1683 17.9138 18.2694C17.9138 17.3697 17.4639 17.03 15.8848 16.7683C13.5529 16.4547 12.4497 15.7486 12.4497 13.9186C12.4497 12.507 13.5165 11.4091 15.1686 11.1736V9.88211C15.1686 9.65196 15.357 9.46362 15.5868 9.46362H16.4183C16.6483 9.46362 16.8365 9.65196 16.8365 9.88211V11.2103C18.1803 11.4512 19.0326 12.2141 19.3098 13.4794C19.362 13.7203 19.1738 13.9447 18.9282 13.9447H18.0495C17.8614 13.9447 17.7045 13.8191 17.6471 13.6362C17.4118 12.8314 16.8365 12.4864 15.8377 12.4864C14.7345 12.4864 14.1645 13.0195 14.1645 13.7671C14.1645 14.5567 14.4889 14.9538 16.1832 15.2C18.473 15.5136 19.655 16.1671 19.655 18.1179C19.655 19.5974 18.5568 20.7949 16.8365 21.0718V22.3893H16.8312Z" fill="white"/>
<path fill-rule="evenodd" clip-rule="evenodd" d="M19.0485 25.6676C18.7454 25.7623 18.4995 25.5841 18.4995 25.2705V24.4968C18.4995 24.2667 18.6407 24.0524 18.8603 23.9736C22.0498 22.8024 24.3347 19.7383 24.3347 16.1464C24.3347 12.5544 22.0498 9.49028 18.8603 8.31907C18.6616 8.24573 18.4995 8.00543 18.4995 7.79588V7.02225C18.4995 6.70861 18.7454 6.52573 19.0485 6.62452C23.0798 7.91134 26.0027 11.6915 26.0027 16.1517C25.9977 20.6012 23.0798 24.3762 19.0485 25.6676Z" fill="white"/>
</svg>
