<svg width="40" height="40" viewBox="0 0 40 40" fill="none" xmlns="http://www.w3.org/2000/svg">
<path d="M1.66675 20C1.66675 30.1252 9.87486 38.3333 20.0001 38.3333C30.1253 38.3333 38.3334 30.1252 38.3334 20C38.3334 9.87477 30.1253 1.66666 20.0001 1.66666C9.87486 1.66666 1.66675 9.87477 1.66675 20Z" fill="#09090C"/>
<g clip-path="url(#clip0_3816_19158)">
<path d="M24.7273 30.3333C23.7519 30.3333 22.922 29.6435 22.7182 28.6896C22.6163 28.1759 22.4998 27.5595 22.3688 26.8697C22.0194 24.8884 21.3788 24.1252 19.9957 24.0665H18.5544V22.6575H20.1267C21.7573 22.6575 22.791 21.5715 22.791 19.913C22.791 18.0344 21.6845 17.2126 20.083 17.2126C19.7919 17.2126 17.8847 17.2126 15.6863 17.2126V29.4968C15.6863 29.8783 15.3805 30.1719 15.0166 30.1719C14.638 30.1719 14.3469 29.8637 14.3469 29.4968V17.2126C12.6435 17.2126 10.9255 17.2126 9.76084 17.2126C8.97466 17.2126 8.34863 16.5815 8.34863 15.789C8.34863 15.789 11.3769 15.789 14.3469 15.789V14.0718C14.3323 10.9017 16.4579 8.33331 19.0639 8.33331H23.4316C23.8101 8.33331 24.1013 8.64152 24.1013 9.00843C24.1013 9.37534 23.7955 9.68355 23.4316 9.68355H19.0639C17.2004 9.68355 15.6717 11.6502 15.6717 14.0718V15.7596C17.7536 15.7596 19.5589 15.7596 19.9666 15.7596C21.5826 15.7596 22.6454 16.1412 23.3879 16.9484C23.9702 17.5795 24.3051 18.5628 24.3051 19.6929C24.3051 21.5861 23.3151 22.863 22.0776 23.3767V23.4354C22.9802 23.817 23.5189 24.859 23.8101 26.356C23.9994 27.3687 24.1741 28.2199 24.3197 28.8803C24.4798 29.5555 24.6108 30.0398 24.7273 30.3333Z" fill="white"/>
<path d="M28.1336 19.8543V20.3974C28.1336 20.6469 27.9298 20.8523 27.6823 20.8523H27.1728C26.9253 20.8523 26.7214 20.6469 26.7214 20.3974V19.8543C26.7214 19.6048 26.9253 19.3994 27.1728 19.3994H27.6823C27.9444 19.3994 28.1336 19.6048 28.1336 19.8543ZM28.1045 22.9364V29.805C28.1045 30.0545 27.9007 30.2599 27.6532 30.2599H27.2164C26.9689 30.2599 26.7651 30.0545 26.7651 29.805V22.9364C26.7651 22.6869 26.9689 22.4814 27.2164 22.4814H27.6532C27.9153 22.4814 28.1045 22.6869 28.1045 22.9364Z" fill="white"/>
</g>
<defs>
<clipPath id="clip0_3816_19158">
<rect width="19.8" height="22" fill="white" transform="translate(8.3335 8.33331)"/>
</clipPath>
</defs>
</svg>
