<svg width="40" height="40" viewBox="0 0 40 40" fill="none" xmlns="http://www.w3.org/2000/svg">
<path d="M20.2391 3.38301V3.39958C20.2557 3.48242 20.2557 3.58182 20.2557 3.68123V15.6262C20.2391 15.6925 20.1894 15.7091 20.1397 15.7422C19.7918 15.9079 19.4604 16.057 19.1125 16.2061C18.6321 16.4215 18.135 16.6534 17.6546 16.8688L15.915 17.664C15.4346 17.8794 14.9541 18.0947 14.4903 18.3101C13.927 18.5752 13.3471 18.8237 12.7838 19.0888C12.3034 19.3042 11.8229 19.5361 11.3259 19.7515C10.9283 19.9337 10.5307 20.0994 10.1496 20.2816C10.1165 20.2982 10.0834 20.3148 10.0502 20.3148C10.0337 20.3148 10.0337 20.3148 10.0171 20.2982L10.4644 19.5527C11.3259 18.1279 12.1708 16.7197 13.0323 15.2949C13.9435 13.7707 14.8713 12.2465 15.7825 10.7223C16.6274 9.31409 17.4889 7.90588 18.3339 6.49766C18.9468 5.47049 19.5764 4.44332 20.1894 3.41615C20.206 3.38301 20.2225 3.36645 20.2225 3.33331H20.2391C20.2225 3.34988 20.2391 3.36645 20.2391 3.38301Z" fill="#8A92B2"/>
<path d="M30.4108 20.2982L30.4273 20.3148L27.9919 21.7561L20.3379 26.279C20.3047 26.2956 20.2716 26.3121 20.255 26.3287C20.2053 26.3287 20.2053 26.279 20.2053 26.2624V26.1133V15.8748C20.2053 15.8251 20.2053 15.7588 20.2219 15.7091C20.2385 15.6428 20.2882 15.6594 20.3379 15.676C20.5532 15.7754 20.7852 15.8748 21.0006 15.9742C21.6467 16.2724 22.2928 16.5706 22.9389 16.8522C23.5022 17.1007 24.0489 17.3658 24.6122 17.6143C25.1755 17.8628 25.7388 18.1279 26.3021 18.3764C26.7825 18.5918 27.2795 18.8237 27.76 19.0391C28.2404 19.2545 28.7375 19.4864 29.2179 19.7018C29.599 19.8675 29.98 20.0497 30.3611 20.2154C30.3611 20.2651 30.3776 20.2816 30.4108 20.2982Z" fill="#454A75"/>
<path d="M20.2384 36.6169C20.2384 36.6335 20.2218 36.6501 20.2218 36.6666H20.2052C20.2052 36.6335 20.1721 36.6169 20.1555 36.5838C19.1284 35.1425 18.1012 33.6845 17.074 32.2432C16.0303 30.7687 14.97 29.2776 13.9262 27.8032C12.9156 26.3784 11.8885 24.937 10.8779 23.5122C10.6128 23.1312 10.3477 22.7667 10.0826 22.3857C10.0661 22.3525 10.0495 22.336 10.0164 22.2863C10.0661 22.2863 10.0992 22.3194 10.1158 22.336C11.5571 23.1809 12.9819 24.0258 14.4232 24.8707C16.08 25.8482 17.7201 26.8257 19.3769 27.8032L20.2218 28.3002C20.2549 28.3333 20.2549 28.3664 20.2549 28.3996V36.385C20.2549 36.4678 20.2549 36.5507 20.2384 36.6169Z" fill="#8A92B2"/>
<path d="M10 20.3313V20.3148C10.5302 20.0828 11.0437 19.8343 11.5739 19.6024C12.2531 19.2876 12.9324 18.9894 13.6117 18.6746C14.1252 18.4427 14.6554 18.1942 15.169 17.9622C15.9311 17.6143 16.6766 17.283 17.4387 16.935C17.9523 16.7031 18.4659 16.4712 18.996 16.2226C19.3605 16.057 19.7415 15.8913 20.106 15.7256C20.1392 15.7091 20.1889 15.6925 20.2054 15.6594C20.222 15.6594 20.222 15.6759 20.2054 15.6925V26.2127C20.2054 26.2624 20.1889 26.3121 20.222 26.3452C20.1889 26.3949 20.1557 26.3452 20.1392 26.3287C19.9901 26.2458 19.841 26.163 19.6918 26.0636C16.4944 24.1749 13.2803 22.2697 10.0828 20.381C10.0663 20.3645 10.0331 20.3479 10 20.3313Z" fill="#62688F"/>
<path d="M30.3779 22.2863H30.3945C30.3945 22.3194 30.3613 22.3525 30.3448 22.3857C27.2964 26.6766 24.248 30.9841 21.1996 35.275C20.8849 35.7223 20.5535 36.1696 20.2387 36.6169C20.2222 36.6004 20.2222 36.5838 20.2222 36.5672V36.4678V28.4327V28.2836C20.918 27.8694 21.5973 27.4718 22.2931 27.0576C24.977 25.4672 27.6609 23.8933 30.3282 22.3028C30.3448 22.3194 30.3613 22.3028 30.3779 22.2863Z" fill="#62688F"/>
<path d="M20.2221 15.6925V15.6594V15.56V3.53214C20.2221 3.48243 20.2055 3.4493 20.2387 3.3996C23.6018 8.98276 26.965 14.5494 30.3116 20.1325C30.3447 20.1822 30.3944 20.2485 30.411 20.3148C30.179 20.2319 29.9637 20.116 29.7483 20.0166C29.4832 19.9006 29.2016 19.7681 28.9365 19.6521C28.7708 19.5692 28.5886 19.503 28.4229 19.4201C28.1413 19.2876 27.8596 19.1716 27.578 19.0391C27.4123 18.9728 27.2466 18.89 27.0809 18.8072L25.9875 18.3101C25.8053 18.2273 25.623 18.1445 25.4242 18.0616L24.629 17.7137C24.4633 17.6474 24.2976 17.5646 24.132 17.4818L23.0385 16.9848C22.8563 16.9019 22.6741 16.8191 22.4752 16.7362L21.68 16.3883C21.4978 16.3055 21.3321 16.2227 21.1499 16.1398C20.8351 15.9907 20.5203 15.8416 20.189 15.7091C20.2387 15.6925 20.2221 15.6925 20.2221 15.6925Z" fill="#62688F"/>
</svg>
