<svg width="24" height="24" viewBox="0 0 24 24" fill="none" xmlns="http://www.w3.org/2000/svg">
<path d="M13.91 10.09C14.4165 10.5965 14.7011 11.2836 14.7011 12C14.7011 12.7164 14.4165 13.4034 13.91 13.91C13.4034 14.4165 12.7164 14.7011 12 14.7011C11.2836 14.7011 10.5965 14.4165 10.09 13.91C9.58341 13.4034 9.29883 12.7164 9.29883 12C9.29883 11.6453 9.3687 11.294 9.50444 10.9663C9.64019 10.6386 9.83915 10.3408 10.09 10.09C10.3408 9.83915 10.6386 9.64019 10.9663 9.50444C11.294 9.3687 11.6453 9.29883 12 9.29883C12.7164 9.29883 13.4034 9.58341 13.91 10.09" stroke="white" stroke-width="1.5" stroke-linecap="round" stroke-linejoin="round"/>
<path d="M5.25018 12C5.25018 12.297 5.27718 12.594 5.31318 12.882L3.72518 14.124C3.55486 14.2574 3.43841 14.4478 3.39726 14.6602C3.35611 14.8725 3.39301 15.0926 3.50118 15.28L4.91318 17.723C5.02131 17.9101 5.19328 18.0519 5.39754 18.1224C5.6018 18.193 5.82464 18.1875 6.02518 18.107L7.44718 17.536C7.5856 17.4824 7.73501 17.4634 7.88244 17.4807C8.02987 17.4979 8.17087 17.5509 8.29318 17.635C8.51318 17.781 8.74118 17.915 8.97718 18.035C9.24718 18.172 9.44318 18.417 9.48618 18.717L9.70318 20.23C9.76618 20.672 10.1452 21 10.5912 21H13.4082C13.6241 21 13.8327 20.9221 13.9959 20.7807C14.159 20.6393 14.2656 20.4437 14.2962 20.23L14.5132 18.718C14.5368 18.5712 14.5958 18.4323 14.685 18.3134C14.7741 18.1944 14.8909 18.0989 15.0252 18.035C15.2602 17.917 15.4872 17.784 15.7062 17.639C15.8288 17.554 15.9704 17.5002 16.1185 17.4825C16.2667 17.4647 16.4169 17.4834 16.5562 17.537L17.9752 18.107C18.1757 18.1873 18.3985 18.1927 18.6027 18.1221C18.8069 18.0516 18.9789 17.9099 19.0872 17.723L20.4992 15.28C20.6073 15.0926 20.6442 14.8725 20.6031 14.6602C20.5619 14.4478 20.4455 14.2574 20.2752 14.124L18.6872 12.882C18.7232 12.594 18.7502 12.297 18.7502 12C18.7502 11.703 18.7232 11.406 18.6872 11.118L20.2752 9.876C20.4455 9.74261 20.5619 9.55222 20.6031 9.33984C20.6442 9.12745 20.6073 8.90735 20.4992 8.72L19.0872 6.277C18.979 6.08991 18.8071 5.94809 18.6028 5.87755C18.3986 5.80702 18.1757 5.8125 17.9752 5.893L16.5562 6.463C16.4169 6.51634 16.2667 6.53492 16.1186 6.51715C15.9705 6.49938 15.8289 6.44578 15.7062 6.361C15.4873 6.21555 15.2599 6.08332 15.0252 5.965C14.8909 5.90113 14.7741 5.8056 14.685 5.68663C14.5958 5.56766 14.5368 5.4288 14.5132 5.282L14.2972 3.77C14.2666 3.55627 14.16 3.36074 13.9969 3.2193C13.8337 3.07785 13.6251 2.99999 13.4092 3H10.5922C10.3763 2.99999 10.1676 3.07785 10.0045 3.2193C9.84137 3.36074 9.73474 3.55627 9.70418 3.77L9.48618 5.284C9.46252 5.43026 9.40389 5.56865 9.31527 5.68739C9.22665 5.80613 9.11067 5.90171 8.97718 5.966C8.74118 6.086 8.51318 6.221 8.29318 6.366C8.17049 6.44971 8.0293 6.50236 7.88176 6.51943C7.73422 6.5365 7.58474 6.51748 7.44618 6.464L6.02518 5.893C5.82464 5.8125 5.6018 5.80702 5.39754 5.87755C5.19328 5.94809 5.02131 6.08991 4.91318 6.277L3.50118 8.72C3.39301 8.90735 3.35611 9.12745 3.39726 9.33984C3.43841 9.55222 3.55486 9.74261 3.72518 9.876L5.31318 11.118C5.27397 11.4104 5.25293 11.705 5.25018 12V12Z" stroke="white" stroke-width="1.5" stroke-linecap="round" stroke-linejoin="round"/>
</svg>
