<svg width="40" height="40" viewBox="0 0 40 40" fill="none" xmlns="http://www.w3.org/2000/svg">
<path fill-rule="evenodd" clip-rule="evenodd" d="M19.9999 3.33337C29.2049 3.33337 36.6666 10.7951 36.6666 20.0001C36.6666 29.2043 29.2049 36.6668 19.9999 36.6668C10.795 36.6668 3.33325 29.2043 3.33325 20.0001C3.33325 10.7951 10.795 3.33337 19.9999 3.33337Z" fill="#2775CA"/>
<path fill-rule="evenodd" clip-rule="evenodd" d="M16.8758 31.5879C16.8758 31.9799 16.5688 32.2026 16.1896 32.0843C11.1504 30.4767 7.49683 25.7515 7.49683 20.1761C7.49683 14.6009 11.1504 9.87552 16.1896 8.26794C16.5688 8.15033 16.8758 8.3723 16.8758 8.76435V9.73215C16.8758 9.99314 16.6735 10.3003 16.4249 10.3854C12.4379 11.8494 9.58187 15.6795 9.58187 20.1695C9.58187 24.6594 12.4379 28.4903 16.4249 29.9536C16.6735 30.0453 16.8758 30.3456 16.8758 30.6076V31.5879Z" fill="white"/>
<path fill-rule="evenodd" clip-rule="evenodd" d="M21.0389 27.9864C21.0389 28.2743 20.8037 28.5095 20.5162 28.5095H19.4768C19.1893 28.5095 18.954 28.2743 18.954 27.9864V26.3397C16.6794 26.0327 15.5686 24.7578 15.2679 23.026C15.2154 22.7315 15.4506 22.4637 15.7514 22.4637H16.941C17.1893 22.4637 17.3985 22.6404 17.4508 22.8883C17.6732 23.9211 18.2679 24.712 20.0912 24.712C21.4376 24.712 22.3921 23.9603 22.3921 22.8366C22.3921 21.712 21.8298 21.2874 19.8559 20.9603C16.941 20.5682 15.562 19.6857 15.562 17.3982C15.562 15.6336 16.8955 14.2612 18.9607 13.9669V12.3525C18.9607 12.0648 19.1961 11.8294 19.4834 11.8294H20.5228C20.8103 11.8294 21.0455 12.0648 21.0455 12.3525V14.0127C22.7252 14.3139 23.7906 15.2675 24.1372 16.8491C24.2023 17.1502 23.9671 17.4307 23.6601 17.4307H22.5618C22.3266 17.4307 22.1306 17.2737 22.0588 17.0451C21.7646 16.0391 21.0455 15.6078 19.797 15.6078C18.418 15.6078 17.7055 16.2743 17.7055 17.2088C17.7055 18.1957 18.111 18.6921 20.2288 18.9999C23.0912 19.3919 24.5686 20.2088 24.5686 22.6472C24.5686 24.4967 23.1959 25.9934 21.0455 26.3397V27.9864H21.0389Z" fill="white"/>
<path fill-rule="evenodd" clip-rule="evenodd" d="M23.8104 32.0843C23.4317 32.2027 23.1243 31.9799 23.1243 31.5879V30.6208C23.1243 30.3332 23.3008 30.0653 23.5752 29.9669C27.5622 28.5028 30.4182 24.6727 30.4182 20.1828C30.4182 15.6928 27.5622 11.8627 23.5752 10.3987C23.3269 10.307 23.1243 10.0066 23.1243 9.74467V8.77763C23.1243 8.38558 23.4317 8.15698 23.8104 8.28047C28.8497 9.88899 32.5033 14.6142 32.5033 20.1894C32.497 25.7513 28.8497 30.4701 23.8104 32.0843Z" fill="white"/>
</svg>
