<svg width="24" height="24" viewBox="0 0 24 24" fill="none" xmlns="http://www.w3.org/2000/svg">
<path d="M11.9999 6.45996V9.91996" stroke="white" stroke-width="1.5" stroke-linecap="round" stroke-linejoin="round"/>
<path d="M14.08 12H17.54" stroke="white" stroke-width="1.5" stroke-linecap="round" stroke-linejoin="round"/>
<path d="M11.9999 14.0801V17.5401" stroke="white" stroke-width="1.5" stroke-linecap="round" stroke-linejoin="round"/>
<path d="M6.45984 12H9.91984" stroke="white" stroke-width="1.5" stroke-linecap="round" stroke-linejoin="round"/>
<path d="M14.9999 9L15.9999 8" stroke="white" stroke-width="1.5" stroke-linecap="round" stroke-linejoin="round"/>
<path d="M7.99988 16L8.99988 15" stroke="white" stroke-width="1.5" stroke-linecap="round" stroke-linejoin="round"/>
<path d="M14.9999 15L15.9999 16" stroke="white" stroke-width="1.5" stroke-linecap="round" stroke-linejoin="round"/>
<path d="M7.99988 8L8.99988 9" stroke="white" stroke-width="1.5" stroke-linecap="round" stroke-linejoin="round"/>
<path d="M11.9999 3C9.86314 3 7.79611 3.76022 6.16855 5.14466C4.54099 6.52911 3.45909 8.44745 3.11639 10.5565C2.77369 12.6656 3.19254 14.8278 4.29802 16.6563C5.40351 18.4849 7.12349 19.8604 9.1503 20.537C11.1771 21.2135 13.3785 21.1469 15.3607 20.349C17.3428 19.5511 18.9765 18.074 19.9693 16.1819C20.9621 14.2898 21.2494 12.1063 20.7798 10.0218C20.3101 7.93731 19.1142 6.08792 17.4058 4.80447" stroke="#B9BACA" stroke-width="1.5" stroke-linecap="round"/>
</svg>
