<svg width="40" height="40" viewBox="0 0 40 40" fill="none" xmlns="http://www.w3.org/2000/svg">
<path fill-rule="evenodd" clip-rule="evenodd" d="M19.9999 3.33325C29.2049 3.33325 36.6666 10.795 36.6666 19.9999C36.6666 29.2041 29.2049 36.6666 19.9999 36.6666C10.795 36.6666 3.33325 29.2041 3.33325 19.9999C3.33325 10.795 10.795 3.33325 19.9999 3.33325Z" fill="#2775CA"/>
<path fill-rule="evenodd" clip-rule="evenodd" d="M16.8758 31.5877C16.8758 31.9798 16.5688 32.2025 16.1896 32.0841C11.1504 30.4766 7.49683 25.7514 7.49683 20.176C7.49683 14.6008 11.1504 9.8754 16.1896 8.26782C16.5688 8.15021 16.8758 8.37218 16.8758 8.76422V9.73203C16.8758 9.99301 16.6735 10.3002 16.4249 10.3852C12.4379 11.8493 9.58187 15.6794 9.58187 20.1694C9.58187 24.6593 12.4379 28.4902 16.4249 29.9535C16.6735 30.0451 16.8758 30.3455 16.8758 30.6074V31.5877Z" fill="white"/>
<path fill-rule="evenodd" clip-rule="evenodd" d="M21.0389 27.9864C21.0389 28.2743 20.8037 28.5095 20.5162 28.5095H19.4768C19.1893 28.5095 18.954 28.2743 18.954 27.9864V26.3396C16.6794 26.0326 15.5686 24.7578 15.2679 23.026C15.2154 22.7314 15.4506 22.4636 15.7514 22.4636H16.941C17.1893 22.4636 17.3985 22.6403 17.4508 22.8883C17.6732 23.921 18.2679 24.7119 20.0912 24.7119C21.4376 24.7119 22.3921 23.9602 22.3921 22.8366C22.3921 21.7119 21.8298 21.2873 19.8559 20.9602C16.941 20.5682 15.562 19.6856 15.562 17.3981C15.562 15.6335 16.8955 14.2612 18.9607 13.9668V12.3525C18.9607 12.0648 19.1961 11.8293 19.4834 11.8293H20.5228C20.8103 11.8293 21.0455 12.0648 21.0455 12.3525V14.0127C22.7252 14.3138 23.7906 15.2674 24.1372 16.8491C24.2023 17.1502 23.9671 17.4307 23.6601 17.4307H22.5618C22.3266 17.4307 22.1306 17.2737 22.0588 17.0451C21.7646 16.039 21.0455 15.6078 19.797 15.6078C18.418 15.6078 17.7055 16.2742 17.7055 17.2087C17.7055 18.1956 18.111 18.692 20.2288 18.9998C23.0912 19.3919 24.5686 20.2087 24.5686 22.6472C24.5686 24.4966 23.1959 25.9934 21.0455 26.3396V27.9864H21.0389Z" fill="white"/>
<path fill-rule="evenodd" clip-rule="evenodd" d="M23.8104 32.0842C23.4317 32.2026 23.1243 31.9799 23.1243 31.5878V30.6208C23.1243 30.3331 23.3008 30.0653 23.5752 29.9668C27.5622 28.5028 30.4182 24.6727 30.4182 20.1827C30.4182 15.6927 27.5622 11.8626 23.5752 10.3986C23.3269 10.3069 23.1243 10.0065 23.1243 9.74461V8.77756C23.1243 8.38552 23.4317 8.15692 23.8104 8.2804C28.8497 9.88893 32.5033 14.6141 32.5033 20.1893C32.497 25.7513 28.8497 30.47 23.8104 32.0842Z" fill="white"/>
</svg>
