<svg width="24" height="24" viewBox="0 0 24 24" fill="none" xmlns="http://www.w3.org/2000/svg">
<path d="M1 12C1 18.0751 5.92487 23 12 23C18.0751 23 23 18.0751 23 12C23 5.92487 18.0751 1 12 1C5.92487 1 1 5.92487 1 12Z" fill="#09090C"/>
<g clip-path="url(#clip0_3806_5516)">
<path d="M14.8362 18.2C14.251 18.2 13.7531 17.7861 13.6308 17.2137C13.5696 16.9055 13.4997 16.5357 13.4211 16.1218C13.2115 14.933 12.8271 14.4751 11.9973 14.4399H11.1325V13.5945H12.0759C13.0542 13.5945 13.6744 12.9429 13.6744 11.9478C13.6744 10.8207 13.0106 10.3276 12.0497 10.3276C11.875 10.3276 10.7306 10.3276 9.41162 10.3276V17.6981C9.41162 17.927 9.22818 18.1031 9.0098 18.1031C8.78268 18.1031 8.60797 17.9182 8.60797 17.6981V10.3276C7.58594 10.3276 6.55518 10.3276 5.85636 10.3276C5.38465 10.3276 5.00903 9.9489 5.00903 9.47338C5.00903 9.47338 6.82597 9.47338 8.60797 9.47338V8.4431C8.59924 6.54103 9.87459 5 11.4382 5H14.0588C14.2859 5 14.4606 5.18492 14.4606 5.40507C14.4606 5.62522 14.2772 5.81014 14.0588 5.81014H11.4382C10.3201 5.81014 9.40289 6.99013 9.40289 8.4431V9.45577C10.652 9.45577 11.7352 9.45577 11.9798 9.45577C12.9494 9.45577 13.5871 9.68472 14.0326 10.169C14.382 10.5477 14.5829 11.1377 14.5829 11.8157C14.5829 12.9517 13.9889 13.7178 13.2464 14.026V14.0612C13.788 14.2902 14.1112 14.9154 14.2859 15.8136C14.3995 16.4212 14.5043 16.932 14.5916 17.3282C14.6877 17.7333 14.7664 18.0239 14.8362 18.2Z" fill="white"/>
<path d="M16.88 11.9126V12.2384C16.88 12.3881 16.7577 12.5114 16.6092 12.5114H16.3035C16.155 12.5114 16.0327 12.3881 16.0327 12.2384V11.9126C16.0327 11.7629 16.155 11.6396 16.3035 11.6396H16.6092C16.7665 11.6396 16.88 11.7629 16.88 11.9126ZM16.8626 13.7619V17.883C16.8626 18.0327 16.7403 18.156 16.5918 18.156H16.3297C16.1812 18.156 16.0589 18.0327 16.0589 17.883V13.7619C16.0589 13.6122 16.1812 13.4889 16.3297 13.4889H16.5918C16.749 13.4889 16.8626 13.6122 16.8626 13.7619Z" fill="white"/>
</g>
<defs>
<clipPath id="clip0_3806_5516">
<rect width="11.88" height="13.2" fill="white" transform="translate(5 5)"/>
</clipPath>
</defs>
</svg>
