<svg width="60" height="60" viewBox="0 0 60 60" fill="none" xmlns="http://www.w3.org/2000/svg">
<path d="M30 5C43.8084 5 55 16.1939 55 30C55 43.8084 43.8084 55 30 55C16.1939 55 5 43.8073 5 30C5 16.1939 16.1939 5 30 5Z" fill="#F5AC37"/>
<path d="M30.9206 31.7653H40.4202C40.6227 31.7653 40.7183 31.7654 40.7329 31.4998C40.8105 30.5335 40.8105 29.5615 40.7329 28.5939C40.7329 28.4061 40.6395 28.3284 40.4359 28.3284H21.5301C21.2961 28.3284 21.2331 28.4061 21.2331 28.6254V31.4065C21.2331 31.7653 21.2331 31.7653 21.6077 31.7653H30.9206V31.7653ZM39.672 25.0783C39.699 25.0074 39.699 24.9298 39.672 24.86C39.5134 24.5147 39.3255 24.185 39.1073 23.8756C38.7788 23.3469 38.3918 22.8598 37.9508 22.4221C37.7426 22.1578 37.5019 21.9204 37.2319 21.719C35.8796 20.5681 34.272 19.7536 32.544 19.3441C31.6721 19.1483 30.7811 19.055 29.8878 19.0628H21.4975C21.2635 19.0628 21.232 19.1562 21.232 19.3598V24.9062C21.232 25.1402 21.232 25.2032 21.529 25.2032H39.5595C39.5595 25.2032 39.7159 25.1717 39.7474 25.0783H39.6709H39.672ZM39.672 35.0155C39.4065 34.9863 39.1388 34.9863 38.8733 35.0155H21.5458C21.3118 35.0155 21.2331 35.0155 21.2331 35.3283V40.7508C21.2331 41.0006 21.2331 41.0636 21.5458 41.0636H29.5458C29.9283 41.0928 30.3108 41.0658 30.6854 40.9859C31.8465 40.9027 32.9883 40.6507 34.0773 40.2356C34.4734 40.0983 34.8559 39.9194 35.217 39.7046H35.3261C37.2015 38.7292 38.7248 37.1969 39.6855 35.3159C39.6855 35.3159 39.7947 35.0796 39.672 35.0178V35.0155ZM18.0932 43.875V43.7816V40.1411V38.9069V35.2349C18.0932 35.0313 18.0932 35.0009 17.8434 35.0009H14.4527C14.2648 35.0009 14.1871 35.0009 14.1871 34.7511V31.7822H17.8119C18.0144 31.7822 18.0932 31.7822 18.0932 31.5167V28.5793C18.0932 28.3914 18.0932 28.3453 17.8434 28.3453H14.4527C14.2648 28.3453 14.1871 28.3453 14.1871 28.0956V25.346C14.1871 25.1739 14.1871 25.1278 14.4369 25.1278H17.7962C18.0302 25.1278 18.0932 25.1278 18.0932 24.8308V16.4089C18.0932 16.1592 18.0932 16.0962 18.4059 16.0962H30.1241C30.9746 16.1299 31.8195 16.2233 32.6553 16.3774C34.3777 16.6958 36.0326 17.3112 37.5458 18.1898C38.5493 18.7805 39.4729 19.4937 40.2953 20.315C40.914 20.9574 41.472 21.6526 41.9671 22.3929C42.4587 23.1433 42.8671 23.9454 43.1877 24.7835C43.2271 25.0018 43.4363 25.1492 43.6546 25.112H46.4513C46.8102 25.112 46.8102 25.112 46.826 25.4563V28.0191C46.826 28.2688 46.7326 28.3318 46.4817 28.3318H44.3251C44.1068 28.3318 44.0438 28.3318 44.0596 28.6131C44.1451 29.5648 44.1451 30.52 44.0596 31.4717C44.0596 31.7372 44.0596 31.7687 44.3577 31.7687H46.8249C46.934 31.9093 46.8249 32.05 46.8249 32.1917C46.8406 32.3729 46.8406 32.5562 46.8249 32.7374V34.6285C46.8249 34.894 46.7472 34.9728 46.5121 34.9728H43.5589C43.3531 34.9334 43.1528 35.065 43.1056 35.2698C42.4024 37.0979 41.2774 38.737 39.8239 40.0511C39.2929 40.5292 38.7349 40.9792 38.1521 41.3943C37.5266 41.7543 36.918 42.129 36.2767 42.426C35.0966 42.957 33.8591 43.3485 32.589 43.5971C31.3829 43.8131 30.1601 43.911 28.9327 43.8941H18.0887V43.8783L18.0932 43.875Z" fill="#FEFEFD"/>
</svg>
