<svg width="40" height="40" viewBox="0 0 40 40" fill="none" xmlns="http://www.w3.org/2000/svg">
<path d="M1.66666 20.0001C1.66666 30.1253 9.87478 38.3334 20 38.3334C30.1252 38.3334 38.3333 30.1253 38.3333 20.0001C38.3333 9.87486 30.1252 1.66675 20 1.66675C9.87478 1.66675 1.66666 9.87486 1.66666 20.0001Z" fill="#09090C"/>
<g clip-path="url(#clip0_3806_12272)">
<path d="M24.7269 30.3335C23.7515 30.3335 22.9216 29.6437 22.7178 28.6897C22.6159 28.1761 22.4994 27.5596 22.3684 26.8699C22.019 24.8885 21.3784 24.1254 19.9953 24.0667H18.554V22.6577H20.1264C21.7569 22.6577 22.7906 21.5717 22.7906 19.9132C22.7906 18.0346 21.6841 17.2127 20.0827 17.2127C19.7915 17.2127 17.8843 17.2127 15.6859 17.2127V29.4969C15.6859 29.8785 15.3802 30.1721 15.0162 30.1721C14.6377 30.1721 14.3465 29.8639 14.3465 29.4969V17.2127C12.6431 17.2127 10.9252 17.2127 9.76047 17.2127C8.9743 17.2127 8.34827 16.5817 8.34827 15.7891C8.34827 15.7891 11.3765 15.7891 14.3465 15.7891V14.072C14.3319 10.9019 16.4575 8.3335 19.0636 8.3335H23.4312C23.8097 8.3335 24.1009 8.6417 24.1009 9.00861C24.1009 9.37552 23.7952 9.68373 23.4312 9.68373H19.0636C17.2 9.68373 15.6714 11.6504 15.6714 14.072V15.7598C17.7533 15.7598 19.5586 15.7598 19.9662 15.7598C21.5822 15.7598 22.645 16.1414 23.3875 16.9486C23.9699 17.5797 24.3047 18.563 24.3047 19.6931C24.3047 21.5863 23.3147 22.8632 22.0772 23.3769V23.4356C22.9799 23.8172 23.5186 24.8592 23.8097 26.3562C23.999 27.3689 24.1737 28.2201 24.3193 28.8805C24.4794 29.5556 24.6105 30.04 24.7269 30.3335Z" fill="white"/>
<path d="M28.1338 19.8546V20.3977C28.1338 20.6472 27.9299 20.8526 27.6824 20.8526H27.1729C26.9254 20.8526 26.7216 20.6472 26.7216 20.3977V19.8546C26.7216 19.6051 26.9254 19.3997 27.1729 19.3997H27.6824C27.9445 19.3997 28.1338 19.6051 28.1338 19.8546ZM28.1046 22.9367V29.8053C28.1046 30.0548 27.9008 30.2602 27.6533 30.2602H27.2166C26.9691 30.2602 26.7652 30.0548 26.7652 29.8053V22.9367C26.7652 22.6872 26.9691 22.4817 27.2166 22.4817H27.6533C27.9154 22.4817 28.1046 22.6872 28.1046 22.9367Z" fill="white"/>
</g>
<defs>
<clipPath id="clip0_3806_12272">
<rect width="19.8" height="22" fill="white" transform="translate(8.33333 8.3335)"/>
</clipPath>
</defs>
</svg>
