<svg width="24" height="24" viewBox="0 0 24 24" fill="none" xmlns="http://www.w3.org/2000/svg">
<path fill-rule="evenodd" clip-rule="evenodd" d="M18.5 11.9634C18.5 12.3777 18.1642 12.7134 17.75 12.7134L5.75 12.7134C5.33579 12.7134 5 12.3777 5 11.9634C5 11.5492 5.33579 11.2134 5.75 11.2134L17.75 11.2134C18.1642 11.2134 18.5 11.5492 18.5 11.9634Z" fill="white"/>
<path fill-rule="evenodd" clip-rule="evenodd" d="M10.567 7.14652C10.8598 7.43941 10.8598 7.91429 10.567 8.20718L6.81071 11.9634L10.567 15.7197C10.8598 16.0126 10.8598 16.4874 10.567 16.7803C10.2741 17.0732 9.79918 17.0732 9.50629 16.7803L5.21972 12.4938C4.92683 12.2009 4.92683 11.726 5.21972 11.4331L9.50629 7.14652C9.79918 6.85363 10.2741 6.85363 10.567 7.14652Z" fill="white"/>
</svg>
