<svg width="32" height="32" viewBox="0 0 32 32" fill="none" xmlns="http://www.w3.org/2000/svg">
<path d="M1.33398 15.9997C1.33398 24.0998 7.90048 30.6663 16.0007 30.6663C24.1008 30.6663 30.6673 24.0998 30.6673 15.9997C30.6673 7.8995 24.1008 1.33301 16.0007 1.33301C7.90048 1.33301 1.33398 7.8995 1.33398 15.9997Z" fill="#3B3C4E"/>
<g clip-path="url(#clip0_3824_69836)">
<path d="M19.7826 24.2665C19.0023 24.2665 18.3384 23.7147 18.1753 22.9515C18.0938 22.5406 18.0006 22.0474 17.8958 21.4956C17.6163 19.9105 17.1038 19.3 15.9973 19.253H14.8443V18.1259H16.1022C17.4066 18.1259 18.2336 17.257 18.2336 15.9303C18.2336 14.4274 17.3484 13.7699 16.0672 13.7699C15.8343 13.7699 14.3085 13.7699 12.5498 13.7699V23.5973C12.5498 23.9025 12.3052 24.1374 12.014 24.1374C11.7112 24.1374 11.4783 23.8908 11.4783 23.5973V13.7699C10.1156 13.7699 8.74122 13.7699 7.80945 13.7699C7.18051 13.7699 6.67969 13.265 6.67969 12.631C6.67969 12.631 9.10228 12.631 11.4783 12.631V11.2573C11.4666 8.72121 13.1671 6.6665 15.2519 6.6665H18.746C19.0489 6.6665 19.2818 6.91307 19.2818 7.2066C19.2818 7.50013 19.0372 7.74669 18.746 7.74669H15.2519C13.7611 7.74669 12.5382 9.32001 12.5382 11.2573V12.6075C14.2037 12.6075 15.6479 12.6075 15.974 12.6075C17.2669 12.6075 18.1171 12.9128 18.7111 13.5586C19.177 14.0634 19.4449 14.8501 19.4449 15.7542C19.4449 17.2688 18.6529 18.2903 17.6629 18.7012V18.7482C18.385 19.0534 18.8159 19.8871 19.0489 21.0847C19.2003 21.8948 19.34 22.5758 19.4565 23.1041C19.5846 23.6442 19.6894 24.0317 19.7826 24.2665Z" fill="#53F3C3"/>
<path d="M22.5077 15.8835V16.3179C22.5077 16.5175 22.3446 16.6819 22.1466 16.6819H21.739C21.541 16.6819 21.3779 16.5175 21.3779 16.3179V15.8835C21.3779 15.6839 21.541 15.5195 21.739 15.5195H22.1466C22.3563 15.5195 22.5077 15.6839 22.5077 15.8835ZM22.4844 18.3492V23.844C22.4844 24.0436 22.3213 24.208 22.1233 24.208H21.7739C21.5759 24.208 21.4129 24.0436 21.4129 23.844V18.3492C21.4129 18.1496 21.5759 17.9852 21.7739 17.9852H22.1233C22.333 17.9852 22.4844 18.1496 22.4844 18.3492Z" fill="#53F3C3"/>
</g>
<defs>
<clipPath id="clip0_3824_69836">
<rect width="15.84" height="17.6" fill="white" transform="translate(6.66748 6.6665)"/>
</clipPath>
</defs>
</svg>
