<svg width="24" height="24" viewBox="0 0 24 24" fill="none" xmlns="http://www.w3.org/2000/svg">
<path fill-rule="evenodd" clip-rule="evenodd" d="M12 2C17.523 2 22 6.47705 22 12C22 17.5225 17.523 22 12 22C6.47705 22 2 17.5225 2 12C2 6.47705 6.47705 2 12 2Z" fill="#2775CA"/>
<path fill-rule="evenodd" clip-rule="evenodd" d="M10.1256 18.9527C10.1256 19.188 9.94136 19.3216 9.71386 19.2506C6.69033 18.286 4.49817 15.4509 4.49817 12.1057C4.49817 8.76057 6.69033 5.92534 9.71386 4.96079C9.94136 4.89022 10.1256 5.0234 10.1256 5.25863V5.83932C10.1256 5.99591 10.0042 6.18022 9.855 6.23125C7.46283 7.10966 5.74919 9.40773 5.74919 12.1017C5.74919 14.7957 7.46283 17.0942 9.855 17.9722C10.0042 18.0272 10.1256 18.2074 10.1256 18.3646V18.9527Z" fill="white"/>
<path fill-rule="evenodd" clip-rule="evenodd" d="M12.6234 16.7919C12.6234 16.9646 12.4823 17.1057 12.3098 17.1057H11.6861C11.5136 17.1057 11.3725 16.9646 11.3725 16.7919V15.8038C10.0077 15.6196 9.34124 14.8547 9.16078 13.8156C9.12931 13.6389 9.27044 13.4782 9.4509 13.4782H10.1646C10.3136 13.4782 10.4392 13.5843 10.4706 13.733C10.604 14.3527 10.9608 14.8272 12.0548 14.8272C12.8626 14.8272 13.4353 14.3762 13.4353 13.702C13.4353 13.0272 13.0979 12.7724 11.9136 12.5762C10.1646 12.341 9.33726 11.8114 9.33726 10.4389C9.33726 9.38016 10.1374 8.55675 11.3765 8.38016V7.41152C11.3765 7.23891 11.5177 7.09766 11.6901 7.09766H12.3137C12.4862 7.09766 12.6274 7.23891 12.6274 7.41152V8.40766C13.6352 8.58834 14.2744 9.1605 14.4824 10.1095C14.5215 10.2902 14.3803 10.4585 14.1961 10.4585H13.5372C13.396 10.4585 13.2784 10.3643 13.2353 10.2271C13.0589 9.62346 12.6274 9.36471 11.8783 9.36471C11.0509 9.36471 10.6234 9.76459 10.6234 10.3253C10.6234 10.9174 10.8667 11.2153 12.1374 11.3999C13.8548 11.6352 14.7412 12.1253 14.7412 13.5883C14.7412 14.698 13.9176 15.5961 12.6274 15.8038V16.7919H12.6234Z" fill="white"/>
<path fill-rule="evenodd" clip-rule="evenodd" d="M14.2863 19.2507C14.0591 19.3217 13.8746 19.1881 13.8746 18.9528V18.3726C13.8746 18.2 13.9805 18.0393 14.1452 17.9802C16.5374 17.1018 18.251 14.8037 18.251 12.1098C18.251 9.41578 16.5374 7.11771 14.1452 6.2393C13.9962 6.1843 13.8746 6.00407 13.8746 5.84691V5.26669C13.8746 5.03146 14.0591 4.8943 14.2863 4.96839C17.3099 5.9335 19.502 8.76862 19.502 12.1137C19.4983 15.4509 17.3099 18.2822 14.2863 19.2507Z" fill="white"/>
</svg>
