<svg width="24" height="24" viewBox="0 0 24 24" fill="none" xmlns="http://www.w3.org/2000/svg">
<path fill-rule="evenodd" clip-rule="evenodd" d="M20 8H4C3.448 8 3 8.448 3 9V11C3 11.552 3.448 12 4 12H20C20.552 12 21 11.552 21 11V9C21 8.448 20.552 8 20 8Z" stroke="white" stroke-width="1.5" stroke-linecap="round" stroke-linejoin="round"/>
<path d="M12 21V8" stroke="white" stroke-width="1.5" stroke-linecap="round" stroke-linejoin="round"/>
<path d="M15.6961 6.61206C14.6181 7.73406 12.9211 8.00006 12.0991 8.00006" stroke="white" stroke-width="1.5" stroke-linecap="round" stroke-linejoin="round"/>
<path d="M12.0988 7.99987C12.0988 7.99987 11.6048 4.88387 12.8198 3.61987" stroke="white" stroke-width="1.5" stroke-linecap="round" stroke-linejoin="round"/>
<path d="M15.6958 6.61199C16.4898 5.78599 16.4898 4.44599 15.6958 3.61999C14.9018 2.79399 13.6148 2.79399 12.8208 3.61999" stroke="white" stroke-width="1.5" stroke-linecap="round" stroke-linejoin="round"/>
<path d="M8.3042 6.61206C9.3822 7.73406 11.0792 8.00006 11.9012 8.00006" stroke="white" stroke-width="1.5" stroke-linecap="round" stroke-linejoin="round"/>
<path d="M11.9012 7.99987C11.9012 7.99987 12.3952 4.88387 11.1802 3.61987" stroke="white" stroke-width="1.5" stroke-linecap="round" stroke-linejoin="round"/>
<path d="M8.304 6.61199C7.51 5.78599 7.51 4.44599 8.304 3.61999C9.098 2.79399 10.385 2.79399 11.179 3.61999" stroke="white" stroke-width="1.5" stroke-linecap="round" stroke-linejoin="round"/>
<path d="M19 12V20C19 20.552 18.552 21 18 21H6C5.448 21 5 20.552 5 20V12" stroke="white" stroke-width="1.5" stroke-linecap="round" stroke-linejoin="round"/>
</svg>
