<svg width="24" height="24" viewBox="0 0 24 24" fill="none" xmlns="http://www.w3.org/2000/svg">
<g clip-path="url(#clip0_3806_5929)">
<path d="M12 18C10.4087 18 8.88258 17.3679 7.75736 16.2426C6.63214 15.1174 6 13.5913 6 12C6 10.4087 6.63214 8.88258 7.75736 7.75736C8.88258 6.63214 10.4087 6 12 6C13.5913 6 15.1174 6.63214 16.2426 7.75736C17.3679 8.88258 18 10.4087 18 12C18 13.5913 17.3679 15.1174 16.2426 16.2426C15.1174 17.3679 13.5913 18 12 18V18Z" stroke="white" stroke-width="1.5" stroke-linecap="round" stroke-linejoin="round"/>
<path d="M12.0001 12.8335V12.6668C12.0001 12.1222 12.3367 11.8268 12.6741 11.6002C13.0034 11.3782 13.3334 11.0888 13.3334 10.5555C13.3334 10.2019 13.1929 9.86274 12.9429 9.61269C12.6928 9.36264 12.3537 9.22217 12.0001 9.22217C11.6465 9.22217 11.3073 9.36264 11.0573 9.61269C10.8072 9.86274 10.6667 10.2019 10.6667 10.5555" stroke="white" stroke-width="1.5" stroke-linecap="round" stroke-linejoin="round"/>
<path d="M11.9994 14.6667C11.9074 14.6667 11.8328 14.7413 11.8334 14.8333C11.8334 14.9253 11.9081 15 12.0001 15C12.0921 15 12.1668 14.9253 12.1668 14.8333C12.1668 14.7413 12.0921 14.6667 11.9994 14.6667" stroke="white" stroke-width="1.5" stroke-linecap="round" stroke-linejoin="round"/>
</g>
<defs>
<clipPath id="clip0_3806_5929">
<rect width="16" height="16" fill="white" transform="translate(4 4)"/>
</clipPath>
</defs>
</svg>
