<svg width="40" height="40" viewBox="0 0 40 40" fill="none" xmlns="http://www.w3.org/2000/svg">
<path d="M19.9999 36.6666C29.2047 36.6666 36.6666 29.2047 36.6666 20C36.6666 10.7952 29.2047 3.33331 19.9999 3.33331C10.7952 3.33331 3.33325 10.7952 3.33325 20C3.33325 29.2047 10.7952 36.6666 19.9999 36.6666Z" fill="url(#paint0_linear_3816_19189)"/>
<path d="M27.2937 26.6408L21.658 13.0154C21.3401 12.3109 20.8676 11.9673 20.2447 11.9673H19.7465C19.1236 11.9673 18.6511 12.3109 18.3332 13.0154L15.8805 18.9518H14.0248C13.4707 18.9561 13.0196 19.4029 13.0154 19.9613V19.9742C13.0196 20.5283 13.4707 20.9793 14.0248 20.9836H15.0214L12.6803 26.6408C12.6373 26.7654 12.6116 26.8943 12.6116 27.0274C12.6116 27.3453 12.7104 27.5945 12.8865 27.7878C13.0626 27.9811 13.316 28.0756 13.6339 28.0756C13.8444 28.0713 14.0463 28.0068 14.2138 27.8823C14.3942 27.7577 14.5188 27.5773 14.6176 27.3711L17.1949 20.9793H18.9818C19.536 20.975 19.987 20.5283 19.9913 19.9699V19.9441C19.987 19.39 19.536 18.9389 18.9818 18.9346H18.0282L19.9956 14.0334L25.3564 27.3668C25.4552 27.573 25.5798 27.7534 25.7602 27.878C25.9277 28.0025 26.1339 28.067 26.3401 28.0713C26.658 28.0713 26.9071 27.9768 27.0875 27.7835C27.2679 27.5902 27.3624 27.341 27.3624 27.0231C27.3667 26.8943 27.3452 26.7611 27.2937 26.6408Z" fill="white"/>
<defs>
<linearGradient id="paint0_linear_3816_19189" x1="32.4263" y1="9.54407" x2="7.62635" y2="30.4107" gradientUnits="userSpaceOnUse">
<stop stop-color="#B6509E"/>
<stop offset="1" stop-color="#2EBAC6"/>
</linearGradient>
</defs>
</svg>
