<svg width="32" height="32" viewBox="0 0 32 32" fill="none" xmlns="http://www.w3.org/2000/svg">
<path d="M1.33301 15.9994C1.33301 24.0996 7.8995 30.6661 15.9997 30.6661C24.0998 30.6661 30.6663 24.0996 30.6663 15.9994C30.6663 7.89926 24.0998 1.33276 15.9997 1.33276C7.8995 1.33276 1.33301 7.89926 1.33301 15.9994Z" fill="#3B3C4E"/>
<g clip-path="url(#clip0_3824_70228)">
<path d="M19.7807 24.266C19.0003 24.266 18.3364 23.7142 18.1734 22.951C18.0919 22.5401 17.9987 22.0469 17.8939 21.4951C17.6143 19.91 17.1019 19.2995 15.9954 19.2525H14.8423V18.1254H16.1002C17.4047 18.1254 18.2316 17.2565 18.2316 15.9298C18.2316 14.4269 17.3464 13.7694 16.0653 13.7694C15.8323 13.7694 14.3066 13.7694 12.5479 13.7694V23.5968C12.5479 23.902 12.3033 24.1369 12.0121 24.1369C11.7093 24.1369 11.4763 23.8903 11.4763 23.5968V13.7694C10.1136 13.7694 8.73926 13.7694 7.8075 13.7694C7.17856 13.7694 6.67773 13.2645 6.67773 12.6305C6.67773 12.6305 9.10032 12.6305 11.4763 12.6305V11.2568C11.4647 8.72072 13.1651 6.66602 15.25 6.66602H18.7441C19.0469 6.66602 19.2799 6.91258 19.2799 7.20611C19.2799 7.49964 19.0353 7.7462 18.7441 7.7462H15.25C13.7591 7.7462 12.5362 9.31952 12.5362 11.2568V12.607C14.2017 12.607 15.646 12.607 15.9721 12.607C17.2649 12.607 18.1151 12.9123 18.7091 13.5581C19.175 14.0629 19.4429 14.8496 19.4429 15.7537C19.4429 17.2683 18.6509 18.2898 17.6609 18.7007V18.7477C18.383 19.0529 18.814 19.8866 19.0469 21.0842C19.1983 21.8943 19.3381 22.5753 19.4546 23.1036C19.5827 23.6437 19.6875 24.0312 19.7807 24.266Z" fill="#53F3C3"/>
<path d="M22.5057 15.8828V16.3172C22.5057 16.5168 22.3427 16.6812 22.1447 16.6812H21.737C21.539 16.6812 21.376 16.5168 21.376 16.3172V15.8828C21.376 15.6832 21.539 15.5188 21.737 15.5188H22.1447C22.3543 15.5188 22.5057 15.6832 22.5057 15.8828ZM22.4824 18.3484V23.8433C22.4824 24.0429 22.3194 24.2073 22.1214 24.2073H21.772C21.574 24.2073 21.4109 24.0429 21.4109 23.8433V18.3484C21.4109 18.1488 21.574 17.9844 21.772 17.9844H22.1214C22.331 17.9844 22.4824 18.1488 22.4824 18.3484Z" fill="#53F3C3"/>
</g>
<defs>
<clipPath id="clip0_3824_70228">
<rect width="15.84" height="17.6" fill="white" transform="translate(6.66602 6.66602)"/>
</clipPath>
</defs>
</svg>
