<svg width="24" height="24" viewBox="0 0 24 24" fill="none" xmlns="http://www.w3.org/2000/svg">
<path d="M14.922 6.16924C13.7712 6.29974 12.7087 6.84911 11.937 7.71264C11.1652 8.57618 10.7382 9.6935 10.7373 10.8516V11.1498C11.2489 10.5333 11.8878 10.0347 12.6101 9.68821C13.3323 9.34167 14.121 9.15537 14.922 9.14206V10.7152C14.922 10.8271 14.9536 10.9367 15.013 11.0316C15.0724 11.1264 15.1573 11.2026 15.258 11.2514C15.3586 11.3003 15.471 11.3198 15.5823 11.3078C15.6936 11.2958 15.7992 11.2527 15.8871 11.1834L19.7821 8.10704C19.8504 8.0533 19.9056 7.98474 19.9436 7.90655C19.9816 7.82836 20.0013 7.74257 20.0013 7.65565C20.0013 7.56872 19.9816 7.48293 19.9436 7.40474C19.9056 7.32655 19.8504 7.258 19.7821 7.20425L15.8871 4.12869C15.7993 4.05916 15.6937 4.0158 15.5824 4.00356C15.4711 3.99133 15.3586 4.01073 15.2579 4.05953C15.1571 4.10834 15.0721 4.18457 15.0127 4.27948C14.9533 4.37438 14.9219 4.48412 14.922 4.59609V6.16924Z" stroke="white" stroke-width="1.5" stroke-linecap="round" stroke-linejoin="round"/>
<path d="M19.1588 12.4205V15.7891C19.1588 16.9059 18.7152 17.9769 17.9255 18.7666C17.1359 19.5563 16.0648 19.9999 14.9481 19.9999H8.21079C7.09402 19.9999 6.02299 19.5563 5.23331 18.7666C4.44364 17.9769 4 16.9059 4 15.7891V9.05185C4 7.93508 4.44364 6.86405 5.23331 6.07438C6.02299 5.2847 7.09402 4.84106 8.21079 4.84106H10.7373" stroke="white" stroke-width="1.5" stroke-linecap="round" stroke-linejoin="round"/>
</svg>
