<svg width="16" height="16" viewBox="0 0 16 16" fill="none" xmlns="http://www.w3.org/2000/svg">
<path fill-rule="evenodd" clip-rule="evenodd" d="M13.3333 5.3335H2.66667C2.29867 5.3335 2 5.63216 2 6.00016V7.3335C2 7.7015 2.29867 8.00016 2.66667 8.00016H13.3333C13.7013 8.00016 14 7.7015 14 7.3335V6.00016C14 5.63216 13.7013 5.3335 13.3333 5.3335Z" stroke="white" stroke-width="1.5" stroke-linecap="round" stroke-linejoin="round"/>
<path d="M8.00008 14.0002V5.3335" stroke="white" stroke-width="1.5" stroke-linecap="round" stroke-linejoin="round"/>
<path d="M10.4639 4.4082C9.74525 5.1562 8.61392 5.33354 8.06592 5.33354" stroke="white" stroke-width="1.5" stroke-linecap="round" stroke-linejoin="round"/>
<path d="M8.06582 5.33357C8.06582 5.33357 7.73648 3.25624 8.54648 2.41357" stroke="white" stroke-width="1.5" stroke-linecap="round" stroke-linejoin="round"/>
<path d="M10.464 4.40816C10.9934 3.85749 10.9934 2.96415 10.464 2.41349C9.9347 1.86282 9.0767 1.86282 8.54736 2.41349" stroke="white" stroke-width="1.5" stroke-linecap="round" stroke-linejoin="round"/>
<path d="M5.53589 4.4082C6.25456 5.1562 7.38589 5.33354 7.93389 5.33354" stroke="white" stroke-width="1.5" stroke-linecap="round" stroke-linejoin="round"/>
<path d="M7.93386 5.33357C7.93386 5.33357 8.26319 3.25624 7.45319 2.41357" stroke="white" stroke-width="1.5" stroke-linecap="round" stroke-linejoin="round"/>
<path d="M5.53592 4.40816C5.00658 3.85749 5.00658 2.96415 5.53592 2.41349C6.06525 1.86282 6.92325 1.86282 7.45258 2.41349" stroke="white" stroke-width="1.5" stroke-linecap="round" stroke-linejoin="round"/>
<path d="M12.6666 8V13.3333C12.6666 13.7013 12.3679 14 11.9999 14H3.99992C3.63192 14 3.33325 13.7013 3.33325 13.3333V8" stroke="white" stroke-width="1.5" stroke-linecap="round" stroke-linejoin="round"/>
</svg>
