<svg width="40" height="40" viewBox="0 0 40 40" fill="none" xmlns="http://www.w3.org/2000/svg">
<path d="M1.66675 20.0001C1.66675 30.1253 9.87486 38.3334 20.0001 38.3334C30.1253 38.3334 38.3334 30.1253 38.3334 20.0001C38.3334 9.87486 30.1253 1.66675 20.0001 1.66675C9.87486 1.66675 1.66675 9.87486 1.66675 20.0001Z" fill="#09090C"/>
<g clip-path="url(#clip0_3806_3795)">
<path d="M24.7271 30.3335C23.7516 30.3335 22.9218 29.6437 22.7179 28.6897C22.616 28.1761 22.4996 27.5596 22.3685 26.8699C22.0191 24.8885 21.3785 24.1254 19.9954 24.0667H18.5541V22.6577H20.1265C21.7571 22.6577 22.7907 21.5717 22.7907 19.9132C22.7907 18.0346 21.6843 17.2127 20.0828 17.2127C19.7916 17.2127 17.8844 17.2127 15.686 17.2127V29.4969C15.686 29.8785 15.3803 30.1721 15.0163 30.1721C14.6378 30.1721 14.3466 29.8639 14.3466 29.4969V17.2127C12.6432 17.2127 10.9253 17.2127 9.76059 17.2127C8.97442 17.2127 8.34839 16.5817 8.34839 15.7891C8.34839 15.7891 11.3766 15.7891 14.3466 15.7891V14.072C14.3321 10.9019 16.4577 8.3335 19.0637 8.3335H23.4313C23.8099 8.3335 24.101 8.6417 24.101 9.00861C24.101 9.37552 23.7953 9.68373 23.4313 9.68373H19.0637C17.2002 9.68373 15.6715 11.6504 15.6715 14.072V15.7598C17.7534 15.7598 19.5587 15.7598 19.9663 15.7598C21.5824 15.7598 22.6452 16.1414 23.3877 16.9486C23.97 17.5797 24.3049 18.563 24.3049 19.6931C24.3049 21.5863 23.3149 22.8632 22.0774 23.3769V23.4356C22.98 23.8172 23.5187 24.8592 23.8099 26.3562C23.9991 27.3689 24.1738 28.2201 24.3194 28.8805C24.4796 29.5556 24.6106 30.04 24.7271 30.3335Z" fill="white"/>
<path d="M28.1339 19.8546V20.3977C28.1339 20.6472 27.9301 20.8526 27.6826 20.8526H27.173C26.9255 20.8526 26.7217 20.6472 26.7217 20.3977V19.8546C26.7217 19.6051 26.9255 19.3997 27.173 19.3997H27.6826C27.9446 19.3997 28.1339 19.6051 28.1339 19.8546ZM28.1048 22.9367V29.8053C28.1048 30.0548 27.9009 30.2602 27.6534 30.2602H27.2167C26.9692 30.2602 26.7654 30.0548 26.7654 29.8053V22.9367C26.7654 22.6872 26.9692 22.4817 27.2167 22.4817H27.6534C27.9155 22.4817 28.1048 22.6872 28.1048 22.9367Z" fill="white"/>
</g>
<defs>
<clipPath id="clip0_3806_3795">
<rect width="19.8" height="22" fill="white" transform="translate(8.3335 8.3335)"/>
</clipPath>
</defs>
</svg>
