<svg width="16" height="16" viewBox="0 0 16 16" fill="none" xmlns="http://www.w3.org/2000/svg">
<path fill-rule="evenodd" clip-rule="evenodd" d="M13.3333 5.3335H2.66667C2.29867 5.3335 2 5.63216 2 6.00016V7.3335C2 7.7015 2.29867 8.00016 2.66667 8.00016H13.3333C13.7013 8.00016 14 7.7015 14 7.3335V6.00016C14 5.63216 13.7013 5.3335 13.3333 5.3335Z" stroke="white" stroke-width="1.5" stroke-linecap="round" stroke-linejoin="round"/>
<path d="M7.99984 14.0002V5.3335" stroke="white" stroke-width="1.5" stroke-linecap="round" stroke-linejoin="round"/>
<path d="M10.4644 4.4082C9.74574 5.1562 8.61441 5.33354 8.06641 5.33354" stroke="white" stroke-width="1.5" stroke-linecap="round" stroke-linejoin="round"/>
<path d="M8.06606 5.33357C8.06606 5.33357 7.73673 3.25624 8.54673 2.41357" stroke="white" stroke-width="1.5" stroke-linecap="round" stroke-linejoin="round"/>
<path d="M10.464 4.40816C10.9934 3.85749 10.9934 2.96415 10.464 2.41349C9.9347 1.86282 9.0767 1.86282 8.54736 2.41349" stroke="white" stroke-width="1.5" stroke-linecap="round" stroke-linejoin="round"/>
<path d="M5.53613 4.4082C6.2548 5.1562 7.38613 5.33354 7.93413 5.33354" stroke="white" stroke-width="1.5" stroke-linecap="round" stroke-linejoin="round"/>
<path d="M7.9341 5.33357C7.9341 5.33357 8.26344 3.25624 7.45343 2.41357" stroke="white" stroke-width="1.5" stroke-linecap="round" stroke-linejoin="round"/>
<path d="M5.53616 4.40816C5.00683 3.85749 5.00683 2.96415 5.53616 2.41349C6.06549 1.86282 6.92349 1.86282 7.45283 2.41349" stroke="white" stroke-width="1.5" stroke-linecap="round" stroke-linejoin="round"/>
<path d="M12.6668 8V13.3333C12.6668 13.7013 12.3682 14 12.0002 14H4.00016C3.63216 14 3.3335 13.7013 3.3335 13.3333V8" stroke="white" stroke-width="1.5" stroke-linecap="round" stroke-linejoin="round"/>
</svg>
