<svg width="24" height="24" viewBox="0 0 24 24" fill="none" xmlns="http://www.w3.org/2000/svg">
<path d="M1 12C1 18.0751 5.92487 23 12 23C18.0751 23 23 18.0751 23 12C23 5.92487 18.0751 1 12 1C5.92487 1 1 5.92487 1 12Z" fill="#09090C"/>
<g clip-path="url(#clip0_3806_10285)">
<path d="M14.8363 18.2C14.251 18.2 13.7531 17.7861 13.6308 17.2137C13.5697 16.9055 13.4998 16.5357 13.4212 16.1218C13.2115 14.933 12.8272 14.4751 11.9973 14.4399H11.1325V13.5945H12.0759C13.0543 13.5945 13.6745 12.9429 13.6745 11.9478C13.6745 10.8207 13.0106 10.3276 12.0497 10.3276C11.875 10.3276 10.7307 10.3276 9.41168 10.3276V17.6981C9.41168 17.927 9.22824 18.1031 9.00986 18.1031C8.78274 18.1031 8.60803 17.9182 8.60803 17.6981V10.3276C7.58601 10.3276 6.55524 10.3276 5.85642 10.3276C5.38471 10.3276 5.00909 9.9489 5.00909 9.47338C5.00909 9.47338 6.82604 9.47338 8.60803 9.47338V8.4431C8.5993 6.54103 9.87465 5 11.4383 5H14.0589C14.286 5 14.4607 5.18492 14.4607 5.40507C14.4607 5.62522 14.2772 5.81014 14.0589 5.81014H11.4383C10.3202 5.81014 9.40295 6.99013 9.40295 8.4431V9.45577C10.6521 9.45577 11.7353 9.45577 11.9799 9.45577C12.9495 9.45577 13.5872 9.68472 14.0327 10.169C14.3821 10.5477 14.583 11.1377 14.583 11.8157C14.583 12.9517 13.989 13.7178 13.2465 14.026V14.0612C13.7881 14.2902 14.1113 14.9154 14.286 15.8136C14.3995 16.4212 14.5044 16.932 14.5917 17.3282C14.6878 17.7333 14.7664 18.0239 14.8363 18.2Z" fill="white"/>
<path d="M16.8801 11.9126V12.2384C16.8801 12.3881 16.7578 12.5114 16.6093 12.5114H16.3036C16.1551 12.5114 16.0328 12.3881 16.0328 12.2384V11.9126C16.0328 11.7629 16.1551 11.6396 16.3036 11.6396H16.6093C16.7665 11.6396 16.8801 11.7629 16.8801 11.9126ZM16.8626 13.7619V17.883C16.8626 18.0327 16.7403 18.156 16.5918 18.156H16.3298C16.1813 18.156 16.059 18.0327 16.059 17.883V13.7619C16.059 13.6122 16.1813 13.4889 16.3298 13.4889H16.5918C16.7491 13.4889 16.8626 13.6122 16.8626 13.7619Z" fill="white"/>
</g>
<defs>
<clipPath id="clip0_3806_10285">
<rect width="11.88" height="13.2" fill="white" transform="translate(5 5)"/>
</clipPath>
</defs>
</svg>
