<svg width="24" height="24" viewBox="0 0 24 24" fill="none" xmlns="http://www.w3.org/2000/svg">
<path fill-rule="evenodd" clip-rule="evenodd" d="M18.5 11.9634C18.5 12.3776 18.1642 12.7134 17.75 12.7134L5.75 12.7134C5.33579 12.7134 5 12.3776 5 11.9634C5 11.5492 5.33579 11.2134 5.75 11.2134L17.75 11.2134C18.1642 11.2134 18.5 11.5492 18.5 11.9634Z" fill="white"/>
<path fill-rule="evenodd" clip-rule="evenodd" d="M10.5665 7.14643C10.8594 7.43932 10.8594 7.91419 10.5665 8.20709L6.81022 11.9633L10.5665 15.7196C10.8594 16.0125 10.8594 16.4873 10.5665 16.7802C10.2736 17.0731 9.7987 17.0731 9.5058 16.7802L5.21923 12.4937C4.92634 12.2008 4.92634 11.7259 5.21923 11.433L9.5058 7.14643C9.7987 6.85353 10.2736 6.85353 10.5665 7.14643Z" fill="white"/>
</svg>
