<svg width="40" height="40" viewBox="0 0 40 40" fill="none" xmlns="http://www.w3.org/2000/svg">
<path d="M8.67969 22.4905L9.48246 22.1439L19.3712 17.8381L30.0627 22.4905L26.0488 30.7919L16.2331 32.1785L8.84389 24.2055L8.67969 22.4905Z" fill="#133444"/>
<path d="M27.855 17.3819C26.0852 15.2473 23.5857 13.8789 20.849 13.514L20.6665 13.4957C19.809 13.3863 18.9515 13.3863 18.094 13.4957L17.9115 13.514C15.1748 13.8789 12.6752 15.2655 10.9055 17.3819L10.4676 18.1117L9.71958 19.3341L9.17223 20.2281C9.17223 20.2464 9.15399 20.2829 9.13574 20.3011V20.3194L10.3217 21.0309L17.8933 25.5192L19.3529 26.3767V15.6669L17.8933 16.3237V14.7182L19.3529 14.0613L20.8125 14.7182L28.2564 18.1117L27.855 17.3819Z" fill="#C42370"/>
<path d="M30.3913 25.1537C30.3731 28.675 28.7858 31.9956 26.0673 34.2215C25.0273 35.079 23.8596 35.7176 22.5825 36.1555C21.5425 36.5021 20.4661 36.6663 19.3714 36.6663C13.2776 36.6663 8.33325 31.2476 8.33325 25.1537C8.33325 24.2597 8.44272 23.3657 8.66166 22.4899L19.3532 28.821L30.0447 22.4899C30.2818 23.3657 30.4096 24.2597 30.3913 25.1537Z" fill="#1C4D6B"/>
<path d="M18.0941 13.4955L19.3712 14.0611L17.9116 14.7362V13.4043L18.0941 13.4955Z" fill="black"/>
<path d="M17.9116 16.3419L19.3712 15.6669V26.3949L17.9116 25.5191V16.3419Z" fill="black"/>
<path d="M19.3713 15.6669V26.3949L29.625 20.3376L19.3713 15.6669Z" fill="#1D4259"/>
<path d="M19.3713 3.33331V15.6669L29.625 20.3376L19.3713 3.33331Z" fill="#4B6B9A"/>
<path d="M19.3713 15.667V26.3768L17.9117 25.5192L9.13592 20.3377H9.11768H9.13592C9.13592 20.3195 9.15417 20.283 9.17241 20.2647L10.4496 18.1301L17.8935 14.7548V16.3421L19.3713 15.667Z" fill="#343535"/>
<path d="M19.3711 15.6669V26.3949L17.9115 25.5191L9.13574 20.3376L9.15399 20.3193L17.9115 16.3419L19.3711 15.6669Z" fill="#3E5578"/>
<path d="M19.3711 3.33331V15.6669L9.13574 20.3376L19.3711 3.33331Z" fill="#6DB2D8"/>
<path d="M15.2297 35.7913C15.3757 35.8642 15.5399 35.9189 15.6859 35.9736C15.5399 35.9189 15.3939 35.8459 15.2297 35.7913Z" fill="#335F8A"/>
<path d="M15.686 35.9736C15.832 36.0284 15.9962 36.1013 16.1604 36.1378C16.0144 36.1013 15.8502 36.0466 15.686 35.9736Z" fill="#335F8A"/>
<path d="M16.5801 36.265C16.7078 36.3015 16.8173 36.338 16.945 36.3562C16.8173 36.338 16.6895 36.3015 16.5801 36.265Z" fill="#335F8A"/>
<path d="M8.68021 22.4899L19.3717 28.8209C19.2257 29.7879 18.9703 30.7184 18.6054 31.6306C17.7479 33.7106 16.0329 35.9 12.6758 34.2214C9.95735 31.9955 8.37005 28.675 8.35181 25.1537C8.35181 24.2597 8.46128 23.3657 8.68021 22.4899Z" fill="#6DB2D8"/>
<path d="M26.0672 34.2221L26.0307 34.2404C25.976 34.2769 25.9212 34.3316 25.8665 34.3681L25.8482 34.3863C25.7935 34.4411 25.7205 34.4776 25.6658 34.5323C25.5928 34.587 25.5381 34.6418 25.4651 34.6783C25.3921 34.7148 25.3191 34.7695 25.2644 34.8242C25.1914 34.879 25.1367 34.8972 25.082 34.9519L25.0455 34.9702C24.9725 35.0067 24.9178 35.0432 24.863 35.0979C24.863 35.0979 24.8448 35.0979 24.8448 35.1161C24.7718 35.1526 24.7171 35.1891 24.6441 35.2439C24.5711 35.2803 24.4981 35.3168 24.4251 35.3716C24.3522 35.4081 24.2792 35.4445 24.2062 35.481L23.9873 35.5905C23.9143 35.627 23.8413 35.6635 23.7683 35.7C23.6954 35.7365 23.6224 35.773 23.5494 35.8094C23.4034 35.8824 23.2392 35.9372 23.0933 35.9919C22.9473 36.0466 22.7831 36.1014 22.6189 36.1561C22.5642 36.1743 22.4912 36.1926 22.4365 36.2108L22.2175 36.2838C22.0898 36.3203 21.9803 36.3568 21.8526 36.375C21.8161 36.3933 21.7614 36.3933 21.7067 36.4115L21.6337 36.4298L21.433 36.4663C21.36 36.4845 21.3235 36.4845 21.2505 36.5027C21.1958 36.521 21.1411 36.521 21.0863 36.5392C21.0316 36.5392 20.9586 36.5575 20.9039 36.5757C20.8674 36.5757 20.8492 36.5757 20.8127 36.594L20.6667 36.6122H20.5937C20.539 36.6122 20.4843 36.6305 20.4478 36.6305C20.393 36.6305 20.32 36.6487 20.2653 36.6487C20.2106 36.6487 20.1741 36.6487 20.1194 36.6487C20.0646 36.6487 20.0281 36.6487 19.9916 36.6487C19.9369 36.6487 19.8822 36.6487 19.8457 36.6487C19.8092 36.6487 19.6997 36.6487 19.645 36.6487H19.2071C19.1341 36.6487 19.0612 36.6487 19.0064 36.6487C18.9517 36.6487 18.8969 36.6487 18.8605 36.6487C18.824 36.6487 18.7692 36.6487 18.7327 36.6487C18.6963 36.6487 18.6415 36.6487 18.5868 36.6487C18.5321 36.6487 18.4591 36.6305 18.4043 36.6305C18.3496 36.6305 18.2949 36.6305 18.2584 36.6122H18.1854C18.1489 36.6122 18.0942 36.594 18.0394 36.594C18.0029 36.594 17.9847 36.594 17.9482 36.5757C17.8935 36.5757 17.8205 36.5575 17.7658 36.5392C17.711 36.5392 17.6563 36.521 17.6016 36.5027C17.5468 36.5027 17.4738 36.4845 17.4191 36.4663C17.3644 36.448 17.2914 36.4298 17.2184 36.4298L17.1454 36.4115C17.0907 36.4115 17.036 36.3933 16.9995 36.3933C16.8718 36.3568 16.7441 36.3203 16.6346 36.3021L16.4156 36.2291C16.3427 36.2108 16.2879 36.1926 16.2332 36.1743C16.069 36.1196 15.923 36.0649 15.7588 36.0101C15.5946 35.9554 15.4487 35.8824 15.3027 35.8277C15.2297 35.7912 15.1567 35.7547 15.0838 35.7182L14.8648 35.6088L14.6459 35.4993C14.5729 35.4628 14.4999 35.4263 14.427 35.3898C14.354 35.3533 14.281 35.3168 14.208 35.2621C14.135 35.2256 14.0803 35.1891 14.0073 35.1344L13.9891 35.1161C13.9161 35.0796 13.8614 35.0432 13.8066 34.9884L13.7701 34.9702C13.7154 34.9337 13.6424 34.8972 13.5877 34.8425C13.533 34.806 13.4417 34.7512 13.387 34.6965C13.314 34.6418 13.241 34.6053 13.1863 34.5505L13.0039 34.4046L12.9856 34.3863C12.9309 34.3499 12.8761 34.2951 12.8214 34.2586L12.7849 34.2404C16.1237 35.9007 17.857 33.7113 18.7145 31.6496C19.0794 30.7556 19.3348 29.8069 19.4808 28.8399C19.6267 29.8069 19.8822 30.7374 20.2471 31.6496C20.9951 33.693 22.7284 35.8824 26.0672 34.2221Z" fill="#529BBA"/>
<path d="M21.8162 36.3744C21.9439 36.3379 22.0716 36.3014 22.1811 36.2831C22.0716 36.3014 21.9439 36.3379 21.8162 36.3744Z" fill="#335F8A"/>
<path d="M22.5828 36.1378C22.747 36.0831 22.8929 36.0284 23.0571 35.9736C22.9112 36.0466 22.747 36.1013 22.5828 36.1378Z" fill="#335F8A"/>
<path d="M23.0571 35.9736C23.2031 35.9189 23.3673 35.8459 23.5132 35.7913C23.3673 35.8459 23.2213 35.9189 23.0571 35.9736Z" fill="#335F8A"/>
<path d="M30.3913 25.1537C30.373 28.675 28.7857 31.9956 26.0672 34.2215C22.7284 35.8818 20.9951 33.6924 20.1376 31.6307C19.7727 30.7367 19.5173 29.7879 19.3713 28.821L30.0629 22.4899C30.2818 23.3657 30.3913 24.2597 30.3913 25.1537Z" fill="#4B6B9A"/>
</svg>
