<svg width="32" height="32" viewBox="0 0 32 32" fill="none" xmlns="http://www.w3.org/2000/svg">
<path d="M1.33398 15.9994C1.33398 24.0996 7.90048 30.6661 16.0007 30.6661C24.1008 30.6661 30.6673 24.0996 30.6673 15.9994C30.6673 7.89926 24.1008 1.33276 16.0007 1.33276C7.90048 1.33276 1.33398 7.89926 1.33398 15.9994Z" fill="#3B3C4E"/>
<g clip-path="url(#clip0_3824_70396)">
<path d="M19.7826 24.266C19.0023 24.266 18.3384 23.7142 18.1753 22.951C18.0938 22.5401 18.0006 22.0469 17.8958 21.4951C17.6163 19.91 17.1038 19.2995 15.9973 19.2525H14.8443V18.1254H16.1022C17.4066 18.1254 18.2336 17.2565 18.2336 15.9298C18.2336 14.4269 17.3484 13.7694 16.0672 13.7694C15.8343 13.7694 14.3085 13.7694 12.5498 13.7694V23.5968C12.5498 23.902 12.3052 24.1369 12.014 24.1369C11.7112 24.1369 11.4783 23.8903 11.4783 23.5968V13.7694C10.1156 13.7694 8.74122 13.7694 7.80945 13.7694C7.18051 13.7694 6.67969 13.2645 6.67969 12.6305C6.67969 12.6305 9.10228 12.6305 11.4783 12.6305V11.2568C11.4666 8.72072 13.1671 6.66602 15.2519 6.66602H18.746C19.0489 6.66602 19.2818 6.91258 19.2818 7.20611C19.2818 7.49964 19.0372 7.7462 18.746 7.7462H15.2519C13.7611 7.7462 12.5382 9.31952 12.5382 11.2568V12.607C14.2037 12.607 15.6479 12.607 15.974 12.607C17.2669 12.607 18.1171 12.9123 18.7111 13.5581C19.177 14.0629 19.4449 14.8496 19.4449 15.7537C19.4449 17.2683 18.6529 18.2898 17.6629 18.7007V18.7477C18.385 19.0529 18.8159 19.8866 19.0489 21.0842C19.2003 21.8943 19.34 22.5753 19.4565 23.1036C19.5846 23.6437 19.6894 24.0312 19.7826 24.266Z" fill="#53F3C3"/>
<path d="M22.5077 15.8828V16.3172C22.5077 16.5168 22.3446 16.6812 22.1466 16.6812H21.739C21.541 16.6812 21.3779 16.5168 21.3779 16.3172V15.8828C21.3779 15.6832 21.541 15.5188 21.739 15.5188H22.1466C22.3563 15.5188 22.5077 15.6832 22.5077 15.8828ZM22.4844 18.3484V23.8433C22.4844 24.0429 22.3213 24.2073 22.1233 24.2073H21.7739C21.5759 24.2073 21.4129 24.0429 21.4129 23.8433V18.3484C21.4129 18.1488 21.5759 17.9844 21.7739 17.9844H22.1233C22.333 17.9844 22.4844 18.1488 22.4844 18.3484Z" fill="#53F3C3"/>
</g>
<defs>
<clipPath id="clip0_3824_70396">
<rect width="15.84" height="17.6" fill="white" transform="translate(6.66748 6.66602)"/>
</clipPath>
</defs>
</svg>
