<svg width="32" height="32" viewBox="0 0 32 32" fill="none" xmlns="http://www.w3.org/2000/svg">
<path d="M1.33383 15.9996C1.33383 24.0997 7.90032 30.6662 16.0005 30.6662C24.1007 30.6662 30.6672 24.0997 30.6672 15.9996C30.6672 7.89938 24.1007 1.33289 16.0005 1.33289C7.90032 1.33289 1.33383 7.89938 1.33383 15.9996Z" fill="#3B3C4E"/>
<g clip-path="url(#clip0_3824_71080)">
<path d="M19.7822 24.2663C19.0019 24.2663 18.338 23.7144 18.1749 22.9513C18.0934 22.5403 18.0002 22.0472 17.8954 21.4953C17.6159 19.9103 17.1034 19.2997 15.9969 19.2528H14.8439V18.1256H16.1018C17.4062 18.1256 18.2332 17.2568 18.2332 15.93C18.2332 14.4272 17.348 13.7697 16.0668 13.7697C15.8339 13.7697 14.3081 13.7697 12.5494 13.7697V23.597C12.5494 23.9023 12.3048 24.1371 12.0136 24.1371C11.7108 24.1371 11.4779 23.8905 11.4779 23.597V13.7697C10.1152 13.7697 8.74082 13.7697 7.80906 13.7697C7.18011 13.7697 6.67929 13.2648 6.67929 12.6308C6.67929 12.6308 9.10188 12.6308 11.4779 12.6308V11.2571C11.4662 8.72096 13.1667 6.66626 15.2515 6.66626H18.7456C19.0485 6.66626 19.2814 6.91282 19.2814 7.20635C19.2814 7.49988 19.0368 7.74645 18.7456 7.74645H15.2515C13.7607 7.74645 12.5378 9.31976 12.5378 11.2571V12.6073C14.2033 12.6073 15.6475 12.6073 15.9736 12.6073C17.2665 12.6073 18.1167 12.9126 18.7107 13.5583C19.1766 14.0632 19.4445 14.8498 19.4445 15.7539C19.4445 17.2685 18.6525 18.29 17.6625 18.701V18.7479C18.3846 19.0532 18.8155 19.8868 19.0485 21.0844C19.1999 21.8945 19.3396 22.5755 19.4561 23.1039C19.5842 23.644 19.6891 24.0314 19.7822 24.2663Z" fill="#53F3C3"/>
<path d="M22.5073 15.883V16.3174C22.5073 16.517 22.3442 16.6814 22.1462 16.6814H21.7386C21.5406 16.6814 21.3775 16.517 21.3775 16.3174V15.883C21.3775 15.6834 21.5406 15.519 21.7386 15.519H22.1462C22.3559 15.519 22.5073 15.6834 22.5073 15.883ZM22.484 18.3487V23.8435C22.484 24.0431 22.3209 24.2075 22.1229 24.2075H21.7735C21.5755 24.2075 21.4125 24.0431 21.4125 23.8435V18.3487C21.4125 18.1491 21.5755 17.9847 21.7735 17.9847H22.1229C22.3326 17.9847 22.484 18.1491 22.484 18.3487Z" fill="#53F3C3"/>
</g>
<defs>
<clipPath id="clip0_3824_71080">
<rect width="15.84" height="17.6" fill="white" transform="translate(6.66718 6.66626)"/>
</clipPath>
</defs>
</svg>
