<svg width="40" height="40" viewBox="0 0 40 40" fill="none" xmlns="http://www.w3.org/2000/svg">
<path d="M3.35519 36.6666C3.33204 36.2036 3.32432 35.7405 3.34748 35.2774C3.50183 35.2311 3.65619 35.2003 3.81826 35.1771C4.28134 35.0999 4.74441 34.9842 5.19204 34.853C5.31553 34.8144 5.43901 34.7681 5.5625 34.7218C6.15677 34.4902 6.68159 34.1043 7.08291 33.6104C7.36076 33.2631 7.60001 32.8849 7.80839 32.4913C8.10167 31.9511 8.35636 31.3876 8.58789 30.8165C9.05096 29.6589 9.51404 28.5089 9.96939 27.3512C11.5438 23.3688 13.1183 19.3864 14.6927 15.404C16.1823 11.6146 17.6486 7.82509 19.0842 4.01248C19.115 3.9353 19.1459 3.85813 19.1768 3.78095C19.7093 3.63431 20.2264 3.47995 20.7667 3.33331C20.7975 3.41049 20.8284 3.47995 20.8516 3.54941C21.4613 5.24734 22.071 6.94526 22.673 8.6509C24.7491 14.447 26.8252 20.2354 28.9553 26.0083C29.5418 27.5828 30.1284 29.1649 30.7227 30.7394C30.9542 31.3799 31.2321 32.0128 31.5485 32.6148C31.6874 32.8772 31.834 33.1242 31.9961 33.3711C32.4901 34.1429 33.2541 34.6909 34.1417 34.9224C34.6202 35.0459 35.0987 35.1462 35.5926 35.208L35.9399 35.262C35.9862 35.4164 35.9631 35.563 35.9631 35.7096C35.9631 35.8563 35.9631 36.0261 35.9631 36.1804C35.9708 36.3348 35.9631 36.4814 35.9554 36.6358C35.9091 36.6435 35.8705 36.6512 35.8242 36.6589C35.7701 36.6589 35.7161 36.6589 35.6621 36.6589H23.6145C23.5991 36.6358 23.5914 36.6049 23.5837 36.574C23.5837 36.1573 23.5837 35.7405 23.5837 35.3237C23.5837 35.3083 23.5914 35.2852 23.5991 35.2697C23.6994 35.2389 23.7998 35.2234 23.9078 35.208C24.4095 35.1385 24.9034 35.0459 25.3974 34.9147C25.5903 34.8607 25.791 34.7912 25.9762 34.714C26.0688 34.6754 26.1614 34.6291 26.254 34.5751C26.7403 34.305 26.9332 33.8805 26.8869 33.3403C26.8638 33.0933 26.8252 32.854 26.7557 32.6148C26.6554 32.2443 26.5242 31.8816 26.4007 31.5266C23.8692 24.4648 21.3686 17.3952 18.8912 10.3102C18.8681 10.2331 18.8526 10.1482 18.7755 10.0787C18.7523 10.0941 18.7137 10.1096 18.6983 10.125C18.6751 10.1636 18.6597 10.2022 18.652 10.2408C17.4403 13.7215 16.1514 17.1791 14.8702 20.629C13.9209 23.1836 12.9716 25.7459 12.0918 28.3237C11.7368 29.3579 11.3972 30.3998 11.0653 31.4417C10.9341 31.843 10.8415 32.252 10.7798 32.6611C10.7335 32.9389 10.7257 33.2168 10.7566 33.5023C10.7952 33.8651 10.9881 34.1969 11.2891 34.413C11.4821 34.552 11.6982 34.66 11.9297 34.7372C12.2925 34.8684 12.6629 34.961 13.0411 35.0228C13.4579 35.0999 13.8746 35.1617 14.2991 35.2234C14.33 35.2311 14.3531 35.2311 14.3917 35.2388C14.3994 35.2697 14.4072 35.3006 14.4149 35.3315C14.4149 35.7328 14.4149 36.1418 14.4149 36.5432C14.4149 36.5663 14.4071 36.5895 14.3994 36.6126C14.3608 36.6203 14.3223 36.6281 14.2837 36.6281C14.2296 36.6281 14.1756 36.6281 14.1216 36.6281L3.35519 36.6666Z" fill="black"/>
</svg>
