<svg width="25" height="24" viewBox="0 0 25 24" fill="none" xmlns="http://www.w3.org/2000/svg">
<path fill-rule="evenodd" clip-rule="evenodd" d="M20.5 8H4.5C3.948 8 3.5 8.448 3.5 9V11C3.5 11.552 3.948 12 4.5 12H20.5C21.052 12 21.5 11.552 21.5 11V9C21.5 8.448 21.052 8 20.5 8Z" stroke="#0177FB" stroke-width="1.5" stroke-linecap="round" stroke-linejoin="round"/>
<path d="M12.5 21V8" stroke="#0177FB" stroke-width="1.5" stroke-linecap="round" stroke-linejoin="round"/>
<path d="M16.1961 6.61182C15.1181 7.73382 13.4211 7.99982 12.5991 7.99982" stroke="#0177FB" stroke-width="1.5" stroke-linecap="round" stroke-linejoin="round"/>
<path d="M12.5991 8.00012C12.5991 8.00012 12.1051 4.88412 13.3201 3.62012" stroke="#0177FB" stroke-width="1.5" stroke-linecap="round" stroke-linejoin="round"/>
<path d="M16.196 6.61199C16.99 5.78599 16.99 4.44599 16.196 3.61999C15.402 2.79399 14.115 2.79399 13.321 3.61999" stroke="#0177FB" stroke-width="1.5" stroke-linecap="round" stroke-linejoin="round"/>
<path d="M8.80396 6.61182C9.88196 7.73382 11.579 7.99982 12.401 7.99982" stroke="#0177FB" stroke-width="1.5" stroke-linecap="round" stroke-linejoin="round"/>
<path d="M12.4009 8.00012C12.4009 8.00012 12.8949 4.88412 11.6799 3.62012" stroke="#0177FB" stroke-width="1.5" stroke-linecap="round" stroke-linejoin="round"/>
<path d="M8.804 6.61199C8.01 5.78599 8.01 4.44599 8.804 3.61999C9.598 2.79399 10.885 2.79399 11.679 3.61999" stroke="#0177FB" stroke-width="1.5" stroke-linecap="round" stroke-linejoin="round"/>
<path d="M19.5 12V20C19.5 20.552 19.052 21 18.5 21H6.5C5.948 21 5.5 20.552 5.5 20V12" stroke="#0177FB" stroke-width="1.5" stroke-linecap="round" stroke-linejoin="round"/>
</svg>
