<svg width="25" height="24" viewBox="0 0 25 24" fill="none" xmlns="http://www.w3.org/2000/svg">
<path fill-rule="evenodd" clip-rule="evenodd" d="M20.5 8H4.5C3.948 8 3.5 8.448 3.5 9V11C3.5 11.552 3.948 12 4.5 12H20.5C21.052 12 21.5 11.552 21.5 11V9C21.5 8.448 21.052 8 20.5 8Z" stroke="#0177FB" stroke-width="1.5" stroke-linecap="round" stroke-linejoin="round"/>
<path d="M12.5 21V8" stroke="#0177FB" stroke-width="1.5" stroke-linecap="round" stroke-linejoin="round"/>
<path d="M16.1961 6.61182C15.1181 7.73382 13.4211 7.99982 12.5991 7.99982" stroke="#0177FB" stroke-width="1.5" stroke-linecap="round" stroke-linejoin="round"/>
<path d="M12.5988 8.00012C12.5988 8.00012 12.1048 4.88412 13.3198 3.62012" stroke="#0177FB" stroke-width="1.5" stroke-linecap="round" stroke-linejoin="round"/>
<path d="M16.1958 6.61199C16.9898 5.78599 16.9898 4.44599 16.1958 3.61999C15.4018 2.79399 14.1148 2.79399 13.3208 3.61999" stroke="#0177FB" stroke-width="1.5" stroke-linecap="round" stroke-linejoin="round"/>
<path d="M8.8042 6.61182C9.8822 7.73382 11.5792 7.99982 12.4012 7.99982" stroke="#0177FB" stroke-width="1.5" stroke-linecap="round" stroke-linejoin="round"/>
<path d="M12.4012 8.00012C12.4012 8.00012 12.8952 4.88412 11.6802 3.62012" stroke="#0177FB" stroke-width="1.5" stroke-linecap="round" stroke-linejoin="round"/>
<path d="M8.804 6.61199C8.01 5.78599 8.01 4.44599 8.804 3.61999C9.598 2.79399 10.885 2.79399 11.679 3.61999" stroke="#0177FB" stroke-width="1.5" stroke-linecap="round" stroke-linejoin="round"/>
<path d="M19.5 12V20C19.5 20.552 19.052 21 18.5 21H6.5C5.948 21 5.5 20.552 5.5 20V12" stroke="#0177FB" stroke-width="1.5" stroke-linecap="round" stroke-linejoin="round"/>
</svg>
