<svg width="40" height="40" viewBox="0 0 40 40" fill="none" xmlns="http://www.w3.org/2000/svg">
<path d="M20.2391 3.38295V3.39952C20.2557 3.48236 20.2557 3.58176 20.2557 3.68116V15.6262C20.2391 15.6924 20.1894 15.709 20.1397 15.7421C19.7918 15.9078 19.4604 16.0569 19.1125 16.206C18.6321 16.4214 18.135 16.6533 17.6546 16.8687L15.915 17.6639C15.4346 17.8793 14.9541 18.0947 14.4903 18.3101C13.927 18.5751 13.3471 18.8236 12.7838 19.0887C12.3034 19.3041 11.8229 19.536 11.3259 19.7514C10.9283 19.9336 10.5307 20.0993 10.1496 20.2816C10.1165 20.2981 10.0834 20.3147 10.0502 20.3147C10.0337 20.3147 10.0337 20.3147 10.0171 20.2981L10.4644 19.5526C11.3259 18.1278 12.1708 16.7196 13.0323 15.2948C13.9435 13.7706 14.8713 12.2464 15.7825 10.7223C16.6274 9.31403 17.4889 7.90582 18.3339 6.4976C18.9468 5.47043 19.5764 4.44326 20.1894 3.41609C20.206 3.38295 20.2225 3.36639 20.2225 3.33325H20.2391C20.2225 3.34982 20.2391 3.36639 20.2391 3.38295Z" fill="#8A92B2"/>
<path d="M30.4108 20.2982L30.4273 20.3148L27.9919 21.7561L20.3379 26.279C20.3047 26.2956 20.2716 26.3121 20.255 26.3287C20.2053 26.3287 20.2053 26.279 20.2053 26.2624V26.1133V15.8748C20.2053 15.8251 20.2053 15.7588 20.2219 15.7091C20.2385 15.6428 20.2882 15.6594 20.3379 15.676C20.5532 15.7754 20.7852 15.8748 21.0006 15.9742C21.6467 16.2724 22.2928 16.5706 22.9389 16.8522C23.5022 17.1007 24.0489 17.3658 24.6122 17.6143C25.1755 17.8628 25.7388 18.1279 26.3021 18.3764C26.7825 18.5918 27.2795 18.8237 27.76 19.0391C28.2404 19.2545 28.7375 19.4864 29.2179 19.7018C29.599 19.8675 29.98 20.0497 30.3611 20.2154C30.3611 20.2651 30.3776 20.2816 30.4108 20.2982Z" fill="#454A75"/>
<path d="M20.2384 36.6168C20.2384 36.6334 20.2218 36.65 20.2218 36.6665H20.2052C20.2052 36.6334 20.1721 36.6168 20.1555 36.5837C19.1284 35.1423 18.1012 33.6844 17.074 32.2431C16.0303 30.7686 14.97 29.2775 13.9262 27.803C12.9156 26.3782 11.8885 24.9369 10.8779 23.5121C10.6128 23.1311 10.3477 22.7666 10.0826 22.3855C10.0661 22.3524 10.0495 22.3358 10.0164 22.2861C10.0661 22.2861 10.0992 22.3193 10.1158 22.3358C11.5571 23.1808 12.9819 24.0257 14.4232 24.8706C16.08 25.8481 17.7201 26.8256 19.3769 27.803L20.2218 28.3C20.2549 28.3332 20.2549 28.3663 20.2549 28.3995V36.3849C20.2549 36.4677 20.2549 36.5505 20.2384 36.6168Z" fill="#8A92B2"/>
<path d="M10 20.3311V20.3146C10.5302 20.0826 11.0437 19.8341 11.5739 19.6022C12.2531 19.2874 12.9324 18.9892 13.6117 18.6744C14.1252 18.4425 14.6554 18.194 15.169 17.962C15.9311 17.6141 16.6766 17.2828 17.4387 16.9349C17.9523 16.7029 18.4659 16.471 18.996 16.2225C19.3605 16.0568 19.7415 15.8911 20.106 15.7254C20.1392 15.7089 20.1889 15.6923 20.2054 15.6592C20.222 15.6592 20.222 15.6757 20.2054 15.6923V26.2125C20.2054 26.2622 20.1889 26.3119 20.222 26.3451C20.1889 26.3948 20.1557 26.3451 20.1392 26.3285C19.9901 26.2457 19.841 26.1628 19.6918 26.0634C16.4944 24.1748 13.2803 22.2695 10.0828 20.3808C10.0663 20.3643 10.0331 20.3477 10 20.3311Z" fill="#62688F"/>
<path d="M30.3779 22.2861H30.3945C30.3945 22.3193 30.3613 22.3524 30.3448 22.3855C27.2964 26.6765 24.248 30.9839 21.1996 35.2749C20.8849 35.7222 20.5535 36.1695 20.2387 36.6168C20.2222 36.6002 20.2222 36.5837 20.2222 36.5671V36.4677V28.4326V28.2835C20.918 27.8693 21.5973 27.4717 22.2931 27.0575C24.977 25.467 27.6609 23.8932 30.3282 22.3027C30.3448 22.3193 30.3613 22.3027 30.3779 22.2861Z" fill="#62688F"/>
<path d="M20.2221 15.6923V15.6592V15.5598V3.53195C20.2221 3.48225 20.2055 3.44912 20.2387 3.39941C23.6018 8.98258 26.965 14.5492 30.3116 20.1323C30.3447 20.1821 30.3944 20.2483 30.411 20.3146C30.179 20.2318 29.9637 20.1158 29.7483 20.0164C29.4832 19.9004 29.2016 19.7679 28.9365 19.6519C28.7708 19.5691 28.5886 19.5028 28.4229 19.42C28.1413 19.2874 27.8596 19.1714 27.578 19.0389C27.4123 18.9726 27.2466 18.8898 27.0809 18.807L25.9875 18.31C25.8053 18.2271 25.623 18.1443 25.4242 18.0614L24.629 17.7135C24.4633 17.6473 24.2976 17.5644 24.132 17.4816L23.0385 16.9846C22.8563 16.9017 22.6741 16.8189 22.4752 16.7361L21.68 16.3881C21.4978 16.3053 21.3321 16.2225 21.1499 16.1396C20.8351 15.9905 20.5203 15.8414 20.189 15.7089C20.2387 15.6923 20.2221 15.6923 20.2221 15.6923Z" fill="#62688F"/>
</svg>
