<svg width="32" height="32" viewBox="0 0 32 32" fill="none" xmlns="http://www.w3.org/2000/svg">
<rect x="0.000488281" y="-0.000488281" width="32" height="32" rx="16" fill="#3B3C4E"/>
<path fill-rule="evenodd" clip-rule="evenodd" d="M24.2973 11.851H7.70421C7.13175 11.851 6.66714 12.3156 6.66714 12.888V14.9621C6.66714 15.5346 7.13175 15.9992 7.70421 15.9992H24.2973C24.8697 15.9992 25.3343 15.5346 25.3343 14.9621V12.888C25.3343 12.3156 24.8697 11.851 24.2973 11.851Z" stroke="#53F3C3" stroke-linecap="round" stroke-linejoin="round"/>
<path d="M16.0008 25.3328V11.851" stroke="#53F3C3" stroke-linecap="round" stroke-linejoin="round"/>
<path d="M19.8337 10.4115C18.7157 11.5751 16.9558 11.8509 16.1034 11.8509" stroke="#53F3C3" stroke-linecap="round" stroke-linejoin="round"/>
<path d="M16.1034 11.8509C16.1034 11.8509 15.591 8.61945 16.8511 7.30859" stroke="#53F3C3" stroke-linecap="round" stroke-linejoin="round"/>
<path d="M19.8337 10.4115C20.6571 9.55489 20.6571 8.16522 19.8337 7.3086C19.0102 6.45198 17.6755 6.45198 16.8521 7.3086" stroke="#53F3C3" stroke-linecap="round" stroke-linejoin="round"/>
<path d="M12.1678 10.4115C13.2857 11.5751 15.0456 11.8509 15.8981 11.8509" stroke="#53F3C3" stroke-linecap="round" stroke-linejoin="round"/>
<path d="M15.898 11.8509C15.898 11.8509 16.4103 8.61945 15.1503 7.30859" stroke="#53F3C3" stroke-linecap="round" stroke-linejoin="round"/>
<path d="M12.1677 10.4115C11.3443 9.55489 11.3443 8.16522 12.1677 7.3086C12.9911 6.45198 14.3258 6.45198 15.1492 7.3086" stroke="#53F3C3" stroke-linecap="round" stroke-linejoin="round"/>
<path d="M23.2601 15.9993V24.2958C23.2601 24.8683 22.7955 25.3329 22.2231 25.3329H9.77828C9.20582 25.3329 8.74121 24.8683 8.74121 24.2958V15.9993" stroke="#53F3C3" stroke-linecap="round" stroke-linejoin="round"/>
</svg>
