<svg width="32" height="32" viewBox="0 0 32 32" fill="none" xmlns="http://www.w3.org/2000/svg">
<path d="M1.33374 15.9997C1.33374 24.0998 7.90023 30.6663 16.0004 30.6663C24.1006 30.6663 30.6671 24.0998 30.6671 15.9997C30.6671 7.8995 24.1006 1.33301 16.0004 1.33301C7.90023 1.33301 1.33374 7.8995 1.33374 15.9997Z" fill="#3B3C4E"/>
<g clip-path="url(#clip0_3824_69934)">
<path d="M19.7821 24.2665C19.0018 24.2665 18.3379 23.7147 18.1748 22.9515C18.0933 22.5406 18.0001 22.0474 17.8953 21.4956C17.6158 19.9105 17.1033 19.3 15.9968 19.253H14.8438V18.1259H16.1017C17.4061 18.1259 18.2331 17.257 18.2331 15.9303C18.2331 14.4274 17.3479 13.7699 16.0667 13.7699C15.8338 13.7699 14.308 13.7699 12.5493 13.7699V23.5973C12.5493 23.9025 12.3047 24.1374 12.0136 24.1374C11.7107 24.1374 11.4778 23.8908 11.4778 23.5973V13.7699C10.1151 13.7699 8.74073 13.7699 7.80896 13.7699C7.18002 13.7699 6.6792 13.265 6.6792 12.631C6.6792 12.631 9.10179 12.631 11.4778 12.631V11.2573C11.4661 8.72121 13.1666 6.6665 15.2514 6.6665H18.7455C19.0484 6.6665 19.2813 6.91307 19.2813 7.2066C19.2813 7.50013 19.0367 7.74669 18.7455 7.74669H15.2514C13.7606 7.74669 12.5377 9.32001 12.5377 11.2573V12.6075C14.2032 12.6075 15.6474 12.6075 15.9736 12.6075C17.2664 12.6075 18.1166 12.9128 18.7106 13.5586C19.1765 14.0634 19.4444 14.8501 19.4444 15.7542C19.4444 17.2688 18.6524 18.2903 17.6624 18.7012V18.7482C18.3845 19.0534 18.8154 19.8871 19.0484 21.0847C19.1998 21.8948 19.3396 22.5758 19.456 23.1041C19.5841 23.6442 19.689 24.0317 19.7821 24.2665Z" fill="#53F3C3"/>
<path d="M22.5072 15.8835V16.3179C22.5072 16.5175 22.3441 16.6819 22.1461 16.6819H21.7385C21.5405 16.6819 21.3774 16.5175 21.3774 16.3179V15.8835C21.3774 15.6839 21.5405 15.5195 21.7385 15.5195H22.1461C22.3558 15.5195 22.5072 15.6839 22.5072 15.8835ZM22.4839 18.3492V23.844C22.4839 24.0436 22.3209 24.208 22.1229 24.208H21.7734C21.5754 24.208 21.4124 24.0436 21.4124 23.844V18.3492C21.4124 18.1496 21.5754 17.9852 21.7734 17.9852H22.1229C22.3325 17.9852 22.4839 18.1496 22.4839 18.3492Z" fill="#53F3C3"/>
</g>
<defs>
<clipPath id="clip0_3824_69934">
<rect width="15.84" height="17.6" fill="white" transform="translate(6.66699 6.6665)"/>
</clipPath>
</defs>
</svg>
