<svg width="32" height="32" viewBox="0 0 32 32" fill="none" xmlns="http://www.w3.org/2000/svg">
<path d="M1.33374 15.9994C1.33374 24.0996 7.90023 30.6661 16.0004 30.6661C24.1006 30.6661 30.6671 24.0996 30.6671 15.9994C30.6671 7.89926 24.1006 1.33276 16.0004 1.33276C7.90023 1.33276 1.33374 7.89926 1.33374 15.9994Z" fill="#3B3C4E"/>
<g clip-path="url(#clip0_3824_70480)">
<path d="M19.7821 24.266C19.0018 24.266 18.3379 23.7142 18.1748 22.951C18.0933 22.5401 18.0001 22.0469 17.8953 21.4951C17.6158 19.91 17.1033 19.2995 15.9968 19.2525H14.8438V18.1254H16.1017C17.4061 18.1254 18.2331 17.2565 18.2331 15.9298C18.2331 14.4269 17.3479 13.7694 16.0667 13.7694C15.8338 13.7694 14.308 13.7694 12.5493 13.7694V23.5968C12.5493 23.902 12.3047 24.1369 12.0136 24.1369C11.7107 24.1369 11.4778 23.8903 11.4778 23.5968V13.7694C10.1151 13.7694 8.74073 13.7694 7.80896 13.7694C7.18002 13.7694 6.6792 13.2645 6.6792 12.6305C6.6792 12.6305 9.10179 12.6305 11.4778 12.6305V11.2568C11.4661 8.72072 13.1666 6.66602 15.2514 6.66602H18.7455C19.0484 6.66602 19.2813 6.91258 19.2813 7.20611C19.2813 7.49964 19.0367 7.7462 18.7455 7.7462H15.2514C13.7606 7.7462 12.5377 9.31952 12.5377 11.2568V12.607C14.2032 12.607 15.6474 12.607 15.9736 12.607C17.2664 12.607 18.1166 12.9123 18.7106 13.5581C19.1765 14.0629 19.4444 14.8496 19.4444 15.7537C19.4444 17.2683 18.6524 18.2898 17.6624 18.7007V18.7477C18.3845 19.0529 18.8154 19.8866 19.0484 21.0842C19.1998 21.8943 19.3396 22.5753 19.456 23.1036C19.5841 23.6437 19.689 24.0312 19.7821 24.266Z" fill="#53F3C3"/>
<path d="M22.5072 15.8828V16.3172C22.5072 16.5168 22.3441 16.6812 22.1461 16.6812H21.7385C21.5405 16.6812 21.3774 16.5168 21.3774 16.3172V15.8828C21.3774 15.6832 21.5405 15.5188 21.7385 15.5188H22.1461C22.3558 15.5188 22.5072 15.6832 22.5072 15.8828ZM22.4839 18.3484V23.8433C22.4839 24.0429 22.3209 24.2073 22.1229 24.2073H21.7734C21.5754 24.2073 21.4124 24.0429 21.4124 23.8433V18.3484C21.4124 18.1488 21.5754 17.9844 21.7734 17.9844H22.1229C22.3325 17.9844 22.4839 18.1488 22.4839 18.3484Z" fill="#53F3C3"/>
</g>
<defs>
<clipPath id="clip0_3824_70480">
<rect width="15.84" height="17.6" fill="white" transform="translate(6.66699 6.66602)"/>
</clipPath>
</defs>
</svg>
