<svg width="24" height="24" viewBox="0 0 24 24" fill="none" xmlns="http://www.w3.org/2000/svg">
<g clip-path="url(#clip0_3806_10462)">
<path d="M18.407 14.0159C18.7987 13.0587 19.0002 12.0343 19 10.9999C19.0004 9.28559 18.4501 7.61644 17.4301 6.2385C16.4102 4.86056 14.9746 3.84671 13.3349 3.34636C11.6952 2.84601 9.93809 2.88563 8.3226 3.45938C6.7071 4.03313 5.31865 5.11067 4.36186 6.53318C3.40506 7.9557 2.93054 9.64795 3.00822 11.3605C3.0859 13.0731 3.71168 14.7155 4.79332 16.0455C5.87497 17.3756 7.35527 18.323 9.01607 18.7481C10.6769 19.1733 12.4303 19.0537 14.018 18.4069" stroke="white" stroke-width="1.5" stroke-linecap="round" stroke-linejoin="round"/>
<path d="M11 8.13212V7.49512" stroke="white" stroke-width="1.5" stroke-linecap="round" stroke-linejoin="round"/>
<path d="M11 13.8589V14.4949" stroke="white" stroke-width="1.5" stroke-linecap="round" stroke-linejoin="round"/>
<path d="M9.34285 13.1759C9.58985 13.5809 10.0119 13.8599 10.5229 13.8599H11.5689C11.8966 13.8609 12.2134 13.7417 12.4592 13.525C12.705 13.3082 12.8629 13.0089 12.9029 12.6836C12.9429 12.3583 12.8624 12.0296 12.6764 11.7597C12.4905 11.4898 12.2121 11.2974 11.8939 11.2189L10.1039 10.7689C9.78741 10.6888 9.51109 10.4959 9.32678 10.2264C9.14248 9.95701 9.06286 9.62957 9.10289 9.3056C9.14291 8.98162 9.29981 8.6834 9.54414 8.46692C9.78847 8.25044 10.1034 8.1306 10.4299 8.12988H11.4769C11.9859 8.12988 12.4079 8.40888 12.6539 8.81288" stroke="white" stroke-width="1.5" stroke-linecap="round" stroke-linejoin="round"/>
</g>
<defs>
<clipPath id="clip0_3806_10462">
<rect width="24" height="24" fill="white"/>
</clipPath>
</defs>
</svg>
