<svg width="14" height="11" viewBox="0 0 14 11" fill="none" xmlns="http://www.w3.org/2000/svg">
<path fill-rule="evenodd" clip-rule="evenodd" d="M13.5 5.96338C13.5 6.37759 13.1642 6.71338 12.75 6.71338L0.75 6.71338C0.335786 6.71338 -5.08894e-08 6.37759 -3.27835e-08 5.96338C-1.46777e-08 5.54916 0.335786 5.21338 0.75 5.21338L12.75 5.21338C13.1642 5.21338 13.5 5.54917 13.5 5.96338Z" fill="white"/>
<path fill-rule="evenodd" clip-rule="evenodd" d="M5.56695 1.14643C5.85984 1.43932 5.85984 1.91419 5.56695 2.20709L1.81071 5.96333L5.56695 9.71957C5.85984 10.0125 5.85984 10.4873 5.56695 10.7802C5.27406 11.0731 4.79918 11.0731 4.50629 10.7802L0.219719 6.49366C-0.0731738 6.20077 -0.0731737 5.72589 0.219719 5.433L4.50629 1.14643C4.79918 0.853534 5.27406 0.853534 5.56695 1.14643Z" fill="white"/>
</svg>
