<svg width="843" height="291" viewBox="0 0 843 291" fill="none" xmlns="http://www.w3.org/2000/svg">
<path d="M20.7437 254.463L1 220.736V290.5H842V46.2553L825.415 3.92314C824.631 1.92195 822.406 0.898071 820.376 1.60458L789.908 12.2089C788.727 12.6203 787.805 13.5609 787.419 14.751L753.391 119.515C753.17 120.196 752.77 120.806 752.233 121.279L717.575 151.839C717.244 152.13 716.964 152.475 716.745 152.858L700.514 181.331C698.99 184.004 695.144 184.027 693.588 181.372L682.096 161.763L650.473 104.131C648.987 101.422 645.121 101.35 643.534 104.001L611.695 157.193C611.331 157.802 610.811 158.303 610.188 158.645L577.059 176.831C576.469 177.155 575.807 177.324 575.134 177.324H542.014C540.573 177.324 539.243 178.1 538.533 179.355L505.835 237.149C505.423 237.876 504.795 238.456 504.037 238.808L471.182 254.055C469.96 254.622 468.534 254.536 467.389 253.826L435.144 233.816C434.554 233.45 434.071 232.938 433.739 232.329L416.431 200.521C415.278 198.402 412.526 197.779 410.572 199.193L404.16 203.835C401.839 205.515 398.556 204.282 397.916 201.489L365.745 61.1483C364.91 57.5074 359.983 56.8958 358.284 60.222L330.054 115.469C329.078 117.379 326.771 118.179 324.822 117.284L309.759 110.364C308.835 109.939 308.107 109.178 307.724 108.236L290.707 66.3804C290.46 65.7737 290.068 65.2369 289.566 64.817L275.152 52.7768C273.562 51.4482 271.22 51.5545 269.756 53.0217L261.748 61.049C259.691 63.111 256.19 62.3535 255.17 59.6255L237.666 12.8377C237.466 12.3034 237.154 11.8181 236.752 11.4142L227.744 2.38469C225.469 0.104305 221.569 1.31079 220.979 4.47743L201.385 109.703L187.947 171.814C187.277 174.911 183.443 176.037 181.205 173.793L171.366 163.931C169.177 161.736 165.43 162.759 164.66 165.762L153.646 208.697C152.786 212.051 148.359 212.802 146.441 209.918L133.742 190.824C132.48 188.926 129.891 188.465 128.051 189.81L115.967 198.642C115.616 198.899 115.308 199.212 115.057 199.568L95.7668 226.962C95.5553 227.262 95.3863 227.59 95.2643 227.936L81.1714 267.962C80.7254 269.229 79.6735 270.187 78.3708 270.514L62.0376 274.607C61.1228 274.836 60.1721 274.395 59.7563 273.549L46.5905 246.741C45.4907 244.502 42.6317 243.805 40.6245 245.287L26.5714 255.661C24.6589 257.072 21.9446 256.515 20.7437 254.463Z" fill="url(#paint0_linear_3561_57079)" stroke="#1AEFAF"/>
<defs>
<linearGradient id="paint0_linear_3561_57079" x1="425.5" y1="-3" x2="425.5" y2="290.5" gradientUnits="userSpaceOnUse">
<stop stop-color="#53F3C3" stop-opacity="0.6"/>
<stop offset="1" stop-color="#53F3C3" stop-opacity="0"/>
</linearGradient>
</defs>
</svg>
